<?xml version="1.0" encoding="utf-8"?>
<!-- Generator: Adobe Illustrator 25.2.1, SVG Export Plug-In . SVG Version: 6.00 Build 0)  -->
<svg version="1.1" id="Calque_1" xmlns="http://www.w3.org/2000/svg" xmlns:xlink="http://www.w3.org/1999/xlink" x="0px" y="0px"
	 viewBox="0 0 1280 896.87" style="enable-background:new 0 0 1280 896.87;" xml:space="preserve">
<style type="text/css">
	.st0{fill:#333333;}
	.st1{fill:#676767;}
	.st2{fill:#4E4D4D;}
</style>
<g>
	<g>
		<rect x="639.64" y="289.52" class="st0" width="606.5" height="185.37"/>
		<path d="M1254.06,481.2H631.72V283.22h622.33V481.2z M647.56,468.59h590.66V295.83H647.56V468.59z"/>
	</g>
	<g>
		<rect x="639.64" y="95.32" class="st0" width="606.5" height="185.37"/>
		<path d="M1254.06,287H631.72V89.02h622.33V287z M647.56,274.39h590.66V101.63H647.56V274.39z"/>
	</g>
	<g>
		<rect x="639.64" y="22.18" class="st0" width="606.5" height="64.31"/>
		<path d="M1254.06,92.8H631.72V15.88h622.33V92.8z M647.56,80.19h590.66v-51.7H647.56V80.19z"/>
	</g>
	<g>
		<rect x="639.64" y="483.59" class="st0" width="606.5" height="218.51"/>
		<path d="M1254.06,709.53H631.72V476.16h622.33V709.53z M647.56,694.66h590.66V491.02H647.56V694.66z"/>
	</g>
	<g>
		<rect x="23.64" y="289.52" class="st0" width="606.5" height="185.37"/>
		<path d="M638.06,481.2H15.73V283.22h622.33V481.2z M31.56,468.59h590.66V295.83H31.56V468.59z"/>
	</g>
	<g>
		<rect x="23.64" y="95.32" class="st0" width="606.5" height="185.37"/>
		<path d="M638.06,287H15.73V89.02h622.33V287z M31.56,274.39h590.66V101.63H31.56V274.39z"/>
	</g>
	<g>
		<rect x="23.64" y="22.18" class="st0" width="606.5" height="64.31"/>
		<path d="M638.06,92.8H15.73V15.88h622.33V92.8z M31.56,80.19h590.66v-51.7H31.56V80.19z"/>
	</g>
	<g>
		<rect x="23.64" y="483.59" class="st0" width="606.5" height="218.51"/>
		<path d="M638.06,709.53H15.73V476.16h622.33V709.53z M31.56,694.66h590.66V491.02H31.56V694.66z"/>
	</g>
	<g>
		<path class="st1" d="M664.44,471.11c0,0,0-78.35,0-100.96s16.99-23.88,16.99-23.88v-31.5h12.22v32.2c0,0,16.16-0.07,16.16,22.63
			s0,101.51,0,101.51H664.44z"/>
		<path d="M712.96,474.26h-51.67V370.15c0-19.25,11.46-24.85,16.99-26.43v-32.1h18.52v32.61c2.5,0.57,6.08,1.9,9.25,5.06
			c4.58,4.57,6.91,11.4,6.91,20.31V474.26z M667.6,467.96h39.06V369.6c0-18.76-11.69-19.46-13.02-19.48l-3.11-0.04l-0.03-3.11
			v-29.04h-5.91v31.27l-2.92,0.22c-0.55,0.05-14.07,1.47-14.07,20.74V467.96z"/>
	</g>
	<g>
		<path class="st1" d="M723.25,471.29c0,0,0-65.81,0-84.81c0-19,14.09-20.06,14.09-20.06v-26.46h10.13v27.04
			c0,0,13.4-0.06,13.4,19.01s0,85.27,0,85.27H723.25z"/>
		<path d="M764.03,474.44H720.1v-87.96c0-16.05,9.23-21.04,14.09-22.56v-27.11h16.44v27.51c2.1,0.54,4.93,1.71,7.45,4.22
			c3.95,3.93,5.95,9.81,5.95,17.47V474.44z M726.4,468.13h31.32v-82.11c0-15.23-9.22-15.84-10.27-15.86l-3.09-0.06l-0.04-3.1v-23.89
			h-3.83v26.23l-2.92,0.22c-1.12,0.11-11.17,1.49-11.17,16.91V468.13z"/>
	</g>
	<g>
		<path class="st1" d="M819.09,471.29c0,0,0-82.87,0-106.79s16.92-25.26,16.92-25.26v-33.32h12.17v34.06c0,0,16.1-0.07,16.1,23.94
			s0,107.38,0,107.38H819.09z"/>
		<path d="M867.43,474.44h-51.5V364.49c0-20.23,11.41-26.11,16.92-27.77v-33.96h18.47v34.49c2.4,0.57,5.8,1.9,8.87,4.95
			c4.8,4.78,7.23,12.08,7.23,21.7V474.44z M822.24,468.13h38.89V363.91c0-20.35-12.43-20.78-12.96-20.79l-3.1-0.05l-0.03-3.1v-30.9
			h-5.86v33.08l-2.91,0.23c-0.55,0.05-14.02,1.58-14.02,22.12V468.13z"/>
	</g>
	<g>
		<path class="st1" d="M952.09,471.29c0,0,0-70.86,0-91.32s16.99-21.6,16.99-21.6v-28.49h12.22V359c0,0,16.16-0.06,16.16,20.47
			c0,20.53,0,91.82,0,91.82H952.09z"/>
		<path d="M1000.6,474.44h-51.66v-94.47c0-17.62,11.44-22.75,16.99-24.19v-29.05h18.52v29.5c2.65,0.55,6.5,1.9,9.81,5.19
			c4.21,4.2,6.35,10.27,6.35,18.05V474.44z M955.24,468.13h39.05v-88.67c0-6.04-1.51-10.61-4.49-13.58
			c-3.66-3.65-8.44-3.73-8.5-3.73l0,0l-3.16,0.01v-29.13h-5.91v28.29l-2.94,0.2c-1.42,0.11-14.04,1.6-14.04,18.45V468.13z"/>
	</g>
	<g>
		<path class="st1" d="M1060.28,471.29c0,0,0-78.35,0-100.96c0-22.62,15.03-23.88,15.03-23.88v-31.5h10.81v32.2
			c0,0,14.3-0.07,14.3,22.63c0,22.7,0,101.51,0,101.51H1060.28z"/>
		<path d="M1103.58,474.44h-46.45V370.32c0-18.9,9.96-24.64,15.03-26.34v-32.2h17.12v32.67c2.07,0.55,4.85,1.75,7.45,4.34
			c4.55,4.52,6.85,11.58,6.85,20.97V474.44z M1063.43,468.13h33.84v-98.36c0-19.02-10.72-19.47-11.17-19.48l-3.08-0.07l-0.04-3.09
			V318.1h-4.51v31.25l-2.89,0.24c-0.46,0.05-12.14,1.51-12.14,20.74V468.13z"/>
	</g>
	<g>
		<path class="st1" d="M1156.44,471.29c0,0,0-57.59,0-74.22s26.84-17.55,26.84-17.55v-23.16h19.3v23.67c0,0,25.53-0.05,25.53,16.64
			s0,74.62,0,74.62H1156.44z"/>
		<path d="M1231.27,474.44h-77.98v-77.37c0-15.92,19.2-19.62,26.84-20.46v-23.4h25.61v23.82c5.03,0.43,14.85,2.01,20.72,7.87
			c3.19,3.18,4.81,7.14,4.81,11.77V474.44z M1159.6,468.13h65.37v-71.47c0-13.32-22.15-13.48-22.38-13.48l-3.15,0l0-23.67h-13v23.05
			l-3.04,0.11c-0.23,0.01-23.8,1.02-23.8,14.4V468.13z"/>
	</g>
	<g>
		<path class="st1" d="M647.59,277.09c0,0,0-78.35,0-100.96s16.99-23.88,16.99-23.88v-31.5h12.22v32.2c0,0,16.16-0.07,16.16,22.63
			s0,101.51,0,101.51H647.59z"/>
		<path d="M696.1,280.24h-51.66V176.12c0-19.25,11.45-24.85,16.99-26.43v-32.1h18.52v32.61c2.5,0.57,6.07,1.9,9.25,5.06
			c4.58,4.57,6.91,11.4,6.91,20.31V280.24z M650.74,273.93h39.05v-98.36c0-18.76-11.69-19.46-13.02-19.48l-3.11-0.04l-0.03-3.11
			V123.9h-5.91v31.27l-2.92,0.22c-0.55,0.05-14.07,1.47-14.07,20.74V273.93z"/>
	</g>
	<g>
		<path class="st1" d="M1064.02,277.09c0,0,0-63.91,0-82.36s20.7-19.48,20.7-19.48v-25.7h14.89v26.27c0,0,19.69-0.05,19.69,18.46
			s0,82.81,0,82.81H1064.02z"/>
		<path d="M1122.45,280.24h-61.58v-85.52c0-15.07,12.22-20.9,20.7-22.3v-26.03h21.19v26.52c3.6,0.51,9.56,2.01,14.01,6.45
			c3.77,3.76,5.68,8.77,5.68,14.91V280.24z M1067.17,273.93h48.97v-79.66c0-4.4-1.29-7.91-3.83-10.44
			c-4.76-4.75-12.61-4.87-12.7-4.87l0,0l-3.16,0.01V152.7h-8.58v25.54l-3,0.15c-0.72,0.04-17.7,1.15-17.7,16.33V273.93z"/>
	</g>
	<g>
		<path class="st1" d="M797.65,277.09c0,0,0-67.07,0-86.43s14.56-20.44,14.56-20.44v-26.97h10.47v27.56c0,0,13.85-0.06,13.85,19.37
			s0,86.91,0,86.91H797.65z"/>
		<path d="M839.69,280.24H794.5v-89.59c0-16.4,9.59-21.45,14.56-22.96v-27.6h16.78v28.02c2.18,0.54,5.16,1.74,7.8,4.38
			c4.01,4,6.05,9.95,6.05,17.7V280.24z M800.8,273.93h32.58v-83.75c0-15.59-9.62-16.2-10.72-16.22l-3.1-0.05l-0.03-3.1v-24.41h-4.17
			v26.74l-2.92,0.22c-1.17,0.11-11.64,1.52-11.64,17.3V273.93z"/>
	</g>
	<g>
		<path class="st1" d="M994.37,277.09c0,0,0-54.43,0-70.15s15.51-16.59,15.51-16.59v-21.88h11.15v22.37c0,0,14.75-0.05,14.75,15.72
			s0,70.53,0,70.53H994.37z"/>
		<path d="M1038.93,280.24h-47.71v-73.3c0-12.71,8.94-17.89,15.51-19.32v-22.31h17.46v22.72c2.68,0.51,6.56,1.78,9.7,4.9
			c3.35,3.34,5.05,7.93,5.05,13.63V280.24z M997.53,273.93h35.1v-67.38c0-12.13-10.42-12.56-11.6-12.57l-3.13-0.02l-0.02-3.13
			v-19.22h-4.85v21.71l-2.98,0.17c-1.27,0.08-12.53,1.18-12.53,13.44V273.93z"/>
	</g>
	<g>
		<path class="st1" d="M1162.75,277.09c0,0,0-73.39,0-94.58s16.12-22.37,16.12-22.37v-29.51h11.59v30.16c0,0,15.33-0.06,15.33,21.2
			s0,95.09,0,95.09H1162.75z"/>
		<path d="M1208.95,280.24h-49.35v-97.73c0-18.03,10.78-23.37,16.12-24.91v-30.12h17.9v30.58c2.41,0.56,5.8,1.85,8.8,4.84
			c4.34,4.32,6.54,10.74,6.54,19.1V280.24z M1165.9,273.93h36.74v-91.94c0-6.61-1.57-11.54-4.68-14.63
			c-3.35-3.34-7.44-3.42-7.49-3.42c0,0,0,0,0,0l-3.16,0.01v-30.17h-5.29v29.29l-2.92,0.21c-1.33,0.12-13.2,1.68-13.2,19.22V273.93z"
			/>
	</g>
	<g>
		<path class="st1" d="M174.77,471.29c0,0,0-50.64,0-65.26s30.76-15.44,30.76-15.44v-20.36h22.12v20.81c0,0,29.26-0.04,29.26,14.63
			s0,65.62,0,65.62H174.77z"/>
		<path d="M260.06,474.44h-88.44v-68.41c0-14.68,22.13-17.77,30.76-18.42v-20.53h28.42V388c5.98,0.36,18.87,1.87,25.28,8.27
			c2.64,2.64,3.98,5.8,3.98,9.4V474.44z M177.92,468.13h75.83v-62.46c0-4.43-4.09-7.71-12.14-9.73c-6.86-1.72-13.89-1.74-13.96-1.74
			l-3.15,0l0-20.81h-15.81v20.28l-3.07,0.08c-7.18,0.2-27.69,2.88-27.69,12.28V468.13z"/>
	</g>
	<g>
		<path class="st1" d="M564.36,470.94c0,0,0-60.58,0-78.07s15.98-18.46,15.98-18.46v-24.36h11.49v24.89c0,0,15.2-0.05,15.2,17.5
			s0,78.49,0,78.49H564.36z"/>
		<path d="M610.18,474.09h-48.97v-81.22c0-13.97,9.24-19.63,15.98-21.17v-24.8h17.8v25.26c2.64,0.53,6.47,1.82,9.65,4.99
			c3.68,3.67,5.55,8.81,5.55,15.3V474.09z M567.51,467.78h36.36v-75.34c0-4.75-1.24-8.39-3.69-10.83c-3.44-3.43-8.29-3.52-8.34-3.52
			l0,0l-3.16,0.01V353.2h-5.19v24.17l-2.96,0.18c-1.32,0.09-13.02,1.34-13.02,15.32V467.78z"/>
	</g>
	<g>
		<path class="st1" d="M370.16,470.94c0,0,0-78.35,0-100.96c0-22.62,16.99-23.88,16.99-23.88v-31.5h12.22v32.2
			c0,0,16.16-0.07,16.16,22.63s0,101.51,0,101.51H370.16z"/>
		<path d="M418.67,474.09h-51.66V369.97c0-19.25,11.46-24.85,16.99-26.43v-32.1h18.52v32.61c2.5,0.57,6.07,1.9,9.25,5.06
			c4.58,4.57,6.91,11.4,6.91,20.31V474.09z M373.31,467.78h39.05v-98.36c0-18.76-11.69-19.46-13.02-19.48l-3.11-0.04l-0.03-3.11
			v-29.04h-5.91v31.27l-2.92,0.22c-0.55,0.05-14.07,1.47-14.07,20.74V467.78z"/>
	</g>
	<g>
		<path class="st1" d="M285.04,472.83c0,0,0-82.69,0-106.57c0-23.87,21.17-25.2,21.17-25.2v-33.25h15.23v33.98
			c0,0,20.14-0.07,20.14,23.89s0,107.15,0,107.15H285.04z"/>
		<path d="M344.73,475.98h-62.85V366.26c0-20.83,14.73-26.42,21.17-27.87v-33.74h21.53v34.3c3.29,0.56,8.54,2.12,12.9,6.46
			c4.81,4.79,7.24,11.61,7.24,20.26V475.98z M288.19,469.68h50.24v-104c0-6.92-1.81-12.23-5.39-15.8
			c-4.84-4.82-11.51-4.94-11.59-4.94l0,0l-3.16,0.01v-34h-8.92v33.06l-2.95,0.19c-0.73,0.05-18.22,1.53-18.22,22.06V469.68z"/>
	</g>
	<g>
		<path class="st1" d="M114.1,472.2c0,0,0-72.58,0-93.54c0-20.95,14.09-22.12,14.09-22.12v-29.18h10.13v29.83
			c0,0,13.4-0.06,13.4,20.97s0,94.05,0,94.05H114.1z"/>
		<path d="M154.87,475.35h-43.93v-96.69c0-17.49,9.24-22.92,14.09-24.57V324.2h16.44v30.31c1.96,0.54,4.56,1.69,6.98,4.1
			c4.26,4.24,6.42,10.82,6.42,19.54V475.35z M117.25,469.05h31.32v-90.9c0-17.08-9.23-17.79-10.28-17.82l-3.08-0.07l-0.05-3.08
			v-26.68h-3.83v28.93l-2.89,0.24c-0.42,0.05-11.2,1.39-11.2,18.98V469.05z"/>
	</g>
	<g>
		<path class="st1" d="M506.78,276.39c0,0-6.73-57.87-6.73-74.58s32.98-17.64,32.98-17.64V160.9h23.72v23.78
			c0,0,31.37-0.05,31.37,16.72s-6.94,74.99-6.94,74.99H506.78z"/>
		<path d="M583.98,279.54h-80.01l-0.32-2.79c-0.28-2.37-6.75-58.25-6.75-74.95c0-16.36,24.22-19.87,32.98-20.6v-23.46h30.02v23.9
			c6.19,0.37,19.83,2,26.85,9.01c3,3,4.52,6.61,4.52,10.75c0,16.76-6.67,72.98-6.96,75.36L583.98,279.54z M509.59,273.24h68.78
			c1.37-11.77,6.59-57.53,6.59-71.84c0-5.32-4.46-9.22-13.24-11.57c-7.36-1.97-14.9-1.99-14.97-1.99l-3.15,0l0-23.79h-17.41v23.18
			l-3.06,0.09c-0.3,0.01-29.92,1.25-29.92,14.49C503.2,216.06,508.25,261.49,509.59,273.24z"/>
	</g>
	<g>
		<path class="st1" d="M235.86,276.39c0,0,0-43.97,0-56.67s12.67-13.4,12.67-13.4v-17.68h9.11v18.07c0,0,12.05-0.04,12.05,12.7
			c0,12.74,0,56.98,0,56.98H235.86z"/>
		<path d="M272.85,279.54h-40.15v-59.82c0-10.37,7.16-14.76,12.67-16.1v-18.14h15.42v18.46c2.25,0.49,5.31,1.59,7.8,4.07
			c2.82,2.81,4.25,6.65,4.25,11.39V279.54z M239.01,273.24h27.54v-53.82c0-3.01-0.81-5.34-2.4-6.93c-2.57-2.56-6.45-2.62-6.49-2.62
			l0,0l-3.16,0.01v-18.08h-2.81v17.51l-2.98,0.17c-0.98,0.07-9.7,0.92-9.7,10.25V273.24z"/>
	</g>
	<g>
		<path class="st1" d="M336.11,276.39c0,0,0-68.62,0-88.43s20.23-20.91,20.23-20.91v-27.59h14.55v28.2c0,0,19.24-0.06,19.24,19.82
			s0,88.91,0,88.91H336.11z"/>
		<path d="M393.28,279.54h-60.32v-91.58c0-15.98,11.93-22.19,20.23-23.7v-27.95h20.85v28.48c3.39,0.53,8.86,2.03,13.14,6.29
			c4.05,4.04,6.1,9.55,6.1,16.4V279.54z M339.27,273.24h47.71v-85.76c0-16.13-14.44-16.66-16.09-16.67l-3.14-0.01l-0.01-3.14v-25.05
			h-8.24v27.42l-2.98,0.16c-0.69,0.04-17.25,1.25-17.25,17.77V273.24z"/>
	</g>
	<g>
		<path class="st1" d="M69.95,277.65c0,0,0-64.19,0-82.73s14.56-19.57,14.56-19.57v-25.81h10.47v26.38c0,0,13.85-0.05,13.85,18.54
			s0,83.18,0,83.18H69.95z"/>
		<path d="M111.99,280.8H66.8v-85.88c0-14.51,8.36-20.49,14.56-22.19v-26.34h16.78v26.82c2.24,0.54,5.32,1.74,8.01,4.43
			c3.87,3.86,5.84,9.52,5.84,16.83V280.8z M73.1,274.5h32.58v-80.03c0-5.57-1.34-9.73-3.98-12.36c-2.97-2.96-6.66-3.03-6.71-3.03
			l0,0l-3.16,0.01V152.7h-4.17v25.59l-2.93,0.21c-1.17,0.1-11.63,1.44-11.63,16.42V274.5z"/>
	</g>
	<g>
		<g>
			<path class="st2" d="M1138.87,677.57c0,0,9.19,4.96,27.11,5.37c17.36,0.4,24-3.61,27.11-5.78c0,0-1.26-27.01-26.48-18.18
				C1143.92,642.58,1138.87,677.57,1138.87,677.57z"/>
			<path d="M1168.34,685.49c-0.78,0-1.58-0.01-2.41-0.03c-18.31-0.42-27.85-5.46-28.25-5.67l-1.55-0.84l0.25-1.74
				c0.11-0.79,2.92-19.41,13.91-24.07c4.96-2.1,10.58-1.08,16.73,3.05c7.63-2.41,14.02-1.93,18.99,1.43
				c8.88,5.99,9.58,18.88,9.61,19.43l0.07,1.39l-1.14,0.8C1190.63,681.95,1183.7,685.49,1168.34,685.49z M1141.7,676.07
				c3.29,1.33,11.51,4.05,24.34,4.34c14.89,0.34,21.42-2.66,24.39-4.52c-0.41-3.08-1.94-10.53-7.27-14.12
				c-3.85-2.59-9.14-2.73-15.72-0.43l-1.24,0.43l-1.07-0.77c-5.04-3.64-9.37-4.73-12.88-3.24
				C1146.1,660.39,1142.83,670.58,1141.7,676.07z"/>
		</g>
		<g>
			<path class="st1" d="M1192.23,675.9c0,0-0.22-28.37-5.06-45.63c-4.84-17.27-4.9-34.53-4.9-34.53s-7.33-4.85-16.92-4.85
				s-16.87,4.85-16.87,4.85s0.29,23.02-2.59,34.53c-2.88,11.51-5.76,46.04-5.76,46.04s12.9-3.46,26.48-3.46
				C1180.85,672.85,1192.23,675.9,1192.23,675.9z"/>
			<path d="M1137.32,679.67l0.3-3.57c0.12-1.42,2.93-34.87,5.82-46.44c2.76-11.06,2.52-33.66,2.52-33.89l-0.02-1.37l1.14-0.76
				c0.32-0.22,8.03-5.27,18.27-5.27c10.23,0,17.99,5.05,18.31,5.27l1.13,0.74l0.01,1.35c0,0.17,0.12,17.15,4.81,33.86
				c4.87,17.39,5.14,45.12,5.15,46.29l0.03,3.31l-3.2-0.85c-0.11-0.03-11.26-2.96-24.96-2.96c-13.07,0-25.7,3.34-25.83,3.37
				L1137.32,679.67z M1151.01,597.17c0.01,5.33-0.14,23.58-2.67,33.71c-2.26,9.06-4.57,33.15-5.39,42.17
				c4.82-1.05,14.02-2.72,23.66-2.72c10.02,0,18.58,1.46,23.03,2.38c-0.22-7.86-1.15-28.39-4.89-41.77
				c-4.12-14.7-4.84-29.18-4.97-33.75c-2.27-1.23-7.8-3.79-14.43-3.79C1158.73,593.4,1153.28,595.93,1151.01,597.17z"/>
		</g>
	</g>
	<g>
		<g>
			<path class="st2" d="M735.4,681.35c0,0,9.19,4.96,27.11,5.37c17.36,0.4,24-3.61,27.11-5.78c0,0-1.26-27.01-26.48-18.18
				C740.44,646.37,735.4,681.35,735.4,681.35z"/>
			<path d="M764.87,689.27c-0.78,0-1.58-0.01-2.41-0.03c-18.31-0.42-27.85-5.46-28.25-5.67l-1.55-0.84l0.25-1.74
				c0.11-0.79,2.92-19.41,13.91-24.07c4.96-2.1,10.58-1.08,16.73,3.05c7.63-2.41,14.01-1.93,18.99,1.43
				c8.88,5.99,9.58,18.88,9.61,19.43l0.07,1.39l-1.14,0.8C787.15,685.73,780.23,689.27,764.87,689.27z M738.23,679.85
				c3.29,1.33,11.51,4.05,24.34,4.34c14.88,0.34,21.41-2.66,24.39-4.52c-0.41-3.08-1.94-10.53-7.27-14.12
				c-3.85-2.59-9.14-2.73-15.72-0.43l-1.24,0.43l-1.07-0.77c-5.04-3.64-9.37-4.73-12.88-3.24
				C742.62,664.17,739.36,674.36,738.23,679.85z"/>
		</g>
		<g>
			<path class="st1" d="M788.76,679.68c0,0-0.22-28.37-5.06-45.63c-4.84-17.27-4.9-34.53-4.9-34.53s-7.33-4.85-16.92-4.85
				c-9.59,0-16.87,4.85-16.87,4.85s0.29,23.02-2.59,34.53c-2.88,11.51-5.76,46.04-5.76,46.04s12.9-3.46,26.48-3.46
				C777.38,676.63,788.76,679.68,788.76,679.68z"/>
			<path d="M733.85,683.45l0.3-3.57c0.12-1.42,2.93-34.87,5.82-46.44c2.77-11.06,2.52-33.66,2.52-33.89l-0.02-1.37l1.14-0.76
				c0.32-0.22,8.03-5.27,18.27-5.27c10.23,0,17.99,5.05,18.31,5.27l1.13,0.74l0,1.35c0,0.17,0.12,17.15,4.8,33.86
				c4.87,17.39,5.14,45.12,5.15,46.29l0.03,3.31l-3.2-0.85c-0.11-0.03-11.26-2.96-24.96-2.96c-13.07,0-25.7,3.34-25.83,3.37
				L733.85,683.45z M747.54,600.95c0.01,5.33-0.14,23.58-2.68,33.71c-2.26,9.06-4.57,33.15-5.38,42.17
				c4.82-1.05,14.02-2.72,23.66-2.72c10.02,0,18.58,1.45,23.02,2.38c-0.22-7.86-1.15-28.39-4.89-41.77
				c-4.12-14.7-4.84-29.18-4.96-33.75c-2.27-1.23-7.8-3.79-14.43-3.79C755.25,597.19,749.81,599.71,747.54,600.95z"/>
		</g>
	</g>
	<g>
		<g>
			<path class="st2" d="M977.52,677.57c0,0,9.19,4.96,27.11,5.37c17.36,0.4,24-3.61,27.11-5.78c0,0-1.26-27.01-26.48-18.18
				C982.56,642.58,977.52,677.57,977.52,677.57z"/>
			<path d="M1006.98,685.49c-0.78,0-1.58-0.01-2.41-0.03c-18.31-0.42-27.85-5.46-28.25-5.67l-1.55-0.84l0.25-1.74
				c0.11-0.79,2.92-19.41,13.91-24.07c4.95-2.1,10.58-1.08,16.73,3.05c7.63-2.41,14.02-1.93,18.99,1.43
				c8.88,5.99,9.58,18.88,9.61,19.43l0.07,1.39l-1.14,0.8C1029.27,681.95,1022.35,685.49,1006.98,685.49z M980.35,676.07
				c3.29,1.33,11.51,4.05,24.34,4.34c14.89,0.34,21.42-2.66,24.39-4.52c-0.41-3.08-1.94-10.53-7.27-14.12
				c-3.85-2.59-9.14-2.73-15.72-0.43l-1.24,0.43l-1.07-0.77c-5.04-3.64-9.37-4.73-12.88-3.24
				C984.74,660.39,981.48,670.58,980.35,676.07z"/>
		</g>
		<g>
			<path class="st1" d="M1030.88,675.9c0,0-0.22-28.37-5.06-45.63s-4.9-34.53-4.9-34.53s-7.33-4.85-16.92-4.85
				c-9.59,0-16.87,4.85-16.87,4.85s0.29,23.02-2.59,34.53c-2.88,11.51-5.76,46.04-5.76,46.04s12.9-3.46,26.48-3.46
				C1019.5,672.85,1030.88,675.9,1030.88,675.9z"/>
			<path d="M975.97,679.67l0.3-3.57c0.12-1.42,2.93-34.87,5.82-46.44c2.77-11.06,2.52-33.66,2.52-33.89l-0.02-1.37l1.14-0.76
				c0.32-0.22,8.03-5.27,18.27-5.27c10.23,0,17.99,5.05,18.31,5.27l1.13,0.74l0,1.35c0,0.17,0.12,17.15,4.8,33.86
				c4.87,17.39,5.14,45.12,5.15,46.29l0.03,3.31l-3.2-0.85c-0.11-0.03-11.26-2.96-24.96-2.96c-13.07,0-25.7,3.34-25.83,3.37
				L975.97,679.67z M989.66,597.17c0.01,5.33-0.14,23.58-2.68,33.71c-2.26,9.06-4.57,33.15-5.38,42.17
				c4.82-1.05,14.02-2.72,23.66-2.72c10.02,0,18.58,1.46,23.03,2.38c-0.22-7.86-1.15-28.39-4.89-41.77
				c-4.12-14.7-4.84-29.18-4.96-33.75c-2.27-1.23-7.8-3.79-14.43-3.79C997.37,593.4,991.92,595.93,989.66,597.17z"/>
		</g>
	</g>
	<g>
		<g>
			<path class="st2" d="M1037.43,678.42c0,0,9.19,4.96,27.11,5.37c17.36,0.4,24-3.61,27.11-5.78c0,0-1.26-27.01-26.48-18.18
				C1042.48,643.44,1037.43,678.42,1037.43,678.42z"/>
			<path d="M1066.89,686.35c-0.78,0-1.58-0.01-2.41-0.03c-18.31-0.42-27.85-5.46-28.25-5.67l-1.55-0.84l0.25-1.74
				c0.11-0.79,2.92-19.41,13.91-24.07c4.96-2.1,10.58-1.08,16.73,3.05c7.63-2.41,14.02-1.93,18.99,1.43
				c8.88,5.99,9.58,18.88,9.61,19.43l0.07,1.39l-1.14,0.8C1089.19,682.81,1082.26,686.35,1066.89,686.35z M1040.26,676.93
				c3.29,1.33,11.51,4.05,24.34,4.35c14.89,0.34,21.42-2.66,24.39-4.52c-0.41-3.08-1.94-10.53-7.27-14.12
				c-3.85-2.59-9.14-2.73-15.72-0.43l-1.24,0.43l-1.07-0.77c-5.04-3.64-9.37-4.73-12.88-3.24
				C1044.66,661.25,1041.39,671.44,1040.26,676.93z"/>
		</g>
		<g>
			<path class="st1" d="M1090.79,676.76c0,0-0.22-28.37-5.06-45.63c-4.84-17.27-4.9-34.53-4.9-34.53s-7.33-4.85-16.92-4.85
				s-16.87,4.85-16.87,4.85s0.29,23.02-2.59,34.53c-2.88,11.51-5.76,46.04-5.76,46.04s12.9-3.46,26.48-3.46
				C1079.41,673.71,1090.79,676.76,1090.79,676.76z"/>
			<path d="M1035.88,680.53l0.3-3.57c0.12-1.42,2.93-34.87,5.82-46.44c2.77-11.06,2.52-33.66,2.52-33.89l-0.02-1.37l1.14-0.76
				c0.32-0.22,8.03-5.27,18.27-5.27c10.23,0,17.99,5.05,18.31,5.27l1.13,0.74l0,1.35c0,0.17,0.12,17.15,4.8,33.86
				c4.87,17.39,5.14,45.12,5.15,46.29l0.03,3.31l-3.2-0.85c-0.11-0.03-11.26-2.96-24.96-2.96c-13.1,0-25.7,3.34-25.83,3.37
				L1035.88,680.53z M1049.57,598.03c0.01,5.33-0.14,23.58-2.68,33.71c-2.26,9.05-4.57,33.15-5.38,42.17
				c4.82-1.05,14.02-2.72,23.66-2.72c10.02,0,18.58,1.45,23.02,2.38c-0.22-7.86-1.15-28.39-4.89-41.77
				c-4.12-14.7-4.84-29.18-4.96-33.75c-2.27-1.23-7.8-3.79-14.43-3.79C1057.29,594.26,1051.84,596.79,1049.57,598.03z"/>
		</g>
	</g>
	<g>
		<g>
			<path class="st2" d="M529.23,682.21c0,0,9.19,4.96,27.11,5.37c17.36,0.4,24-3.61,27.11-5.78c0,0-1.26-27.01-26.48-18.18
				C534.28,647.23,529.23,682.21,529.23,682.21z"/>
			<path d="M558.7,690.13c-0.78,0-1.58-0.01-2.41-0.03c-18.32-0.42-27.86-5.46-28.25-5.67l-1.55-0.84l0.25-1.74
				c0.11-0.79,2.92-19.41,13.91-24.07c4.96-2.11,10.58-1.08,16.73,3.05c7.63-2.41,14.02-1.93,18.99,1.43
				c8.88,5.99,9.58,18.88,9.61,19.43l0.07,1.39l-1.14,0.8C580.99,686.59,574.06,690.13,558.7,690.13z M532.06,680.71
				c3.29,1.33,11.51,4.05,24.34,4.35c14.89,0.34,21.42-2.66,24.39-4.52c-0.41-3.08-1.94-10.53-7.27-14.12
				c-3.85-2.59-9.14-2.73-15.72-0.43l-1.24,0.43l-1.07-0.77c-5.04-3.64-9.37-4.73-12.88-3.24
				C536.46,665.03,533.19,675.22,532.06,680.71z"/>
		</g>
		<g>
			<path class="st1" d="M582.59,680.54c0,0-0.22-28.37-5.06-45.63c-4.84-17.27-4.9-34.53-4.9-34.53s-7.33-4.85-16.92-4.85
				c-9.59,0-16.87,4.85-16.87,4.85s0.29,23.02-2.59,34.53c-2.88,11.51-5.76,46.04-5.76,46.04s12.9-3.46,26.48-3.46
				C571.22,677.49,582.59,680.54,582.59,680.54z"/>
			<path d="M527.68,684.31l0.3-3.57c0.12-1.42,2.93-34.87,5.82-46.44c2.77-11.06,2.52-33.66,2.52-33.89l-0.02-1.37l1.14-0.76
				c0.32-0.22,8.03-5.27,18.27-5.27c10.23,0,17.99,5.05,18.32,5.27l1.13,0.74l0,1.35c0,0.17,0.12,17.15,4.8,33.86
				c4.87,17.39,5.14,45.12,5.15,46.29l0.03,3.31l-3.2-0.85c-0.11-0.03-11.26-2.96-24.96-2.96c-13.07,0-25.7,3.34-25.83,3.37
				L527.68,684.31z M541.37,601.81c0.01,5.33-0.15,23.58-2.68,33.7c-2.26,9.06-4.57,33.15-5.39,42.17
				c4.82-1.05,14.02-2.72,23.66-2.72c10.02,0,18.58,1.45,23.03,2.38c-0.22-7.86-1.15-28.39-4.89-41.77
				c-4.12-14.7-4.84-29.18-4.96-33.75c-2.27-1.23-7.8-3.79-14.43-3.79C549.13,598.05,543.65,600.58,541.37,601.81z"/>
		</g>
	</g>
	<g>
		<g>
			<path class="st2" d="M205.68,682.21c0,0,9.19,4.96,27.11,5.37c17.36,0.4,24-3.61,27.11-5.78c0,0-1.26-27.01-26.48-18.18
				C210.72,647.23,205.68,682.21,205.68,682.21z"/>
			<path d="M235.14,690.13c-0.78,0-1.58-0.01-2.41-0.03c-18.32-0.42-27.86-5.46-28.25-5.67l-1.55-0.84l0.25-1.74
				c0.11-0.79,2.92-19.41,13.91-24.07c4.96-2.11,10.58-1.08,16.73,3.05c7.63-2.41,14.02-1.93,18.99,1.43
				c8.88,5.99,9.58,18.88,9.61,19.43l0.06,1.39l-1.14,0.8C257.43,686.59,250.51,690.13,235.14,690.13z M208.5,680.71
				c3.29,1.33,11.51,4.05,24.34,4.35c14.9,0.34,21.42-2.66,24.39-4.52c-0.41-3.08-1.94-10.53-7.27-14.12
				c-3.85-2.59-9.14-2.73-15.72-0.43l-1.24,0.43l-1.07-0.77c-5.03-3.64-9.37-4.73-12.88-3.24
				C212.9,665.03,209.64,675.22,208.5,680.71z"/>
		</g>
		<g>
			<path class="st1" d="M259.04,680.54c0,0-0.22-28.37-5.06-45.63c-4.84-17.27-4.9-34.53-4.9-34.53s-7.33-4.85-16.92-4.85
				s-16.87,4.85-16.87,4.85s0.29,23.02-2.59,34.53c-2.88,11.51-5.76,46.04-5.76,46.04s12.9-3.46,26.48-3.46
				C247.66,677.49,259.04,680.54,259.04,680.54z"/>
			<path d="M204.13,684.31l0.3-3.57c0.12-1.42,2.93-34.87,5.82-46.44c2.76-11.06,2.52-33.66,2.52-33.89l-0.02-1.37l1.14-0.76
				c0.32-0.22,8.03-5.27,18.27-5.27c10.23,0,17.99,5.05,18.31,5.27l1.12,0.74l0.01,1.35c0,0.17,0.12,17.15,4.8,33.86
				c4.87,17.39,5.14,45.12,5.15,46.29l0.03,3.31l-3.2-0.85c-0.11-0.03-11.26-2.96-24.96-2.96c-13.07,0-25.7,3.34-25.83,3.37
				L204.13,684.31z M217.82,601.81c0.01,5.33-0.14,23.58-2.68,33.71c-2.26,9.06-4.57,33.15-5.39,42.17
				c4.82-1.05,14.02-2.72,23.66-2.72c10.02,0,18.58,1.45,23.03,2.38c-0.22-7.86-1.15-28.39-4.89-41.77
				c-4.12-14.7-4.84-29.18-4.97-33.75c-2.27-1.23-7.8-3.79-14.43-3.79C225.53,598.05,220.08,600.57,217.82,601.81z"/>
		</g>
	</g>
	<g>
		<g>
			<path class="st2" d="M364.17,689.77c0,0,9.19,4.96,27.11,5.37c17.36,0.4,24-3.61,27.11-5.78c0,0-1.26-27.01-26.48-18.18
				C369.22,654.79,364.17,689.77,364.17,689.77z"/>
			<path d="M393.64,697.7c-0.78,0-1.58-0.01-2.41-0.03c-18.32-0.42-27.86-5.46-28.25-5.67l-1.55-0.84l0.25-1.74
				c0.11-0.79,2.92-19.41,13.91-24.07c4.96-2.1,10.58-1.08,16.73,3.05c7.63-2.41,14.02-1.93,18.99,1.43
				c8.88,5.99,9.58,18.88,9.61,19.43l0.06,1.39l-1.14,0.8C415.93,694.16,409,697.7,393.64,697.7z M367,688.28
				c3.29,1.33,11.51,4.05,24.34,4.35c14.9,0.33,21.42-2.66,24.39-4.52c-0.41-3.08-1.94-10.53-7.27-14.12
				c-3.85-2.59-9.14-2.73-15.72-0.43l-1.24,0.43l-1.07-0.77c-5.04-3.64-9.37-4.73-12.88-3.24C371.4,672.6,368.13,682.79,367,688.28z
				"/>
		</g>
		<g>
			<path class="st1" d="M417.53,688.1c0,0-0.22-28.37-5.06-45.63s-4.9-34.53-4.9-34.53s-7.33-4.85-16.92-4.85
				s-16.87,4.85-16.87,4.85s0.29,23.02-2.59,34.53c-2.88,11.51-5.76,46.04-5.76,46.04s12.9-3.46,26.48-3.46
				C406.15,685.06,417.53,688.1,417.53,688.1z"/>
			<path d="M362.62,691.87l0.3-3.57c0.12-1.42,2.93-34.87,5.82-46.44c2.76-11.06,2.52-33.66,2.52-33.89l-0.02-1.37l1.14-0.76
				c0.32-0.22,8.03-5.27,18.27-5.27c10.23,0,17.99,5.05,18.31,5.27l1.12,0.74l0.01,1.35c0,0.17,0.12,17.15,4.8,33.86
				c4.87,17.39,5.14,45.12,5.15,46.29l0.03,3.31l-3.2-0.85c-0.11-0.03-11.26-2.96-24.96-2.96c-13.07,0-25.7,3.34-25.83,3.37
				L362.62,691.87z M376.31,609.38c0.01,5.33-0.14,23.58-2.68,33.71c-2.26,9.06-4.57,33.15-5.39,42.17
				c4.82-1.05,14.02-2.72,23.66-2.72c10.02,0,18.58,1.45,23.03,2.38c-0.22-7.86-1.15-28.39-4.89-41.77
				c-4.12-14.7-4.84-29.18-4.97-33.75c-2.27-1.23-7.8-3.79-14.43-3.79C384.03,605.61,378.58,608.14,376.31,609.38z"/>
		</g>
	</g>
	<g>
		<g>
			<path class="st2" d="M296.08,685.99c0,0,9.19,4.96,27.11,5.37c17.36,0.4,24-3.61,27.11-5.78c0,0-1.26-27.01-26.48-18.18
				C301.12,651.01,296.08,685.99,296.08,685.99z"/>
			<path d="M325.54,693.91c-0.78,0-1.58-0.01-2.41-0.03c-18.32-0.42-27.86-5.46-28.25-5.67l-1.55-0.84l0.25-1.74
				c0.11-0.79,2.92-19.41,13.91-24.07c4.96-2.1,10.58-1.08,16.73,3.05c7.63-2.41,14.01-1.93,18.99,1.43
				c8.88,5.99,9.58,18.88,9.61,19.43l0.06,1.39l-1.14,0.8C347.83,690.38,340.91,693.91,325.54,693.91z M298.9,684.5
				c3.29,1.33,11.51,4.05,24.34,4.35c14.9,0.34,21.42-2.66,24.39-4.52c-0.41-3.08-1.94-10.53-7.27-14.12
				c-3.85-2.59-9.14-2.73-15.72-0.43l-1.24,0.43l-1.07-0.77c-5.03-3.64-9.37-4.73-12.88-3.24C303.3,668.81,300.04,679,298.9,684.5z"
				/>
		</g>
		<g>
			<path class="st1" d="M349.44,684.32c0,0-0.22-28.37-5.06-45.63s-4.9-34.53-4.9-34.53s-7.33-4.85-16.92-4.85
				s-16.87,4.85-16.87,4.85s0.29,23.02-2.59,34.53c-2.88,11.51-5.76,46.04-5.76,46.04s12.9-3.46,26.48-3.46
				C338.06,681.27,349.44,684.32,349.44,684.32z"/>
			<path d="M294.53,688.09l0.3-3.57c0.12-1.42,2.93-34.87,5.82-46.44c2.76-11.06,2.52-33.66,2.52-33.89l-0.02-1.37l1.14-0.76
				c0.32-0.22,8.03-5.27,18.27-5.27c10.23,0,17.99,5.05,18.31,5.27l1.12,0.74l0.01,1.35c0,0.17,0.12,17.15,4.8,33.86
				c4.87,17.39,5.14,45.12,5.15,46.29l0.03,3.31l-3.2-0.85c-0.11-0.03-11.26-2.96-24.96-2.96c-13.07,0-25.7,3.34-25.83,3.37
				L294.53,688.09z M308.22,605.59c0.01,5.33-0.14,23.58-2.68,33.71c-2.26,9.06-4.57,33.15-5.39,42.17
				c4.82-1.05,14.02-2.72,23.66-2.72c10.02,0,18.58,1.46,23.03,2.38c-0.22-7.86-1.15-28.39-4.89-41.77
				c-4.12-14.7-4.84-29.18-4.97-33.75c-2.27-1.23-7.8-3.79-14.43-3.79C315.93,601.83,310.48,604.36,308.22,605.59z"/>
		</g>
	</g>
	<g>
		<g>
			<path class="st2" d="M84.96,685.99c0,0,9.19,4.96,27.11,5.37c17.36,0.4,24-3.61,27.11-5.78c0,0-1.26-27.01-26.48-18.18
				C90,651.01,84.96,685.99,84.96,685.99z"/>
			<path d="M114.42,693.91c-0.78,0-1.58-0.01-2.41-0.03c-18.32-0.42-27.86-5.46-28.25-5.67l-1.55-0.84l0.25-1.74
				c0.11-0.79,2.92-19.41,13.91-24.07c4.96-2.1,10.58-1.08,16.73,3.05c7.63-2.41,14.02-1.93,18.99,1.43
				c8.88,5.99,9.58,18.88,9.61,19.43l0.06,1.39l-1.14,0.8C136.71,690.38,129.79,693.91,114.42,693.91z M87.79,684.5
				c3.29,1.33,11.51,4.05,24.34,4.35c14.9,0.34,21.42-2.66,24.39-4.52c-0.41-3.08-1.94-10.53-7.27-14.12
				c-3.85-2.59-9.14-2.73-15.72-0.43l-1.24,0.43l-1.07-0.77c-5.03-3.64-9.37-4.73-12.88-3.24C92.18,668.81,88.92,679,87.79,684.5z"
				/>
		</g>
		<g>
			<path class="st1" d="M138.32,684.32c0,0-0.22-28.37-5.06-45.63s-4.9-34.53-4.9-34.53s-7.33-4.85-16.92-4.85
				s-16.87,4.85-16.87,4.85s0.29,23.02-2.59,34.53c-2.88,11.51-5.76,46.04-5.76,46.04s12.9-3.46,26.48-3.46
				C126.94,681.27,138.32,684.32,138.32,684.32z"/>
			<path d="M83.41,688.09l0.3-3.57c0.12-1.42,2.93-34.87,5.82-46.44c2.76-11.06,2.52-33.66,2.52-33.89l-0.02-1.37l1.14-0.76
				c0.32-0.22,8.03-5.27,18.27-5.27c10.23,0,17.99,5.05,18.31,5.27l1.12,0.74l0.01,1.35c0,0.17,0.12,17.15,4.8,33.86
				c4.87,17.39,5.14,45.12,5.15,46.29l0.03,3.31l-3.2-0.85c-0.11-0.03-11.26-2.96-24.96-2.96c-13.07,0-25.7,3.34-25.83,3.37
				L83.41,688.09z M97.1,605.59c0.01,5.33-0.14,23.58-2.68,33.71c-2.26,9.06-4.57,33.15-5.39,42.17c4.82-1.05,14.02-2.72,23.66-2.72
				c10.02,0,18.58,1.46,23.03,2.38c-0.22-7.86-1.15-28.39-4.89-41.77c-4.12-14.7-4.84-29.18-4.97-33.75
				c-2.27-1.23-7.8-3.79-14.43-3.79C104.81,601.83,99.36,604.36,97.1,605.59z"/>
		</g>
	</g>
</g>
</svg>
