<?xml version="1.0" encoding="utf-8"?>
<!-- Generator: Adobe Illustrator 25.2.1, SVG Export Plug-In . SVG Version: 6.00 Build 0)  -->
<svg version="1.1" id="Calque_1" xmlns="http://www.w3.org/2000/svg" xmlns:xlink="http://www.w3.org/1999/xlink" x="0px" y="0px"
	 viewBox="0 0 1920 1080" style="enable-background:new 0 0 1920 1080;" xml:space="preserve">
<style type="text/css">
	.st0{fill:#414B67;}
	.st1{fill:#FFFFFF;}
	.st2{fill:#333333;}
	.st3{fill:#676767;}
	.st4{fill:#B3B3B2;}
	.st5{fill:#4E4D4D;}
</style>
<g>
	<g>
		<path d="M1793.36,66.63H143.06c-48.86,0-88.47,39.61-88.47,88.47v794.06c0,48.86,39.61,88.47,88.47,88.47h1650.31
			c48.86,0,88.47-39.61,88.47-88.47V155.1C1881.83,106.24,1842.22,66.63,1793.36,66.63z M1504.42,834.85
			c0,53.29-43.2,96.5-96.5,96.5H710.16c-53.29,0-96.5-43.2-96.5-96.5V211.41c0-53.29,43.2-96.5,96.5-96.5h697.76
			c53.29,0,96.5,43.2,96.5,96.5V834.85z"/>
		<path d="M1793.36,1040.15H143.06c-50.17,0-90.99-40.82-90.99-90.99V155.1c0-50.17,40.82-90.99,90.99-90.99h1650.31
			c50.17,0,90.99,40.82,90.99,90.99v794.06C1884.35,999.33,1843.53,1040.15,1793.36,1040.15z M143.06,69.15
			c-47.39,0-85.94,38.55-85.94,85.94v794.06c0,47.39,38.55,85.94,85.94,85.94h1650.31c47.39,0,85.94-38.55,85.94-85.94V155.1
			c0-47.39-38.55-85.94-85.94-85.94H143.06z M1407.92,933.87H710.16c-54.6,0-99.02-44.42-99.02-99.02V211.41
			c0-54.6,44.42-99.02,99.02-99.02h697.76c54.6,0,99.02,44.42,99.02,99.02v623.44C1506.94,889.45,1462.52,933.87,1407.92,933.87z
			 M710.16,117.44c-51.82,0-93.97,42.16-93.97,93.97v623.44c0,51.82,42.16,93.97,93.97,93.97h697.76
			c51.82,0,93.97-42.16,93.97-93.97V211.41c0-51.82-42.16-93.97-93.97-93.97H710.16z"/>
	</g>
	<g>
		<path class="st0" d="M1775.71,42.67H125.4c-48.86,0-88.47,39.61-88.47,88.47V925.2c0,48.86,39.61,88.47,88.47,88.47h1650.31
			c48.86,0,88.47-39.61,88.47-88.47V131.14C1864.17,82.28,1824.57,42.67,1775.71,42.67z M1504.42,834.85
			c0,53.29-43.2,96.5-96.5,96.5H710.16c-53.29,0-96.5-43.2-96.5-96.5V211.41c0-53.29,43.2-96.5,96.5-96.5h697.76
			c53.29,0,96.5,43.2,96.5,96.5V834.85z"/>
		<path d="M1775.71,1016.19H125.4c-50.17,0-90.99-40.82-90.99-90.99V131.14c0-50.17,40.82-90.99,90.99-90.99h1650.31
			c50.17,0,90.99,40.82,90.99,90.99V925.2C1866.7,975.37,1825.88,1016.19,1775.71,1016.19z M125.4,45.19
			c-47.39,0-85.94,38.55-85.94,85.94V925.2c0,47.39,38.55,85.94,85.94,85.94h1650.31c47.39,0,85.94-38.55,85.94-85.94V131.14
			c0-47.39-38.55-85.94-85.94-85.94H125.4z M1407.92,933.87H710.16c-54.6,0-99.02-44.42-99.02-99.02V211.41
			c0-54.6,44.42-99.02,99.02-99.02h697.76c54.6,0,99.02,44.42,99.02,99.02v623.44C1506.94,889.45,1462.52,933.87,1407.92,933.87z
			 M710.16,117.44c-51.82,0-93.97,42.16-93.97,93.97v623.44c0,51.82,42.16,93.97,93.97,93.97h697.76
			c51.82,0,93.97-42.16,93.97-93.97V211.41c0-51.82-42.16-93.97-93.97-93.97H710.16z"/>
	</g>
	<path d="M1481.38,148.87c14.35,16.84,23.04,38.67,23.04,62.54v623.44c0,53.29-43.2,96.5-96.5,96.5H710.16
		c-20.79,0-40.02-6.6-55.78-17.78c17.7,20.77,44.03,33.96,73.46,33.96h697.76c53.29,0,96.5-43.2,96.5-96.5V227.59
		C1522.1,195.09,1506.01,166.36,1481.38,148.87z"/>
	<path d="M1407.92,933.87H710.16c-54.6,0-99.02-44.42-99.02-99.02V211.41c0-54.6,44.42-99.02,99.02-99.02h697.76
		c54.6,0,99.02,44.42,99.02,99.02v623.44C1506.94,889.45,1462.52,933.87,1407.92,933.87z M710.16,117.44
		c-51.82,0-93.97,42.16-93.97,93.97v623.44c0,51.82,42.16,93.97,93.97,93.97h697.76c51.82,0,93.97-42.16,93.97-93.97V211.41
		c0-51.82-42.16-93.97-93.97-93.97H710.16z"/>
	<g>
		<path d="M145.82,969.39c-34.31,0-62.23-27.92-62.23-62.23c0-34.31,27.92-62.23,62.23-62.23s62.23,27.92,62.23,62.23
			C208.05,941.48,180.14,969.39,145.82,969.39z M145.82,857.55c-27.36,0-49.62,22.26-49.62,49.62c0,27.36,22.26,49.62,49.62,49.62
			s49.62-22.26,49.62-49.62C195.44,879.8,173.18,857.55,145.82,857.55z"/>
		<g>
			<path d="M161.45,879.37c3.25,0,6.31,1.27,8.61,3.57c4.75,4.75,4.75,12.47,0,17.22l-31.24,31.24c-2.3,2.3-5.36,3.57-8.61,3.57
				c-3.25,0-6.31-1.27-8.61-3.57c-4.75-4.75-4.75-12.47,0-17.22l31.24-31.24C155.14,880.63,158.19,879.37,161.45,879.37
				 M161.45,867.16c-6.24,0-12.48,2.38-17.24,7.14l-31.24,31.24c-9.52,9.52-9.52,24.96,0,34.48h0c4.76,4.76,11,7.14,17.24,7.14
				c6.24,0,12.48-2.38,17.24-7.14l31.24-31.24c9.52-9.52,9.52-24.96,0-34.48l0,0C173.92,869.54,167.68,867.16,161.45,867.16
				L161.45,867.16z"/>
			<path d="M130.2,879.37c3.25,0,6.31,1.27,8.61,3.57l31.24,31.24c4.75,4.75,4.75,12.47,0,17.22c-2.3,2.3-5.36,3.57-8.61,3.57
				c-3.25,0-6.31-1.27-8.61-3.57l-31.24-31.24c-4.75-4.75-4.75-12.47,0-17.22C123.89,880.63,126.95,879.37,130.2,879.37
				 M130.2,867.16c-6.24,0-12.48,2.38-17.24,7.14l0,0c-9.52,9.52-9.52,24.96,0,34.48l31.24,31.24c4.76,4.76,11,7.14,17.24,7.14
				c6.24,0,12.48-2.38,17.24-7.14h0c9.52-9.52,9.52-24.96,0-34.48l-31.24-31.24C142.68,869.54,136.44,867.16,130.2,867.16
				L130.2,867.16z"/>
			<path class="st1" d="M130.2,879.37c3.25,0,6.31,1.27,8.61,3.57l31.24,31.24c4.75,4.75,4.75,12.47,0,17.22
				c-2.3,2.3-5.36,3.57-8.61,3.57c-3.25,0-6.31-1.27-8.61-3.57l-31.24-31.24c-4.75-4.75-4.75-12.47,0-17.22
				C123.89,880.63,126.95,879.37,130.2,879.37"/>
			<path class="st1" d="M161.45,879.37c3.25,0,6.31,1.27,8.61,3.57c4.75,4.75,4.75,12.47,0,17.22l-31.24,31.24
				c-2.3,2.3-5.36,3.57-8.61,3.57c-3.25,0-6.31-1.27-8.61-3.57c-4.75-4.75-4.75-12.47,0-17.22l31.24-31.24
				C155.14,880.63,158.19,879.37,161.45,879.37"/>
		</g>
	</g>
	<g>
		<path d="M1748.98,969.39c-34.31,0-62.23-27.92-62.23-62.23c0-34.31,27.92-62.23,62.23-62.23c34.31,0,62.23,27.92,62.23,62.23
			C1811.21,941.48,1783.3,969.39,1748.98,969.39z M1748.98,857.55c-27.36,0-49.62,22.26-49.62,49.62
			c0,27.36,22.26,49.62,49.62,49.62s49.62-22.26,49.62-49.62C1798.6,879.8,1776.34,857.55,1748.98,857.55z"/>
		<g>
			<path d="M1764.6,879.37c3.25,0,6.31,1.27,8.61,3.57c4.75,4.75,4.75,12.47,0,17.22l-31.24,31.24c-2.3,2.3-5.36,3.57-8.61,3.57
				c-3.25,0-6.31-1.27-8.61-3.57c-4.75-4.75-4.75-12.47,0-17.22l31.24-31.24C1758.29,880.63,1761.35,879.37,1764.6,879.37
				 M1764.6,867.16c-6.24,0-12.48,2.38-17.24,7.14l-31.24,31.24c-9.52,9.52-9.52,24.96,0,34.48h0c4.76,4.76,11,7.14,17.24,7.14
				s12.48-2.38,17.24-7.14l31.24-31.24c9.52-9.52,9.52-24.96,0-34.48l0,0C1777.08,869.54,1770.84,867.16,1764.6,867.16
				L1764.6,867.16z"/>
			<path d="M1733.36,879.37c3.25,0,6.31,1.27,8.61,3.57l31.24,31.24c4.75,4.75,4.75,12.47,0,17.22c-2.3,2.3-5.36,3.57-8.61,3.57
				c-3.25,0-6.31-1.27-8.61-3.57l-31.24-31.24c-4.75-4.75-4.75-12.47,0-17.22C1727.05,880.63,1730.11,879.37,1733.36,879.37
				 M1733.36,867.16c-6.24,0-12.48,2.38-17.24,7.14l0,0c-9.52,9.52-9.52,24.96,0,34.48l31.24,31.24c4.76,4.76,11,7.14,17.24,7.14
				s12.48-2.38,17.24-7.14h0c9.52-9.52,9.52-24.96,0-34.48l-31.24-31.24C1745.84,869.54,1739.6,867.16,1733.36,867.16
				L1733.36,867.16z"/>
			<path class="st1" d="M1733.36,879.37c3.25,0,6.31,1.27,8.61,3.57l31.24,31.24c4.75,4.75,4.75,12.47,0,17.22
				c-2.3,2.3-5.36,3.57-8.61,3.57c-3.25,0-6.31-1.27-8.61-3.57l-31.24-31.24c-4.75-4.75-4.75-12.47,0-17.22
				C1727.05,880.63,1730.11,879.37,1733.36,879.37"/>
			<path class="st1" d="M1764.6,879.37c3.25,0,6.31,1.27,8.61,3.57c4.75,4.75,4.75,12.47,0,17.22l-31.24,31.24
				c-2.3,2.3-5.36,3.57-8.61,3.57c-3.25,0-6.31-1.27-8.61-3.57c-4.75-4.75-4.75-12.47,0-17.22l31.24-31.24
				C1758.29,880.63,1761.35,879.37,1764.6,879.37"/>
		</g>
	</g>
	<g>
		<path d="M145.82,208.83c-34.31,0-62.23-27.92-62.23-62.23c0-34.31,27.92-62.23,62.23-62.23s62.23,27.92,62.23,62.23
			C208.05,180.91,180.14,208.83,145.82,208.83z M145.82,96.98c-27.36,0-49.62,22.26-49.62,49.62c0,27.36,22.26,49.62,49.62,49.62
			s49.62-22.26,49.62-49.62C195.44,119.24,173.18,96.98,145.82,96.98z"/>
		<g>
			<path d="M161.45,118.8c3.25,0,6.31,1.27,8.61,3.57c4.75,4.75,4.75,12.47,0,17.22l-31.24,31.24c-2.3,2.3-5.36,3.57-8.61,3.57
				c-3.25,0-6.31-1.27-8.61-3.57c-4.75-4.75-4.75-12.47,0-17.22l31.24-31.24C155.14,120.07,158.19,118.8,161.45,118.8 M161.45,106.6
				c-6.24,0-12.48,2.38-17.24,7.14l-31.24,31.24c-9.52,9.52-9.52,24.96,0,34.48h0c4.76,4.76,11,7.14,17.24,7.14
				c6.24,0,12.48-2.38,17.24-7.14l31.24-31.24c9.52-9.52,9.52-24.96,0-34.48l0,0C173.92,108.98,167.68,106.6,161.45,106.6
				L161.45,106.6z"/>
			<path d="M130.2,118.8c3.25,0,6.31,1.27,8.61,3.57l31.24,31.24c4.75,4.75,4.75,12.47,0,17.22c-2.3,2.3-5.36,3.57-8.61,3.57
				c-3.25,0-6.31-1.27-8.61-3.57l-31.24-31.24c-4.75-4.75-4.75-12.47,0-17.22C123.89,120.07,126.95,118.8,130.2,118.8 M130.2,106.6
				c-6.24,0-12.48,2.38-17.24,7.14l0,0c-9.52,9.52-9.52,24.96,0,34.48l31.24,31.24c4.76,4.76,11,7.14,17.24,7.14
				c6.24,0,12.48-2.38,17.24-7.14h0c9.52-9.52,9.52-24.96,0-34.48l-31.24-31.24C142.68,108.98,136.44,106.6,130.2,106.6L130.2,106.6
				z"/>
			<path class="st1" d="M130.2,118.8c3.25,0,6.31,1.27,8.61,3.57l31.24,31.24c4.75,4.75,4.75,12.47,0,17.22
				c-2.3,2.3-5.36,3.57-8.61,3.57c-3.25,0-6.31-1.27-8.61-3.57l-31.24-31.24c-4.75-4.75-4.75-12.47,0-17.22
				C123.89,120.07,126.95,118.8,130.2,118.8"/>
			<path class="st1" d="M161.45,118.8c3.25,0,6.31,1.27,8.61,3.57c4.75,4.75,4.75,12.47,0,17.22l-31.24,31.24
				c-2.3,2.3-5.36,3.57-8.61,3.57c-3.25,0-6.31-1.27-8.61-3.57c-4.75-4.75-4.75-12.47,0-17.22l31.24-31.24
				C155.14,120.07,158.19,118.8,161.45,118.8"/>
		</g>
	</g>
	<g>
		<path d="M1748.98,208.83c-34.31,0-62.23-27.92-62.23-62.23c0-34.31,27.92-62.23,62.23-62.23c34.31,0,62.23,27.92,62.23,62.23
			C1811.21,180.91,1783.3,208.83,1748.98,208.83z M1748.98,96.98c-27.36,0-49.62,22.26-49.62,49.62c0,27.36,22.26,49.62,49.62,49.62
			s49.62-22.26,49.62-49.62C1798.6,119.24,1776.34,96.98,1748.98,96.98z"/>
		<g>
			<path d="M1764.6,118.8c3.25,0,6.31,1.27,8.61,3.57c4.75,4.75,4.75,12.47,0,17.22l-31.24,31.24c-2.3,2.3-5.36,3.57-8.61,3.57
				c-3.25,0-6.31-1.27-8.61-3.57c-4.75-4.75-4.75-12.47,0-17.22l31.24-31.24C1758.29,120.07,1761.35,118.8,1764.6,118.8
				 M1764.6,106.6c-6.24,0-12.48,2.38-17.24,7.14l-31.24,31.24c-9.52,9.52-9.52,24.96,0,34.48h0c4.76,4.76,11,7.14,17.24,7.14
				s12.48-2.38,17.24-7.14l31.24-31.24c9.52-9.52,9.52-24.96,0-34.48l0,0C1777.08,108.98,1770.84,106.6,1764.6,106.6L1764.6,106.6z"
				/>
			<path d="M1733.36,118.8c3.25,0,6.31,1.27,8.61,3.57l31.24,31.24c4.75,4.75,4.75,12.47,0,17.22c-2.3,2.3-5.36,3.57-8.61,3.57
				c-3.25,0-6.31-1.27-8.61-3.57l-31.24-31.24c-4.75-4.75-4.75-12.47,0-17.22C1727.05,120.07,1730.11,118.8,1733.36,118.8
				 M1733.36,106.6c-6.24,0-12.48,2.38-17.24,7.14l0,0c-9.52,9.52-9.52,24.96,0,34.48l31.24,31.24c4.76,4.76,11,7.14,17.24,7.14
				s12.48-2.38,17.24-7.14h0c9.52-9.52,9.52-24.96,0-34.48l-31.24-31.24C1745.84,108.98,1739.6,106.6,1733.36,106.6L1733.36,106.6z"
				/>
			<path class="st1" d="M1733.36,118.8c3.25,0,6.31,1.27,8.61,3.57l31.24,31.24c4.75,4.75,4.75,12.47,0,17.22
				c-2.3,2.3-5.36,3.57-8.61,3.57c-3.25,0-6.31-1.27-8.61-3.57l-31.24-31.24c-4.75-4.75-4.75-12.47,0-17.22
				C1727.05,120.07,1730.11,118.8,1733.36,118.8"/>
			<path class="st1" d="M1764.6,118.8c3.25,0,6.31,1.27,8.61,3.57c4.75,4.75,4.75,12.47,0,17.22l-31.24,31.24
				c-2.3,2.3-5.36,3.57-8.61,3.57c-3.25,0-6.31-1.27-8.61-3.57c-4.75-4.75-4.75-12.47,0-17.22l31.24-31.24
				C1758.29,120.07,1761.35,118.8,1764.6,118.8"/>
		</g>
	</g>
</g>
<g>
	<rect x="3708.01" y="-524.79" class="st2" width="482.98" height="185.37"/>
	<path d="M4197.29-333.12H3701.7V-531.1h495.59V-333.12z M3714.31-345.73h470.37v-172.76h-470.37V-345.73z"/>
</g>
<g>
	<rect x="3708.01" y="-718.99" class="st2" width="482.98" height="185.37"/>
	<path d="M4197.29-527.32H3701.7V-725.3h495.59V-527.32z M3714.31-539.93h470.37v-172.76h-470.37V-539.93z"/>
</g>
<g>
	<rect x="3708.01" y="-792.13" class="st2" width="482.98" height="64.31"/>
	<path d="M4197.29-721.52H3701.7v-76.92h495.59V-721.52z M3714.31-734.13h470.37v-51.7h-470.37V-734.13z"/>
</g>
<g>
	<rect x="3708.01" y="-331.86" class="st2" width="482.98" height="185.37"/>
	<path d="M4197.29-140.18H3701.7v-197.98h495.59V-140.18z M3714.31-152.79h470.37v-172.76h-470.37V-152.79z"/>
</g>
<g>
	<rect x="3217.46" y="-524.79" class="st2" width="482.98" height="185.37"/>
	<path d="M3706.74-333.12h-495.59V-531.1h495.59V-333.12z M3223.77-345.73h470.37v-172.76h-470.37V-345.73z"/>
</g>
<g>
	<rect x="3217.46" y="-718.99" class="st2" width="482.98" height="185.37"/>
	<path d="M3706.74-527.32h-495.59V-725.3h495.59V-527.32z M3223.77-539.93h470.37v-172.76h-470.37V-539.93z"/>
</g>
<g>
	<rect x="3217.46" y="-792.13" class="st2" width="482.98" height="64.31"/>
	<path d="M3706.74-721.52h-495.59v-76.92h495.59V-721.52z M3223.77-734.13h470.37v-51.7h-470.37V-734.13z"/>
</g>
<g>
	<rect x="3217.46" y="-331.86" class="st2" width="482.98" height="185.37"/>
	<path d="M3706.74-140.18h-495.59v-197.98h495.59V-140.18z M3223.77-152.79h470.37v-172.76h-470.37V-152.79z"/>
</g>
<path d="M3741.03-154.05h-12.61v-73.72c0-9.42-7.66-17.08-17.08-17.08h-292.92v83.23h-12.61v-95.84h305.53
	c16.37,0,29.69,13.32,29.69,29.69V-154.05z"/>
<polygon points="3465.26,-218.55 3452.65,-218.55 3452.65,-252.23 3471.29,-304.95 3483.18,-300.75 3465.26,-250.07 "/>
<polygon points="3518.85,-218.36 3506.24,-218.36 3506.24,-252.04 3524.89,-304.77 3536.77,-300.56 3518.85,-249.88 "/>
<polygon points="3574.97,-218.55 3562.36,-218.55 3562.36,-252.23 3581,-304.95 3592.89,-300.75 3574.97,-250.07 "/>
<polygon points="3628.56,-218.36 3615.95,-218.36 3615.95,-252.04 3634.6,-304.77 3646.48,-300.56 3628.56,-249.88 "/>
<polygon points="3681.52,-218.36 3668.91,-218.36 3668.91,-252.04 3687.56,-304.77 3699.45,-300.56 3681.52,-249.88 "/>
<g>
	<path d="M3458.95-251.15c0,0-23.33-46.52,0-45.96C3482.28-296.55,3458.95-251.15,3458.95-251.15z"/>
	<path d="M3458.92-244.19l-2.78-5.55c-1.67-3.34-16.14-32.99-8.4-45.21c1.59-2.51,4.86-5.5,11.29-5.32
		c6.49,0.16,9.71,3.31,11.26,5.93c7.5,12.63-6.87,41.38-8.53,44.62L3458.92-244.19z M3458.53-293.96c-3.53,0-4.81,1.36-5.47,2.39
		c-3.71,5.85,0.95,21.41,5.92,32.98c4.92-11.25,9.51-26.43,5.89-32.52c-0.7-1.18-2.08-2.75-5.99-2.85
		C3458.76-293.96,3458.64-293.96,3458.53-293.96z"/>
</g>
<g>
	<path d="M3511.91-297.11c23.33,0.56,0,45.96,0,45.96S3488.59-297.67,3511.91-297.11"/>
	<path d="M3511.88-244.19l-2.78-5.55c-1.67-3.34-16.14-32.99-8.4-45.21c1.59-2.51,4.85-5.5,11.29-5.32
		c6.49,0.16,9.71,3.31,11.26,5.93c7.5,12.63-6.87,41.38-8.53,44.62L3511.88-244.19z M3511.49-293.96c-3.53,0-4.81,1.36-5.47,2.39
		c-3.71,5.85,0.95,21.41,5.92,32.98c4.92-11.25,9.51-26.43,5.89-32.52c-0.7-1.18-2.08-2.75-5.99-2.85
		C3511.72-293.96,3511.61-293.96,3511.49-293.96z"/>
</g>
<g>
	<path d="M3569.92-251.15c0,0-23.33-46.52,0-45.96S3569.92-251.15,3569.92-251.15z"/>
	<path d="M3569.89-244.19l-2.78-5.55c-1.67-3.34-16.14-32.99-8.4-45.21c1.59-2.51,4.84-5.5,11.29-5.32
		c6.49,0.16,9.71,3.31,11.26,5.93c7.5,12.63-6.87,41.38-8.53,44.62L3569.89-244.19z M3569.5-293.96c-3.53,0-4.81,1.36-5.47,2.39
		c-3.71,5.85,0.95,21.41,5.92,32.98c4.92-11.25,9.51-26.43,5.89-32.52c-0.7-1.18-2.08-2.75-5.99-2.85
		C3569.73-293.96,3569.61-293.96,3569.5-293.96z"/>
</g>
<g>
	<path d="M3622.89-297.11c23.33,0.56,0,45.96,0,45.96S3599.56-297.67,3622.89-297.11"/>
	<path d="M3622.85-244.19l-2.78-5.55c-1.67-3.34-16.14-32.99-8.4-45.21c1.59-2.51,4.85-5.5,11.29-5.32
		c6.49,0.16,9.71,3.31,11.26,5.93c7.5,12.63-6.87,41.38-8.53,44.62L3622.85-244.19z M3622.46-293.96c-3.53,0-4.81,1.36-5.47,2.39
		c-3.71,5.85,0.95,21.41,5.92,32.98c4.92-11.25,9.51-26.43,5.89-32.52c-0.7-1.18-2.08-2.75-5.99-2.85
		C3622.69-293.96,3622.58-293.96,3622.46-293.96z"/>
</g>
<g>
	<path d="M3674.59-251.15c0,0-23.33-46.52,0-45.96S3674.59-251.15,3674.59-251.15z"/>
	<path d="M3674.55-244.19l-2.78-5.55c-1.68-3.34-16.14-32.99-8.4-45.21c1.59-2.51,4.81-5.48,11.29-5.32
		c6.49,0.16,9.71,3.31,11.26,5.93c7.5,12.63-6.87,41.38-8.53,44.62L3674.55-244.19z M3674.17-293.96c-3.53,0-4.81,1.36-5.47,2.39
		c-3.71,5.85,0.95,21.41,5.92,32.98c4.92-11.25,9.51-26.43,5.89-32.52c-0.7-1.18-2.08-2.75-5.99-2.85
		C3674.39-293.96,3674.28-293.96,3674.17-293.96z"/>
</g>
<g>
	<path class="st3" d="M3745.24-343.21c0,0,0-78.35,0-100.96c0-22.62,16.99-23.88,16.99-23.88v-31.5h12.22v32.2
		c0,0,16.16-0.07,16.16,22.63s0,101.51,0,101.51H3745.24z"/>
	<path d="M3793.76-340.05h-51.67v-104.12c0-19.25,11.46-24.85,16.99-26.43v-32.1h18.52v32.61c2.5,0.57,6.08,1.9,9.25,5.06
		c4.58,4.57,6.91,11.4,6.91,20.31V-340.05z M3748.4-346.36h39.06v-98.36c0-18.76-11.69-19.46-13.02-19.48l-3.11-0.04l-0.03-3.11
		v-29.04h-5.91v31.27l-2.92,0.22c-0.55,0.05-14.07,1.47-14.07,20.74V-346.36z"/>
</g>
<g>
	<path class="st3" d="M3804.05-343.03c0,0,0-65.81,0-84.81c0-19,14.09-20.06,14.09-20.06v-26.46h10.13v27.04
		c0,0,13.4-0.06,13.4,19.01c0,19.07,0,85.27,0,85.27H3804.05z"/>
	<path d="M3844.83-339.88h-43.93v-87.96c0-16.05,9.23-21.04,14.09-22.56v-27.11h16.44V-450c2.1,0.54,4.93,1.71,7.45,4.22
		c3.95,3.93,5.95,9.81,5.95,17.47V-339.88z M3807.2-346.18h31.32v-82.11c0-15.23-9.22-15.84-10.27-15.86l-3.09-0.06l-0.04-3.1
		v-23.89h-3.83v26.23l-2.92,0.22c-1.12,0.11-11.17,1.49-11.17,16.91V-346.18z"/>
</g>
<g>
	<path class="st3" d="M3899.89-343.03c0,0,0-82.87,0-106.79c0-23.92,16.92-25.26,16.92-25.26v-33.32h12.17v34.06
		c0,0,16.1-0.07,16.1,23.94c0,24.01,0,107.38,0,107.38H3899.89z"/>
	<path d="M3948.23-339.88h-51.5v-109.95c0-20.23,11.41-26.11,16.92-27.77v-33.96h18.47v34.49c2.4,0.57,5.8,1.9,8.87,4.95
		c4.8,4.78,7.23,12.08,7.23,21.7V-339.88z M3903.04-346.18h38.89v-104.22c0-20.35-12.43-20.78-12.96-20.79l-3.1-0.05l-0.03-3.1
		v-30.9h-5.86v33.08l-2.91,0.23c-0.55,0.05-14.02,1.58-14.02,22.12V-346.18z"/>
</g>
<g>
	<path class="st3" d="M3964.2-343.03c0,0,0-70.86,0-91.32s16.99-21.6,16.99-21.6v-28.49h12.22v29.12c0,0,16.16-0.06,16.16,20.47
		s0,91.82,0,91.82H3964.2z"/>
	<path d="M4012.71-339.88h-51.66v-94.47c0-17.62,11.44-22.75,16.99-24.19v-29.05h18.52v29.5c2.65,0.55,6.5,1.9,9.81,5.19
		c4.21,4.2,6.35,10.27,6.35,18.05V-339.88z M3967.36-346.18h39.05v-88.67c0-6.04-1.51-10.61-4.49-13.58
		c-3.66-3.65-8.44-3.73-8.5-3.73l0,0l-3.17,0.01v-29.13h-5.91V-453l-2.94,0.2c-1.42,0.11-14.04,1.6-14.04,18.45V-346.18z"/>
</g>
<g>
	<path class="st3" d="M4044.91-343.03c0,0,0-78.35,0-100.96c0-22.62,15.03-23.88,15.03-23.88v-31.5h10.81v32.2
		c0,0,14.3-0.07,14.3,22.63s0,101.51,0,101.51H4044.91z"/>
	<path d="M4088.21-339.88h-46.45v-104.12c0-18.9,9.96-24.64,15.03-26.34v-32.2h17.12v32.67c2.07,0.55,4.85,1.75,7.45,4.34
		c4.55,4.52,6.85,11.58,6.85,20.97V-339.88z M4048.06-346.18h33.84v-98.36c0-19.02-10.72-19.47-11.17-19.48l-3.08-0.07l-0.04-3.09
		v-29.04h-4.51v31.25l-2.89,0.24c-0.46,0.05-12.14,1.51-12.14,20.74V-346.18z"/>
</g>
<g>
	<path class="st3" d="M4100.39-343.03c0,0,0-57.59,0-74.22s26.84-17.55,26.84-17.55v-23.16h19.3v23.67c0,0,25.53-0.05,25.53,16.64
		s0,74.62,0,74.62H4100.39z"/>
	<path d="M4175.22-339.88h-77.98v-77.37c0-15.92,19.2-19.62,26.84-20.46v-23.4h25.61v23.82c5.03,0.43,14.85,2.01,20.72,7.87
		c3.19,3.18,4.81,7.14,4.81,11.77V-339.88z M4103.55-346.18h65.37v-71.47c0-13.32-22.15-13.48-22.38-13.48l-3.15,0l0-23.67h-13
		v23.05l-3.04,0.11c-0.23,0.01-23.8,1.02-23.8,14.4V-346.18z"/>
</g>
<g>
	<path class="st3" d="M3728.39-537.23c0,0,0-78.35,0-100.96c0-22.62,16.99-23.88,16.99-23.88v-31.5h12.22v32.2
		c0,0,16.16-0.07,16.16,22.63s0,101.51,0,101.51H3728.39z"/>
	<path d="M3776.9-534.08h-51.66v-104.12c0-19.25,11.45-24.85,16.99-26.43v-32.1h18.52v32.61c2.5,0.57,6.07,1.9,9.25,5.06
		c4.58,4.57,6.91,11.4,6.91,20.31V-534.08z M3731.54-540.38h39.05v-98.36c0-18.76-11.69-19.46-13.02-19.48l-3.11-0.04l-0.03-3.11
		v-29.04h-5.91v31.27l-2.92,0.22c-0.55,0.05-14.07,1.47-14.07,20.74V-540.38z"/>
</g>
<g>
	<path class="st3" d="M3782.61-537.23c0,0,0-63.91,0-82.36s20.7-19.48,20.7-19.48v-25.7h14.89v26.27c0,0,19.69-0.05,19.69,18.46
		c0,18.52,0,82.81,0,82.81H3782.61z"/>
	<path d="M3841.04-534.08h-61.58v-85.52c0-15.07,12.22-20.9,20.7-22.3v-26.03h21.19v26.52c3.6,0.51,9.56,2.01,14.01,6.45
		c3.77,3.76,5.68,8.77,5.68,14.91V-534.08z M3785.77-540.38h48.97v-79.66c0-4.4-1.29-7.91-3.83-10.44
		c-4.76-4.75-12.61-4.87-12.7-4.87l0,0l-3.16,0.01v-26.27h-8.58v25.54l-3,0.15c-0.72,0.04-17.7,1.15-17.7,16.33V-540.38z"/>
</g>
<g>
	<path class="st3" d="M3878.45-537.23c0,0,0-67.07,0-86.43s14.56-20.44,14.56-20.44v-26.97h10.47v27.56c0,0,13.85-0.06,13.85,19.37
		s0,86.91,0,86.91H3878.45z"/>
	<path d="M3920.49-534.08h-45.19v-89.59c0-16.4,9.59-21.45,14.56-22.96v-27.6h16.78v28.02c2.18,0.54,5.16,1.74,7.8,4.38
		c4.01,4,6.05,9.95,6.05,17.7V-534.08z M3881.6-540.38h32.58v-83.75c0-15.59-9.62-16.2-10.72-16.22l-3.1-0.05l-0.03-3.1v-24.41
		h-4.17v26.74l-2.92,0.22c-1.17,0.11-11.64,1.52-11.64,17.3V-540.38z"/>
</g>
<g>
	<path class="st3" d="M4075.17-537.23c0,0,0-54.43,0-70.15s15.51-16.59,15.51-16.59v-21.89h11.15v22.37c0,0,14.75-0.05,14.75,15.72
		s0,70.53,0,70.53H4075.17z"/>
	<path d="M4119.73-534.08h-47.71v-73.3c0-12.71,8.94-17.89,15.51-19.32v-22.31h17.46v22.72c2.68,0.51,6.56,1.78,9.7,4.9
		c3.35,3.34,5.05,7.93,5.05,13.63V-534.08z M4078.33-540.38h35.1v-67.38c0-12.13-10.42-12.56-11.6-12.57l-3.13-0.02l-0.02-3.13
		v-19.22h-4.85v21.71l-2.98,0.17c-1.27,0.08-12.53,1.18-12.53,13.44V-540.38z"/>
</g>
<g>
	<path class="st3" d="M4132.97-537.23c0,0,0-73.39,0-94.58s16.12-22.37,16.12-22.37v-29.51h11.59v30.16c0,0,15.33-0.06,15.33,21.2
		c0,21.26,0,95.09,0,95.09H4132.97z"/>
	<path d="M4179.17-534.08h-49.35v-97.73c0-18.03,10.78-23.37,16.12-24.91v-30.12h17.9v30.58c2.41,0.56,5.8,1.85,8.8,4.84
		c4.34,4.32,6.54,10.74,6.54,19.1V-534.08z M4136.13-540.38h36.74v-91.94c0-6.61-1.57-11.54-4.68-14.63
		c-3.35-3.34-7.44-3.42-7.49-3.42c0,0,0,0,0,0l-3.17,0.01v-30.17h-5.29v29.29l-2.92,0.21c-1.33,0.12-13.2,1.68-13.2,19.22V-540.38z"
		/>
</g>
<g>
	<path class="st3" d="M3542.81-343.03c0,0,0-50.64,0-65.26c0-14.62,30.76-15.44,30.76-15.44v-20.36h22.12v20.81
		c0,0,29.26-0.04,29.26,14.63c0,14.67,0,65.62,0,65.62H3542.81z"/>
	<path d="M3628.1-339.88h-88.44v-68.41c0-14.68,22.13-17.77,30.76-18.42v-20.53h28.43v20.92c5.98,0.36,18.87,1.87,25.28,8.27
		c2.64,2.64,3.98,5.8,3.98,9.4V-339.88z M3545.96-346.18h75.83v-62.46c0-4.43-4.09-7.71-12.15-9.73
		c-6.86-1.72-13.89-1.74-13.96-1.74l-3.15,0l0-20.81h-15.81v20.28l-3.07,0.08c-7.18,0.2-27.69,2.88-27.69,12.28V-346.18z"/>
</g>
<g>
	<path class="st3" d="M3645.16-343.38c0,0,0-60.58,0-78.07c0-17.49,15.98-18.46,15.98-18.46v-24.36h11.49v24.89
		c0,0,15.2-0.05,15.2,17.5c0,17.55,0,78.49,0,78.49H3645.16z"/>
	<path d="M3690.98-340.23h-48.97v-81.22c0-13.97,9.24-19.63,15.98-21.17v-24.8h17.8v25.26c2.64,0.53,6.47,1.82,9.65,4.99
		c3.68,3.67,5.55,8.81,5.55,15.3V-340.23z M3648.31-346.53h36.36v-75.34c0-4.75-1.24-8.39-3.69-10.83
		c-3.44-3.43-8.29-3.52-8.34-3.52l0,0l-3.16,0.01v-24.91h-5.19v24.17l-2.96,0.18c-1.32,0.09-13.02,1.34-13.02,15.32V-346.53z"/>
</g>
<g>
	<path class="st3" d="M3450.96-343.38c0,0,0-78.35,0-100.96c0-22.62,16.99-23.88,16.99-23.88v-31.5h12.22v32.2
		c0,0,16.16-0.07,16.16,22.63c0,22.7,0,101.51,0,101.51H3450.96z"/>
	<path d="M3499.47-340.23h-51.67v-104.12c0-19.25,11.46-24.85,16.99-26.43v-32.1h18.52v32.61c2.5,0.57,6.07,1.9,9.25,5.06
		c4.58,4.57,6.91,11.4,6.91,20.31V-340.23z M3454.11-346.53h39.05v-98.36c0-18.76-11.69-19.46-13.02-19.48l-3.11-0.04l-0.03-3.11
		v-29.04h-5.91v31.27l-2.92,0.22c-0.55,0.05-14.07,1.47-14.07,20.74V-346.53z"/>
</g>
<g>
	<path class="st3" d="M3365.84-341.49c0,0,0-82.69,0-106.57c0-23.87,21.17-25.2,21.17-25.2v-33.25h15.23v33.98
		c0,0,20.14-0.07,20.14,23.89c0,23.96,0,107.15,0,107.15H3365.84z"/>
	<path d="M3425.53-338.34h-62.85v-109.72c0-20.83,14.73-26.42,21.17-27.87v-33.74h21.53v34.3c3.29,0.56,8.54,2.12,12.9,6.46
		c4.81,4.79,7.24,11.61,7.24,20.26V-338.34z M3368.99-344.64h50.24v-104c0-6.92-1.81-12.23-5.39-15.8
		c-4.84-4.82-11.51-4.94-11.59-4.94l0,0l-3.16,0.01v-34h-8.92v33.06l-2.95,0.19c-0.73,0.05-18.22,1.53-18.22,22.06V-344.64z"/>
</g>
<g>
	<path class="st3" d="M3314.77-342.12c0,0,0-72.58,0-93.54c0-20.95,14.09-22.12,14.09-22.12v-29.18h10.13v29.83
		c0,0,13.4-0.06,13.4,20.97c0,21.03,0,94.05,0,94.05H3314.77z"/>
	<path d="M3355.55-338.97h-43.93v-96.69c0-17.49,9.24-22.92,14.09-24.57v-29.89h16.44v30.31c1.96,0.54,4.56,1.69,6.98,4.1
		c4.26,4.24,6.42,10.82,6.42,19.54V-338.97z M3317.92-345.27h31.32v-90.9c0-17.08-9.22-17.79-10.28-17.82l-3.08-0.07l-0.05-3.08
		v-26.68h-3.83v28.93l-2.89,0.24c-0.42,0.05-11.2,1.39-11.2,18.98V-345.27z"/>
</g>
<g>
	<path class="st3" d="M3587.58-537.93c0,0-6.73-57.87-6.73-74.58s32.98-17.64,32.98-17.64v-23.27h23.72v23.78
		c0,0,31.37-0.05,31.37,16.72s-6.94,74.99-6.94,74.99H3587.58z"/>
	<path d="M3664.78-534.77h-80.01l-0.32-2.79c-0.28-2.37-6.75-58.25-6.75-74.95c0-16.36,24.22-19.87,32.98-20.6v-23.46h30.02v23.9
		c6.19,0.37,19.83,2,26.85,9.01c3,3,4.52,6.61,4.52,10.75c0,16.76-6.67,72.98-6.96,75.36L3664.78-534.77z M3590.39-541.08h68.78
		c1.37-11.77,6.59-57.53,6.59-71.84c0-5.32-4.46-9.22-13.24-11.57c-7.35-1.97-14.9-1.99-14.97-1.99l-3.15,0l0-23.79h-17.41v23.18
		l-3.06,0.09c-0.3,0.01-29.92,1.25-29.92,14.49C3584-598.26,3589.05-552.82,3590.39-541.08z"/>
</g>
<g>
	<path class="st3" d="M3521.58-537.93c0,0,0-43.97,0-56.67c0-12.69,12.67-13.4,12.67-13.4v-17.68h9.11v18.07
		c0,0,12.05-0.04,12.05,12.7s0,56.98,0,56.98H3521.58z"/>
	<path d="M3558.57-534.77h-40.15v-59.82c0-10.37,7.16-14.76,12.67-16.1v-18.14h15.42v18.46c2.25,0.49,5.31,1.59,7.8,4.07
		c2.82,2.81,4.25,6.65,4.25,11.39V-534.77z M3524.73-541.08h27.54v-53.82c0-3.01-0.81-5.34-2.4-6.93c-2.57-2.56-6.45-2.62-6.49-2.62
		l0,0l-3.16,0.01v-18.08h-2.81v17.51l-2.98,0.17c-0.98,0.07-9.7,0.92-9.7,10.25V-541.08z"/>
</g>
<g>
	<path class="st3" d="M3416.91-537.93c0,0,0-68.62,0-88.43s20.23-20.91,20.23-20.91v-27.59h14.55v28.2c0,0,19.24-0.06,19.24,19.82
		c0,19.88,0,88.91,0,88.91H3416.91z"/>
	<path d="M3474.08-534.77h-60.32v-91.58c0-15.98,11.93-22.19,20.23-23.7v-27.95h20.85v28.48c3.39,0.53,8.86,2.03,13.14,6.29
		c4.05,4.04,6.1,9.55,6.1,16.4V-534.77z M3420.07-541.08h47.71v-85.76c0-16.13-14.44-16.66-16.09-16.67l-3.14-0.01l-0.01-3.14
		v-25.05h-8.24v27.42l-2.98,0.16c-0.69,0.04-17.25,1.25-17.25,17.77V-541.08z"/>
</g>
<g>
	<path class="st3" d="M3343.77-536.67c0,0,0-64.19,0-82.73s14.56-19.57,14.56-19.57v-25.81h10.47v26.38c0,0,13.85-0.05,13.85,18.54
		s0,83.18,0,83.18H3343.77z"/>
	<path d="M3385.81-533.51h-45.19v-85.88c0-14.51,8.36-20.49,14.56-22.19v-26.34h16.78v26.82c2.24,0.54,5.32,1.74,8.01,4.43
		c3.87,3.86,5.84,9.52,5.84,16.83V-533.51z M3346.93-539.82h32.58v-80.03c0-5.57-1.34-9.73-3.98-12.36
		c-2.97-2.96-6.66-3.03-6.71-3.03l0,0l-3.16,0.01v-26.39h-4.17v25.59l-2.93,0.21c-1.17,0.1-11.63,1.44-11.63,16.42V-539.82z"/>
</g>
<g>
	<line class="st4" x1="3304.47" y1="-108.65" x2="4197.29" y2="-108.65"/>
	<rect x="3304.47" y="-114.96" width="892.81" height="12.61"/>
</g>
<g>
	<g>
		<path class="st5" d="M3723.98-136.75c0,0,9.19,4.96,27.11,5.37c17.36,0.4,24-3.61,27.11-5.78c0,0-1.26-27.01-26.48-18.18
			C3729.03-171.73,3723.98-136.75,3723.98-136.75z"/>
		<path d="M3753.45-128.83c-0.78,0-1.58-0.01-2.41-0.03c-18.31-0.42-27.85-5.46-28.25-5.67l-1.55-0.84l0.25-1.74
			c0.11-0.79,2.92-19.41,13.91-24.07c4.96-2.1,10.58-1.08,16.73,3.05c7.63-2.41,14.02-1.93,18.99,1.43
			c8.88,5.99,9.58,18.88,9.61,19.43l0.07,1.39l-1.14,0.8C3775.74-132.37,3768.81-128.83,3753.45-128.83z M3726.81-138.24
			c3.29,1.33,11.51,4.05,24.34,4.34c14.89,0.34,21.42-2.66,24.39-4.52c-0.41-3.08-1.94-10.53-7.27-14.12
			c-3.85-2.59-9.14-2.73-15.72-0.43l-1.24,0.43l-1.07-0.77c-5.04-3.64-9.37-4.73-12.88-3.24
			C3731.21-153.93,3727.94-143.74,3726.81-138.24z"/>
	</g>
	<g>
		<path class="st3" d="M3777.34-138.42c0,0-0.22-28.37-5.06-45.63s-4.9-34.53-4.9-34.53s-7.33-4.85-16.92-4.85
			s-16.87,4.85-16.87,4.85s0.29,23.02-2.59,34.53c-2.88,11.51-5.76,46.04-5.76,46.04s12.9-3.46,26.48-3.46
			C3765.96-141.47,3777.34-138.42,3777.34-138.42z"/>
		<path d="M3722.43-134.65l0.3-3.57c0.12-1.42,2.93-34.87,5.82-46.44c2.76-11.06,2.52-33.66,2.52-33.89l-0.02-1.37l1.14-0.76
			c0.32-0.22,8.03-5.27,18.27-5.27c10.23,0,17.99,5.05,18.31,5.27l1.13,0.74l0,1.35c0,0.17,0.12,17.15,4.81,33.86
			c4.87,17.39,5.14,45.12,5.15,46.29l0.03,3.31l-3.2-0.85c-0.11-0.03-11.26-2.96-24.96-2.96c-13.07,0-25.7,3.34-25.83,3.37
			L3722.43-134.65z M3736.12-217.15c0.01,5.33-0.14,23.58-2.67,33.71c-2.26,9.06-4.57,33.15-5.39,42.17
			c4.82-1.05,14.02-2.72,23.66-2.72c10.02,0,18.58,1.45,23.03,2.38c-0.22-7.86-1.15-28.39-4.89-41.77
			c-4.12-14.7-4.84-29.18-4.97-33.75c-2.27-1.23-7.8-3.79-14.43-3.79C3743.84-220.91,3738.39-218.38,3736.12-217.15z"/>
	</g>
</g>
<g>
	<g>
		<path class="st5" d="M3816.2-132.97c0,0,9.19,4.96,27.11,5.37c17.36,0.4,24-3.61,27.11-5.78c0,0-1.26-27.01-26.48-18.18
			C3821.24-167.95,3816.2-132.97,3816.2-132.97z"/>
		<path d="M3845.67-125.05c-0.78,0-1.58-0.01-2.41-0.03c-18.31-0.42-27.85-5.46-28.25-5.67l-1.55-0.84l0.25-1.74
			c0.11-0.79,2.92-19.41,13.91-24.07c4.96-2.1,10.58-1.08,16.73,3.05c7.63-2.41,14.01-1.93,18.99,1.43
			c8.88,5.99,9.58,18.88,9.61,19.43l0.07,1.39l-1.14,0.8C3867.96-128.58,3861.03-125.05,3845.67-125.05z M3819.03-134.46
			c3.29,1.33,11.51,4.05,24.34,4.34c14.88,0.34,21.41-2.66,24.39-4.52c-0.41-3.08-1.94-10.53-7.27-14.12
			c-3.85-2.59-9.14-2.73-15.72-0.43l-1.24,0.43l-1.07-0.77c-5.04-3.64-9.37-4.73-12.88-3.24
			C3823.42-150.15,3820.16-139.95,3819.03-134.46z"/>
	</g>
	<g>
		<path class="st3" d="M3869.56-134.64c0,0-0.22-28.37-5.06-45.63s-4.9-34.53-4.9-34.53s-7.33-4.85-16.92-4.85
			s-16.87,4.85-16.87,4.85s0.29,23.02-2.59,34.53c-2.88,11.51-5.76,46.04-5.76,46.04s12.9-3.46,26.48-3.46
			C3858.18-137.68,3869.56-134.64,3869.56-134.64z"/>
		<path d="M3814.65-130.87l0.3-3.57c0.12-1.42,2.93-34.87,5.82-46.44c2.77-11.06,2.52-33.66,2.52-33.89l-0.02-1.37l1.14-0.76
			c0.32-0.22,8.03-5.27,18.27-5.27c10.23,0,17.99,5.05,18.31,5.27l1.13,0.74l0,1.35c0,0.17,0.12,17.15,4.8,33.86
			c4.87,17.39,5.14,45.12,5.15,46.29l0.03,3.31l-3.2-0.85c-0.11-0.03-11.26-2.96-24.96-2.96c-13.07,0-25.7,3.34-25.83,3.37
			L3814.65-130.87z M3828.34-213.37c0.01,5.33-0.14,23.58-2.68,33.71c-2.26,9.06-4.57,33.15-5.38,42.17
			c4.82-1.05,14.02-2.72,23.66-2.72c10.02,0,18.58,1.45,23.03,2.38c-0.22-7.86-1.15-28.39-4.89-41.77
			c-4.12-14.7-4.84-29.18-4.96-33.75c-2.27-1.23-7.8-3.79-14.43-3.79C3836.05-217.13,3830.61-214.6,3828.34-213.37z"/>
	</g>
</g>
<g>
	<g>
		<path class="st5" d="M4058.32-136.75c0,0,9.19,4.96,27.11,5.37c17.36,0.4,24-3.61,27.11-5.78c0,0-1.26-27.01-26.48-18.18
			C4063.36-171.73,4058.32-136.75,4058.32-136.75z"/>
		<path d="M4087.79-128.83c-0.78,0-1.58-0.01-2.41-0.03c-18.31-0.42-27.85-5.46-28.25-5.67l-1.55-0.84l0.25-1.74
			c0.11-0.79,2.92-19.41,13.91-24.07c4.95-2.1,10.58-1.08,16.73,3.05c7.63-2.41,14.02-1.93,18.99,1.43
			c8.88,5.99,9.58,18.88,9.61,19.43l0.07,1.39l-1.14,0.8C4110.07-132.37,4103.15-128.83,4087.79-128.83z M4061.15-138.24
			c3.29,1.33,11.51,4.05,24.34,4.34c14.89,0.34,21.42-2.66,24.39-4.52c-0.41-3.08-1.94-10.53-7.27-14.12
			c-3.85-2.59-9.14-2.73-15.72-0.43l-1.24,0.43l-1.07-0.77c-5.04-3.64-9.37-4.73-12.88-3.24
			C4065.54-153.93,4062.28-143.74,4061.15-138.24z"/>
	</g>
	<g>
		<path class="st3" d="M4111.68-138.42c0,0-0.22-28.37-5.06-45.63s-4.9-34.53-4.9-34.53s-7.33-4.85-16.92-4.85
			s-16.87,4.85-16.87,4.85s0.29,23.02-2.59,34.53s-5.76,46.04-5.76,46.04s12.9-3.46,26.48-3.46
			C4100.3-141.47,4111.68-138.42,4111.68-138.42z"/>
		<path d="M4056.77-134.65l0.3-3.57c0.12-1.42,2.93-34.87,5.82-46.44c2.77-11.06,2.52-33.66,2.52-33.89l-0.02-1.37l1.14-0.76
			c0.32-0.22,8.03-5.27,18.27-5.27c10.23,0,17.99,5.05,18.31,5.27l1.13,0.74l0,1.35c0,0.17,0.12,17.15,4.8,33.86
			c4.87,17.39,5.14,45.12,5.15,46.29l0.03,3.31l-3.2-0.85c-0.11-0.03-11.26-2.96-24.96-2.96c-13.07,0-25.7,3.34-25.83,3.37
			L4056.77-134.65z M4070.46-217.15c0.01,5.33-0.14,23.58-2.68,33.71c-2.26,9.06-4.57,33.15-5.38,42.17
			c4.82-1.05,14.02-2.72,23.66-2.72c10.02,0,18.58,1.45,23.03,2.38c-0.22-7.86-1.15-28.39-4.89-41.77
			c-4.12-14.7-4.84-29.18-4.96-33.75c-2.27-1.23-7.8-3.79-14.43-3.79C4078.17-220.91,4072.73-218.38,4070.46-217.15z"/>
	</g>
</g>
<g>
	<g>
		<path class="st5" d="M4118.23-135.89c0,0,9.19,4.96,27.11,5.37c17.36,0.4,24-3.61,27.11-5.78c0,0-1.26-27.01-26.48-18.18
			C4123.28-170.87,4118.23-135.89,4118.23-135.89z"/>
		<path d="M4147.69-127.97c-0.78,0-1.58-0.01-2.41-0.03c-18.31-0.42-27.85-5.46-28.25-5.67l-1.55-0.84l0.25-1.74
			c0.11-0.79,2.92-19.41,13.91-24.07c4.96-2.1,10.58-1.08,16.73,3.05c7.63-2.41,14.02-1.93,18.99,1.43
			c8.88,5.99,9.58,18.88,9.61,19.43l0.07,1.39l-1.14,0.8C4169.99-131.51,4163.06-127.97,4147.69-127.97z M4121.06-137.39
			c3.29,1.33,11.51,4.05,24.34,4.35c14.89,0.34,21.42-2.66,24.39-4.52c-0.41-3.08-1.94-10.53-7.27-14.12
			c-3.85-2.59-9.14-2.73-15.72-0.43l-1.24,0.43l-1.07-0.77c-5.04-3.64-9.37-4.73-12.88-3.24
			C4125.46-153.07,4122.19-142.88,4121.06-137.39z"/>
	</g>
	<g>
		<path class="st3" d="M4171.59-137.56c0,0-0.22-28.37-5.06-45.63c-4.84-17.27-4.9-34.53-4.9-34.53s-7.33-4.85-16.92-4.85
			c-9.59,0-16.87,4.85-16.87,4.85s0.29,23.02-2.59,34.53c-2.88,11.51-5.76,46.04-5.76,46.04s12.9-3.46,26.48-3.46
			C4160.21-140.61,4171.59-137.56,4171.59-137.56z"/>
		<path d="M4116.68-133.79l0.3-3.57c0.12-1.42,2.93-34.87,5.82-46.44c2.77-11.06,2.52-33.66,2.52-33.89l-0.02-1.37l1.14-0.76
			c0.32-0.22,8.03-5.27,18.27-5.27c10.23,0,17.99,5.05,18.31,5.27l1.13,0.74l0,1.35c0,0.17,0.12,17.15,4.8,33.86
			c4.87,17.39,5.14,45.12,5.15,46.29l0.03,3.31l-3.2-0.85c-0.11-0.03-11.26-2.96-24.96-2.96c-13.1,0-25.7,3.34-25.83,3.37
			L4116.68-133.79z M4130.37-216.29c0.01,5.33-0.14,23.58-2.68,33.71c-2.26,9.05-4.57,33.15-5.38,42.17
			c4.82-1.05,14.02-2.72,23.66-2.72c10.02,0,18.58,1.45,23.02,2.38c-0.22-7.86-1.15-28.39-4.89-41.77
			c-4.12-14.7-4.84-29.18-4.96-33.75c-2.27-1.23-7.8-3.79-14.43-3.79C4138.09-220.05,4132.64-217.53,4130.37-216.29z"/>
	</g>
</g>
<g>
	<g>
		<path class="st5" d="M3610.04-132.11c0,0,9.19,4.96,27.11,5.37c17.36,0.4,24-3.61,27.11-5.78c0,0-1.26-27.01-26.48-18.18
			C3615.08-167.09,3610.04-132.11,3610.04-132.11z"/>
		<path d="M3639.5-124.19c-0.78,0-1.58-0.01-2.41-0.03c-18.32-0.42-27.86-5.46-28.25-5.67l-1.55-0.84l0.25-1.74
			c0.11-0.79,2.92-19.41,13.91-24.07c4.96-2.11,10.58-1.08,16.73,3.05c7.63-2.41,14.02-1.93,18.99,1.43
			c8.88,5.99,9.58,18.88,9.61,19.43l0.07,1.39l-1.14,0.8C3661.79-127.72,3654.86-124.19,3639.5-124.19z M3612.86-133.6
			c3.29,1.33,11.51,4.05,24.34,4.35c14.89,0.34,21.42-2.66,24.39-4.52c-0.41-3.08-1.94-10.53-7.27-14.12
			c-3.85-2.59-9.14-2.73-15.72-0.43l-1.24,0.43l-1.07-0.77c-5.04-3.64-9.37-4.73-12.88-3.24
			C3617.26-149.29,3613.99-139.09,3612.86-133.6z"/>
	</g>
	<g>
		<path class="st3" d="M3663.39-133.78c0,0-0.22-28.37-5.06-45.63c-4.84-17.27-4.9-34.53-4.9-34.53s-7.33-4.85-16.92-4.85
			c-9.59,0-16.87,4.85-16.87,4.85s0.29,23.02-2.59,34.53s-5.76,46.04-5.76,46.04s12.9-3.46,26.48-3.46
			C3652.02-136.83,3663.39-133.78,3663.39-133.78z"/>
		<path d="M3608.49-130.01l0.3-3.57c0.12-1.42,2.93-34.87,5.82-46.44c2.77-11.06,2.52-33.66,2.52-33.89l-0.02-1.37l1.14-0.76
			c0.32-0.22,8.03-5.27,18.27-5.27c10.23,0,17.99,5.05,18.32,5.27l1.13,0.74l0,1.35c0,0.17,0.12,17.15,4.8,33.86
			c4.87,17.39,5.14,45.12,5.15,46.29l0.03,3.31l-3.2-0.85c-0.11-0.03-11.26-2.96-24.96-2.96c-13.07,0-25.7,3.34-25.83,3.37
			L3608.49-130.01z M3622.17-212.5c0.01,5.33-0.15,23.58-2.68,33.7c-2.26,9.06-4.57,33.15-5.39,42.17
			c4.82-1.05,14.02-2.72,23.66-2.72c10.02,0,18.58,1.46,23.03,2.38c-0.22-7.86-1.15-28.39-4.89-41.77
			c-4.12-14.7-4.84-29.18-4.96-33.75c-2.27-1.23-7.8-3.79-14.43-3.79C3629.93-216.27,3624.45-213.74,3622.17-212.5z"/>
	</g>
</g>
<g>
	<g>
		<path class="st5" d="M3542.07-132.11c0,0,9.19,4.96,27.11,5.37c17.36,0.4,24-3.61,27.11-5.78c0,0-1.26-27.01-26.48-18.18
			C3547.12-167.09,3542.07-132.11,3542.07-132.11z"/>
		<path d="M3571.54-124.19c-0.78,0-1.58-0.01-2.41-0.03c-18.32-0.42-27.86-5.46-28.25-5.67l-1.55-0.84l0.25-1.74
			c0.11-0.79,2.92-19.41,13.91-24.07c4.96-2.11,10.58-1.08,16.73,3.05c7.63-2.41,14.02-1.93,18.99,1.43
			c8.88,5.99,9.58,18.88,9.61,19.43l0.06,1.39l-1.14,0.8C3593.83-127.72,3586.9-124.19,3571.54-124.19z M3544.9-133.6
			c3.29,1.33,11.51,4.05,24.34,4.35c14.9,0.34,21.42-2.66,24.39-4.52c-0.41-3.08-1.94-10.53-7.27-14.12
			c-3.85-2.59-9.14-2.73-15.72-0.43l-1.24,0.43l-1.07-0.77c-5.03-3.64-9.37-4.73-12.88-3.24
			C3549.3-149.29,3546.03-139.09,3544.9-133.6z"/>
	</g>
	<g>
		<path class="st3" d="M3595.43-133.78c0,0-0.22-28.37-5.06-45.63c-4.84-17.27-4.9-34.53-4.9-34.53s-7.33-4.85-16.92-4.85
			c-9.59,0-16.87,4.85-16.87,4.85s0.29,23.02-2.59,34.53s-5.76,46.04-5.76,46.04s12.9-3.46,26.48-3.46
			C3584.05-136.83,3595.43-133.78,3595.43-133.78z"/>
		<path d="M3540.52-130.01l0.3-3.57c0.12-1.42,2.93-34.87,5.82-46.44c2.76-11.06,2.52-33.66,2.52-33.89l-0.02-1.37l1.14-0.76
			c0.32-0.22,8.03-5.27,18.27-5.27c10.23,0,17.99,5.05,18.31,5.27l1.12,0.74l0.01,1.35c0,0.17,0.12,17.15,4.8,33.86
			c4.87,17.39,5.14,45.12,5.15,46.29l0.03,3.31l-3.2-0.85c-0.11-0.03-11.25-2.96-24.96-2.96c-13.07,0-25.7,3.34-25.83,3.37
			L3540.52-130.01z M3554.21-212.51c0.01,5.33-0.14,23.58-2.68,33.71c-2.26,9.06-4.57,33.15-5.39,42.17
			c4.82-1.05,14.02-2.72,23.66-2.72c10.02,0,18.58,1.46,23.03,2.38c-0.22-7.86-1.15-28.39-4.89-41.77
			c-4.12-14.7-4.84-29.18-4.97-33.75c-2.27-1.23-7.8-3.79-14.43-3.79C3561.93-216.27,3556.48-213.74,3554.21-212.51z"/>
	</g>
</g>
<g>
	<g>
		<path class="st5" d="M3444.97-124.54c0,0,9.19,4.96,27.11,5.37c17.36,0.4,24-3.61,27.11-5.78c0,0-1.26-27.01-26.48-18.18
			C3450.02-159.52,3444.97-124.54,3444.97-124.54z"/>
		<path d="M3474.44-116.62c-0.78,0-1.58-0.01-2.41-0.03c-18.32-0.42-27.86-5.46-28.25-5.67l-1.55-0.84l0.25-1.74
			c0.11-0.79,2.92-19.41,13.91-24.07c4.96-2.1,10.58-1.08,16.73,3.05c7.63-2.41,14.02-1.93,18.99,1.43
			c8.88,5.99,9.58,18.88,9.61,19.43l0.06,1.39l-1.14,0.8C3496.73-120.16,3489.8-116.62,3474.44-116.62z M3447.8-126.04
			c3.29,1.33,11.51,4.05,24.34,4.35c14.9,0.33,21.42-2.66,24.39-4.52c-0.41-3.08-1.94-10.53-7.27-14.12
			c-3.85-2.59-9.14-2.73-15.72-0.43l-1.24,0.43l-1.07-0.77c-5.04-3.64-9.37-4.73-12.88-3.24
			C3452.2-141.72,3448.93-131.53,3447.8-126.04z"/>
	</g>
	<g>
		<path class="st3" d="M3498.33-126.21c0,0-0.22-28.37-5.06-45.63c-4.84-17.27-4.9-34.53-4.9-34.53s-7.33-4.85-16.92-4.85
			c-9.59,0-16.87,4.85-16.87,4.85s0.29,23.02-2.59,34.53c-2.88,11.51-5.76,46.04-5.76,46.04s12.9-3.46,26.48-3.46
			C3486.95-129.26,3498.33-126.21,3498.33-126.21z"/>
		<path d="M3443.42-122.44l0.3-3.57c0.12-1.42,2.93-34.87,5.82-46.44c2.76-11.06,2.52-33.66,2.52-33.89l-0.02-1.37l1.14-0.76
			c0.32-0.22,8.03-5.27,18.27-5.27c10.23,0,17.99,5.05,18.31,5.27l1.12,0.74l0.01,1.35c0,0.17,0.12,17.15,4.8,33.86
			c4.87,17.39,5.14,45.12,5.15,46.29l0.03,3.31l-3.2-0.85c-0.11-0.03-11.26-2.96-24.96-2.96c-13.07,0-25.7,3.34-25.83,3.37
			L3443.42-122.44z M3457.11-204.94c0.01,5.33-0.14,23.58-2.68,33.71c-2.26,9.06-4.57,33.15-5.39,42.17
			c4.82-1.05,14.02-2.72,23.66-2.72c10.02,0,18.58,1.46,23.03,2.38c-0.22-7.86-1.15-28.39-4.89-41.77
			c-4.12-14.7-4.84-29.18-4.97-33.75c-2.27-1.23-7.8-3.79-14.43-3.79C3464.83-208.7,3459.38-206.18,3457.11-204.94z"/>
	</g>
</g>
<g>
	<g>
		<path class="st5" d="M3376.88-128.33c0,0,9.19,4.96,27.11,5.37c17.36,0.4,24-3.61,27.11-5.78c0,0-1.26-27.01-26.48-18.18
			C3381.92-163.31,3376.88-128.33,3376.88-128.33z"/>
		<path d="M3406.34-120.4c-0.78,0-1.58-0.01-2.41-0.03c-18.32-0.42-27.86-5.46-28.25-5.67l-1.55-0.84l0.25-1.74
			c0.11-0.79,2.92-19.41,13.91-24.07c4.96-2.1,10.58-1.08,16.73,3.05c7.63-2.41,14.01-1.93,18.99,1.43
			c8.88,5.99,9.58,18.88,9.61,19.43l0.06,1.39l-1.14,0.8C3428.63-123.94,3421.71-120.4,3406.34-120.4z M3379.71-129.82
			c3.29,1.33,11.51,4.05,24.34,4.35c14.9,0.34,21.42-2.66,24.39-4.52c-0.41-3.08-1.94-10.53-7.27-14.12
			c-3.85-2.59-9.14-2.73-15.72-0.43l-1.24,0.43l-1.07-0.77c-5.03-3.64-9.37-4.73-12.88-3.24
			C3384.1-145.5,3380.84-135.31,3379.71-129.82z"/>
	</g>
	<g>
		<path class="st3" d="M3430.24-129.99c0,0-0.22-28.37-5.06-45.63c-4.84-17.27-4.9-34.53-4.9-34.53s-7.33-4.85-16.92-4.85
			s-16.87,4.85-16.87,4.85s0.29,23.02-2.59,34.53c-2.88,11.51-5.76,46.04-5.76,46.04s12.9-3.46,26.48-3.46
			C3418.86-133.04,3430.24-129.99,3430.24-129.99z"/>
		<path d="M3375.33-126.23l0.3-3.57c0.12-1.42,2.93-34.87,5.82-46.44c2.76-11.06,2.52-33.66,2.52-33.89l-0.02-1.37l1.14-0.76
			c0.32-0.22,8.03-5.27,18.27-5.27c10.23,0,17.99,5.05,18.31,5.27l1.12,0.74l0.01,1.35c0,0.17,0.12,17.15,4.8,33.86
			c4.87,17.39,5.14,45.12,5.15,46.29l0.03,3.31l-3.2-0.85c-0.11-0.03-11.26-2.96-24.96-2.96c-13.07,0-25.7,3.34-25.83,3.37
			L3375.33-126.23z M3389.02-208.72c0.01,5.33-0.14,23.58-2.68,33.71c-2.26,9.06-4.57,33.15-5.39,42.17
			c4.82-1.05,14.02-2.72,23.66-2.72c10.02,0,18.58,1.45,23.03,2.38c-0.22-7.86-1.15-28.39-4.89-41.77
			c-4.12-14.7-4.84-29.18-4.97-33.75c-2.27-1.23-7.8-3.79-14.43-3.79C3396.73-212.49,3391.28-209.96,3389.02-208.72z"/>
	</g>
</g>
<g>
	<g>
		<path class="st5" d="M3313.83-128.33c0,0,9.19,4.96,27.11,5.37c17.36,0.4,24-3.61,27.11-5.78c0,0-1.26-27.01-26.48-18.18
			C3318.87-163.31,3313.83-128.33,3313.83-128.33z"/>
		<path d="M3343.29-120.4c-0.78,0-1.58-0.01-2.41-0.03c-18.32-0.42-27.86-5.46-28.25-5.67l-1.55-0.84l0.25-1.74
			c0.11-0.79,2.92-19.41,13.91-24.07c4.96-2.1,10.58-1.08,16.73,3.05c7.63-2.41,14.02-1.93,18.99,1.43
			c8.88,5.99,9.58,18.88,9.61,19.43l0.06,1.39l-1.14,0.8C3365.58-123.94,3358.66-120.4,3343.29-120.4z M3316.65-129.82
			c3.29,1.33,11.51,4.05,24.34,4.35c14.9,0.34,21.42-2.66,24.39-4.52c-0.41-3.08-1.94-10.53-7.27-14.12
			c-3.85-2.59-9.14-2.73-15.72-0.43l-1.24,0.43l-1.07-0.77c-5.03-3.64-9.37-4.73-12.88-3.24
			C3321.05-145.5,3317.78-135.31,3316.65-129.82z"/>
	</g>
	<g>
		<path class="st3" d="M3367.18-129.99c0,0-0.22-28.37-5.06-45.63s-4.9-34.53-4.9-34.53s-7.33-4.85-16.92-4.85
			s-16.87,4.85-16.87,4.85s0.29,23.02-2.59,34.53c-2.88,11.51-5.76,46.04-5.76,46.04s12.9-3.46,26.48-3.46
			C3355.81-133.04,3367.18-129.99,3367.18-129.99z"/>
		<path d="M3312.28-126.23l0.3-3.57c0.12-1.42,2.93-34.87,5.82-46.44c2.76-11.06,2.52-33.66,2.52-33.89l-0.02-1.37l1.14-0.76
			c0.32-0.22,8.03-5.27,18.27-5.27c10.23,0,17.99,5.05,18.31,5.27l1.12,0.74l0.01,1.35c0,0.17,0.12,17.15,4.8,33.86
			c4.87,17.39,5.14,45.12,5.15,46.29l0.03,3.31l-3.2-0.85c-0.11-0.03-11.26-2.96-24.96-2.96c-13.07,0-25.7,3.34-25.83,3.37
			L3312.28-126.23z M3325.96-208.72c0.01,5.33-0.14,23.58-2.68,33.71c-2.26,9.06-4.57,33.15-5.39,42.17
			c4.82-1.05,14.02-2.72,23.66-2.72c10.02,0,18.58,1.45,23.03,2.38c-0.22-7.86-1.15-28.39-4.89-41.77
			c-4.12-14.7-4.84-29.18-4.97-33.75c-2.27-1.23-7.8-3.79-14.43-3.79C3333.68-212.49,3328.23-209.96,3325.96-208.72z"/>
	</g>
</g>
<g>
	<rect x="3299.43" y="-154.05" class="st2" width="900.38" height="216.9"/>
	<path d="M4206.11,69.15h-912.99v-229.51h912.99V69.15z M3305.74,56.54h887.77v-204.29h-887.77V56.54z"/>
</g>
</svg>
