<?xml version="1.0" encoding="utf-8"?>
<!-- Generator: Adobe Illustrator 25.2.1, SVG Export Plug-In . SVG Version: 6.00 Build 0)  -->
<svg version="1.1" id="Calque_1" xmlns="http://www.w3.org/2000/svg" xmlns:xlink="http://www.w3.org/1999/xlink" x="0px" y="0px"
	 viewBox="0 0 1920 1080" style="enable-background:new 0 0 1920 1080;" xml:space="preserve">
<style type="text/css">
	.st0{fill:#7B8E65;}
	.st1{fill:#FFFFFF;}
	.st2{fill:#333333;}
	.st3{fill:#676767;}
	.st4{fill:#B3B3B2;}
	.st5{fill:#4E4D4D;}
</style>
<g>
	<g>
		<path d="M1793.36,66.63H143.06c-48.86,0-88.47,39.61-88.47,88.47v794.06c0,48.86,39.61,88.47,88.47,88.47h1650.31
			c48.86,0,88.47-39.61,88.47-88.47V155.1C1881.83,106.24,1842.22,66.63,1793.36,66.63z M1504.42,834.85
			c0,53.29-43.2,96.5-96.5,96.5H710.16c-53.29,0-96.5-43.2-96.5-96.5V211.41c0-53.29,43.2-96.5,96.5-96.5h697.76
			c53.29,0,96.5,43.2,96.5,96.5V834.85z"/>
		<path d="M1793.36,1040.15H143.06c-50.17,0-90.99-40.82-90.99-90.99V155.1c0-50.17,40.82-90.99,90.99-90.99h1650.31
			c50.17,0,90.99,40.82,90.99,90.99v794.06C1884.35,999.33,1843.53,1040.15,1793.36,1040.15z M143.06,69.15
			c-47.39,0-85.94,38.55-85.94,85.94v794.06c0,47.39,38.55,85.94,85.94,85.94h1650.31c47.39,0,85.94-38.55,85.94-85.94V155.1
			c0-47.39-38.55-85.94-85.94-85.94H143.06z M1407.92,933.87H710.16c-54.6,0-99.02-44.42-99.02-99.02V211.41
			c0-54.6,44.42-99.02,99.02-99.02h697.76c54.6,0,99.02,44.42,99.02,99.02v623.44C1506.94,889.45,1462.52,933.87,1407.92,933.87z
			 M710.16,117.44c-51.82,0-93.97,42.16-93.97,93.97v623.44c0,51.82,42.16,93.97,93.97,93.97h697.76
			c51.82,0,93.97-42.16,93.97-93.97V211.41c0-51.82-42.16-93.97-93.97-93.97H710.16z"/>
	</g>
	<g>
		<path class="st0" d="M1775.71,42.67H125.4c-48.86,0-88.47,39.61-88.47,88.47V925.2c0,48.86,39.61,88.47,88.47,88.47h1650.31
			c48.86,0,88.47-39.61,88.47-88.47V131.14C1864.17,82.28,1824.57,42.67,1775.71,42.67z M1504.42,834.85
			c0,53.29-43.2,96.5-96.5,96.5H710.16c-53.29,0-96.5-43.2-96.5-96.5V211.41c0-53.29,43.2-96.5,96.5-96.5h697.76
			c53.29,0,96.5,43.2,96.5,96.5V834.85z"/>
		<path d="M1775.71,1016.19H125.4c-50.17,0-90.99-40.82-90.99-90.99V131.14c0-50.17,40.82-90.99,90.99-90.99h1650.31
			c50.17,0,90.99,40.82,90.99,90.99V925.2C1866.7,975.37,1825.88,1016.19,1775.71,1016.19z M125.4,45.19
			c-47.39,0-85.94,38.55-85.94,85.94V925.2c0,47.39,38.55,85.94,85.94,85.94h1650.31c47.39,0,85.94-38.55,85.94-85.94V131.14
			c0-47.39-38.55-85.94-85.94-85.94H125.4z M1407.92,933.87H710.16c-54.6,0-99.02-44.42-99.02-99.02V211.41
			c0-54.6,44.42-99.02,99.02-99.02h697.76c54.6,0,99.02,44.42,99.02,99.02v623.44C1506.94,889.45,1462.52,933.87,1407.92,933.87z
			 M710.16,117.44c-51.82,0-93.97,42.16-93.97,93.97v623.44c0,51.82,42.16,93.97,93.97,93.97h697.76
			c51.82,0,93.97-42.16,93.97-93.97V211.41c0-51.82-42.16-93.97-93.97-93.97H710.16z"/>
	</g>
	<path d="M1481.38,148.87c14.35,16.84,23.04,38.67,23.04,62.54v623.44c0,53.29-43.2,96.5-96.5,96.5H710.16
		c-20.79,0-40.02-6.6-55.78-17.78c17.7,20.77,44.03,33.96,73.46,33.96h697.76c53.29,0,96.5-43.2,96.5-96.5V227.59
		C1522.1,195.09,1506.01,166.36,1481.38,148.87z"/>
	<g>
		<path d="M145.82,969.39c-34.31,0-62.23-27.92-62.23-62.23c0-34.31,27.92-62.23,62.23-62.23s62.23,27.92,62.23,62.23
			C208.05,941.48,180.14,969.39,145.82,969.39z M145.82,857.55c-27.36,0-49.62,22.26-49.62,49.62c0,27.36,22.26,49.62,49.62,49.62
			s49.62-22.26,49.62-49.62C195.44,879.8,173.18,857.55,145.82,857.55z"/>
		<g>
			<path d="M161.45,879.37c3.25,0,6.31,1.27,8.61,3.57c4.75,4.75,4.75,12.47,0,17.22l-31.24,31.24c-2.3,2.3-5.36,3.57-8.61,3.57
				c-3.25,0-6.31-1.27-8.61-3.57c-4.75-4.75-4.75-12.47,0-17.22l31.24-31.24C155.14,880.63,158.19,879.37,161.45,879.37
				 M161.45,867.16c-6.24,0-12.48,2.38-17.24,7.14l-31.24,31.24c-9.52,9.52-9.52,24.96,0,34.48h0c4.76,4.76,11,7.14,17.24,7.14
				c6.24,0,12.48-2.38,17.24-7.14l31.24-31.24c9.52-9.52,9.52-24.96,0-34.48l0,0C173.92,869.54,167.68,867.16,161.45,867.16
				L161.45,867.16z"/>
			<path d="M130.2,879.37c3.25,0,6.31,1.27,8.61,3.57l31.24,31.24c4.75,4.75,4.75,12.47,0,17.22c-2.3,2.3-5.36,3.57-8.61,3.57
				c-3.25,0-6.31-1.27-8.61-3.57l-31.24-31.24c-4.75-4.75-4.75-12.47,0-17.22C123.89,880.63,126.95,879.37,130.2,879.37
				 M130.2,867.16c-6.24,0-12.48,2.38-17.24,7.14l0,0c-9.52,9.52-9.52,24.96,0,34.48l31.24,31.24c4.76,4.76,11,7.14,17.24,7.14
				c6.24,0,12.48-2.38,17.24-7.14h0c9.52-9.52,9.52-24.96,0-34.48l-31.24-31.24C142.68,869.54,136.44,867.16,130.2,867.16
				L130.2,867.16z"/>
			<path class="st1" d="M130.2,879.37c3.25,0,6.31,1.27,8.61,3.57l31.24,31.24c4.75,4.75,4.75,12.47,0,17.22
				c-2.3,2.3-5.36,3.57-8.61,3.57c-3.25,0-6.31-1.27-8.61-3.57l-31.24-31.24c-4.75-4.75-4.75-12.47,0-17.22
				C123.89,880.63,126.95,879.37,130.2,879.37"/>
			<path class="st1" d="M161.45,879.37c3.25,0,6.31,1.27,8.61,3.57c4.75,4.75,4.75,12.47,0,17.22l-31.24,31.24
				c-2.3,2.3-5.36,3.57-8.61,3.57c-3.25,0-6.31-1.27-8.61-3.57c-4.75-4.75-4.75-12.47,0-17.22l31.24-31.24
				C155.14,880.63,158.19,879.37,161.45,879.37"/>
		</g>
	</g>
	<g>
		<path d="M1748.98,969.39c-34.31,0-62.23-27.92-62.23-62.23c0-34.31,27.92-62.23,62.23-62.23c34.31,0,62.23,27.92,62.23,62.23
			C1811.21,941.48,1783.3,969.39,1748.98,969.39z M1748.98,857.55c-27.36,0-49.62,22.26-49.62,49.62
			c0,27.36,22.26,49.62,49.62,49.62s49.62-22.26,49.62-49.62C1798.6,879.8,1776.34,857.55,1748.98,857.55z"/>
		<g>
			<path d="M1764.6,879.37c3.25,0,6.31,1.27,8.61,3.57c4.75,4.75,4.75,12.47,0,17.22l-31.24,31.24c-2.3,2.3-5.36,3.57-8.61,3.57
				c-3.25,0-6.31-1.27-8.61-3.57c-4.75-4.75-4.75-12.47,0-17.22l31.24-31.24C1758.29,880.63,1761.35,879.37,1764.6,879.37
				 M1764.6,867.16c-6.24,0-12.48,2.38-17.24,7.14l-31.24,31.24c-9.52,9.52-9.52,24.96,0,34.48h0c4.76,4.76,11,7.14,17.24,7.14
				s12.48-2.38,17.24-7.14l31.24-31.24c9.52-9.52,9.52-24.96,0-34.48l0,0C1777.08,869.54,1770.84,867.16,1764.6,867.16
				L1764.6,867.16z"/>
			<path d="M1733.36,879.37c3.25,0,6.31,1.27,8.61,3.57l31.24,31.24c4.75,4.75,4.75,12.47,0,17.22c-2.3,2.3-5.36,3.57-8.61,3.57
				c-3.25,0-6.31-1.27-8.61-3.57l-31.24-31.24c-4.75-4.75-4.75-12.47,0-17.22C1727.05,880.63,1730.11,879.37,1733.36,879.37
				 M1733.36,867.16c-6.24,0-12.48,2.38-17.24,7.14l0,0c-9.52,9.52-9.52,24.96,0,34.48l31.24,31.24c4.76,4.76,11,7.14,17.24,7.14
				s12.48-2.38,17.24-7.14h0c9.52-9.52,9.52-24.96,0-34.48l-31.24-31.24C1745.84,869.54,1739.6,867.16,1733.36,867.16
				L1733.36,867.16z"/>
			<path class="st1" d="M1733.36,879.37c3.25,0,6.31,1.27,8.61,3.57l31.24,31.24c4.75,4.75,4.75,12.47,0,17.22
				c-2.3,2.3-5.36,3.57-8.61,3.57c-3.25,0-6.31-1.27-8.61-3.57l-31.24-31.24c-4.75-4.75-4.75-12.47,0-17.22
				C1727.05,880.63,1730.11,879.37,1733.36,879.37"/>
			<path class="st1" d="M1764.6,879.37c3.25,0,6.31,1.27,8.61,3.57c4.75,4.75,4.75,12.47,0,17.22l-31.24,31.24
				c-2.3,2.3-5.36,3.57-8.61,3.57c-3.25,0-6.31-1.27-8.61-3.57c-4.75-4.75-4.75-12.47,0-17.22l31.24-31.24
				C1758.29,880.63,1761.35,879.37,1764.6,879.37"/>
		</g>
	</g>
	<g>
		<path d="M145.82,208.83c-34.31,0-62.23-27.92-62.23-62.23c0-34.31,27.92-62.23,62.23-62.23s62.23,27.92,62.23,62.23
			C208.05,180.91,180.14,208.83,145.82,208.83z M145.82,96.98c-27.36,0-49.62,22.26-49.62,49.62c0,27.36,22.26,49.62,49.62,49.62
			s49.62-22.26,49.62-49.62C195.44,119.24,173.18,96.98,145.82,96.98z"/>
		<g>
			<path d="M161.45,118.8c3.25,0,6.31,1.27,8.61,3.57c4.75,4.75,4.75,12.47,0,17.22l-31.24,31.24c-2.3,2.3-5.36,3.57-8.61,3.57
				c-3.25,0-6.31-1.27-8.61-3.57c-4.75-4.75-4.75-12.47,0-17.22l31.24-31.24C155.14,120.07,158.19,118.8,161.45,118.8 M161.45,106.6
				c-6.24,0-12.48,2.38-17.24,7.14l-31.24,31.24c-9.52,9.52-9.52,24.96,0,34.48h0c4.76,4.76,11,7.14,17.24,7.14
				c6.24,0,12.48-2.38,17.24-7.14l31.24-31.24c9.52-9.52,9.52-24.96,0-34.48l0,0C173.92,108.98,167.68,106.6,161.45,106.6
				L161.45,106.6z"/>
			<path d="M130.2,118.8c3.25,0,6.31,1.27,8.61,3.57l31.24,31.24c4.75,4.75,4.75,12.47,0,17.22c-2.3,2.3-5.36,3.57-8.61,3.57
				c-3.25,0-6.31-1.27-8.61-3.57l-31.24-31.24c-4.75-4.75-4.75-12.47,0-17.22C123.89,120.07,126.95,118.8,130.2,118.8 M130.2,106.6
				c-6.24,0-12.48,2.38-17.24,7.14l0,0c-9.52,9.52-9.52,24.96,0,34.48l31.24,31.24c4.76,4.76,11,7.14,17.24,7.14
				c6.24,0,12.48-2.38,17.24-7.14h0c9.52-9.52,9.52-24.96,0-34.48l-31.24-31.24C142.68,108.98,136.44,106.6,130.2,106.6L130.2,106.6
				z"/>
			<path class="st1" d="M130.2,118.8c3.25,0,6.31,1.27,8.61,3.57l31.24,31.24c4.75,4.75,4.75,12.47,0,17.22
				c-2.3,2.3-5.36,3.57-8.61,3.57c-3.25,0-6.31-1.27-8.61-3.57l-31.24-31.24c-4.75-4.75-4.75-12.47,0-17.22
				C123.89,120.07,126.95,118.8,130.2,118.8"/>
			<path class="st1" d="M161.45,118.8c3.25,0,6.31,1.27,8.61,3.57c4.75,4.75,4.75,12.47,0,17.22l-31.24,31.24
				c-2.3,2.3-5.36,3.57-8.61,3.57c-3.25,0-6.31-1.27-8.61-3.57c-4.75-4.75-4.75-12.47,0-17.22l31.24-31.24
				C155.14,120.07,158.19,118.8,161.45,118.8"/>
		</g>
	</g>
	<g>
		<path d="M1748.98,208.83c-34.31,0-62.23-27.92-62.23-62.23c0-34.31,27.92-62.23,62.23-62.23c34.31,0,62.23,27.92,62.23,62.23
			C1811.21,180.91,1783.3,208.83,1748.98,208.83z M1748.98,96.98c-27.36,0-49.62,22.26-49.62,49.62c0,27.36,22.26,49.62,49.62,49.62
			s49.62-22.26,49.62-49.62C1798.6,119.24,1776.34,96.98,1748.98,96.98z"/>
		<g>
			<path d="M1764.6,118.8c3.25,0,6.31,1.27,8.61,3.57c4.75,4.75,4.75,12.47,0,17.22l-31.24,31.24c-2.3,2.3-5.36,3.57-8.61,3.57
				c-3.25,0-6.31-1.27-8.61-3.57c-4.75-4.75-4.75-12.47,0-17.22l31.24-31.24C1758.29,120.07,1761.35,118.8,1764.6,118.8
				 M1764.6,106.6c-6.24,0-12.48,2.38-17.24,7.14l-31.24,31.24c-9.52,9.52-9.52,24.96,0,34.48h0c4.76,4.76,11,7.14,17.24,7.14
				s12.48-2.38,17.24-7.14l31.24-31.24c9.52-9.52,9.52-24.96,0-34.48l0,0C1777.08,108.98,1770.84,106.6,1764.6,106.6L1764.6,106.6z"
				/>
			<path d="M1733.36,118.8c3.25,0,6.31,1.27,8.61,3.57l31.24,31.24c4.75,4.75,4.75,12.47,0,17.22c-2.3,2.3-5.36,3.57-8.61,3.57
				c-3.25,0-6.31-1.27-8.61-3.57l-31.24-31.24c-4.75-4.75-4.75-12.47,0-17.22C1727.05,120.07,1730.11,118.8,1733.36,118.8
				 M1733.36,106.6c-6.24,0-12.48,2.38-17.24,7.14l0,0c-9.52,9.52-9.52,24.96,0,34.48l31.24,31.24c4.76,4.76,11,7.14,17.24,7.14
				s12.48-2.38,17.24-7.14h0c9.52-9.52,9.52-24.96,0-34.48l-31.24-31.24C1745.84,108.98,1739.6,106.6,1733.36,106.6L1733.36,106.6z"
				/>
			<path class="st1" d="M1733.36,118.8c3.25,0,6.31,1.27,8.61,3.57l31.24,31.24c4.75,4.75,4.75,12.47,0,17.22
				c-2.3,2.3-5.36,3.57-8.61,3.57c-3.25,0-6.31-1.27-8.61-3.57l-31.24-31.24c-4.75-4.75-4.75-12.47,0-17.22
				C1727.05,120.07,1730.11,118.8,1733.36,118.8"/>
			<path class="st1" d="M1764.6,118.8c3.25,0,6.31,1.27,8.61,3.57c4.75,4.75,4.75,12.47,0,17.22l-31.24,31.24
				c-2.3,2.3-5.36,3.57-8.61,3.57c-3.25,0-6.31-1.27-8.61-3.57c-4.75-4.75-4.75-12.47,0-17.22l31.24-31.24
				C1758.29,120.07,1761.35,118.8,1764.6,118.8"/>
		</g>
	</g>
</g>
<g>
	<rect x="2653.82" y="-553.8" class="st2" width="482.98" height="185.37"/>
	<path d="M3143.1-362.12h-495.59V-560.1h495.59V-362.12z M2660.12-374.73h470.37v-172.76h-470.37V-374.73z"/>
</g>
<g>
	<rect x="2653.82" y="-748" class="st2" width="482.98" height="185.37"/>
	<path d="M3143.1-556.32h-495.59V-754.3h495.59V-556.32z M2660.12-568.93h470.37v-172.76h-470.37V-568.93z"/>
</g>
<g>
	<rect x="2653.82" y="-821.14" class="st2" width="482.98" height="64.31"/>
	<path d="M3143.1-750.52h-495.59v-76.92h495.59V-750.52z M2660.12-763.13h470.37v-51.7h-470.37V-763.13z"/>
</g>
<g>
	<rect x="2653.82" y="-360.86" class="st2" width="482.98" height="185.37"/>
	<path d="M3143.1-169.18h-495.59v-197.98h495.59V-169.18z M2660.12-181.79h470.37v-172.76h-470.37V-181.79z"/>
</g>
<g>
	<rect x="2163.27" y="-553.8" class="st2" width="482.98" height="185.37"/>
	<path d="M2652.56-362.12h-495.59V-560.1h495.59V-362.12z M2169.58-374.73h470.37v-172.76h-470.37V-374.73z"/>
</g>
<g>
	<rect x="2163.27" y="-748" class="st2" width="482.98" height="185.37"/>
	<path d="M2652.56-556.32h-495.59V-754.3h495.59V-556.32z M2169.58-568.93h470.37v-172.76h-470.37V-568.93z"/>
</g>
<g>
	<rect x="2163.27" y="-821.14" class="st2" width="482.98" height="64.31"/>
	<path d="M2652.56-750.52h-495.59v-76.92h495.59V-750.52z M2169.58-763.13h470.37v-51.7h-470.37V-763.13z"/>
</g>
<g>
	<rect x="2163.27" y="-360.86" class="st2" width="482.98" height="185.37"/>
	<path d="M2652.56-169.18h-495.59v-197.98h495.59V-169.18z M2169.58-181.79h470.37v-172.76h-470.37V-181.79z"/>
</g>
<path d="M2686.84-183.05h-12.61v-73.72c0-9.42-7.66-17.08-17.08-17.08h-292.92v83.23h-12.61v-95.84h305.53
	c16.37,0,29.69,13.32,29.69,29.69V-183.05z"/>
<polygon points="2411.07,-247.55 2398.46,-247.55 2398.46,-281.24 2417.1,-333.96 2428.99,-329.75 2411.07,-279.07 "/>
<polygon points="2464.66,-247.37 2452.05,-247.37 2452.05,-281.05 2470.7,-333.77 2482.59,-329.57 2464.66,-278.88 "/>
<polygon points="2520.78,-247.55 2508.17,-247.55 2508.17,-281.24 2526.81,-333.96 2538.7,-329.75 2520.78,-279.07 "/>
<polygon points="2574.37,-247.37 2561.76,-247.37 2561.76,-281.05 2580.41,-333.77 2592.3,-329.57 2574.37,-278.88 "/>
<polygon points="2627.33,-247.37 2614.72,-247.37 2614.72,-281.05 2633.37,-333.77 2645.26,-329.57 2627.33,-278.88 "/>
<g>
	<path d="M2404.76-280.15c0,0-23.33-46.52,0-45.96C2428.09-325.55,2404.76-280.15,2404.76-280.15z"/>
	<path d="M2404.73-273.19l-2.78-5.55c-1.67-3.34-16.14-32.99-8.4-45.21c1.59-2.51,4.86-5.5,11.29-5.32
		c6.49,0.16,9.71,3.31,11.26,5.93c7.5,12.63-6.87,41.38-8.53,44.62L2404.73-273.19z M2404.34-322.97c-3.53,0-4.81,1.36-5.47,2.39
		c-3.71,5.85,0.95,21.41,5.92,32.98c4.92-11.25,9.51-26.43,5.89-32.52c-0.7-1.18-2.08-2.75-5.99-2.85
		C2404.57-322.97,2404.45-322.97,2404.34-322.97z"/>
</g>
<g>
	<path d="M2457.73-326.11c23.33,0.56,0,45.96,0,45.96S2434.4-326.68,2457.73-326.11"/>
	<path d="M2457.69-273.19l-2.78-5.55c-1.67-3.34-16.14-32.99-8.4-45.21c1.59-2.51,4.85-5.5,11.29-5.32
		c6.49,0.16,9.71,3.31,11.26,5.93c7.5,12.63-6.87,41.38-8.53,44.62L2457.69-273.19z M2457.3-322.97c-3.53,0-4.81,1.36-5.47,2.39
		c-3.71,5.85,0.95,21.41,5.92,32.98c4.92-11.25,9.51-26.43,5.89-32.52c-0.7-1.18-2.08-2.75-5.99-2.85
		C2457.53-322.97,2457.42-322.97,2457.3-322.97z"/>
</g>
<g>
	<path d="M2515.73-280.15c0,0-23.33-46.52,0-45.96S2515.73-280.15,2515.73-280.15z"/>
	<path d="M2515.7-273.19l-2.78-5.55c-1.67-3.34-16.14-32.99-8.4-45.21c1.59-2.51,4.84-5.5,11.29-5.32
		c6.49,0.16,9.71,3.31,11.26,5.93c7.5,12.63-6.87,41.38-8.53,44.62L2515.7-273.19z M2515.31-322.97c-3.53,0-4.81,1.36-5.47,2.39
		c-3.71,5.85,0.95,21.41,5.92,32.98c4.92-11.25,9.51-26.43,5.89-32.52c-0.7-1.18-2.08-2.75-5.99-2.85
		C2515.54-322.97,2515.42-322.97,2515.31-322.97z"/>
</g>
<g>
	<path d="M2568.7-326.11c23.33,0.56,0,45.96,0,45.96S2545.37-326.68,2568.7-326.11"/>
	<path d="M2568.66-273.19l-2.78-5.55c-1.67-3.34-16.14-32.99-8.4-45.21c1.59-2.51,4.85-5.5,11.29-5.32
		c6.49,0.16,9.71,3.31,11.26,5.93c7.5,12.63-6.87,41.38-8.53,44.62L2568.66-273.19z M2568.27-322.97c-3.53,0-4.81,1.36-5.47,2.39
		c-3.71,5.85,0.95,21.41,5.92,32.98c4.92-11.25,9.51-26.43,5.89-32.52c-0.7-1.18-2.08-2.75-5.99-2.85
		C2568.5-322.97,2568.39-322.97,2568.27-322.97z"/>
</g>
<g>
	<path d="M2620.4-280.15c0,0-23.33-46.52,0-45.96S2620.4-280.15,2620.4-280.15z"/>
	<path d="M2620.36-273.19l-2.78-5.55c-1.68-3.34-16.14-32.99-8.4-45.21c1.59-2.51,4.81-5.48,11.29-5.32
		c6.49,0.16,9.71,3.31,11.26,5.93c7.5,12.63-6.87,41.38-8.53,44.62L2620.36-273.19z M2619.98-322.97c-3.53,0-4.81,1.36-5.47,2.39
		c-3.71,5.85,0.95,21.41,5.92,32.98c4.92-11.25,9.51-26.43,5.89-32.52c-0.7-1.18-2.08-2.75-5.99-2.85
		C2620.2-322.97,2620.09-322.97,2619.98-322.97z"/>
</g>
<g>
	<path class="st3" d="M2691.05-372.21c0,0,0-78.35,0-100.96c0-22.62,16.99-23.88,16.99-23.88v-31.5h12.22v32.2
		c0,0,16.16-0.07,16.16,22.63s0,101.51,0,101.51H2691.05z"/>
	<path d="M2739.57-369.06h-51.67v-104.12c0-19.25,11.46-24.85,16.99-26.43v-32.1h18.52v32.61c2.5,0.57,6.08,1.9,9.25,5.06
		c4.58,4.57,6.91,11.4,6.91,20.31V-369.06z M2694.21-375.36h39.06v-98.36c0-18.76-11.69-19.46-13.02-19.48l-3.11-0.04l-0.03-3.11
		v-29.04h-5.91v31.27l-2.92,0.22c-0.55,0.05-14.07,1.47-14.07,20.74V-375.36z"/>
</g>
<g>
	<path class="st3" d="M2749.86-372.03c0,0,0-65.81,0-84.81c0-19,14.09-20.06,14.09-20.06v-26.46h10.13v27.04
		c0,0,13.4-0.06,13.4,19.01c0,19.07,0,85.27,0,85.27H2749.86z"/>
	<path d="M2790.64-368.88h-43.93v-87.96c0-16.05,9.23-21.04,14.09-22.56v-27.11h16.44V-479c2.1,0.54,4.93,1.71,7.45,4.22
		c3.95,3.93,5.95,9.81,5.95,17.47V-368.88z M2753.01-375.19h31.32v-82.11c0-15.23-9.22-15.84-10.27-15.86l-3.09-0.06l-0.04-3.1
		v-23.89h-3.83v26.23l-2.92,0.22c-1.12,0.11-11.17,1.49-11.17,16.91V-375.19z"/>
</g>
<g>
	<path class="st3" d="M2845.7-372.03c0,0,0-82.87,0-106.79c0-23.92,16.92-25.26,16.92-25.26v-33.32h12.17v34.06
		c0,0,16.1-0.07,16.1,23.94c0,24.01,0,107.38,0,107.38H2845.7z"/>
	<path d="M2894.04-368.88h-51.5v-109.95c0-20.23,11.41-26.11,16.92-27.77v-33.96h18.47v34.49c2.4,0.57,5.8,1.9,8.87,4.95
		c4.8,4.78,7.23,12.08,7.23,21.7V-368.88z M2848.85-375.19h38.89v-104.22c0-20.35-12.43-20.78-12.96-20.79l-3.1-0.05l-0.03-3.1
		v-30.9h-5.86v33.08l-2.91,0.23c-0.55,0.05-14.02,1.58-14.02,22.12V-375.19z"/>
</g>
<g>
	<path class="st3" d="M2910.01-372.03c0,0,0-70.86,0-91.32s16.99-21.6,16.99-21.6v-28.49h12.22v29.12c0,0,16.16-0.06,16.16,20.47
		s0,91.82,0,91.82H2910.01z"/>
	<path d="M2958.52-368.88h-51.66v-94.47c0-17.62,11.44-22.75,16.99-24.19v-29.05h18.52v29.5c2.65,0.55,6.5,1.9,9.81,5.19
		c4.21,4.2,6.35,10.27,6.35,18.05V-368.88z M2913.17-375.19h39.05v-88.67c0-6.04-1.51-10.61-4.49-13.58
		c-3.66-3.65-8.44-3.73-8.5-3.73l0,0l-3.17,0.01v-29.13h-5.91v28.29l-2.94,0.2c-1.42,0.11-14.04,1.6-14.04,18.45V-375.19z"/>
</g>
<g>
	<path class="st3" d="M2990.72-372.03c0,0,0-78.35,0-100.96c0-22.62,15.03-23.88,15.03-23.88v-31.5h10.81v32.2
		c0,0,14.3-0.07,14.3,22.63s0,101.51,0,101.51H2990.72z"/>
	<path d="M3034.02-368.88h-46.45V-473c0-18.9,9.96-24.64,15.03-26.34v-32.2h17.12v32.67c2.07,0.55,4.85,1.75,7.45,4.34
		c4.55,4.52,6.85,11.58,6.85,20.97V-368.88z M2993.87-375.19h33.84v-98.36c0-19.02-10.72-19.47-11.17-19.48l-3.08-0.07l-0.04-3.09
		v-29.04h-4.51v31.25l-2.89,0.24c-0.46,0.05-12.14,1.51-12.14,20.74V-375.19z"/>
</g>
<g>
	<path class="st3" d="M3046.2-372.03c0,0,0-57.59,0-74.22s26.84-17.55,26.84-17.55v-23.16h19.3v23.67c0,0,25.53-0.05,25.53,16.64
		s0,74.62,0,74.62H3046.2z"/>
	<path d="M3121.03-368.88h-77.98v-77.37c0-15.92,19.2-19.62,26.84-20.46v-23.4h25.61v23.82c5.03,0.43,14.85,2.01,20.72,7.87
		c3.19,3.18,4.81,7.14,4.81,11.77V-368.88z M3049.36-375.19h65.37v-71.47c0-13.32-22.15-13.48-22.38-13.48l-3.15,0l0-23.67h-13
		v23.05l-3.04,0.11c-0.23,0.01-23.8,1.02-23.8,14.4V-375.19z"/>
</g>
<g>
	<path class="st3" d="M2674.2-566.23c0,0,0-78.35,0-100.96c0-22.62,16.99-23.88,16.99-23.88v-31.5h12.22v32.2
		c0,0,16.16-0.07,16.16,22.63s0,101.51,0,101.51H2674.2z"/>
	<path d="M2722.71-563.08h-51.66V-667.2c0-19.25,11.45-24.85,16.99-26.43v-32.1h18.52v32.61c2.5,0.57,6.07,1.9,9.25,5.06
		c4.58,4.57,6.91,11.4,6.91,20.31V-563.08z M2677.35-569.39h39.05v-98.36c0-18.76-11.69-19.46-13.02-19.48l-3.11-0.04l-0.03-3.11
		v-29.04h-5.91v31.27l-2.92,0.22c-0.55,0.05-14.07,1.47-14.07,20.74V-569.39z"/>
</g>
<g>
	<path class="st3" d="M2728.42-566.23c0,0,0-63.91,0-82.36s20.7-19.48,20.7-19.48v-25.7h14.89v26.27c0,0,19.69-0.05,19.69,18.46
		c0,18.52,0,82.81,0,82.81H2728.42z"/>
	<path d="M2786.86-563.08h-61.58v-85.52c0-15.07,12.22-20.9,20.7-22.3v-26.03h21.19v26.52c3.6,0.51,9.56,2.01,14.01,6.45
		c3.77,3.76,5.68,8.77,5.68,14.91V-563.08z M2731.58-569.39h48.97v-79.66c0-4.4-1.29-7.91-3.83-10.44
		c-4.76-4.75-12.61-4.87-12.7-4.87l0,0l-3.16,0.01v-26.27h-8.58v25.54l-3,0.15c-0.72,0.04-17.7,1.15-17.7,16.33V-569.39z"/>
</g>
<g>
	<path class="st3" d="M2824.26-566.23c0,0,0-67.07,0-86.43s14.56-20.44,14.56-20.44v-26.97h10.47v27.56c0,0,13.85-0.06,13.85,19.37
		s0,86.91,0,86.91H2824.26z"/>
	<path d="M2866.3-563.08h-45.19v-89.59c0-16.4,9.59-21.45,14.56-22.96v-27.6h16.78v28.02c2.18,0.54,5.16,1.74,7.8,4.38
		c4.01,4,6.05,9.95,6.05,17.7V-563.08z M2827.42-569.39H2860v-83.75c0-15.59-9.62-16.2-10.72-16.22l-3.1-0.05l-0.03-3.1v-24.41
		h-4.17v26.74l-2.92,0.22c-1.17,0.11-11.64,1.52-11.64,17.3V-569.39z"/>
</g>
<g>
	<path class="st3" d="M3020.98-566.23c0,0,0-54.43,0-70.15s15.51-16.59,15.51-16.59v-21.89h11.15v22.37c0,0,14.75-0.05,14.75,15.72
		s0,70.53,0,70.53H3020.98z"/>
	<path d="M3065.54-563.08h-47.71v-73.3c0-12.71,8.94-17.89,15.51-19.32v-22.31h17.46v22.72c2.68,0.51,6.56,1.78,9.7,4.9
		c3.35,3.34,5.05,7.93,5.05,13.63V-563.08z M3024.14-569.39h35.1v-67.38c0-12.13-10.42-12.56-11.6-12.57l-3.13-0.02l-0.02-3.13
		v-19.22h-4.85v21.71l-2.98,0.17c-1.27,0.08-12.53,1.18-12.53,13.44V-569.39z"/>
</g>
<g>
	<path class="st3" d="M3078.78-566.23c0,0,0-73.39,0-94.58s16.12-22.37,16.12-22.37v-29.51h11.59v30.16c0,0,15.33-0.06,15.33,21.2
		c0,21.26,0,95.09,0,95.09H3078.78z"/>
	<path d="M3124.98-563.08h-49.35v-97.73c0-18.03,10.78-23.37,16.12-24.91v-30.12h17.9v30.58c2.41,0.56,5.8,1.85,8.8,4.84
		c4.34,4.32,6.54,10.74,6.54,19.1V-563.08z M3081.94-569.39h36.74v-91.94c0-6.61-1.57-11.54-4.68-14.63
		c-3.35-3.34-7.44-3.42-7.49-3.42c0,0,0,0,0,0l-3.16,0.01v-30.17h-5.29v29.29l-2.92,0.21c-1.33,0.12-13.2,1.68-13.2,19.22V-569.39z"
		/>
</g>
<g>
	<path class="st3" d="M2488.62-372.03c0,0,0-50.64,0-65.26c0-14.62,30.76-15.44,30.76-15.44v-20.36h22.12v20.81
		c0,0,29.26-0.04,29.26,14.63c0,14.67,0,65.62,0,65.62H2488.62z"/>
	<path d="M2573.91-368.88h-88.44v-68.41c0-14.68,22.13-17.77,30.76-18.42v-20.53h28.43v20.92c5.98,0.36,18.87,1.87,25.28,8.27
		c2.64,2.64,3.98,5.8,3.98,9.4V-368.88z M2491.77-375.19h75.83v-62.46c0-4.43-4.09-7.71-12.15-9.73
		c-6.86-1.72-13.89-1.74-13.96-1.74l-3.15,0l0-20.81h-15.81v20.28l-3.07,0.08c-7.18,0.2-27.69,2.88-27.69,12.28V-375.19z"/>
</g>
<g>
	<path class="st3" d="M2590.97-372.38c0,0,0-60.58,0-78.07c0-17.49,15.98-18.46,15.98-18.46v-24.36h11.49v24.89
		c0,0,15.2-0.05,15.2,17.5s0,78.49,0,78.49H2590.97z"/>
	<path d="M2636.79-369.23h-48.97v-81.22c0-13.97,9.24-19.63,15.98-21.17v-24.8h17.8v25.26c2.64,0.53,6.47,1.82,9.65,4.99
		c3.68,3.67,5.55,8.81,5.55,15.3V-369.23z M2594.12-375.54h36.36v-75.34c0-4.75-1.24-8.39-3.69-10.83
		c-3.44-3.43-8.29-3.52-8.34-3.52l0,0l-3.16,0.01v-24.91h-5.19v24.17l-2.96,0.18c-1.32,0.09-13.02,1.34-13.02,15.32V-375.54z"/>
</g>
<g>
	<path class="st3" d="M2396.77-372.38c0,0,0-78.35,0-100.96c0-22.62,16.99-23.88,16.99-23.88v-31.5h12.22v32.2
		c0,0,16.16-0.07,16.16,22.63c0,22.7,0,101.51,0,101.51H2396.77z"/>
	<path d="M2445.28-369.23h-51.66v-104.12c0-19.25,11.46-24.85,16.99-26.43v-32.1h18.52v32.61c2.5,0.57,6.07,1.9,9.25,5.06
		c4.58,4.57,6.91,11.4,6.91,20.31V-369.23z M2399.92-375.54h39.05v-98.36c0-18.76-11.69-19.46-13.02-19.48l-3.11-0.04l-0.03-3.11
		v-29.04h-5.91v31.27l-2.92,0.22c-0.55,0.05-14.07,1.47-14.07,20.74V-375.54z"/>
</g>
<g>
	<path class="st3" d="M2311.65-370.49c0,0,0-82.69,0-106.57c0-23.87,21.17-25.2,21.17-25.2v-33.25h15.23v33.98
		c0,0,20.14-0.07,20.14,23.89c0,23.96,0,107.15,0,107.15H2311.65z"/>
	<path d="M2371.34-367.34h-62.85v-109.72c0-20.83,14.73-26.42,21.17-27.87v-33.74h21.53v34.3c3.29,0.56,8.54,2.12,12.9,6.46
		c4.81,4.79,7.24,11.61,7.24,20.26V-367.34z M2314.8-373.64h50.24v-104c0-6.92-1.81-12.23-5.39-15.8
		c-4.84-4.82-11.51-4.94-11.59-4.94l0,0l-3.16,0.01v-34h-8.92v33.06l-2.95,0.19c-0.73,0.05-18.22,1.53-18.22,22.06V-373.64z"/>
</g>
<g>
	<path class="st3" d="M2260.58-371.12c0,0,0-72.58,0-93.54c0-20.95,14.09-22.12,14.09-22.12v-29.18h10.13v29.83
		c0,0,13.4-0.06,13.4,20.97c0,21.03,0,94.05,0,94.05H2260.58z"/>
	<path d="M2301.36-367.97h-43.93v-96.69c0-17.49,9.24-22.92,14.09-24.57v-29.89h16.44v30.31c1.96,0.54,4.56,1.69,6.98,4.1
		c4.26,4.24,6.42,10.82,6.42,19.54V-367.97z M2263.73-374.27h31.32v-90.9c0-17.08-9.22-17.79-10.28-17.82l-3.08-0.07l-0.05-3.08
		v-26.68h-3.83v28.93l-2.89,0.24c-0.42,0.05-11.2,1.39-11.2,18.98V-374.27z"/>
</g>
<g>
	<path class="st3" d="M2533.39-566.93c0,0-6.73-57.87-6.73-74.58s32.98-17.64,32.98-17.64v-23.27h23.72v23.78
		c0,0,31.37-0.05,31.37,16.72s-6.94,74.99-6.94,74.99H2533.39z"/>
	<path d="M2610.59-563.78h-80.01l-0.32-2.79c-0.28-2.37-6.75-58.25-6.75-74.95c0-16.36,24.22-19.87,32.98-20.6v-23.46h30.02v23.9
		c6.19,0.37,19.83,2,26.85,9.01c3,3,4.52,6.61,4.52,10.75c0,16.76-6.67,72.98-6.96,75.36L2610.59-563.78z M2536.2-570.08h68.78
		c1.37-11.77,6.59-57.53,6.59-71.84c0-5.32-4.46-9.22-13.24-11.57c-7.35-1.97-14.9-1.99-14.97-1.99l-3.15,0l0-23.79h-17.41v23.18
		l-3.06,0.09c-0.3,0.01-29.92,1.25-29.92,14.49C2529.81-627.26,2534.87-581.83,2536.2-570.08z"/>
</g>
<g>
	<path class="st3" d="M2467.39-566.93c0,0,0-43.97,0-56.67c0-12.69,12.67-13.4,12.67-13.4v-17.68h9.11v18.07
		c0,0,12.05-0.04,12.05,12.7s0,56.98,0,56.98H2467.39z"/>
	<path d="M2504.38-563.78h-40.15v-59.82c0-10.37,7.16-14.76,12.67-16.1v-18.14h15.42v18.46c2.25,0.49,5.31,1.59,7.8,4.07
		c2.82,2.81,4.25,6.65,4.25,11.39V-563.78z M2470.54-570.08h27.54v-53.82c0-3.01-0.81-5.34-2.4-6.93c-2.57-2.56-6.45-2.62-6.49-2.62
		l0,0l-3.16,0.01v-18.08h-2.81v17.51l-2.98,0.17c-0.98,0.07-9.7,0.92-9.7,10.25V-570.08z"/>
</g>
<g>
	<path class="st3" d="M2362.72-566.93c0,0,0-68.62,0-88.43s20.23-20.91,20.23-20.91v-27.59h14.55v28.2c0,0,19.24-0.06,19.24,19.82
		c0,19.88,0,88.91,0,88.91H2362.72z"/>
	<path d="M2419.89-563.78h-60.32v-91.58c0-15.98,11.93-22.19,20.23-23.7v-27.95h20.85v28.48c3.39,0.53,8.86,2.03,13.14,6.29
		c4.05,4.04,6.1,9.55,6.1,16.4V-563.78z M2365.88-570.08h47.71v-85.76c0-16.13-14.44-16.66-16.09-16.67l-3.14-0.01l-0.01-3.14
		v-25.05h-8.24v27.42l-2.98,0.16c-0.69,0.04-17.25,1.25-17.25,17.77V-570.08z"/>
</g>
<g>
	<path class="st3" d="M2289.58-565.67c0,0,0-64.19,0-82.73s14.56-19.57,14.56-19.57v-25.81h10.47v26.38c0,0,13.85-0.05,13.85,18.54
		s0,83.18,0,83.18H2289.58z"/>
	<path d="M2331.62-562.52h-45.19v-85.88c0-14.51,8.36-20.49,14.56-22.19v-26.34h16.78v26.82c2.24,0.54,5.32,1.74,8.01,4.43
		c3.87,3.86,5.84,9.52,5.84,16.83V-562.52z M2292.74-568.82h32.58v-80.03c0-5.57-1.34-9.73-3.98-12.36
		c-2.97-2.96-6.66-3.03-6.71-3.03l0,0l-3.16,0.01v-26.39h-4.17v25.59l-2.93,0.21c-1.17,0.1-11.63,1.44-11.63,16.42V-568.82z"/>
</g>
<g>
	<line class="st4" x1="2250.29" y1="-137.66" x2="3143.1" y2="-137.66"/>
	<rect x="2250.29" y="-143.96" width="892.81" height="12.61"/>
</g>
<g>
	<g>
		<path class="st5" d="M2669.79-165.75c0,0,9.19,4.96,27.11,5.37c17.36,0.4,24-3.61,27.11-5.78c0,0-1.26-27.01-26.48-18.18
			C2674.84-200.74,2669.79-165.75,2669.79-165.75z"/>
		<path d="M2699.26-157.83c-0.78,0-1.58-0.01-2.41-0.03c-18.31-0.42-27.85-5.46-28.25-5.67l-1.55-0.84l0.25-1.74
			c0.11-0.79,2.92-19.41,13.91-24.07c4.96-2.1,10.58-1.08,16.73,3.05c7.63-2.41,14.02-1.93,18.99,1.43
			c8.88,5.99,9.58,18.88,9.61,19.43l0.07,1.39l-1.14,0.8C2721.55-161.37,2714.62-157.83,2699.26-157.83z M2672.62-167.25
			c3.29,1.33,11.51,4.05,24.34,4.34c14.89,0.34,21.42-2.66,24.39-4.52c-0.41-3.08-1.94-10.53-7.27-14.12
			c-3.85-2.59-9.14-2.73-15.72-0.43l-1.24,0.43l-1.07-0.77c-5.04-3.64-9.37-4.73-12.88-3.24
			C2677.02-182.93,2673.75-172.74,2672.62-167.25z"/>
	</g>
	<g>
		<path class="st3" d="M2723.15-167.42c0,0-0.22-28.37-5.06-45.63s-4.9-34.53-4.9-34.53s-7.33-4.85-16.92-4.85
			s-16.87,4.85-16.87,4.85s0.29,23.02-2.59,34.53c-2.88,11.51-5.76,46.04-5.76,46.04s12.9-3.46,26.48-3.46
			C2711.77-170.47,2723.15-167.42,2723.15-167.42z"/>
		<path d="M2668.24-163.65l0.3-3.57c0.12-1.42,2.93-34.87,5.82-46.44c2.76-11.06,2.52-33.66,2.52-33.89l-0.02-1.37l1.14-0.76
			c0.32-0.22,8.03-5.27,18.27-5.27c10.23,0,17.99,5.05,18.31,5.27l1.13,0.74l0,1.35c0,0.17,0.12,17.15,4.81,33.86
			c4.87,17.39,5.14,45.12,5.15,46.29l0.03,3.31l-3.2-0.85c-0.11-0.03-11.26-2.96-24.96-2.96c-13.07,0-25.7,3.34-25.83,3.37
			L2668.24-163.65z M2681.93-246.15c0.01,5.33-0.14,23.58-2.67,33.71c-2.26,9.06-4.57,33.15-5.39,42.17
			c4.82-1.05,14.02-2.72,23.66-2.72c10.02,0,18.58,1.45,23.03,2.38c-0.22-7.86-1.15-28.39-4.89-41.77
			c-4.12-14.7-4.84-29.18-4.97-33.75c-2.27-1.23-7.8-3.79-14.43-3.79C2689.65-249.92,2684.2-247.39,2681.93-246.15z"/>
	</g>
</g>
<g>
	<g>
		<path class="st5" d="M2762.01-161.97c0,0,9.19,4.96,27.11,5.37c17.36,0.4,24-3.61,27.11-5.78c0,0-1.26-27.01-26.48-18.18
			C2767.06-196.95,2762.01-161.97,2762.01-161.97z"/>
		<path d="M2791.48-154.05c-0.78,0-1.58-0.01-2.41-0.03c-18.31-0.42-27.85-5.46-28.25-5.67l-1.55-0.84l0.25-1.74
			c0.11-0.79,2.92-19.41,13.91-24.07c4.96-2.1,10.58-1.08,16.73,3.05c7.63-2.41,14.01-1.93,18.99,1.43
			c8.88,5.99,9.58,18.88,9.61,19.43l0.07,1.39l-1.14,0.8C2813.77-157.59,2806.84-154.05,2791.48-154.05z M2764.84-163.47
			c3.29,1.33,11.51,4.05,24.34,4.34c14.88,0.34,21.41-2.66,24.39-4.52c-0.41-3.08-1.94-10.53-7.27-14.12
			c-3.85-2.59-9.14-2.73-15.72-0.43l-1.24,0.43l-1.07-0.77c-5.04-3.64-9.37-4.73-12.88-3.24
			C2769.24-179.15,2765.97-168.96,2764.84-163.47z"/>
	</g>
	<g>
		<path class="st3" d="M2815.37-163.64c0,0-0.22-28.37-5.06-45.63s-4.9-34.53-4.9-34.53s-7.33-4.85-16.92-4.85
			s-16.87,4.85-16.87,4.85s0.29,23.02-2.59,34.53c-2.88,11.51-5.76,46.04-5.76,46.04s12.9-3.46,26.48-3.46
			C2803.99-166.69,2815.37-163.64,2815.37-163.64z"/>
		<path d="M2760.46-159.87l0.3-3.57c0.12-1.42,2.93-34.87,5.82-46.44c2.77-11.06,2.52-33.66,2.52-33.89l-0.02-1.37l1.14-0.76
			c0.32-0.22,8.03-5.27,18.27-5.27c10.23,0,17.99,5.05,18.31,5.27l1.13,0.74l0,1.35c0,0.17,0.12,17.15,4.8,33.86
			c4.87,17.39,5.14,45.12,5.15,46.29l0.03,3.31l-3.2-0.85c-0.11-0.03-11.26-2.96-24.96-2.96c-13.07,0-25.7,3.34-25.83,3.37
			L2760.46-159.87z M2774.15-242.37c0.01,5.33-0.14,23.58-2.68,33.71c-2.26,9.06-4.57,33.15-5.38,42.17
			c4.82-1.05,14.02-2.72,23.66-2.72c10.02,0,18.58,1.45,23.02,2.38c-0.22-7.86-1.15-28.39-4.89-41.77
			c-4.12-14.7-4.84-29.18-4.96-33.75c-2.27-1.23-7.8-3.79-14.43-3.79C2781.87-246.13,2776.42-243.61,2774.15-242.37z"/>
	</g>
</g>
<g>
	<g>
		<path class="st5" d="M3004.13-165.75c0,0,9.19,4.96,27.11,5.37c17.36,0.4,24-3.61,27.11-5.78c0,0-1.26-27.01-26.48-18.18
			C3009.17-200.74,3004.13-165.75,3004.13-165.75z"/>
		<path d="M3033.6-157.83c-0.78,0-1.58-0.01-2.41-0.03c-18.31-0.42-27.85-5.46-28.25-5.67l-1.55-0.84l0.25-1.74
			c0.11-0.79,2.92-19.41,13.91-24.07c4.95-2.1,10.58-1.08,16.73,3.05c7.63-2.41,14.02-1.93,18.99,1.43
			c8.88,5.99,9.58,18.88,9.61,19.43l0.07,1.39l-1.14,0.8C3055.88-161.37,3048.96-157.83,3033.6-157.83z M3006.96-167.25
			c3.29,1.33,11.51,4.05,24.34,4.34c14.89,0.34,21.42-2.66,24.39-4.52c-0.41-3.08-1.94-10.53-7.27-14.12
			c-3.85-2.59-9.14-2.73-15.72-0.43l-1.24,0.43l-1.07-0.77c-5.04-3.64-9.37-4.73-12.88-3.24
			C3011.35-182.93,3008.09-172.74,3006.96-167.25z"/>
	</g>
	<g>
		<path class="st3" d="M3057.49-167.42c0,0-0.22-28.37-5.06-45.63c-4.84-17.27-4.9-34.53-4.9-34.53s-7.33-4.85-16.92-4.85
			s-16.87,4.85-16.87,4.85s0.29,23.02-2.59,34.53c-2.88,11.51-5.76,46.04-5.76,46.04s12.9-3.46,26.48-3.46
			C3046.11-170.47,3057.49-167.42,3057.49-167.42z"/>
		<path d="M3002.58-163.65l0.3-3.57c0.12-1.42,2.93-34.87,5.82-46.44c2.77-11.06,2.52-33.66,2.52-33.89l-0.02-1.37l1.14-0.76
			c0.32-0.22,8.03-5.27,18.27-5.27c10.23,0,17.99,5.05,18.31,5.27l1.13,0.74l0,1.35c0,0.17,0.12,17.15,4.8,33.86
			c4.87,17.39,5.14,45.12,5.15,46.29l0.03,3.31l-3.2-0.85c-0.11-0.03-11.26-2.96-24.96-2.96c-13.07,0-25.7,3.34-25.83,3.37
			L3002.58-163.65z M3016.27-246.15c0.01,5.33-0.14,23.58-2.68,33.71c-2.26,9.06-4.57,33.15-5.38,42.17
			c4.82-1.05,14.02-2.72,23.66-2.72c10.02,0,18.58,1.45,23.02,2.38c-0.22-7.86-1.15-28.39-4.89-41.77
			c-4.12-14.7-4.84-29.18-4.96-33.75c-2.27-1.23-7.8-3.79-14.43-3.79C3023.98-249.92,3018.54-247.39,3016.27-246.15z"/>
	</g>
</g>
<g>
	<g>
		<path class="st5" d="M3064.04-164.9c0,0,9.19,4.96,27.11,5.37c17.36,0.4,24-3.61,27.11-5.78c0,0-1.26-27.01-26.48-18.18
			C3069.09-199.88,3064.04-164.9,3064.04-164.9z"/>
		<path d="M3093.5-156.97c-0.78,0-1.58-0.01-2.41-0.03c-18.31-0.42-27.85-5.46-28.25-5.67l-1.55-0.84l0.25-1.74
			c0.11-0.79,2.92-19.41,13.91-24.07c4.96-2.1,10.58-1.08,16.73,3.05c7.63-2.41,14.02-1.93,18.99,1.43
			c8.88,5.99,9.58,18.88,9.61,19.43l0.07,1.39l-1.14,0.8C3115.8-160.51,3108.87-156.97,3093.5-156.97z M3066.87-166.39
			c3.29,1.33,11.51,4.05,24.34,4.35c14.89,0.34,21.42-2.66,24.39-4.52c-0.41-3.08-1.94-10.53-7.27-14.12
			c-3.85-2.59-9.14-2.73-15.72-0.43l-1.24,0.43l-1.07-0.77c-5.04-3.64-9.37-4.73-12.88-3.24
			C3071.27-182.07,3068-171.88,3066.87-166.39z"/>
	</g>
	<g>
		<path class="st3" d="M3117.4-166.56c0,0-0.22-28.37-5.06-45.63c-4.84-17.27-4.9-34.53-4.9-34.53s-7.33-4.85-16.92-4.85
			c-9.59,0-16.87,4.85-16.87,4.85s0.29,23.02-2.59,34.53c-2.88,11.51-5.76,46.04-5.76,46.04s12.9-3.46,26.48-3.46
			C3106.02-169.61,3117.4-166.56,3117.4-166.56z"/>
		<path d="M3062.49-162.79l0.3-3.57c0.12-1.42,2.93-34.87,5.82-46.44c2.77-11.06,2.52-33.66,2.52-33.89l-0.02-1.37l1.14-0.76
			c0.32-0.22,8.03-5.27,18.27-5.27c10.23,0,17.99,5.05,18.31,5.27l1.13,0.74l0,1.35c0,0.17,0.12,17.15,4.8,33.86
			c4.87,17.39,5.14,45.12,5.15,46.29l0.03,3.31l-3.2-0.85c-0.11-0.03-11.26-2.96-24.96-2.96c-13.1,0-25.7,3.34-25.83,3.37
			L3062.49-162.79z M3076.18-245.29c0.01,5.33-0.14,23.58-2.68,33.71c-2.26,9.05-4.57,33.15-5.38,42.17
			c4.82-1.05,14.02-2.72,23.66-2.72c10.02,0,18.58,1.46,23.03,2.38c-0.22-7.86-1.15-28.39-4.89-41.77
			c-4.12-14.7-4.84-29.18-4.96-33.75c-2.27-1.23-7.8-3.79-14.43-3.79C3083.9-249.06,3078.45-246.53,3076.18-245.29z"/>
	</g>
</g>
<g>
	<g>
		<path class="st5" d="M2555.85-161.11c0,0,9.19,4.96,27.11,5.37c17.36,0.4,24-3.61,27.11-5.78c0,0-1.26-27.01-26.48-18.18
			C2560.89-196.09,2555.85-161.11,2555.85-161.11z"/>
		<path d="M2585.31-153.19c-0.78,0-1.58-0.01-2.41-0.03c-18.32-0.42-27.86-5.46-28.25-5.67l-1.55-0.84l0.25-1.74
			c0.11-0.79,2.92-19.41,13.91-24.07c4.96-2.11,10.58-1.08,16.73,3.05c7.63-2.41,14.02-1.93,18.99,1.43
			c8.88,5.99,9.58,18.88,9.61,19.43l0.07,1.39l-1.14,0.8C2607.6-156.73,2600.67-153.19,2585.31-153.19z M2558.67-162.61
			c3.29,1.33,11.51,4.05,24.34,4.35c14.89,0.34,21.42-2.66,24.39-4.52c-0.41-3.08-1.94-10.53-7.27-14.12
			c-3.85-2.59-9.14-2.73-15.72-0.43l-1.24,0.43l-1.07-0.77c-5.04-3.64-9.37-4.73-12.88-3.24
			C2563.07-178.29,2559.8-168.1,2558.67-162.61z"/>
	</g>
	<g>
		<path class="st3" d="M2609.2-162.78c0,0-0.22-28.37-5.06-45.63c-4.84-17.27-4.9-34.53-4.9-34.53s-7.33-4.85-16.92-4.85
			s-16.87,4.85-16.87,4.85s0.29,23.02-2.59,34.53c-2.88,11.51-5.76,46.04-5.76,46.04s12.9-3.46,26.48-3.46
			C2597.83-165.83,2609.2-162.78,2609.2-162.78z"/>
		<path d="M2554.3-159.01l0.3-3.57c0.12-1.42,2.93-34.87,5.82-46.44c2.77-11.06,2.52-33.66,2.52-33.89l-0.02-1.37l1.14-0.76
			c0.32-0.22,8.03-5.27,18.27-5.27c10.23,0,17.99,5.05,18.32,5.27l1.13,0.74l0,1.35c0,0.17,0.12,17.15,4.8,33.86
			c4.87,17.39,5.14,45.12,5.15,46.29l0.03,3.31l-3.2-0.85c-0.11-0.03-11.26-2.96-24.96-2.96c-13.07,0-25.7,3.34-25.83,3.37
			L2554.3-159.01z M2567.98-241.51c0.01,5.33-0.15,23.58-2.68,33.7c-2.26,9.06-4.57,33.15-5.39,42.17
			c4.82-1.05,14.02-2.72,23.66-2.72c10.02,0,18.58,1.45,23.03,2.38c-0.22-7.86-1.15-28.39-4.89-41.77
			c-4.12-14.7-4.84-29.18-4.96-33.75c-2.27-1.23-7.8-3.79-14.43-3.79C2575.74-245.27,2570.27-242.74,2567.98-241.51z"/>
	</g>
</g>
<g>
	<g>
		<path class="st5" d="M2487.88-161.11c0,0,9.19,4.96,27.11,5.37c17.36,0.4,24-3.61,27.11-5.78c0,0-1.26-27.01-26.48-18.18
			C2492.93-196.09,2487.88-161.11,2487.88-161.11z"/>
		<path d="M2517.35-153.19c-0.78,0-1.58-0.01-2.41-0.03c-18.32-0.42-27.86-5.46-28.25-5.67l-1.55-0.84l0.25-1.74
			c0.11-0.79,2.92-19.41,13.91-24.07c4.96-2.11,10.58-1.08,16.73,3.05c7.63-2.41,14.02-1.93,18.99,1.43
			c8.88,5.99,9.58,18.88,9.61,19.43l0.06,1.39l-1.14,0.8C2539.64-156.73,2532.71-153.19,2517.35-153.19z M2490.71-162.61
			c3.29,1.33,11.51,4.05,24.34,4.35c14.9,0.34,21.42-2.66,24.39-4.52c-0.41-3.08-1.94-10.53-7.27-14.12
			c-3.85-2.59-9.14-2.73-15.72-0.43l-1.24,0.43l-1.07-0.77c-5.03-3.64-9.37-4.73-12.88-3.24
			C2495.11-178.29,2491.84-168.1,2490.71-162.61z"/>
	</g>
	<g>
		<path class="st3" d="M2541.24-162.78c0,0-0.22-28.37-5.06-45.63c-4.84-17.27-4.9-34.53-4.9-34.53s-7.33-4.85-16.92-4.85
			s-16.87,4.85-16.87,4.85s0.29,23.02-2.59,34.53c-2.88,11.51-5.76,46.04-5.76,46.04s12.9-3.46,26.48-3.46
			C2529.86-165.83,2541.24-162.78,2541.24-162.78z"/>
		<path d="M2486.33-159.01l0.3-3.57c0.12-1.42,2.93-34.87,5.82-46.44c2.76-11.06,2.52-33.66,2.52-33.89l-0.02-1.37l1.14-0.76
			c0.32-0.22,8.03-5.27,18.27-5.27c10.23,0,17.99,5.05,18.31,5.27l1.12,0.74l0.01,1.35c0,0.17,0.12,17.15,4.8,33.86
			c4.87,17.39,5.14,45.12,5.15,46.29l0.03,3.31l-3.2-0.85c-0.11-0.03-11.26-2.96-24.96-2.96c-13.07,0-25.7,3.34-25.83,3.37
			L2486.33-159.01z M2500.02-241.51c0.01,5.33-0.14,23.58-2.68,33.71c-2.26,9.06-4.57,33.15-5.39,42.17
			c4.82-1.05,14.02-2.72,23.66-2.72c10.02,0,18.58,1.45,23.03,2.38c-0.22-7.86-1.15-28.39-4.89-41.77
			c-4.12-14.7-4.84-29.18-4.97-33.75c-2.27-1.23-7.8-3.79-14.43-3.79C2507.74-245.27,2502.29-242.75,2500.02-241.51z"/>
	</g>
</g>
<g>
	<g>
		<path class="st5" d="M2390.78-153.55c0,0,9.19,4.96,27.11,5.37c17.36,0.4,24-3.61,27.11-5.78c0,0-1.26-27.01-26.48-18.18
			C2395.83-188.53,2390.78-153.55,2390.78-153.55z"/>
		<path d="M2420.25-145.63c-0.78,0-1.58-0.01-2.41-0.03c-18.32-0.42-27.86-5.46-28.25-5.67l-1.55-0.84l0.25-1.74
			c0.11-0.79,2.92-19.41,13.91-24.07c4.96-2.1,10.58-1.08,16.73,3.05c7.63-2.41,14.02-1.93,18.99,1.43
			c8.88,5.99,9.58,18.88,9.61,19.43l0.06,1.39l-1.14,0.8C2442.54-149.16,2435.61-145.63,2420.25-145.63z M2393.61-155.04
			c3.29,1.33,11.51,4.05,24.34,4.35c14.9,0.33,21.42-2.66,24.39-4.52c-0.41-3.08-1.94-10.53-7.27-14.12
			c-3.85-2.59-9.14-2.73-15.72-0.43l-1.24,0.43l-1.07-0.77c-5.04-3.64-9.37-4.73-12.88-3.24
			C2398.01-170.73,2394.74-160.53,2393.61-155.04z"/>
	</g>
	<g>
		<path class="st3" d="M2444.14-155.22c0,0-0.22-28.37-5.06-45.63c-4.84-17.27-4.9-34.53-4.9-34.53s-7.33-4.85-16.92-4.85
			c-9.59,0-16.87,4.85-16.87,4.85s0.29,23.02-2.59,34.53s-5.76,46.04-5.76,46.04s12.9-3.46,26.48-3.46
			C2432.76-158.26,2444.14-155.22,2444.14-155.22z"/>
		<path d="M2389.23-151.45l0.3-3.57c0.12-1.42,2.93-34.87,5.82-46.44c2.76-11.06,2.52-33.66,2.52-33.89l-0.02-1.37l1.14-0.76
			c0.32-0.22,8.03-5.27,18.27-5.27c10.23,0,17.99,5.05,18.31,5.27l1.12,0.74l0.01,1.35c0,0.17,0.12,17.15,4.8,33.86
			c4.87,17.39,5.14,45.12,5.15,46.29l0.03,3.31l-3.2-0.85c-0.11-0.03-11.25-2.96-24.96-2.96c-13.07,0-25.7,3.34-25.83,3.37
			L2389.23-151.45z M2402.92-233.94c0.01,5.33-0.14,23.58-2.68,33.71c-2.26,9.06-4.57,33.15-5.39,42.17
			c4.82-1.05,14.02-2.72,23.66-2.72c10.02,0,18.58,1.46,23.03,2.38c-0.22-7.86-1.15-28.39-4.89-41.77
			c-4.12-14.7-4.84-29.18-4.97-33.75c-2.27-1.23-7.8-3.79-14.43-3.79C2410.64-237.71,2405.19-235.18,2402.92-233.94z"/>
	</g>
</g>
<g>
	<g>
		<path class="st5" d="M2322.69-157.33c0,0,9.19,4.96,27.11,5.37c17.36,0.4,24-3.61,27.11-5.78c0,0-1.26-27.01-26.48-18.18
			C2327.73-192.31,2322.69-157.33,2322.69-157.33z"/>
		<path d="M2352.15-149.41c-0.78,0-1.58-0.01-2.41-0.03c-18.32-0.42-27.86-5.46-28.25-5.67l-1.55-0.84l0.25-1.74
			c0.11-0.79,2.92-19.41,13.91-24.07c4.96-2.1,10.58-1.08,16.73,3.05c7.63-2.41,14.01-1.93,18.99,1.43
			c8.88,5.99,9.58,18.88,9.61,19.43l0.06,1.39l-1.14,0.8C2374.44-152.94,2367.52-149.41,2352.15-149.41z M2325.52-158.82
			c3.29,1.33,11.51,4.05,24.34,4.35c14.9,0.34,21.42-2.66,24.39-4.52c-0.41-3.08-1.94-10.53-7.27-14.12
			c-3.85-2.59-9.14-2.73-15.72-0.43l-1.24,0.43l-1.07-0.77c-5.03-3.64-9.37-4.73-12.88-3.24
			C2329.91-174.51,2326.65-164.32,2325.52-158.82z"/>
	</g>
	<g>
		<path class="st3" d="M2376.05-159c0,0-0.22-28.37-5.06-45.63c-4.84-17.27-4.9-34.53-4.9-34.53s-7.33-4.85-16.92-4.85
			s-16.87,4.85-16.87,4.85s0.29,23.02-2.59,34.53c-2.88,11.51-5.76,46.04-5.76,46.04s12.9-3.46,26.48-3.46
			C2364.67-162.05,2376.05-159,2376.05-159z"/>
		<path d="M2321.14-155.23l0.3-3.57c0.12-1.42,2.93-34.87,5.82-46.44c2.76-11.06,2.52-33.66,2.52-33.89l-0.02-1.37l1.14-0.76
			c0.32-0.22,8.03-5.27,18.27-5.27c10.23,0,17.99,5.05,18.31,5.27l1.12,0.74l0.01,1.35c0,0.17,0.12,17.15,4.8,33.86
			c4.87,17.39,5.14,45.12,5.15,46.29l0.03,3.31l-3.2-0.85c-0.11-0.03-11.26-2.96-24.96-2.96c-13.07,0-25.7,3.34-25.83,3.37
			L2321.14-155.23z M2334.83-237.73c0.01,5.33-0.14,23.58-2.68,33.71c-2.26,9.06-4.57,33.15-5.39,42.17
			c4.82-1.05,14.02-2.72,23.66-2.72c10.02,0,18.58,1.45,23.03,2.38c-0.22-7.86-1.15-28.39-4.89-41.77
			c-4.12-14.7-4.84-29.18-4.97-33.75c-2.27-1.23-7.8-3.79-14.43-3.79C2342.54-241.49,2337.09-238.96,2334.83-237.73z"/>
	</g>
</g>
<g>
	<g>
		<path class="st5" d="M2259.64-157.33c0,0,9.19,4.96,27.11,5.37c17.36,0.4,24-3.61,27.11-5.78c0,0-1.26-27.01-26.48-18.18
			C2264.68-192.31,2259.64-157.33,2259.64-157.33z"/>
		<path d="M2289.1-149.41c-0.78,0-1.58-0.01-2.41-0.03c-18.32-0.42-27.86-5.46-28.25-5.67l-1.55-0.84l0.25-1.74
			c0.11-0.79,2.92-19.41,13.91-24.07c4.96-2.1,10.58-1.08,16.73,3.05c7.63-2.41,14.02-1.93,18.99,1.43
			c8.88,5.99,9.58,18.88,9.61,19.43l0.06,1.39l-1.14,0.8C2311.39-152.94,2304.47-149.41,2289.1-149.41z M2262.46-158.82
			c3.29,1.33,11.51,4.05,24.34,4.35c14.9,0.34,21.42-2.66,24.39-4.52c-0.41-3.08-1.94-10.53-7.27-14.12
			c-3.85-2.59-9.14-2.73-15.72-0.43l-1.24,0.43l-1.07-0.77c-5.03-3.64-9.37-4.73-12.88-3.24
			C2266.86-174.51,2263.59-164.32,2262.46-158.82z"/>
	</g>
	<g>
		<path class="st3" d="M2312.99-159c0,0-0.22-28.37-5.06-45.63s-4.9-34.53-4.9-34.53s-7.33-4.85-16.92-4.85s-16.87,4.85-16.87,4.85
			s0.29,23.02-2.59,34.53c-2.88,11.51-5.76,46.04-5.76,46.04s12.9-3.46,26.48-3.46C2301.62-162.05,2312.99-159,2312.99-159z"/>
		<path d="M2258.09-155.23l0.3-3.57c0.12-1.42,2.93-34.87,5.82-46.44c2.76-11.06,2.52-33.66,2.52-33.89l-0.02-1.37l1.14-0.76
			c0.32-0.22,8.03-5.27,18.27-5.27c10.23,0,17.99,5.05,18.31,5.27l1.12,0.74l0.01,1.35c0,0.17,0.12,17.15,4.8,33.86
			c4.87,17.39,5.14,45.12,5.15,46.29l0.03,3.31l-3.2-0.85c-0.11-0.03-11.26-2.96-24.96-2.96c-13.07,0-25.7,3.34-25.83,3.37
			L2258.09-155.23z M2271.78-237.73c0.01,5.33-0.14,23.58-2.68,33.71c-2.26,9.06-4.57,33.15-5.39,42.17
			c4.82-1.05,14.02-2.72,23.66-2.72c10.02,0,18.58,1.45,23.03,2.38c-0.22-7.86-1.15-28.39-4.89-41.77
			c-4.12-14.7-4.84-29.18-4.97-33.75c-2.27-1.23-7.8-3.79-14.43-3.79C2279.49-241.49,2274.04-238.96,2271.78-237.73z"/>
	</g>
</g>
<g>
	<rect x="2245.24" y="-183.05" class="st2" width="900.38" height="216.9"/>
	<path d="M3151.92,40.15h-912.99v-229.51h912.99V40.15z M2251.55,27.54h887.77v-204.29h-887.77V27.54z"/>
</g>
<path d="M3039.93,19.62h-697.76c-54.6,0-99.02-44.42-99.02-99.02v-623.44c0-54.6,44.42-99.02,99.02-99.02h697.76
	c54.6,0,99.02,44.42,99.02,99.02V-79.4C3138.95-24.8,3094.53,19.62,3039.93,19.62z M2342.17-796.81
	c-51.82,0-93.97,42.16-93.97,93.97V-79.4c0,51.82,42.16,93.97,93.97,93.97h697.76c51.82,0,93.97-42.16,93.97-93.97v-623.44
	c0-51.82-42.16-93.97-93.97-93.97H2342.17z"/>
</svg>
