<?xml version="1.0" encoding="utf-8"?>
<!-- Generator: Adobe Illustrator 25.2.1, SVG Export Plug-In . SVG Version: 6.00 Build 0)  -->
<svg version="1.1" id="Calque_1" xmlns="http://www.w3.org/2000/svg" xmlns:xlink="http://www.w3.org/1999/xlink" x="0px" y="0px"
	 viewBox="0 0 330.7 519.8" style="enable-background:new 0 0 330.7 519.8;" xml:space="preserve">
<style type="text/css">
	.st0{fill:#343434;}
	.st1{fill:#020203;}
</style>
<g>
	<g>
		<path class="st0" d="M8.5,511.2c0,0,0-323,154.5-323c158.9,0,158.9,323,158.9,323L8.5,511.2L8.5,511.2z"/>
		<path class="st1" d="M330.7,519.8H0v-8.6c0-3.3,0.2-82.7,19.5-163.5c11.5-48,27.4-86.3,47.2-114.1c25.7-35.8,58.1-54.1,96.3-54.1
			c39.2,0,72.4,18.2,98.8,54c20.4,27.7,36.8,66.1,48.6,114.1c19.8,80.8,20.1,160.3,20.1,163.6L330.7,519.8L330.7,519.8z M17.4,502.5
			h295.8c-1.5-50.6-15.7-305.7-150.1-305.7C32.6,196.8,18.9,452,17.4,502.5z"/>
	</g>
	<g>
		<circle class="st0" cx="165.3" cy="90.5" r="81.7"/>
		<path class="st1" d="M165.3,180.7c-49.8,0-90.4-40.6-90.4-90.4S115.5,0,165.3,0s90.4,40.6,90.4,90.4
			C255.6,140.2,215.1,180.7,165.3,180.7z M165.3,17.4c-40.3,0-73.1,32.8-73.1,73.1s32.8,73.1,73.1,73.1s73.1-32.8,73.1-73.1
			S205.6,17.4,165.3,17.4z"/>
	</g>
</g>
</svg>
