<?xml version="1.0" encoding="utf-8"?>
<!-- Generator: Adobe Illustrator 25.2.1, SVG Export Plug-In . SVG Version: 6.00 Build 0)  -->
<svg version="1.1" id="Calque_1" xmlns="http://www.w3.org/2000/svg" xmlns:xlink="http://www.w3.org/1999/xlink" x="0px" y="0px"
	 viewBox="0 0 1280 896.87" style="enable-background:new 0 0 1280 896.87;" xml:space="preserve">
<style type="text/css">
	.st0{fill:#333333;}
	.st1{fill:#B3B3B2;}
</style>
<g>
	<g>
		<g>
			<rect x="24.35" y="660.27" class="st0" width="1232.16" height="216.9"/>
			<path d="M1265.14,883.47H15.73V653.96h1249.42V883.47z M32.98,870.86h1214.9V666.57H32.98V870.86z"/>
		</g>
		<g>
			<g>
				<polygon points="384.46,595.77 371.85,595.77 371.85,562.08 390.49,509.36 402.38,513.57 384.46,564.25 				"/>
				<g>
					<path d="M378.15,563.17c0,0-23.33-46.52,0-45.96C401.48,517.77,378.15,563.17,378.15,563.17z"/>
					<path d="M378.12,570.13l-2.78-5.55c-1.67-3.34-16.14-32.99-8.4-45.21c1.59-2.51,4.86-5.5,11.29-5.32
						c6.49,0.16,9.71,3.31,11.26,5.93c7.5,12.63-6.87,41.38-8.53,44.62L378.12,570.13z M377.73,520.35c-3.53,0-4.81,1.36-5.47,2.39
						c-3.71,5.85,0.95,21.41,5.92,32.98c4.92-11.25,9.51-26.43,5.89-32.52c-0.7-1.18-2.08-2.75-5.99-2.85
						C377.96,520.35,377.84,520.35,377.73,520.35z"/>
				</g>
			</g>
			<g>
				<polygon points="438.05,595.95 425.44,595.95 425.44,562.27 444.09,509.55 455.97,513.75 438.05,564.44 				"/>
				<g>
					<path d="M431.11,517.21c23.33,0.56,0,45.96,0,45.96S407.78,516.64,431.11,517.21"/>
					<path d="M431.08,570.13l-2.78-5.55c-1.67-3.34-16.14-32.99-8.4-45.21c1.59-2.51,4.85-5.5,11.29-5.32
						c6.49,0.16,9.71,3.31,11.26,5.93c7.5,12.63-6.87,41.38-8.53,44.62L431.08,570.13z M430.69,520.35c-3.53,0-4.81,1.36-5.47,2.39
						c-3.71,5.85,0.95,21.41,5.92,32.98c4.92-11.25,9.51-26.43,5.89-32.52c-0.7-1.18-2.08-2.75-5.99-2.85
						C430.92,520.35,430.8,520.35,430.69,520.35z"/>
				</g>
			</g>
			<g>
				<polygon points="494.17,595.77 481.56,595.77 481.56,562.08 500.2,509.36 512.09,513.57 494.17,564.25 				"/>
				<g>
					<path d="M489.12,563.17c0,0-23.33-46.52,0-45.96C512.45,517.77,489.12,563.17,489.12,563.17z"/>
					<path d="M489.09,570.13l-2.78-5.55c-1.67-3.34-16.14-32.99-8.4-45.21c1.59-2.51,4.84-5.5,11.29-5.32
						c6.49,0.16,9.71,3.31,11.26,5.93c7.5,12.63-6.87,41.38-8.53,44.62L489.09,570.13z M488.7,520.35c-3.53,0-4.81,1.36-5.47,2.39
						c-3.71,5.85,0.95,21.41,5.92,32.98c4.92-11.25,9.51-26.43,5.89-32.52c-0.7-1.18-2.08-2.75-5.99-2.85
						C488.93,520.35,488.81,520.35,488.7,520.35z"/>
				</g>
			</g>
			<g>
				<polygon points="547.76,595.95 535.15,595.95 535.15,562.27 553.8,509.55 565.68,513.75 547.76,564.44 				"/>
				<g>
					<path d="M542.09,517.21c23.33,0.56,0,45.96,0,45.96S518.76,516.64,542.09,517.21"/>
					<path d="M542.05,570.13l-2.78-5.55c-1.67-3.34-16.14-32.99-8.4-45.21c1.59-2.51,4.85-5.5,11.29-5.32
						c6.49,0.16,9.71,3.31,11.26,5.93c7.5,12.63-6.87,41.38-8.53,44.62L542.05,570.13z M541.66,520.35c-3.53,0-4.81,1.36-5.47,2.39
						c-3.71,5.85,0.95,21.41,5.92,32.98c4.92-11.25,9.51-26.43,5.89-32.52c-0.7-1.18-2.08-2.75-5.99-2.85
						C541.89,520.35,541.78,520.35,541.66,520.35z"/>
				</g>
			</g>
			<g>
				<polygon points="600.72,595.95 588.11,595.95 588.11,562.27 606.76,509.55 618.65,513.75 600.72,564.44 				"/>
				<g>
					<path d="M593.79,563.17c0,0-23.33-46.52,0-45.96C617.12,517.77,593.79,563.17,593.79,563.17z"/>
					<path d="M593.75,570.13l-2.78-5.55c-1.68-3.34-16.14-32.99-8.4-45.21c1.59-2.51,4.81-5.48,11.29-5.32
						c6.49,0.16,9.71,3.31,11.26,5.93c7.5,12.63-6.87,41.38-8.53,44.62L593.75,570.13z M593.37,520.35c-3.53,0-4.81,1.36-5.47,2.39
						c-3.71,5.85,0.95,21.41,5.92,32.98c4.92-11.25,9.51-26.43,5.89-32.52c-0.7-1.18-2.08-2.75-5.99-2.85
						C593.59,520.35,593.48,520.35,593.37,520.35z"/>
				</g>
			</g>
			<path d="M660.23,660.27h-12.61v-73.72c0-9.42-7.66-17.08-17.08-17.08H337.62v89.78h-12.61V556.86h305.53
				c16.37,0,29.69,13.32,29.69,29.69V660.27z"/>
		</g>
	</g>
	<g>
		<line class="st1" x1="23.64" y1="717.47" x2="1254.06" y2="717.47"/>
		<rect x="23.64" y="710.55" width="1230.41" height="13.84"/>
	</g>
</g>
</svg>
