<?xml version="1.0" encoding="utf-8"?>
<!-- Generator: Adobe Illustrator 25.2.1, SVG Export Plug-In . SVG Version: 6.00 Build 0)  -->
<svg version="1.1" id="Calque_1" xmlns="http://www.w3.org/2000/svg" xmlns:xlink="http://www.w3.org/1999/xlink" x="0px" y="0px"
	 viewBox="0 0 99.21 99.21" style="enable-background:new 0 0 99.21 99.21;" xml:space="preserve">
<style type="text/css">
	.st0{fill:none;stroke:#000000;stroke-width:4;stroke-miterlimit:10;}
	.st1{fill:#333333;}
	.st2{fill:#3C3C3B;}
</style>
<g>
	<path class="st0" d="M-154.06-33.77l30.24,16.05c0,0-9.68,17.16-15.48,10.92s-1.29-14.35-1.29-14.35"/>
	<path class="st0" d="M-67.68-33.77l-30.24,16.05c0,0,9.68,17.16,15.48,10.92s1.29-14.35,1.29-14.35"/>
	<path class="st0" d="M-134.11,31.3c0,0,12.72-13.32,25.62-12.47c12.9,0.85,23.23,9.83,23.23,9.83"/>
</g>
<g>
	<g>
		<path class="st1" d="M8.64,20.85c0,0,6.43-7.64,13.01-7.64s12.83,7.64,12.83,7.64"/>
		<path d="M10.2,22.17l-3.12-2.63c0.29-0.34,7.13-8.37,14.57-8.37c7.46,0,14.13,8.05,14.41,8.39l-3.15,2.58
			c-1.58-1.92-6.68-6.9-11.26-6.9C17.06,15.25,11.83,20.24,10.2,22.17z"/>
	</g>
	<g>
		<path class="st1" d="M64.71,20.82c0,0,6.43-7.64,13.01-7.64c6.58,0,12.83,7.64,12.83,7.64"/>
		<path d="M66.27,22.13l-3.12-2.63c0.29-0.34,7.13-8.37,14.57-8.37c7.46,0,14.13,8.05,14.41,8.39l-3.15,2.58
			c-1.58-1.92-6.68-6.9-11.26-6.9C73.12,15.21,67.89,20.2,66.27,22.13z"/>
	</g>
	<g>
		<path class="st2" d="M48.69,86.04c21.65,0,31.15-29.21,31.15-29.21S63.44,62.1,48.69,62.1s-31.98-5.27-31.98-5.27
			S27.05,86.04,48.69,86.04z"/>
		<path d="M48.69,88.08c-22.82,0-33.45-29.32-33.9-30.56l-1.35-3.81l3.86,1.18c0.17,0.05,17.12,5.18,31.38,5.18
			c14.24,0,30.37-5.12,30.53-5.17l3.79-1.22l-1.23,3.79C81.38,58.72,71.56,88.08,48.69,88.08z M20.24,59.93
			C23.8,67.54,33.29,84,48.69,84c15.39,0,24.4-16.47,27.73-24.05c-5.86,1.58-17.13,4.19-27.73,4.19
			C38.04,64.14,26.31,61.5,20.24,59.93z"/>
	</g>
</g>
</svg>
