<?xml version="1.0" encoding="UTF-8"?>
<svg id="Calque_2" data-name="Calque 2" xmlns="http://www.w3.org/2000/svg" viewBox="0 0 452.32 361.37">
  <defs>
    <style>
      .cls-1 {
        fill: #e0ab65;
      }

      .cls-1, .cls-2, .cls-3, .cls-4, .cls-5, .cls-6, .cls-7, .cls-8, .cls-9 {
        stroke: #000;
        stroke-miterlimit: 10;
      }

      .cls-1, .cls-5 {
        stroke-width: 2px;
      }

      .cls-2 {
        fill: #7992ab;
      }

      .cls-2, .cls-9 {
        stroke-width: 10px;
      }

      .cls-3, .cls-5 {
        fill: #edb4d3;
      }

      .cls-4 {
        fill: #9d3330;
        stroke-width: 5px;
      }

      .cls-6 {
        fill: #a53768;
        stroke-width: 4px;
      }

      .cls-7 {
        fill: #a54277;
        stroke-width: 3px;
      }

      .cls-8 {
        fill: #1f364d;
        stroke-width: 8px;
      }
    </style>
  </defs>
  <g id="Calque_1-2" data-name="Calque 1">
    <g>
      <g>
        <g>
          <path class="cls-9" d="m128.53,238.01c-1.5,36.03-10.2,59.18-33.67,65.3-17.99,4.69-45.92-55.1-29.59-93.87C78.9,177.08,22.66,18.34,28.54,35.98c4.08,12.24,102.04,153.05,99.99,202.03Z"/>
          <g>
            <rect class="cls-9" x="203.46" y="105.36" width="67.34" height="48.98" rx="7.63" ry="7.63"/>
            <rect class="cls-9" x="289.17" y="105.36" width="67.34" height="48.98" rx="7.63" ry="7.63"/>
          </g>
        </g>
        <rect class="cls-9" x="112.65" y="135.97" width="334.68" height="220.4" rx="46.24" ry="46.24"/>
        <g>
          <path class="cls-9" d="m261.27,45.84h0c-8.74-8.74-22.78-9.09-31.97-1.1-9.19-7.99-23.24-7.64-31.97,1.1h0c-9.13,9.13-9.13,24.06,0,33.19l14.43,14.43c4.8,4.8,11.21,7.05,17.54,6.8,6.33.25,12.74-2,17.54-6.8l14.43-14.43c9.13-9.13,9.13-24.06,0-33.19Z"/>
          <path class="cls-9" d="m362.64,45.84h0c-8.74-8.74-22.78-9.09-31.97-1.1-9.19-7.99-23.24-7.64-31.97,1.1h0c-9.13,9.13-9.13,24.06,0,33.19l14.43,14.43c4.8,4.8,11.21,7.05,17.54,6.8,6.33.25,12.74-2,17.54-6.8l14.43-14.43c9.13-9.13,9.13-24.06,0-33.19Z"/>
        </g>
        <g>
          <path class="cls-9" d="m227.79,164.1l6.88,13.95c1.14,2.3,3.33,3.89,5.87,4.26l15.39,2.24c6.39.93,8.94,8.78,4.32,13.29l-11.14,10.86c-1.84,1.79-2.67,4.37-2.24,6.9l2.63,15.33c1.09,6.37-5.59,11.22-11.31,8.22l-13.77-7.24c-2.27-1.19-4.98-1.19-7.25,0l-13.77,7.24c-5.72,3.01-12.4-1.85-11.31-8.22l2.63-15.33c.43-2.53-.4-5.11-2.24-6.9l-11.14-10.86c-4.63-4.51-2.07-12.36,4.32-13.29l15.39-2.24c2.54-.37,4.73-1.96,5.87-4.26l6.88-13.95c2.86-5.79,11.12-5.79,13.98,0Z"/>
          <path class="cls-9" d="m346.15,164.1l6.88,13.95c1.14,2.3,3.33,3.89,5.87,4.26l15.39,2.24c6.39.93,8.94,8.78,4.32,13.29l-11.14,10.86c-1.84,1.79-2.67,4.37-2.24,6.9l2.63,15.33c1.09,6.37-5.59,11.22-11.31,8.22l-13.77-7.24c-2.27-1.19-4.98-1.19-7.25,0l-13.77,7.24c-5.72,3.01-12.4-1.85-11.31-8.22l2.63-15.33c.43-2.53-.4-5.11-2.24-6.9l-11.14-10.86c-4.63-4.51-2.07-12.36,4.32-13.29l15.39-2.24c2.54-.37,4.73-1.96,5.87-4.26l6.88-13.95c2.86-5.79,11.12-5.79,13.98,0Z"/>
        </g>
        <path class="cls-9" d="m238.9,346.61c-16.94,0-39.18-3.92-59.92-19.75-30.11-22.98-36.64-55.06-38.05-67.78-1.49-13.44,8.2-25.55,21.64-27.04,13.46-1.49,25.55,8.2,27.04,21.64.56,5.04,3.59,22.42,19.09,34.25,18.94,14.46,41.4,8.81,43.9,8.11,13.03-3.61,26.53,4.02,30.14,17.06,3.62,13.03-4.02,26.53-17.06,30.14-3.51.97-13.52,3.37-26.78,3.37Z"/>
        <g>
          <path class="cls-9" d="m191.01,291.41c2.45,2.57,6.53,2.66,9.09.21l5.45-5.21c.4-.39.73-.82,1.01-1.28-3.67-3.31-6.55-6.9-8.74-10.4-.77.3-1.49.74-2.13,1.35l-5.45,5.21c-2.57,2.45-2.66,6.53-.21,9.09l.98,1.03Z"/>
          <path class="cls-9" d="m180.19,271.22c1.02,3.4,4.61,5.33,8.01,4.31l7.22-2.17c.53-.16,1.01-.4,1.46-.67-2.81-4.63-4.57-9.19-5.65-12.98l-7.15,2.15c-3.4,1.02-5.33,4.61-4.31,8.01l.41,1.36Z"/>
        </g>
        <path class="cls-9" d="m99.18,254.65l-5.84-.88c-1.5-.23-3.02.3-4.05,1.41l-4.03,4.31c-2.61,2.79-7.29,1.38-7.92-2.39l-.97-5.82c-.25-1.5-1.22-2.78-2.6-3.42l-5.35-2.5c-3.46-1.62-3.57-6.51-.17-8.27l5.24-2.72c1.35-.7,2.26-2.02,2.45-3.53l.73-5.86c.47-3.79,5.09-5.4,7.81-2.72l4.21,4.14c1.08,1.06,2.62,1.53,4.11,1.24l5.79-1.12c3.75-.73,6.71,3.17,5,6.59l-2.64,5.28c-.68,1.36-.64,2.96.09,4.29l2.86,5.16c1.85,3.35-.94,7.36-4.72,6.79Z"/>
        <g>
          <path class="cls-9" d="m232.3,186.88l3.29,6.66c.54,1.1,1.59,1.86,2.8,2.04l7.35,1.07c3.05.44,4.27,4.2,2.06,6.35l-5.32,5.18c-.88.86-1.28,2.09-1.07,3.29l1.26,7.32c.52,3.04-2.67,5.36-5.4,3.92l-6.57-3.46c-1.08-.57-2.38-.57-3.46,0l-6.57,3.46c-2.73,1.44-5.92-.88-5.4-3.92l1.26-7.32c.21-1.21-.19-2.44-1.07-3.29l-5.32-5.18c-2.21-2.15-.99-5.9,2.06-6.35l7.35-1.07c1.21-.18,2.26-.94,2.8-2.04l3.29-6.66c1.37-2.77,5.31-2.77,6.67,0Z"/>
          <path class="cls-9" d="m350.67,186.88l3.29,6.66c.54,1.1,1.59,1.86,2.8,2.04l7.35,1.07c3.05.44,4.27,4.2,2.06,6.35l-5.32,5.18c-.88.86-1.28,2.09-1.07,3.29l1.26,7.32c.52,3.04-2.67,5.36-5.4,3.92l-6.57-3.46c-1.08-.57-2.38-.57-3.46,0l-6.57,3.46c-2.73,1.44-5.92-.88-5.4-3.92l1.26-7.32c.21-1.21-.19-2.44-1.07-3.29l-5.32-5.18c-2.21-2.15-.99-5.9,2.06-6.35l7.35-1.07c1.21-.18,2.26-.94,2.8-2.04l3.29-6.66c1.37-2.77,5.31-2.77,6.67,0Z"/>
        </g>
      </g>
      <g>
        <g>
          <path class="cls-8" d="m104.43,207.39c-1.5,36.03-10.2,59.18-33.67,65.3-17.99,4.69-45.92-55.1-29.59-93.87C54.79,146.47-1.45-12.28,4.43,5.36c4.08,12.24,102.04,153.05,99.99,202.03Z"/>
          <g>
            <rect class="cls-8" x="179.35" y="74.75" width="67.34" height="48.98" rx="7.63" ry="7.63"/>
            <rect class="cls-8" x="265.06" y="74.75" width="67.34" height="48.98" rx="7.63" ry="7.63"/>
          </g>
        </g>
        <rect class="cls-2" x="88.54" y="105.36" width="334.68" height="220.4" rx="46.24" ry="46.24"/>
        <g>
          <path class="cls-4" d="m237.16,15.23h0c-8.74-8.74-22.78-9.09-31.97-1.1-9.19-7.99-23.24-7.64-31.97,1.1h0c-9.13,9.13-9.13,24.06,0,33.19l14.43,14.43c4.8,4.8,11.21,7.05,17.54,6.8,6.33.25,12.74-2,17.54-6.8l14.43-14.43c9.13-9.13,9.13-24.06,0-33.19Z"/>
          <path class="cls-4" d="m338.53,15.23h0c-8.74-8.74-22.78-9.09-31.97-1.1-9.19-7.99-23.24-7.64-31.97,1.1h0c-9.13,9.13-9.13,24.06,0,33.19l14.43,14.43c4.8,4.8,11.21,7.05,17.54,6.8,6.33.25,12.74-2,17.54-6.8l14.43-14.43c9.13-9.13,9.13-24.06,0-33.19Z"/>
        </g>
        <g>
          <path class="cls-7" d="m203.69,133.48l6.88,13.95c1.14,2.3,3.33,3.89,5.87,4.26l15.39,2.24c6.39.93,8.94,8.78,4.32,13.29l-11.14,10.86c-1.84,1.79-2.67,4.37-2.24,6.9l2.63,15.33c1.09,6.37-5.59,11.22-11.31,8.22l-13.77-7.24c-2.27-1.19-4.98-1.19-7.25,0l-13.77,7.24c-5.72,3.01-12.4-1.85-11.31-8.22l2.63-15.33c.43-2.53-.4-5.11-2.24-6.9l-11.14-10.86c-4.63-4.51-2.07-12.36,4.32-13.29l15.39-2.24c2.54-.37,4.73-1.96,5.87-4.26l6.88-13.95c2.86-5.79,11.12-5.79,13.98,0Z"/>
          <path class="cls-7" d="m322.05,133.48l6.88,13.95c1.14,2.3,3.33,3.89,5.87,4.26l15.39,2.24c6.39.93,8.94,8.78,4.32,13.29l-11.14,10.86c-1.84,1.79-2.67,4.37-2.24,6.9l2.63,15.33c1.09,6.37-5.59,11.22-11.31,8.22l-13.77-7.24c-2.27-1.19-4.98-1.19-7.25,0l-13.77,7.24c-5.72,3.01-12.4-1.85-11.31-8.22l2.63-15.33c.43-2.53-.4-5.11-2.24-6.9l-11.14-10.86c-4.63-4.51-2.07-12.36,4.32-13.29l15.39-2.24c2.54-.37,4.73-1.96,5.87-4.26l6.88-13.95c2.86-5.79,11.12-5.79,13.98,0Z"/>
        </g>
        <path class="cls-6" d="m214.79,315.99c-16.94,0-39.18-3.92-59.92-19.75-30.11-22.98-36.64-55.06-38.05-67.78-1.49-13.44,8.2-25.55,21.64-27.04,13.46-1.49,25.55,8.2,27.04,21.64.56,5.04,3.59,22.42,19.09,34.25,18.94,14.46,41.4,8.81,43.9,8.11,13.03-3.61,26.53,4.02,30.14,17.06,3.62,13.03-4.02,26.53-17.06,30.14-3.51.97-13.52,3.37-26.78,3.37Z"/>
        <g>
          <path class="cls-5" d="m166.91,260.8c2.45,2.57,6.53,2.66,9.09.21l5.45-5.21c.4-.39.73-.82,1.01-1.28-3.67-3.31-6.55-6.9-8.74-10.4-.77.3-1.49.74-2.13,1.35l-5.45,5.21c-2.57,2.45-2.66,6.53-.21,9.09l.98,1.03Z"/>
          <path class="cls-5" d="m156.08,240.6c1.02,3.4,4.61,5.33,8.01,4.31l7.22-2.17c.53-.16,1.01-.4,1.46-.67-2.81-4.63-4.57-9.19-5.65-12.98l-7.15,2.15c-3.4,1.02-5.33,4.61-4.31,8.01l.41,1.36Z"/>
        </g>
        <path class="cls-1" d="m75.08,224.04l-5.84-.88c-1.5-.23-3.02.3-4.05,1.41l-4.03,4.31c-2.61,2.79-7.29,1.38-7.92-2.39l-.97-5.82c-.25-1.5-1.22-2.78-2.6-3.42l-5.35-2.5c-3.46-1.62-3.57-6.51-.17-8.27l5.24-2.72c1.35-.7,2.26-2.02,2.45-3.53l.73-5.86c.47-3.79,5.09-5.4,7.81-2.72l4.21,4.14c1.08,1.06,2.62,1.53,4.11,1.24l5.79-1.12c3.75-.73,6.71,3.17,5,6.59l-2.64,5.28c-.68,1.36-.64,2.96.09,4.29l2.86,5.16c1.85,3.35-.94,7.36-4.72,6.79Z"/>
        <g>
          <path class="cls-3" d="m208.2,156.27l3.29,6.66c.54,1.1,1.59,1.86,2.8,2.04l7.35,1.07c3.05.44,4.27,4.2,2.06,6.35l-5.32,5.18c-.88.86-1.28,2.09-1.07,3.29l1.26,7.32c.52,3.04-2.67,5.36-5.4,3.92l-6.57-3.46c-1.08-.57-2.38-.57-3.46,0l-6.57,3.46c-2.73,1.44-5.92-.88-5.4-3.92l1.26-7.32c.21-1.21-.19-2.44-1.07-3.29l-5.32-5.18c-2.21-2.15-.99-5.9,2.06-6.35l7.35-1.07c1.21-.18,2.26-.94,2.8-2.04l3.29-6.66c1.37-2.77,5.31-2.77,6.67,0Z"/>
          <path class="cls-3" d="m326.56,156.27l3.29,6.66c.54,1.1,1.59,1.86,2.8,2.04l7.35,1.07c3.05.44,4.27,4.2,2.06,6.35l-5.32,5.18c-.88.86-1.28,2.09-1.07,3.29l1.26,7.32c.52,3.04-2.67,5.36-5.4,3.92l-6.57-3.46c-1.08-.57-2.38-.57-3.46,0l-6.57,3.46c-2.73,1.44-5.92-.88-5.4-3.92l1.26-7.32c.21-1.21-.19-2.44-1.07-3.29l-5.32-5.18c-2.21-2.15-.99-5.9,2.06-6.35l7.35-1.07c1.21-.18,2.26-.94,2.8-2.04l3.29-6.66c1.37-2.77,5.31-2.77,6.67,0Z"/>
        </g>
      </g>
    </g>
  </g>
</svg>