<?xml version="1.0" encoding="UTF-8"?>
<svg id="Calque_2" data-name="Calque 2" xmlns="http://www.w3.org/2000/svg" viewBox="0 0 451.43 360.68">
  <defs>
    <style>
      .cls-1 {
        fill: #014040;
        stroke-width: 8px;
      }

      .cls-1, .cls-2, .cls-3, .cls-4, .cls-5, .cls-6, .cls-7, .cls-8 {
        stroke: #000;
        stroke-miterlimit: 10;
      }

      .cls-2 {
        fill: #9d3330;
        stroke-width: 5px;
      }

      .cls-3 {
        fill: #608c02;
        stroke-width: 2px;
      }

      .cls-4 {
        fill: #bfa584;
      }

      .cls-4, .cls-6 {
        stroke-width: 3px;
      }

      .cls-5 {
        fill: #71283c;
      }

      .cls-5, .cls-7 {
        stroke-width: 10px;
      }

      .cls-6 {
        fill: #d9b97e;
      }

      .cls-8 {
        fill: #260101;
      }
    </style>
  </defs>
  <g id="Calque_1-2" data-name="Calque 1">
    <g>
      <g>
        <g>
          <path class="cls-7" d="m128.32,237.57c-1.5,35.96-10.18,59.05-33.6,65.16-17.96,4.68-45.82-54.98-29.53-93.67C78.79,176.78,22.67,18.37,28.54,35.97c4.07,12.22,101.82,152.73,99.78,201.6Z"/>
          <g>
            <rect class="cls-7" x="203.09" y="105.21" width="67.2" height="48.87" rx="7.63" ry="7.63"/>
            <rect class="cls-7" x="288.61" y="105.21" width="67.2" height="48.87" rx="7.63" ry="7.63"/>
          </g>
        </g>
        <rect class="cls-7" x="112.47" y="135.76" width="333.96" height="219.93" rx="46.24" ry="46.24"/>
        <g>
          <path class="cls-7" d="m227.37,163.82l6.87,13.92c1.13,2.3,3.32,3.89,5.86,4.25l15.36,2.23c6.38.93,8.93,8.77,4.31,13.26l-11.11,10.83c-1.83,1.79-2.67,4.36-2.24,6.88l2.62,15.3c1.09,6.35-5.58,11.2-11.28,8.2l-13.74-7.22c-2.27-1.19-4.97-1.19-7.24,0l-13.74,7.22c-5.71,3-12.37-1.85-11.28-8.2l2.62-15.3c.43-2.52-.4-5.1-2.24-6.88l-11.11-10.83c-4.62-4.5-2.07-12.34,4.31-13.26l15.36-2.23c2.53-.37,4.72-1.96,5.86-4.25l6.87-13.92c2.85-5.78,11.09-5.78,13.95,0Z"/>
          <path class="cls-7" d="m345.48,163.82l6.87,13.92c1.13,2.3,3.32,3.89,5.86,4.25l15.36,2.23c6.38.93,8.93,8.77,4.31,13.26l-11.11,10.83c-1.83,1.79-2.67,4.36-2.24,6.88l2.62,15.3c1.09,6.35-5.58,11.2-11.28,8.2l-13.74-7.22c-2.27-1.19-4.97-1.19-7.24,0l-13.74,7.22c-5.71,3-12.37-1.85-11.28-8.2l2.62-15.3c.43-2.52-.4-5.1-2.24-6.88l-11.11-10.83c-4.62-4.5-2.07-12.34,4.31-13.26l15.36-2.23c2.53-.37,4.72-1.96,5.86-4.25l6.87-13.92c2.85-5.78,11.09-5.78,13.95,0Z"/>
        </g>
        <g>
          <path class="cls-7" d="m260.78,45.82h0c-8.72-8.72-22.73-9.07-31.9-1.1-9.17-7.97-23.19-7.62-31.9,1.1h0c-9.11,9.11-9.11,24.01,0,33.12l14.4,14.4c4.79,4.79,11.19,7.04,17.5,6.79,6.31.25,12.71-1.99,17.5-6.79l14.4-14.4c9.11-9.11,9.11-24.01,0-33.12Z"/>
          <path class="cls-7" d="m361.93,45.82h0c-8.72-8.72-22.73-9.07-31.9-1.1-9.17-7.97-23.19-7.62-31.9,1.1h0c-9.11,9.11-9.11,24.01,0,33.12l14.4,14.4c4.79,4.79,11.19,7.04,17.5,6.79,6.31.25,12.71-1.99,17.5-6.79l14.4-14.4c9.11-9.11,9.11-24.01,0-33.12Z"/>
        </g>
        <path class="cls-7" d="m238.45,345.94c-16.91,0-39.1-3.91-59.79-19.71-30.04-22.93-36.56-54.94-37.97-67.64-1.49-13.41,8.18-25.49,21.59-26.98,13.43-1.49,25.49,8.18,26.98,21.59.56,5.03,3.58,22.38,19.05,34.18,18.9,14.43,41.31,8.79,43.81,8.1,13-3.61,26.47,4.01,30.08,17.02,3.61,13-4.01,26.47-17.02,30.08-3.5.97-13.49,3.37-26.72,3.37Z"/>
        <g>
          <path class="cls-7" d="m190.67,290.87c2.45,2.56,6.51,2.66,9.08.21l5.44-5.2c.4-.39.72-.82,1-1.27-3.66-3.3-6.53-6.89-8.73-10.38-.77.3-1.49.74-2.12,1.35l-5.44,5.2c-2.56,2.45-2.66,6.51-.21,9.08l.98,1.02Z"/>
          <path class="cls-7" d="m179.87,270.71c1.02,3.39,4.6,5.32,8,4.3l7.21-2.17c.53-.16,1.01-.4,1.46-.67-2.8-4.62-4.56-9.17-5.64-12.96l-7.14,2.15c-3.39,1.02-5.32,4.6-4.3,8l.41,1.36Z"/>
        </g>
        <path class="cls-7" d="m99.03,254.19l-5.82-.87c-1.5-.22-3.01.3-4.05,1.41l-4.02,4.3c-2.61,2.79-7.28,1.38-7.9-2.39l-.97-5.81c-.25-1.49-1.22-2.77-2.59-3.41l-5.33-2.49c-3.46-1.62-3.56-6.49-.17-8.25l5.22-2.72c1.34-.7,2.26-2.01,2.44-3.52l.72-5.84c.47-3.79,5.08-5.39,7.8-2.72l4.2,4.13c1.08,1.06,2.61,1.53,4.1,1.24l5.78-1.12c3.75-.72,6.7,3.16,4.99,6.58l-2.63,5.27c-.68,1.36-.64,2.96.09,4.28l2.85,5.15c1.85,3.34-.94,7.35-4.71,6.78Z"/>
        <g>
          <path class="cls-7" d="m231.87,186.56l3.28,6.65c.54,1.1,1.59,1.86,2.8,2.03l7.34,1.07c3.05.44,4.26,4.19,2.06,6.33l-5.31,5.17c-.88.85-1.27,2.08-1.07,3.29l1.25,7.31c.52,3.03-2.66,5.35-5.39,3.92l-6.56-3.45c-1.08-.57-2.37-.57-3.46,0l-6.56,3.45c-2.72,1.43-5.91-.88-5.39-3.92l1.25-7.31c.21-1.2-.19-2.43-1.07-3.29l-5.31-5.17c-2.2-2.15-.99-5.89,2.06-6.33l7.34-1.07c1.21-.18,2.26-.94,2.8-2.03l3.28-6.65c1.36-2.76,5.3-2.76,6.66,0Z"/>
          <path class="cls-7" d="m349.98,186.56l3.28,6.65c.54,1.1,1.59,1.86,2.8,2.03l7.34,1.07c3.05.44,4.26,4.19,2.06,6.33l-5.31,5.17c-.88.85-1.27,2.08-1.07,3.29l1.25,7.31c.52,3.03-2.66,5.35-5.39,3.92l-6.56-3.45c-1.08-.57-2.37-.57-3.46,0l-6.56,3.45c-2.72,1.43-5.91-.88-5.39-3.92l1.25-7.31c.21-1.2-.19-2.43-1.07-3.29l-5.31-5.17c-2.2-2.15-.99-5.89,2.06-6.33l7.34-1.07c1.21-.18,2.26-.94,2.8-2.03l3.28-6.65c1.36-2.76,5.3-2.76,6.66,0Z"/>
        </g>
      </g>
      <g>
        <g>
          <path class="cls-1" d="m104.21,206.96c-1.5,35.96-10.18,59.05-33.6,65.16-17.96,4.68-45.82-54.98-29.53-93.67C54.68,146.16-1.44-12.24,4.43,5.36c4.07,12.22,101.82,152.73,99.78,201.6Z"/>
          <g>
            <rect class="cls-1" x="178.98" y="74.6" width="67.2" height="48.87" rx="7.63" ry="7.63"/>
            <rect class="cls-1" x="264.5" y="74.6" width="67.2" height="48.87" rx="7.63" ry="7.63"/>
          </g>
        </g>
        <rect class="cls-5" x="88.36" y="105.14" width="333.96" height="219.93" rx="46.24" ry="46.24"/>
        <g>
          <path class="cls-6" d="m203.26,133.21l6.87,13.92c1.13,2.3,3.32,3.89,5.86,4.25l15.36,2.23c6.38.93,8.93,8.77,4.31,13.26l-11.11,10.83c-1.83,1.79-2.67,4.36-2.24,6.88l2.62,15.3c1.09,6.35-5.58,11.2-11.28,8.2l-13.74-7.22c-2.27-1.19-4.97-1.19-7.24,0l-13.74,7.22c-5.71,3-12.37-1.85-11.28-8.2l2.62-15.3c.43-2.52-.4-5.1-2.24-6.88l-11.11-10.83c-4.62-4.5-2.07-12.34,4.31-13.26l15.36-2.23c2.53-.37,4.72-1.96,5.86-4.25l6.87-13.92c2.85-5.78,11.09-5.78,13.95,0Z"/>
          <path class="cls-6" d="m321.37,133.21l6.87,13.92c1.13,2.3,3.32,3.89,5.86,4.25l15.36,2.23c6.38.93,8.93,8.77,4.31,13.26l-11.11,10.83c-1.83,1.79-2.67,4.36-2.24,6.88l2.62,15.3c1.09,6.35-5.58,11.2-11.28,8.2l-13.74-7.22c-2.27-1.19-4.97-1.19-7.24,0l-13.74,7.22c-5.71,3-12.37-1.85-11.28-8.2l2.62-15.3c.43-2.52-.4-5.1-2.24-6.88l-11.11-10.83c-4.62-4.5-2.07-12.34,4.31-13.26l15.36-2.23c2.53-.37,4.72-1.96,5.86-4.25l6.87-13.92c2.85-5.78,11.09-5.78,13.95,0Z"/>
        </g>
        <g>
          <path class="cls-2" d="m236.67,15.2h0c-8.72-8.72-22.73-9.07-31.9-1.1-9.17-7.97-23.19-7.62-31.9,1.1h0c-9.11,9.11-9.11,24.01,0,33.12l14.4,14.4c4.79,4.79,11.19,7.04,17.5,6.79,6.31.25,12.71-1.99,17.5-6.79l14.4-14.4c9.11-9.11,9.11-24.01,0-33.12Z"/>
          <path class="cls-2" d="m337.82,15.2h0c-8.72-8.72-22.73-9.07-31.9-1.1-9.17-7.97-23.19-7.62-31.9,1.1h0c-9.11,9.11-9.11,24.01,0,33.12l14.4,14.4c4.79,4.79,11.19,7.04,17.5,6.79,6.31.25,12.71-1.99,17.5-6.79l14.4-14.4c9.11-9.11,9.11-24.01,0-33.12Z"/>
        </g>
        <path class="cls-4" d="m214.35,315.33c-16.91,0-39.1-3.91-59.79-19.71-30.04-22.93-36.56-54.94-37.97-67.64-1.49-13.41,8.18-25.49,21.59-26.98,13.43-1.49,25.49,8.18,26.98,21.59.56,5.03,3.58,22.38,19.05,34.18,18.9,14.43,41.31,8.79,43.81,8.1,13-3.61,26.47,4.01,30.08,17.02,3.61,13-4.01,26.47-17.02,30.08-3.5.97-13.49,3.37-26.72,3.37Z"/>
        <g>
          <path class="cls-8" d="m166.56,260.25c2.45,2.56,6.51,2.66,9.08.21l5.44-5.2c.4-.39.72-.82,1-1.27-3.66-3.3-6.53-6.89-8.73-10.38-.77.3-1.49.74-2.12,1.35l-5.44,5.2c-2.56,2.45-2.66,6.51-.21,9.08l.98,1.02Z"/>
          <path class="cls-8" d="m155.76,240.1c1.02,3.39,4.6,5.32,8,4.3l7.21-2.17c.53-.16,1.01-.4,1.46-.67-2.8-4.62-4.56-9.17-5.64-12.96l-7.14,2.15c-3.39,1.02-5.32,4.6-4.3,8l.41,1.36Z"/>
        </g>
        <path class="cls-3" d="m74.92,223.57l-5.82-.87c-1.5-.22-3.01.3-4.05,1.41l-4.02,4.3c-2.61,2.79-7.28,1.38-7.9-2.39l-.97-5.81c-.25-1.49-1.22-2.77-2.59-3.41l-5.33-2.49c-3.46-1.62-3.56-6.49-.17-8.25l5.22-2.72c1.34-.7,2.26-2.01,2.44-3.52l.72-5.84c.47-3.79,5.08-5.39,7.8-2.72l4.2,4.13c1.08,1.06,2.61,1.53,4.1,1.24l5.78-1.12c3.75-.72,6.7,3.16,4.99,6.58l-2.63,5.27c-.68,1.36-.64,2.96.09,4.28l2.85,5.15c1.85,3.34-.94,7.35-4.71,6.78Z"/>
        <g>
          <path class="cls-8" d="m207.76,155.94l3.28,6.65c.54,1.1,1.59,1.86,2.8,2.03l7.34,1.07c3.05.44,4.26,4.19,2.06,6.33l-5.31,5.17c-.88.85-1.27,2.08-1.07,3.29l1.25,7.31c.52,3.03-2.66,5.35-5.39,3.92l-6.56-3.45c-1.08-.57-2.37-.57-3.46,0l-6.56,3.45c-2.72,1.43-5.91-.88-5.39-3.92l1.25-7.31c.21-1.2-.19-2.43-1.07-3.29l-5.31-5.17c-2.2-2.15-.99-5.89,2.06-6.33l7.34-1.07c1.21-.18,2.26-.94,2.8-2.03l3.28-6.65c1.36-2.76,5.3-2.76,6.66,0Z"/>
          <path class="cls-8" d="m325.87,155.94l3.28,6.65c.54,1.1,1.59,1.86,2.8,2.03l7.34,1.07c3.05.44,4.26,4.19,2.06,6.33l-5.31,5.17c-.88.85-1.27,2.08-1.07,3.29l1.25,7.31c.52,3.03-2.66,5.35-5.39,3.92l-6.56-3.45c-1.08-.57-2.37-.57-3.46,0l-6.56,3.45c-2.72,1.43-5.91-.88-5.39-3.92l1.25-7.31c.21-1.2-.19-2.43-1.07-3.29l-5.31-5.17c-2.2-2.15-.99-5.89,2.06-6.33l7.34-1.07c1.21-.18,2.26-.94,2.8-2.03l3.28-6.65c1.36-2.76,5.3-2.76,6.66,0Z"/>
        </g>
      </g>
    </g>
  </g>
</svg>