<?xml version="1.0" encoding="UTF-8"?>
<svg id="Calque_2" data-name="Calque 2" xmlns="http://www.w3.org/2000/svg" viewBox="0 0 452.28 362.36">
  <defs>
    <style>
      .cls-1 {
        fill: #ad83a6;
      }

      .cls-2 {
        fill: #9d3330;
      }

      .cls-3 {
        fill: #bee6ba;
      }

      .cls-4 {
        fill: #516e4e;
      }

      .cls-5 {
        fill: #e0be6e;
      }

      .cls-6 {
        fill: #3c523a;
      }

      .cls-7 {
        fill: #5c3223;
      }
    </style>
  </defs>
  <g id="Calque_1-2" data-name="Calque 1">
    <g>
      <g>
        <g>
          <g>
            <path d="m128.5,239c-1.5,36.03-10.2,59.18-33.67,65.3-17.99,4.69-45.92-55.1-29.59-93.87C78.86,178.08,22.62,19.33,28.5,36.97c4.08,12.24,102.04,153.05,99.99,202.03Z"/>
            <path d="m92.74,309.57c-4.3,0-9.99-2.05-16.45-9.51-14.91-17.22-29.07-59.73-15.66-91.57,2.73-6.49,4.63-27.29-13.34-93.74-9.29-34.35-19.85-65.86-22.95-74.77-.25-.55-.44-1.03-.58-1.44-.57-1.72-1.64-4.91,1.47-7.06l3.08-2.13,2.91,2.36c.53.43.89.72,1.68,2.6,0,0,0,0,0,0,0,0,0,0,0,0,.24.58.52,1.3.86,2.23,2.02,4.07,9,15.33,16.35,27.18,29.7,47.91,84.99,137.09,83.39,175.48-1.18,28.32-6.5,61.87-37.41,69.93-.99.26-2.11.43-3.35.43ZM47.03,77.76c2.98,9.8,6.25,20.96,9.41,32.56,6.34,23.27,10.85,43.16,13.41,59.12,3.35,20.91,3.35,34.95-.01,42.93-11.4,27.08.47,65.52,14.01,81.14,3.7,4.27,7.42,6.55,9.71,5.95,19.17-5,28.4-23.71,29.94-60.67l5,.21-5-.21c1.38-33.1-47.99-114.95-76.47-161.03Z"/>
          </g>
          <g>
            <g>
              <rect x="203.42" y="106.36" width="67.34" height="48.98" rx="7.63" ry="7.63"/>
              <path d="m263.13,160.33h-52.08c-6.96,0-12.63-5.67-12.63-12.63v-33.72c0-6.96,5.67-12.63,12.63-12.63h52.08c6.96,0,12.63,5.67,12.63,12.63v33.72c0,6.96-5.67,12.63-12.63,12.63Zm-52.08-48.98c-1.43,0-2.63,1.2-2.63,2.63v33.72c0,1.43,1.2,2.63,2.63,2.63h52.08c1.43,0,2.63-1.2,2.63-2.63v-33.72c0-1.43-1.2-2.63-2.63-2.63h-52.08Z"/>
            </g>
            <g>
              <rect x="289.13" y="106.36" width="67.34" height="48.98" rx="7.63" ry="7.63"/>
              <path d="m348.84,160.33h-52.08c-6.96,0-12.63-5.67-12.63-12.63v-33.72c0-6.96,5.67-12.63,12.63-12.63h52.08c6.96,0,12.63,5.67,12.63,12.63v33.72c0,6.96-5.67,12.63-12.63,12.63Zm-52.08-48.98c-1.43,0-2.63,1.2-2.63,2.63v33.72c0,1.43,1.2,2.63,2.63,2.63h52.08c1.43,0,2.63-1.2,2.63-2.63v-33.72c0-1.43-1.2-2.63-2.63-2.63h-52.08Z"/>
            </g>
          </g>
        </g>
        <g>
          <rect x="112.61" y="136.97" width="334.68" height="220.4" rx="46.24" ry="46.24"/>
          <path d="m401.05,362.36h-242.2c-28.25,0-51.24-22.99-51.24-51.24v-127.92c0-28.25,22.99-51.24,51.24-51.24h242.2c28.25,0,51.24,22.99,51.24,51.24v127.92c0,28.25-22.99,51.24-51.24,51.24Zm-242.2-220.4c-22.74,0-41.24,18.5-41.24,41.24v127.92c0,22.74,18.5,41.24,41.24,41.24h242.2c22.74,0,41.24-18.5,41.24-41.24v-127.92c0-22.74-18.5-41.24-41.24-41.24h-242.2Z"/>
        </g>
        <g>
          <g>
            <path d="m261.23,46.84h0c-8.74-8.74-22.78-9.09-31.97-1.1-9.19-7.99-23.24-7.64-31.97,1.1h0c-9.13,9.13-9.13,24.06,0,33.19l14.43,14.43c4.8,4.8,11.21,7.05,17.54,6.8,6.33.25,12.74-2,17.54-6.8l14.43-14.43c9.13-9.13,9.13-24.06,0-33.19Z"/>
            <path d="m228.32,106.27c-7.55,0-14.83-2.98-20.13-8.28l-14.43-14.43c-11.1-11.1-11.1-29.16,0-40.26,9.54-9.53,24.44-10.91,35.51-3.8,11.07-7.11,25.97-5.74,35.51,3.8,11.1,11.1,11.1,29.16,0,40.26l-14.43,14.43c-5.52,5.52-13.18,8.52-21.08,8.27-.31.01-.63.02-.94.02Zm.94-10.02h.2c5.17.22,10.21-1.73,13.81-5.33l14.43-14.43c7.2-7.2,7.2-18.92,0-26.12-6.82-6.82-17.87-7.2-25.16-.86l-3.28,2.85-3.28-2.85c-7.29-6.33-18.34-5.96-25.16.86-7.2,7.2-7.2,18.92,0,26.12l14.43,14.43c3.6,3.6,8.64,5.56,13.81,5.34h.2Z"/>
          </g>
          <g>
            <path d="m362.6,46.84h0c-8.74-8.74-22.78-9.09-31.97-1.1-9.19-7.99-23.24-7.64-31.97,1.1h0c-9.13,9.13-9.13,24.06,0,33.19l14.43,14.43c4.8,4.8,11.21,7.05,17.54,6.8,6.33.25,12.74-2,17.54-6.8l14.43-14.43c9.13-9.13,9.13-24.06,0-33.19Z"/>
            <path d="m329.69,106.27c-7.55,0-14.83-2.98-20.13-8.28l-14.43-14.43c-11.1-11.1-11.1-29.16,0-40.26,9.53-9.53,24.44-10.91,35.51-3.8,11.07-7.11,25.97-5.74,35.51,3.8,11.1,11.1,11.1,29.16,0,40.26l-14.43,14.43c-5.52,5.52-13.19,8.53-21.08,8.27-.31.01-.63.02-.94.02Zm-14.45-61.28c-4.74,0-9.47,1.8-13.04,5.37-7.2,7.2-7.2,18.92,0,26.12l14.43,14.43c3.6,3.6,8.64,5.56,13.81,5.34h.2s.2,0,.2,0c5.17.21,10.21-1.74,13.81-5.34l14.43-14.43c7.2-7.2,7.2-18.92,0-26.12-6.82-6.82-17.87-7.2-25.16-.86l-3.28,2.85-3.28-2.85c-3.47-3.02-7.8-4.51-12.12-4.51Z"/>
          </g>
        </g>
        <g>
          <g>
            <path d="m227.75,165.09l6.88,13.95c1.14,2.3,3.33,3.89,5.87,4.26l15.39,2.24c6.39.93,8.94,8.78,4.32,13.29l-11.14,10.86c-1.84,1.79-2.67,4.37-2.24,6.9l2.63,15.33c1.09,6.37-5.59,11.22-11.31,8.22l-13.77-7.24c-2.27-1.19-4.98-1.19-7.25,0l-13.77,7.24c-5.72,3.01-12.4-1.85-11.31-8.22l2.63-15.33c.43-2.53-.4-5.11-2.24-6.9l-11.14-10.86c-4.63-4.51-2.07-12.36,4.32-13.29l15.39-2.24c2.54-.37,4.73-1.96,5.87-4.26l6.88-13.95c2.86-5.79,11.12-5.79,13.98,0Z"/>
            <path d="m199.73,246.04c-2.64,0-5.26-.83-7.51-2.46-3.97-2.88-5.92-7.68-5.09-12.51l2.63-15.33c.16-.91-.15-1.83-.8-2.47l-11.14-10.86c-3.51-3.42-4.75-8.45-3.24-13.11s5.47-8,10.33-8.71l15.39-2.24c.91-.13,1.7-.7,2.1-1.53l6.88-13.95c2.17-4.4,6.57-7.13,11.47-7.13s9.3,2.73,11.47,7.13l6.88,13.95c.41.83,1.19,1.4,2.1,1.53l15.39,2.24c4.85.71,8.81,4.04,10.33,8.71s.28,9.69-3.24,13.11l-11.14,10.86c-.66.64-.96,1.57-.8,2.47l2.63,15.33c.83,4.83-1.12,9.63-5.09,12.51s-9.13,3.26-13.47.97l-13.77-7.24c-.81-.43-1.79-.43-2.6,0l-13.77,7.24c-1.89.99-3.93,1.48-5.97,1.48Zm21.03-80.29c-.52,0-1.81.15-2.5,1.56l-6.88,13.95c-1.86,3.78-5.47,6.39-9.63,7l-15.39,2.24c-1.55.23-2.09,1.4-2.25,1.9-.16.5-.42,1.77.71,2.86l11.14,10.86c3.02,2.94,4.39,7.17,3.68,11.32l-2.63,15.33c-.27,1.54.69,2.43,1.11,2.73.42.31,1.55.94,2.94.21l13.77-7.24c3.73-1.96,8.18-1.96,11.91,0l13.77,7.24c1.39.73,2.52.09,2.94-.21.42-.31,1.38-1.19,1.11-2.73l-2.63-15.33c-.71-4.15.66-8.38,3.68-11.32l11.14-10.86c1.12-1.09.87-2.37.71-2.86-.16-.5-.7-1.68-2.25-1.9l-15.39-2.24c-4.17-.61-7.77-3.22-9.63-7l-6.88-13.95c-.69-1.41-1.98-1.56-2.5-1.56Z"/>
          </g>
          <g>
            <path d="m346.12,165.09l6.88,13.95c1.14,2.3,3.33,3.89,5.87,4.26l15.39,2.24c6.39.93,8.94,8.78,4.32,13.29l-11.14,10.86c-1.84,1.79-2.67,4.37-2.24,6.9l2.63,15.33c1.09,6.37-5.59,11.22-11.31,8.22l-13.77-7.24c-2.27-1.19-4.98-1.19-7.25,0l-13.77,7.24c-5.72,3.01-12.4-1.85-11.31-8.22l2.63-15.33c.43-2.53-.4-5.11-2.24-6.9l-11.14-10.86c-4.63-4.51-2.07-12.36,4.32-13.29l15.39-2.24c2.54-.37,4.73-1.96,5.87-4.26l6.88-13.95c2.86-5.79,11.12-5.79,13.98,0Z"/>
            <path d="m318.09,246.04c-2.64,0-5.27-.83-7.51-2.46-3.97-2.88-5.92-7.68-5.09-12.51l2.63-15.33c.16-.91-.14-1.83-.8-2.47l-11.14-10.86c-3.51-3.42-4.75-8.45-3.24-13.11,1.52-4.66,5.47-8,10.33-8.71l15.39-2.24c.91-.13,1.7-.7,2.1-1.53l6.88-13.95c2.17-4.4,6.57-7.13,11.47-7.13,4.91,0,9.3,2.73,11.47,7.13h0l6.88,13.95c.41.82,1.19,1.4,2.1,1.53l15.39,2.24c4.85.71,8.81,4.04,10.33,8.71s.27,9.69-3.24,13.11l-11.14,10.86c-.66.64-.96,1.57-.8,2.47l2.63,15.33c.83,4.83-1.12,9.63-5.09,12.51-3.97,2.88-9.13,3.26-13.47.97l-13.77-7.24c-.81-.43-1.79-.43-2.6,0l-13.77,7.24c-1.89.99-3.93,1.48-5.97,1.48Zm21.03-80.29c-.52,0-1.81.15-2.5,1.56l-6.88,13.95c-1.86,3.78-5.46,6.39-9.63,7l-15.39,2.24c-1.55.23-2.09,1.4-2.25,1.9-.16.5-.42,1.77.71,2.86l11.14,10.86c3.02,2.94,4.39,7.17,3.68,11.32l-2.63,15.33c-.27,1.54.69,2.43,1.11,2.73.42.31,1.55.94,2.94.21l13.77-7.24c3.73-1.96,8.18-1.96,11.91,0l13.77,7.24c1.39.73,2.52.09,2.94-.21.42-.31,1.38-1.19,1.11-2.73l-2.63-15.33c-.71-4.15.66-8.38,3.68-11.32l11.14-10.86c1.12-1.09.87-2.37.71-2.86-.16-.5-.7-1.68-2.25-1.9l-15.39-2.24c-4.17-.61-7.77-3.22-9.63-7l-6.88-13.95c-.69-1.41-1.98-1.56-2.51-1.56Z"/>
          </g>
        </g>
        <g>
          <path d="m238.86,347.6c-16.94,0-39.18-3.92-59.92-19.75-30.11-22.98-36.64-55.06-38.05-67.78-1.49-13.44,8.2-25.55,21.64-27.04,13.46-1.49,25.55,8.2,27.04,21.64.56,5.04,3.59,22.42,19.09,34.25,18.94,14.46,41.4,8.81,43.9,8.11,13.03-3.61,26.53,4.02,30.14,17.06,3.62,13.03-4.02,26.53-17.06,30.14-3.51.97-13.52,3.37-26.78,3.37Z"/>
          <path d="m238.86,352.6c-16.3,0-40.46-3.6-62.96-20.77-31.64-24.15-38.51-57.84-39.99-71.21-1.79-16.16,9.9-30.77,26.06-32.56,7.83-.87,15.53,1.36,21.68,6.29,6.15,4.92,10.01,11.94,10.88,19.77.5,4.55,3.23,20.2,17.15,30.83,17.02,13,37.28,7.89,39.53,7.27,7.59-2.1,15.54-1.13,22.4,2.75,6.85,3.88,11.79,10.2,13.9,17.79,2.11,7.59,1.13,15.54-2.75,22.4-3.88,6.86-10.2,11.79-17.79,13.89-3.86,1.07-14.32,3.56-28.12,3.56Zm-73.59-114.72c-.73,0-1.46.04-2.19.12-10.68,1.19-18.41,10.84-17.22,21.52,1.34,12.09,7.54,42.55,36.12,64.36,20.27,15.48,42.13,18.72,56.89,18.72,12.57,0,21.98-2.23,25.44-3.19,5.02-1.39,9.19-4.65,11.75-9.18,2.56-4.53,3.21-9.79,1.82-14.8-1.39-5.02-4.65-9.19-9.18-11.76-4.53-2.56-9.79-3.21-14.8-1.82-2.75.76-27.41,6.97-48.27-8.96-17.07-13.03-20.41-32.13-21.02-37.67-.57-5.18-3.13-9.82-7.19-13.07-3.49-2.79-7.73-4.27-12.14-4.27Z"/>
        </g>
        <g>
          <g>
            <path d="m190.98,292.41c2.45,2.57,6.53,2.66,9.09.21l5.45-5.21c.4-.39.73-.82,1.01-1.28-3.67-3.31-6.55-6.9-8.74-10.4-.77.3-1.49.74-2.13,1.35l-5.45,5.21c-2.57,2.45-2.66,6.53-.21,9.09l.98,1.03Z"/>
            <path d="m195.63,299.39c-3.02,0-6.03-1.18-8.27-3.53l-.98-1.03c-2.11-2.21-3.23-5.11-3.16-8.16.07-3.05,1.33-5.9,3.53-8l5.45-5.21c1.1-1.05,2.37-1.85,3.79-2.4l3.84-1.48,2.19,3.49c2.18,3.47,4.82,6.61,7.86,9.35l3.1,2.8-2.2,3.55c-.55.88-1.14,1.62-1.8,2.26l-5.45,5.21c-2.21,2.11-5.05,3.16-7.89,3.16Zm1.12-16.45l-3.09,2.96c-.57.55-.59,1.45-.05,2.03l.98,1.03c.54.57,1.45.59,2.03.05l2.91-2.78c-.97-1.05-1.89-2.15-2.77-3.28Z"/>
          </g>
          <g>
            <path d="m180.15,272.21c1.02,3.4,4.61,5.33,8.01,4.31l7.22-2.17c.53-.16,1.01-.4,1.46-.67-2.81-4.63-4.57-9.19-5.65-12.98l-7.15,2.15c-3.4,1.02-5.33,4.61-4.31,8.01l.41,1.36Z"/>
            <path d="m186.32,281.79c-4.91,0-9.47-3.2-10.95-8.14l-.41-1.36c-.88-2.93-.57-6.02.88-8.71,1.45-2.69,3.85-4.66,6.78-5.54l12.01-3.62,1.39,4.88c1.19,4.16,2.91,8.12,5.12,11.76l2.6,4.29-4.29,2.59c-.88.53-1.73.92-2.6,1.18l-7.22,2.17c-1.09.33-2.2.49-3.29.49Zm1.68-14.92l-2.5.75c-.47.14-.72.46-.85.69-.13.24-.25.62-.11,1.09l.41,1.36c.23.76,1.03,1.19,1.79.96l2.95-.89c-.61-1.3-1.17-2.62-1.68-3.97Z"/>
          </g>
        </g>
        <g>
          <path d="m99.14,255.65l-5.84-.88c-1.5-.23-3.02.3-4.05,1.41l-4.03,4.31c-2.61,2.79-7.29,1.38-7.92-2.39l-.97-5.82c-.25-1.5-1.22-2.78-2.6-3.42l-5.35-2.5c-3.46-1.62-3.57-6.51-.17-8.27l5.24-2.72c1.35-.7,2.26-2.02,2.45-3.53l.73-5.86c.47-3.79,5.09-5.4,7.81-2.72l4.21,4.14c1.08,1.06,2.62,1.53,4.11,1.24l5.79-1.12c3.75-.73,6.71,3.17,5,6.59l-2.64,5.28c-.68,1.36-.64,2.96.09,4.29l2.86,5.16c1.85,3.35-.94,7.36-4.72,6.79Z"/>
          <path d="m81.88,266.97c-.93,0-1.88-.14-2.8-.42-3.53-1.06-6.1-3.98-6.71-7.62l-.94-5.62-5.16-2.41c-3.34-1.56-5.46-4.82-5.54-8.51-.08-3.69,1.91-7.03,5.18-8.73l5.06-2.63.7-5.65c.45-3.66,2.9-6.68,6.38-7.9,3.48-1.21,7.28-.36,9.9,2.22l4.06,4,5.59-1.08c3.62-.7,7.25.69,9.48,3.63,2.23,2.94,2.59,6.81.94,10.11l-2.54,5.1,2.76,4.99c1.78,3.23,1.58,7.11-.52,10.14s-5.67,4.57-9.32,4.02l-5.64-.84-3.89,4.16c-1.85,1.98-4.38,3.06-7,3.06Zm-10.66-24.8l4.64,2.17c2.87,1.34,4.89,4,5.41,7.13l.84,5.05,3.49-3.74c2.16-2.31,5.32-3.41,8.45-2.94l5.06.76-2.48-4.48c-1.53-2.77-1.6-6.11-.19-8.94l2.29-4.58-5.02.97c-3.11.6-6.31-.37-8.56-2.58l-3.65-3.59-.63,5.08c-.39,3.14-2.3,5.89-5.11,7.35l-4.54,2.36Z"/>
        </g>
        <g>
          <g>
            <path d="m232.27,187.88l3.29,6.66c.54,1.1,1.59,1.86,2.8,2.04l7.35,1.07c3.05.44,4.27,4.2,2.06,6.35l-5.32,5.18c-.88.86-1.28,2.09-1.07,3.29l1.26,7.32c.52,3.04-2.67,5.36-5.4,3.92l-6.57-3.46c-1.08-.57-2.38-.57-3.46,0l-6.57,3.46c-2.73,1.44-5.92-.88-5.4-3.92l1.26-7.32c.21-1.21-.19-2.44-1.07-3.29l-5.32-5.18c-2.21-2.15-.99-5.9,2.06-6.35l7.35-1.07c1.21-.18,2.26-.94,2.8-2.04l3.29-6.66c1.37-2.77,5.31-2.77,6.67,0Z"/>
            <path d="m218.88,229.15c-1.8,0-3.59-.56-5.12-1.67-2.71-1.97-4.03-5.23-3.47-8.53l1.14-6.66-4.84-4.72c-2.4-2.33-3.24-5.76-2.21-8.94,1.03-3.18,3.73-5.45,7.04-5.94l6.69-.97,2.99-6.06c1.48-3,4.48-4.86,7.82-4.86s6.34,1.86,7.82,4.86h0s2.99,6.06,2.99,6.06l6.69.97c3.31.48,6.01,2.76,7.04,5.94,1.03,3.18.19,6.61-2.21,8.94l-4.84,4.72,1.14,6.66c.56,3.3-.76,6.56-3.47,8.53-2.71,1.96-6.22,2.22-9.19.66l-5.98-3.14-5.98,3.14c-1.29.68-2.68,1.01-4.07,1.01Zm10.05-14.32c1.39,0,2.79.33,4.06,1l4.28,2.25-.82-4.77c-.48-2.83.45-5.72,2.51-7.72l3.46-3.38-4.79-.7c-2.84-.41-5.3-2.2-6.57-4.77l-2.14-4.34-2.14,4.34c-1.27,2.58-3.73,4.36-6.57,4.77l-4.79.7,3.46,3.38c2.06,2,2.99,4.89,2.51,7.72l-.82,4.77,4.28-2.25c1.27-.67,2.66-1,4.06-1Z"/>
          </g>
          <g>
            <path d="m350.63,187.88l3.29,6.66c.54,1.1,1.59,1.86,2.8,2.04l7.35,1.07c3.05.44,4.27,4.2,2.06,6.35l-5.32,5.18c-.88.86-1.28,2.09-1.07,3.29l1.26,7.32c.52,3.04-2.67,5.36-5.4,3.92l-6.57-3.46c-1.08-.57-2.38-.57-3.46,0l-6.57,3.46c-2.73,1.44-5.92-.88-5.4-3.92l1.26-7.32c.21-1.21-.19-2.44-1.07-3.29l-5.32-5.18c-2.21-2.15-.99-5.9,2.06-6.35l7.35-1.07c1.21-.18,2.26-.94,2.8-2.04l3.29-6.66c1.37-2.77,5.31-2.77,6.67,0Z"/>
            <path d="m357.34,229.15c-1.39,0-2.78-.33-4.07-1.01l-5.98-3.14-5.98,3.14c-2.96,1.56-6.48,1.3-9.19-.66-2.71-1.97-4.03-5.23-3.47-8.53l1.14-6.66-4.84-4.72c-2.4-2.33-3.24-5.76-2.21-8.94,1.03-3.18,3.73-5.46,7.04-5.94l6.69-.97,2.99-6.06c1.48-3,4.48-4.86,7.82-4.86s6.34,1.86,7.82,4.86h0l2.99,6.06,6.69.97c3.31.48,6.01,2.76,7.04,5.94s.19,6.61-2.21,8.94l-4.84,4.72,1.14,6.66c.56,3.3-.76,6.56-3.47,8.53-1.53,1.11-3.32,1.67-5.12,1.67Zm-23.54-26.93l3.46,3.38c2.06,2.01,2.99,4.89,2.51,7.72l-.82,4.77,4.28-2.25c2.54-1.34,5.58-1.34,8.12,0l4.28,2.25-.82-4.77c-.48-2.83.45-5.72,2.51-7.72l3.46-3.38-4.79-.7c-2.84-.41-5.3-2.2-6.57-4.77l-2.14-4.34-2.14,4.34c-1.27,2.57-3.72,4.36-6.57,4.77l-4.79.7Zm12.35-12.13h0s0,0,0,0h0Z"/>
          </g>
        </g>
      </g>
      <g>
        <g>
          <g>
            <path class="cls-7" d="m104.39,208.39c-1.5,36.03-10.2,59.18-33.67,65.3-17.99,4.69-45.92-55.1-29.59-93.87C54.75,147.46-1.49-11.28,4.39,6.36c4.08,12.24,102.04,153.05,99.99,202.03Z"/>
            <path d="m68.64,277.96c-4.06,0-9.47-1.97-15.7-9.16-14.74-17.03-28.75-59.06-15.5-90.53C48.29,152.5,8.75,30.39,1.28,9.26c-.31-.65-.53-1.19-.68-1.64C.04,5.95-.8,3.43,1.69,1.71l2.47-1.71,2.33,1.89c.39.32.69.56,1.37,2.2,0-.04-.02-.07-.03-.11.01.04.02.08.04.14.22.54.49,1.23.81,2.12,1.98,4.04,8.75,14.96,16.46,27.41,29.64,47.82,84.82,136.83,83.24,174.91-1.17,27.98-6.39,61.11-36.66,69.01-.91.24-1.95.39-3.09.39ZM19.68,40.02c3.54,11.39,7.7,25.32,11.69,39.96,14.64,53.7,19.16,87.82,13.44,101.4-11.55,27.44.47,66.36,14.17,82.19,4.07,4.7,7.98,6.98,10.72,6.26,19.66-5.13,29.12-24.13,30.68-61.6,1.46-35.05-53.12-123.7-80.71-168.21Z"/>
          </g>
          <g>
            <g>
              <rect class="cls-7" x="179.31" y="75.74" width="67.34" height="48.98" rx="7.63" ry="7.63"/>
              <path d="m239.03,128.72h-52.08c-6.41,0-11.63-5.22-11.63-11.63v-33.72c0-6.41,5.22-11.63,11.63-11.63h52.08c6.41,0,11.63,5.22,11.63,11.63v33.72c0,6.41-5.22,11.63-11.63,11.63Zm-52.08-48.98c-2,0-3.63,1.63-3.63,3.63v33.72c0,2,1.63,3.63,3.63,3.63h52.08c2,0,3.63-1.63,3.63-3.63v-33.72c0-2-1.63-3.63-3.63-3.63h-52.08Z"/>
            </g>
            <g>
              <rect class="cls-7" x="265.02" y="75.74" width="67.34" height="48.98" rx="7.63" ry="7.63"/>
              <path d="m324.73,128.72h-52.08c-6.41,0-11.63-5.22-11.63-11.63v-33.72c0-6.41,5.22-11.63,11.63-11.63h52.08c6.41,0,11.63,5.22,11.63,11.63v33.72c0,6.41-5.22,11.63-11.63,11.63Zm-52.08-48.98c-2,0-3.63,1.63-3.63,3.63v33.72c0,2,1.63,3.63,3.63,3.63h52.08c2,0,3.63-1.63,3.63-3.63v-33.72c0-2-1.63-3.63-3.63-3.63h-52.08Z"/>
            </g>
          </g>
        </g>
        <g>
          <rect class="cls-1" x="88.5" y="106.35" width="334.68" height="220.4" rx="46.24" ry="46.24"/>
          <path d="m376.94,331.75h-242.2c-28.25,0-51.24-22.99-51.24-51.24v-127.92c0-28.25,22.99-51.24,51.24-51.24h242.2c28.25,0,51.24,22.99,51.24,51.24v127.92c0,28.25-22.99,51.24-51.24,51.24ZM134.74,111.35c-22.74,0-41.24,18.5-41.24,41.24v127.92c0,22.74,18.5,41.24,41.24,41.24h242.2c22.74,0,41.24-18.5,41.24-41.24v-127.92c0-22.74-18.5-41.24-41.24-41.24h-242.2Z"/>
        </g>
        <g>
          <g>
            <path class="cls-2" d="m237.13,16.22h0c-8.74-8.74-22.78-9.09-31.97-1.1-9.19-7.99-23.24-7.64-31.97,1.1h0c-9.13,9.13-9.13,24.06,0,33.19l14.43,14.43c4.8,4.8,11.21,7.05,17.54,6.8,6.33.25,12.74-2,17.54-6.8l14.43-14.43c9.13-9.13,9.13-24.06,0-33.19Z"/>
            <path d="m204.21,73.16c-6.89,0-13.53-2.72-18.37-7.55l-14.43-14.43c-10.12-10.12-10.12-26.6,0-36.72,9.09-9.09,23.53-10.04,33.74-2.53,10.21-7.51,24.65-6.56,33.74,2.53h0c10.12,10.12,10.12,26.6,0,36.72l-14.43,14.43c-5.05,5.05-12.09,7.79-19.31,7.54-.31.01-.63.02-.94.02Zm-14.45-61.27c-5.39,0-10.76,2.05-14.81,6.1-8.18,8.18-8.18,21.48,0,29.65l14.43,14.43c4.09,4.09,9.8,6.3,15.68,6.07h.1s.1,0,.1,0c5.88.23,11.58-1.98,15.67-6.07l14.43-14.43c8.17-8.18,8.17-21.48,0-29.65-7.74-7.74-20.29-8.17-28.56-.98l-1.64,1.43-1.64-1.43c-3.94-3.43-8.85-5.12-13.75-5.12Z"/>
          </g>
          <g>
            <path class="cls-2" d="m338.5,16.22h0c-8.74-8.74-22.78-9.09-31.97-1.1-9.19-7.99-23.24-7.64-31.97,1.1h0c-9.13,9.13-9.13,24.06,0,33.19l14.43,14.43c4.8,4.8,11.21,7.05,17.54,6.8,6.33.25,12.74-2,17.54-6.8l14.43-14.43c9.13-9.13,9.13-24.06,0-33.19Z"/>
            <path d="m305.58,73.16c-6.89,0-13.53-2.72-18.37-7.55l-14.43-14.43c-10.12-10.12-10.12-26.6,0-36.72,9.09-9.09,23.53-10.05,33.74-2.53,10.21-7.51,24.65-6.56,33.74,2.53,10.12,10.12,10.12,26.6,0,36.72l-14.43,14.43c-5.05,5.05-12.09,7.79-19.31,7.54-.31.01-.63.02-.94.02Zm-14.45-61.27c-5.39,0-10.76,2.05-14.81,6.1-8.18,8.18-8.18,21.48,0,29.65l14.43,14.43c4.09,4.09,9.8,6.3,15.68,6.07h.1s.1,0,.1,0c5.87.23,11.58-1.98,15.67-6.07l14.43-14.43c8.18-8.18,8.18-21.48,0-29.65-7.74-7.74-20.29-8.17-28.56-.98l-1.64,1.43-1.64-1.43c-3.94-3.43-8.85-5.12-13.75-5.12Z"/>
          </g>
        </g>
        <g>
          <g>
            <path class="cls-4" d="m203.65,134.48l6.88,13.95c1.14,2.3,3.33,3.89,5.87,4.26l15.39,2.24c6.39.93,8.94,8.78,4.32,13.29l-11.14,10.86c-1.84,1.79-2.67,4.37-2.24,6.9l2.63,15.33c1.09,6.37-5.59,11.22-11.31,8.22l-13.77-7.24c-2.27-1.19-4.98-1.19-7.25,0l-13.77,7.24c-5.72,3.01-12.4-1.85-11.31-8.22l2.63-15.33c.43-2.53-.4-5.11-2.24-6.9l-11.14-10.86c-4.63-4.51-2.07-12.36,4.32-13.29l15.39-2.24c2.54-.37,4.73-1.96,5.87-4.26l6.88-13.95c2.86-5.79,11.12-5.79,13.98,0Z"/>
            <path d="m175.63,211.92c-1.92,0-3.82-.6-5.45-1.78-2.88-2.09-4.3-5.58-3.7-9.09l2.63-15.33c.35-2.04-.33-4.12-1.81-5.57l-11.14-10.86c-2.55-2.49-3.45-6.14-2.35-9.53,1.1-3.39,3.98-5.81,7.5-6.32l15.39-2.24c2.05-.3,3.82-1.58,4.74-3.44l6.88-13.95c1.58-3.19,4.77-5.18,8.33-5.18,3.56,0,6.76,1.98,8.33,5.18l6.88,13.95c.92,1.86,2.69,3.14,4.74,3.44l15.39,2.24c3.53.51,6.4,2.94,7.5,6.32,1.1,3.39.2,7.04-2.35,9.53l-11.14,10.86c-1.48,1.45-2.16,3.53-1.81,5.57l2.63,15.33c.6,3.51-.81,6.99-3.7,9.09-2.88,2.1-6.63,2.36-9.79.71l-13.77-7.24c-1.83-.96-4.02-.96-5.86,0l-13.77,7.24c-1.37.72-2.86,1.08-4.33,1.08Zm21.03-80.29c-2.45,0-4.56,1.31-5.64,3.51l-6.88,13.95c-1.35,2.74-3.97,4.64-7,5.08l-15.39,2.24c-2.42.35-4.32,1.95-5.08,4.28-.76,2.33-.16,4.74,1.59,6.45l11.14,10.86c2.19,2.14,3.19,5.21,2.67,8.23l-2.63,15.33c-.41,2.41.52,4.72,2.5,6.15,1.98,1.44,4.46,1.62,6.63.48l13.77-7.24c2.71-1.42,5.94-1.42,8.65,0l13.77,7.24c2.17,1.14,4.65.96,6.63-.48,1.98-1.44,2.92-3.74,2.5-6.15l-2.63-15.33c-.52-3.01.48-6.09,2.67-8.23l11.14-10.86c1.75-1.71,2.35-4.12,1.59-6.45-.76-2.33-2.66-3.93-5.08-4.28l-15.39-2.24c-3.03-.44-5.64-2.34-7-5.08l-6.88-13.95c-1.08-2.2-3.19-3.51-5.64-3.51Z"/>
          </g>
          <g>
            <path class="cls-4" d="m322.01,134.48l6.88,13.95c1.14,2.3,3.33,3.89,5.87,4.26l15.39,2.24c6.39.93,8.94,8.78,4.32,13.29l-11.14,10.86c-1.84,1.79-2.67,4.37-2.24,6.9l2.63,15.33c1.09,6.37-5.59,11.22-11.31,8.22l-13.77-7.24c-2.27-1.19-4.98-1.19-7.25,0l-13.77,7.24c-5.72,3.01-12.4-1.85-11.31-8.22l2.63-15.33c.43-2.53-.4-5.11-2.24-6.9l-11.14-10.86c-4.63-4.51-2.07-12.36,4.32-13.29l15.39-2.24c2.54-.37,4.73-1.96,5.87-4.26l6.88-13.95c2.86-5.79,11.12-5.79,13.98,0Z"/>
            <path d="m293.99,211.92c-1.92,0-3.82-.6-5.45-1.78-2.88-2.09-4.3-5.58-3.7-9.09l2.63-15.33c.35-2.04-.33-4.12-1.81-5.57l-11.14-10.86c-2.55-2.49-3.45-6.14-2.35-9.53,1.1-3.39,3.98-5.81,7.5-6.32l15.39-2.24c2.05-.3,3.82-1.58,4.74-3.44l6.88-13.95c1.58-3.19,4.77-5.18,8.33-5.18,3.56,0,6.76,1.98,8.33,5.18l6.88,13.95c.92,1.86,2.69,3.14,4.74,3.44l15.39,2.24c3.53.51,6.4,2.94,7.5,6.32,1.1,3.39.2,7.04-2.35,9.53l-11.14,10.86c-1.48,1.45-2.16,3.53-1.81,5.57l2.63,15.33c.6,3.51-.81,6.99-3.7,9.09-2.88,2.09-6.63,2.36-9.79.71l-13.77-7.24c-1.83-.96-4.02-.96-5.86,0l-13.77,7.24c-1.37.72-2.86,1.08-4.33,1.08Zm21.03-80.29c-2.45,0-4.56,1.31-5.64,3.51l-6.88,13.95c-1.35,2.74-3.97,4.64-7,5.08l-15.39,2.24c-2.42.35-4.32,1.95-5.08,4.28-.76,2.33-.16,4.74,1.59,6.45l11.14,10.86c2.19,2.14,3.19,5.21,2.67,8.23l-2.63,15.33c-.41,2.41.52,4.72,2.5,6.15,1.98,1.44,4.46,1.62,6.63.48l13.77-7.24c2.71-1.42,5.94-1.42,8.65,0l13.77,7.24c2.17,1.14,4.65.96,6.63-.48,1.98-1.44,2.92-3.74,2.5-6.15l-2.63-15.33c-.52-3.02.48-6.09,2.67-8.23l11.14-10.86c1.75-1.71,2.35-4.12,1.59-6.45-.76-2.33-2.66-3.93-5.08-4.28l-15.39-2.24c-3.03-.44-5.64-2.34-7-5.08l-6.88-13.95c-1.08-2.2-3.19-3.51-5.64-3.51Z"/>
          </g>
        </g>
        <g>
          <path class="cls-6" d="m214.76,316.99c-16.94,0-39.18-3.92-59.92-19.75-30.11-22.98-36.64-55.06-38.05-67.78-1.49-13.44,8.2-25.55,21.64-27.04,13.46-1.49,25.55,8.2,27.04,21.64.56,5.04,3.59,22.42,19.09,34.25,18.94,14.46,41.4,8.81,43.9,8.11,13.03-3.61,26.53,4.02,30.14,17.06,3.62,13.03-4.02,26.53-17.06,30.14-3.51.97-13.52,3.37-26.78,3.37Z"/>
          <path d="m214.76,318.99c-15.84,0-39.31-3.5-61.14-20.16-30.72-23.45-37.39-56.17-38.83-69.15-1.61-14.52,8.89-27.64,23.41-29.25,7.04-.78,13.95,1.22,19.48,5.65,5.52,4.42,8.99,10.73,9.77,17.76.54,4.85,3.45,21.54,18.32,32.88,18.17,13.88,39.75,8.44,42.15,7.78,6.82-1.89,13.96-1.01,20.12,2.47,6.16,3.48,10.59,9.16,12.48,15.98,1.89,6.82,1.01,13.96-2.47,20.12-3.48,6.16-9.16,10.59-15.98,12.48-3.74,1.04-13.88,3.45-27.31,3.45Zm-73.58-114.73c-.84,0-1.68.05-2.53.14-12.32,1.37-21.24,12.51-19.87,24.83,1.38,12.47,7.78,43.9,37.28,66.41,20.94,15.98,43.48,19.34,58.71,19.34,12.94,0,22.67-2.31,26.25-3.3,5.79-1.6,10.61-5.37,13.56-10.6s3.7-11.29,2.1-17.08c-1.61-5.79-5.37-10.61-10.6-13.56-5.23-2.96-11.29-3.7-17.08-2.1-2.6.72-25.94,6.6-45.65-8.45-16.13-12.31-19.28-30.38-19.86-35.62-.66-5.97-3.61-11.33-8.29-15.08-4.02-3.22-8.92-4.93-14.01-4.93Z"/>
        </g>
        <g>
          <g>
            <path class="cls-3" d="m166.87,261.8c2.45,2.57,6.53,2.66,9.09.21l5.45-5.21c.4-.39.73-.82,1.01-1.28-3.67-3.31-6.55-6.9-8.74-10.4-.77.3-1.49.74-2.13,1.35l-5.45,5.21c-2.57,2.45-2.66,6.53-.21,9.09l.98,1.03Z"/>
            <path d="m171.52,264.78c-1.96,0-3.92-.77-5.38-2.3h0s-.98-1.03-.98-1.03c-1.37-1.44-2.1-3.32-2.06-5.3.05-1.98.86-3.83,2.3-5.2l5.45-5.21c.71-.68,1.54-1.2,2.46-1.56l.77-.3.44.7c2.38,3.78,5.26,7.21,8.57,10.19l.62.56-.44.71c-.37.6-.74,1.07-1.17,1.47l-5.45,5.21c-1.44,1.37-3.29,2.05-5.13,2.05Zm-3.93-3.68c2.07,2.17,5.52,2.25,7.68.18l5.45-5.21c.13-.12.25-.26.38-.41-2.96-2.76-5.57-5.87-7.79-9.27-.39.22-.74.48-1.07.79l-5.45,5.21c-1.05,1-1.65,2.35-1.68,3.8-.03,1.45.5,2.83,1.5,3.88l.98,1.03h0Z"/>
          </g>
          <g>
            <path class="cls-3" d="m156.04,241.6c1.02,3.4,4.61,5.33,8.01,4.31l7.22-2.17c.53-.16,1.01-.4,1.46-.67-2.81-4.63-4.57-9.19-5.65-12.98l-7.15,2.15c-3.4,1.02-5.33,4.61-4.31,8.01l.41,1.36Z"/>
            <path d="m162.19,247.18c-1.21,0-2.41-.3-3.51-.89-1.75-.94-3.03-2.5-3.6-4.41l-.41-1.36c-.57-1.9-.37-3.91.57-5.66.94-1.75,2.5-3.03,4.41-3.6l8.12-2.45.28.98c1.28,4.51,3.15,8.79,5.54,12.74l.52.86-.86.52c-.6.36-1.14.61-1.69.78l-7.22,2.17c-.71.21-1.43.32-2.15.32Zm4.23-15.86l-6.19,1.86c-1.39.42-2.53,1.35-3.22,2.63s-.83,2.75-.42,4.14l.41,1.36c.42,1.39,1.35,2.53,2.63,3.22,1.28.69,2.75.83,4.14.42l7.22-2.17c.12-.04.23-.08.35-.12-2.06-3.55-3.71-7.35-4.92-11.33Z"/>
          </g>
        </g>
        <g>
          <path class="cls-5" d="m75.04,225.04l-5.84-.88c-1.5-.23-3.02.3-4.05,1.41l-4.03,4.31c-2.61,2.79-7.29,1.38-7.92-2.39l-.97-5.82c-.25-1.5-1.22-2.78-2.6-3.42l-5.35-2.5c-3.46-1.62-3.57-6.51-.17-8.27l5.24-2.72c1.35-.7,2.26-2.02,2.45-3.53l.73-5.86c.47-3.79,5.09-5.4,7.81-2.72l4.21,4.14c1.08,1.06,2.62,1.53,4.11,1.24l5.79-1.12c3.75-.73,6.71,3.17,5,6.59l-2.64,5.28c-.68,1.36-.64,2.96.09,4.29l2.86,5.16c1.85,3.35-.94,7.36-4.72,6.79Z"/>
          <path d="m57.76,232.35c-.54,0-1.1-.08-1.64-.24-2.06-.62-3.56-2.33-3.91-4.45l-.97-5.82c-.2-1.17-.96-2.17-2.03-2.68l-5.35-2.5c-1.95-.91-3.19-2.81-3.23-4.97-.04-2.15,1.11-4.1,3.02-5.1l5.24-2.72c1.06-.55,1.77-1.58,1.92-2.76l.73-5.86c.26-2.14,1.69-3.9,3.72-4.61,2.03-.71,4.25-.21,5.78,1.3l4.21,4.14c.85.83,2.05,1.2,3.22.97l5.79-1.12c2.11-.41,4.23.4,5.54,2.12,1.3,1.71,1.51,3.98.55,5.9l-2.64,5.28c-.53,1.06-.5,2.32.07,3.36l2.86,5.16c1.04,1.88.93,4.15-.3,5.92-1.23,1.77-3.32,2.67-5.44,2.35l-5.84-.88c-1.18-.18-2.36.24-3.18,1.11l-4.03,4.31c-1.08,1.16-2.56,1.78-4.08,1.78Zm-.63-40.03c-.4,0-.81.07-1.22.21-1.33.46-2.22,1.57-2.4,2.97l-.73,5.86c-.23,1.83-1.34,3.44-2.98,4.29l-5.24,2.72c-1.25.65-1.98,1.88-1.95,3.28.03,1.41.81,2.6,2.08,3.2l5.35,2.5c1.67.78,2.85,2.34,3.16,4.16l.97,5.82c.23,1.39,1.17,2.46,2.52,2.86,1.35.41,2.72.03,3.68-.99l4.03-4.31c1.26-1.35,3.1-1.99,4.93-1.72l5.84.88c1.39.21,2.7-.36,3.5-1.51.8-1.15.88-2.58.2-3.81l-2.86-5.16c-.89-1.62-.94-3.57-.11-5.22l2.64-5.28c.63-1.26.5-2.68-.36-3.8-.85-1.12-2.19-1.63-3.56-1.36l-5.79,1.12c-1.82.35-3.68-.21-5-1.51l-4.21-4.14c-.7-.69-1.58-1.05-2.5-1.05Z"/>
        </g>
        <g>
          <g>
            <path class="cls-3" d="m208.16,157.26l3.29,6.66c.54,1.1,1.59,1.86,2.8,2.04l7.35,1.07c3.05.44,4.27,4.2,2.06,6.35l-5.32,5.18c-.88.86-1.28,2.09-1.07,3.29l1.26,7.32c.52,3.04-2.67,5.36-5.4,3.92l-6.57-3.46c-1.08-.57-2.38-.57-3.46,0l-6.57,3.46c-2.73,1.44-5.92-.88-5.4-3.92l1.26-7.32c.21-1.21-.19-2.44-1.07-3.29l-5.32-5.18c-2.21-2.15-.99-5.9,2.06-6.35l7.35-1.07c1.21-.18,2.26-.94,2.8-2.04l3.29-6.66c1.37-2.77,5.31-2.77,6.67,0Z"/>
            <path d="m194.78,194.03c-.87,0-1.74-.27-2.48-.81-1.31-.95-1.95-2.53-1.68-4.13l1.26-7.32c.18-1.05-.17-2.11-.93-2.85l-5.32-5.19c-1.16-1.13-1.57-2.79-1.07-4.33.5-1.54,1.81-2.64,3.41-2.87l7.35-1.07c1.05-.15,1.96-.81,2.43-1.76l3.29-6.66c.72-1.45,2.17-2.35,3.79-2.35s3.07.9,3.79,2.35l3.29,6.66c.47.95,1.38,1.61,2.43,1.76l7.35,1.07c1.6.23,2.91,1.33,3.41,2.87.5,1.54.09,3.2-1.07,4.33l-5.32,5.19c-.76.74-1.11,1.81-.93,2.85l1.26,7.32c.27,1.6-.37,3.18-1.68,4.13-1.31.95-3.01,1.07-4.45.32l-6.57-3.46c-.94-.49-2.06-.49-3,0l-6.57,3.46c-.62.33-1.3.49-1.97.49Zm10.04-38.34c-1.25,0-2.33.67-2.89,1.8l-3.29,6.66c-.62,1.25-1.8,2.11-3.18,2.31l-7.35,1.07c-1.24.18-2.21,1-2.6,2.19-.39,1.19-.08,2.43.82,3.3l5.32,5.19c1,.97,1.45,2.37,1.21,3.74l-1.26,7.32c-.21,1.24.27,2.41,1.28,3.15,1.01.74,2.28.83,3.39.25l6.57-3.46c1.23-.65,2.7-.65,3.93,0l6.57,3.46c1.11.58,2.38.49,3.39-.25,1.01-.74,1.49-1.92,1.28-3.15l-1.26-7.32c-.23-1.37.22-2.77,1.21-3.74l5.32-5.19c.9-.88,1.2-2.11.82-3.3-.39-1.19-1.36-2.01-2.6-2.19l-7.35-1.07c-1.38-.2-2.56-1.06-3.18-2.31l-3.29-6.66c-.56-1.12-1.64-1.8-2.89-1.8Z"/>
          </g>
          <g>
            <path class="cls-3" d="m326.52,157.26l3.29,6.66c.54,1.1,1.59,1.86,2.8,2.04l7.35,1.07c3.05.44,4.27,4.2,2.06,6.35l-5.32,5.18c-.88.86-1.28,2.09-1.07,3.29l1.26,7.32c.52,3.04-2.67,5.36-5.4,3.92l-6.57-3.46c-1.08-.57-2.38-.57-3.46,0l-6.57,3.46c-2.73,1.44-5.92-.88-5.4-3.92l1.26-7.32c.21-1.21-.19-2.44-1.07-3.29l-5.32-5.18c-2.21-2.15-.99-5.9,2.06-6.35l7.35-1.07c1.21-.18,2.26-.94,2.8-2.04l3.29-6.66c1.37-2.77,5.31-2.77,6.67,0Z"/>
            <path d="m333.22,194.03c-.67,0-1.35-.16-1.97-.49l-6.57-3.46c-.94-.49-2.06-.49-3,0l-6.57,3.46c-1.43.75-3.14.63-4.45-.32-1.31-.95-1.95-2.53-1.68-4.13l1.26-7.32c.18-1.05-.17-2.11-.93-2.85l-5.32-5.19c-1.16-1.13-1.57-2.79-1.07-4.33.5-1.54,1.81-2.64,3.41-2.87l7.35-1.07c1.05-.15,1.96-.81,2.43-1.76l3.29-6.66c.72-1.45,2.17-2.35,3.79-2.35s3.07.9,3.79,2.35l3.29,6.66c.47.95,1.38,1.61,2.43,1.76l7.35,1.07c1.6.23,2.91,1.33,3.41,2.87.5,1.54.09,3.2-1.07,4.33l-5.32,5.19c-.76.74-1.11,1.81-.93,2.85l1.26,7.32c.27,1.6-.37,3.18-1.68,4.13-.74.54-1.61.81-2.48.81Zm-10.04-5.32c.67,0,1.35.16,1.96.49l6.57,3.46c1.11.58,2.38.49,3.39-.25,1.01-.74,1.49-1.92,1.28-3.15l-1.26-7.32c-.23-1.37.22-2.77,1.21-3.74l5.32-5.19c.9-.88,1.2-2.11.82-3.3-.39-1.19-1.36-2.01-2.6-2.19l-7.35-1.07c-1.38-.2-2.56-1.06-3.18-2.31l-3.29-6.66c-.56-1.12-1.64-1.8-2.89-1.8s-2.33.67-2.89,1.8l-3.29,6.66c-.62,1.25-1.8,2.11-3.18,2.31l-7.35,1.07c-1.24.18-2.21,1-2.6,2.19-.39,1.19-.08,2.43.82,3.3l5.32,5.19c1,.97,1.45,2.37,1.21,3.74l-1.26,7.32c-.21,1.24.27,2.41,1.28,3.15,1.01.74,2.28.83,3.39.25l6.57-3.46c.62-.32,1.29-.49,1.96-.49Z"/>
          </g>
        </g>
      </g>
    </g>
  </g>
</svg>