<?xml version="1.0" encoding="UTF-8"?>
<svg id="Calque_2" data-name="Calque 2" xmlns="http://www.w3.org/2000/svg" viewBox="0 0 451.39 361.68">
  <defs>
    <style>
      .cls-1 {
        fill: #9d3330;
      }

      .cls-2 {
        fill: #382254;
      }

      .cls-3 {
        fill: #bfbfbf;
      }

      .cls-4 {
        fill: #145a66;
      }

      .cls-5 {
        fill: #6c40a1;
      }

      .cls-6 {
        fill: #e0d3e4;
      }

      .cls-7 {
        fill: #c0d4c7;
      }

      .cls-8 {
        fill: #e8deeb;
      }
    </style>
  </defs>
  <g id="Calque_1-2" data-name="Calque 1">
    <g>
      <g>
        <g>
          <g>
            <path d="m128.28,238.57c-1.5,35.96-10.18,59.05-33.6,65.16-17.96,4.68-45.82-54.98-29.53-93.67C78.75,177.77,22.63,19.37,28.5,36.97c4.07,12.22,101.82,152.73,99.78,201.6Z"/>
            <path d="m92.6,309c-4.29,0-9.97-2.04-16.42-9.49-14.88-17.18-29.01-59.61-15.63-91.39,2.73-6.47,4.62-27.23-13.31-93.53-9.27-34.27-19.81-65.72-22.9-74.61-.25-.55-.44-1.03-.58-1.43-.57-1.71-1.64-4.91,1.47-7.05l3.08-2.13,2.91,2.36c.53.43.89.72,1.68,2.6,0,0,0,0,0-.01,0,0,0,0,0,.01.24.57.52,1.3.86,2.22,2.02,4.06,8.98,15.3,16.31,27.12,29.64,47.81,84.81,136.8,83.21,175.11-1.18,28.27-6.49,61.75-37.33,69.79-.99.26-2.11.43-3.34.43ZM47.02,77.75c2.97,9.76,6.22,20.87,9.37,32.42,6.33,23.22,10.83,43.07,13.38,58.99,3.34,20.87,3.34,34.88-.01,42.85-11.38,27.02.47,65.37,13.97,80.96,3.69,4.26,7.39,6.52,9.68,5.93,19.12-4.99,28.33-23.66,29.87-60.53h0c1.38-33.01-47.84-114.62-76.26-160.62Z"/>
          </g>
          <g>
            <g>
              <rect x="203.05" y="106.21" width="67.2" height="48.87" rx="7.63" ry="7.63"/>
              <path d="m262.62,160.08h-51.94c-6.96,0-12.63-5.67-12.63-12.63v-33.61c0-6.96,5.67-12.63,12.63-12.63h51.94c6.96,0,12.63,5.67,12.63,12.63v33.61c0,6.96-5.67,12.63-12.63,12.63Zm-51.94-48.87c-1.43,0-2.63,1.21-2.63,2.63v33.61c0,1.43,1.2,2.63,2.63,2.63h51.94c1.43,0,2.63-1.21,2.63-2.63v-33.61c0-1.43-1.2-2.63-2.63-2.63h-51.94Z"/>
            </g>
            <g>
              <rect x="288.57" y="106.21" width="67.2" height="48.87" rx="7.63" ry="7.63"/>
              <path d="m348.14,160.08h-51.94c-6.96,0-12.63-5.67-12.63-12.63v-33.61c0-6.96,5.67-12.63,12.63-12.63h51.94c6.96,0,12.63,5.67,12.63,12.63v33.61c0,6.96-5.67,12.63-12.63,12.63Zm-51.94-48.87c-1.43,0-2.63,1.21-2.63,2.63v33.61c0,1.43,1.2,2.63,2.63,2.63h51.94c1.43,0,2.63-1.21,2.63-2.63v-33.61c0-1.43-1.2-2.63-2.63-2.63h-51.94Z"/>
            </g>
          </g>
        </g>
        <g>
          <rect x="112.43" y="136.75" width="333.96" height="219.93" rx="46.24" ry="46.24"/>
          <path d="m400.15,361.68h-241.48c-28.25,0-51.24-22.99-51.24-51.24v-127.45c0-28.25,22.99-51.24,51.24-51.24h241.48c28.25,0,51.24,22.99,51.24,51.24v127.45c0,28.25-22.99,51.24-51.24,51.24Zm-241.48-219.93c-22.74,0-41.24,18.5-41.24,41.24v127.45c0,22.74,18.5,41.24,41.24,41.24h241.48c22.74,0,41.24-18.5,41.24-41.24v-127.45c0-22.74-18.5-41.24-41.24-41.24h-241.48Z"/>
        </g>
        <g>
          <g>
            <path d="m227.33,164.82l6.87,13.92c1.13,2.3,3.32,3.89,5.86,4.25l15.36,2.23c6.38.93,8.93,8.77,4.31,13.26l-11.11,10.83c-1.83,1.79-2.67,4.36-2.24,6.88l2.62,15.3c1.09,6.35-5.58,11.2-11.28,8.2l-13.74-7.22c-2.27-1.19-4.97-1.19-7.24,0l-13.74,7.22c-5.71,3-12.37-1.85-11.28-8.2l2.62-15.3c.43-2.52-.4-5.1-2.24-6.88l-11.11-10.83c-4.62-4.5-2.07-12.34,4.31-13.26l15.36-2.23c2.53-.37,4.72-1.96,5.86-4.25l6.87-13.92c2.85-5.78,11.09-5.78,13.95,0Z"/>
            <path d="m199.37,245.6c-2.64,0-5.26-.83-7.5-2.45-3.96-2.88-5.91-7.67-5.08-12.5l2.62-15.3c.15-.9-.14-1.82-.8-2.46l-11.11-10.83c-3.51-3.42-4.75-8.44-3.23-13.1,1.51-4.66,5.47-7.99,10.31-8.7l15.36-2.23c.9-.13,1.69-.7,2.09-1.52l6.87-13.92c2.17-4.39,6.56-7.12,11.46-7.12s9.29,2.73,11.46,7.12l6.87,13.92c.4.82,1.19,1.39,2.09,1.52l15.36,2.23c4.85.71,8.8,4.04,10.31,8.7,1.51,4.66.27,9.68-3.23,13.1l-11.11,10.83c-.65.64-.95,1.56-.8,2.46l2.62,15.3c.83,4.83-1.12,9.62-5.08,12.5-3.96,2.88-9.12,3.25-13.46.97l-13.74-7.22c-.81-.43-1.78-.43-2.58,0l-13.74,7.22c-1.89.99-3.93,1.48-5.96,1.48Zm20.99-80.12c-.52,0-1.8.15-2.49,1.55l-6.87,13.92c-1.86,3.77-5.46,6.38-9.62,6.99l-15.36,2.23c-1.54.22-2.08,1.4-2.24,1.89-.16.49-.41,1.76.7,2.85l11.11,10.83c3.01,2.94,4.39,7.16,3.67,11.31l-2.62,15.3c-.26,1.54.68,2.41,1.1,2.72.42.31,1.54.94,2.92.21l13.74-7.22c3.72-1.96,8.17-1.96,11.89,0l13.74,7.22c1.38.72,2.5.09,2.92-.21.42-.3,1.37-1.18,1.1-2.72l-2.62-15.3c-.71-4.15.66-8.37,3.67-11.31l11.11-10.83c1.12-1.09.86-2.35.7-2.85-.16-.49-.7-1.67-2.24-1.89l-15.36-2.23c-4.16-.61-7.76-3.22-9.62-6.99l-6.87-13.92c-.69-1.4-1.97-1.55-2.49-1.55Z"/>
          </g>
          <g>
            <path d="m345.44,164.82l6.87,13.92c1.13,2.3,3.32,3.89,5.86,4.25l15.36,2.23c6.38.93,8.93,8.77,4.31,13.26l-11.11,10.83c-1.83,1.79-2.67,4.36-2.24,6.88l2.62,15.3c1.09,6.35-5.58,11.2-11.28,8.2l-13.74-7.22c-2.27-1.19-4.97-1.19-7.24,0l-13.74,7.22c-5.71,3-12.37-1.85-11.28-8.2l2.62-15.3c.43-2.52-.4-5.1-2.24-6.88l-11.11-10.83c-4.62-4.5-2.07-12.34,4.31-13.26l15.36-2.23c2.53-.37,4.72-1.96,5.86-4.25l6.87-13.92c2.85-5.78,11.09-5.78,13.95,0Z"/>
            <path d="m317.48,245.6c-2.64,0-5.26-.83-7.5-2.45-3.96-2.88-5.91-7.67-5.08-12.5l2.62-15.3c.15-.9-.14-1.82-.8-2.46l-11.11-10.83c-3.51-3.42-4.75-8.44-3.23-13.1,1.51-4.66,5.47-7.99,10.31-8.7l15.36-2.23c.9-.13,1.69-.7,2.09-1.52l6.87-13.92c2.17-4.39,6.56-7.12,11.46-7.12s9.29,2.73,11.46,7.12l6.87,13.92c.4.82,1.19,1.39,2.09,1.52l15.36,2.23c4.85.71,8.8,4.04,10.31,8.7,1.51,4.66.27,9.68-3.23,13.1l-11.11,10.83c-.65.64-.95,1.56-.8,2.46l2.62,15.3c.83,4.83-1.12,9.62-5.08,12.5-3.96,2.88-9.12,3.25-13.46.97l-13.74-7.22c-.81-.43-1.78-.43-2.58,0l-13.74,7.22c-1.89.99-3.93,1.48-5.96,1.48Zm20.99-80.12c-.52,0-1.8.15-2.49,1.55l-6.87,13.92c-1.86,3.77-5.46,6.38-9.62,6.99l-15.36,2.23c-1.54.22-2.08,1.4-2.24,1.89-.16.49-.41,1.76.7,2.85l11.11,10.83c3.01,2.94,4.39,7.16,3.67,11.31l-2.62,15.3c-.26,1.54.68,2.41,1.1,2.72.42.31,1.55.94,2.92.21l13.74-7.22c3.72-1.96,8.17-1.96,11.89,0l13.74,7.22c1.38.72,2.5.09,2.92-.21.42-.3,1.37-1.18,1.1-2.72l-2.62-15.3c-.71-4.15.66-8.37,3.67-11.31l11.11-10.83c1.12-1.09.86-2.35.7-2.85-.16-.49-.7-1.67-2.24-1.89l-15.36-2.23c-4.16-.61-7.76-3.22-9.62-6.99l-6.87-13.92c-.69-1.4-1.97-1.55-2.49-1.55Z"/>
          </g>
        </g>
        <g>
          <g>
            <path d="m260.74,46.81h0c-8.72-8.72-22.73-9.07-31.9-1.1-9.17-7.97-23.19-7.62-31.9,1.1h0c-9.11,9.11-9.11,24.01,0,33.12l14.4,14.4c4.79,4.79,11.19,7.04,17.5,6.79,6.31.25,12.71-1.99,17.5-6.79l14.4-14.4c9.11-9.11,9.11-24.01,0-33.12Z"/>
            <path d="m227.89,106.13c-7.54,0-14.81-2.98-20.1-8.27l-14.4-14.4c-11.08-11.08-11.08-29.11,0-40.19,9.52-9.52,24.39-10.89,35.44-3.79,11.05-7.09,25.92-5.72,35.44,3.79,11.08,11.08,11.08,29.11,0,40.19l-14.4,14.4c-5.51,5.51-13.16,8.53-21.04,8.25-.31.01-.63.02-.94.02Zm-14.42-61.15c-4.73,0-9.45,1.8-13.01,5.36-7.18,7.18-7.18,18.87,0,26.05l14.4,14.4c3.59,3.59,8.61,5.53,13.77,5.33h.2s.2,0,.2,0c5.16.2,10.18-1.74,13.77-5.33l14.4-14.4c7.18-7.18,7.18-18.87,0-26.05-6.8-6.8-17.82-7.18-25.09-.86l-3.28,2.85-3.28-2.85c-3.46-3.01-7.78-4.5-12.08-4.5Z"/>
          </g>
          <g>
            <path d="m361.89,46.81h0c-8.72-8.72-22.73-9.07-31.9-1.1-9.17-7.97-23.19-7.62-31.9,1.1h0c-9.11,9.11-9.11,24.01,0,33.12l14.4,14.4c4.79,4.79,11.19,7.04,17.5,6.79,6.31.25,12.71-1.99,17.5-6.79l14.4-14.4c9.11-9.11,9.11-24.01,0-33.12Z"/>
            <path d="m330.93,106.13c-.31,0-.63,0-.94-.02-7.87.27-15.53-2.74-21.04-8.25l-14.4-14.4c-11.08-11.08-11.08-29.11,0-40.19,9.52-9.52,24.39-10.89,35.44-3.79,11.05-7.09,25.92-5.72,35.44,3.79,11.08,11.08,11.08,29.11,0,40.19l-14.4,14.4c-5.29,5.29-12.56,8.27-20.1,8.27Zm-.94-10.02h.2c5.17.21,10.18-1.73,13.77-5.32l14.4-14.4c7.18-7.18,7.18-18.87,0-26.05-6.8-6.8-17.82-7.18-25.09-.86l-3.28,2.85-3.28-2.85c-7.27-6.32-18.29-5.94-25.09.86-7.18,7.18-7.18,18.87,0,26.05l14.4,14.4c3.59,3.59,8.6,5.53,13.77,5.33h.2Z"/>
          </g>
        </g>
        <g>
          <path d="m238.42,346.94c-16.91,0-39.1-3.91-59.79-19.71-30.04-22.93-36.56-54.94-37.97-67.64-1.49-13.41,8.18-25.49,21.59-26.98,13.43-1.49,25.49,8.18,26.98,21.59.56,5.03,3.58,22.38,19.05,34.18,18.9,14.43,41.31,8.79,43.81,8.1,13-3.61,26.47,4.01,30.08,17.02,3.61,13-4.01,26.47-17.02,30.08-3.5.97-13.49,3.37-26.72,3.37Z"/>
          <path d="m238.42,351.94c-16.27,0-40.38-3.6-62.83-20.73-31.58-24.1-38.43-57.73-39.91-71.06-1.79-16.13,9.88-30.71,26.01-32.5,7.82-.87,15.51,1.36,21.64,6.27,6.14,4.91,9.99,11.92,10.86,19.74.5,4.53,3.22,20.16,17.11,30.75,16.98,12.97,37.19,7.88,39.44,7.25,7.58-2.1,15.52-1.13,22.36,2.75,6.84,3.87,11.77,10.18,13.87,17.76,2.1,7.58,1.13,15.52-2.75,22.36-3.87,6.84-10.18,11.77-17.75,13.87-3.85,1.07-14.28,3.55-28.06,3.55Zm-73.43-114.48c-.73,0-1.46.04-2.19.12-10.65,1.18-18.36,10.81-17.17,21.46,1.34,12.06,7.52,42.46,36.03,64.22,20.23,15.44,42.03,18.68,56.76,18.68,12.55,0,21.93-2.23,25.39-3.19,5-1.39,9.17-4.64,11.72-9.16,2.56-4.52,3.2-9.76,1.81-14.76-1.39-5-4.64-9.17-9.16-11.73-4.52-2.55-9.76-3.2-14.76-1.81-2.74.76-27.35,6.96-48.18-8.94-17.04-13.01-20.37-32.07-20.98-37.6-.57-5.16-3.12-9.79-7.17-13.03-3.48-2.78-7.71-4.26-12.1-4.26Z"/>
        </g>
        <g>
          <g>
            <path d="m190.63,291.86c2.45,2.56,6.51,2.66,9.08.21l5.44-5.2c.4-.39.72-.82,1-1.27-3.66-3.3-6.53-6.89-8.73-10.38-.77.3-1.49.74-2.12,1.35l-5.44,5.2c-2.56,2.45-2.66,6.51-.21,9.08l.98,1.02Z"/>
            <path d="m195.28,298.85c-.09,0-.18,0-.27,0-3.05-.07-5.89-1.32-8-3.53l-.98-1.02c-2.11-2.21-3.23-5.1-3.16-8.15.07-3.05,1.32-5.89,3.53-8l5.44-5.2c1.09-1.04,2.37-1.85,3.78-2.4l3.84-1.48,2.19,3.49c2.17,3.46,4.81,6.6,7.84,9.33l3.1,2.8-2.2,3.55c-.55.88-1.14,1.62-1.81,2.26l-5.44,5.19c-2.14,2.04-4.93,3.16-7.88,3.16Zm1.11-16.41l-3.08,2.94c-.35.34-.43.73-.44.99,0,.27.06.66.39,1.01l.98,1.03c.54.56,1.44.59,2.01.05l2.9-2.77c-.96-1.05-1.88-2.13-2.75-3.25Z"/>
          </g>
          <g>
            <path d="m179.83,271.71c1.02,3.39,4.6,5.32,8,4.3l7.21-2.17c.53-.16,1.01-.4,1.46-.67-2.8-4.62-4.56-9.17-5.64-12.96l-7.14,2.15c-3.39,1.02-5.32,4.6-4.3,8l.41,1.36Z"/>
            <path d="m185.98,281.28c-4.91,0-9.46-3.19-10.94-8.13h0s-.41-1.36-.41-1.36c-.88-2.92-.57-6.01.88-8.69,1.44-2.69,3.85-4.65,6.77-5.53l12-3.61,1.39,4.88c1.18,4.15,2.9,8.1,5.11,11.73l2.6,4.28-4.29,2.59c-.88.53-1.74.92-2.61,1.18l-7.2,2.17c-1.09.33-2.2.49-3.29.49Zm-1.37-11.01c.23.75,1.02,1.17,1.77.95l2.93-.88c-.6-1.29-1.16-2.6-1.67-3.94l-2.49.75c-.47.14-.71.45-.84.69-.13.24-.25.62-.11,1.08l.41,1.36Z"/>
          </g>
        </g>
        <g>
          <path d="m98.99,255.18l-5.82-.87c-1.5-.22-3.01.3-4.05,1.41l-4.02,4.3c-2.61,2.79-7.28,1.38-7.9-2.39l-.97-5.81c-.25-1.49-1.22-2.77-2.59-3.41l-5.33-2.49c-3.46-1.62-3.56-6.49-.17-8.25l5.22-2.72c1.34-.7,2.26-2.01,2.44-3.52l.72-5.84c.47-3.79,5.08-5.39,7.8-2.72l4.2,4.13c1.08,1.06,2.61,1.53,4.1,1.24l5.78-1.12c3.75-.72,6.7,3.16,4.99,6.58l-2.63,5.27c-.68,1.36-.64,2.96.09,4.28l2.85,5.15c1.85,3.34-.94,7.35-4.71,6.78Z"/>
          <path d="m81.77,266.49c-.93,0-1.87-.14-2.8-.42-3.53-1.06-6.09-3.98-6.7-7.61l-.94-5.6-5.15-2.41c-3.34-1.56-5.46-4.82-5.53-8.5-.08-3.68,1.9-7.02,5.17-8.72l5.04-2.62.7-5.64c.45-3.65,2.89-6.68,6.37-7.89,3.48-1.21,7.27-.36,9.89,2.22l4.05,3.98,5.58-1.08c3.62-.7,7.24.69,9.47,3.62s2.59,6.8.94,10.1l-2.54,5.08,2.75,4.97c1.78,3.22,1.58,7.1-.52,10.13-2.1,3.02-5.67,4.57-9.31,4.02h0l-5.62-.84-3.88,4.15c-1.85,1.98-4.38,3.05-6.99,3.05Zm-10.62-24.76l4.61,2.15c2.86,1.34,4.88,4,5.4,7.12l.84,5.02,3.47-3.71c2.16-2.31,5.31-3.41,8.44-2.94l5.03.75-2.46-4.45c-1.53-2.77-1.6-6.11-.19-8.94l2.27-4.55-4.99.96c-3.1.6-6.3-.37-8.56-2.58l-3.62-3.57-.63,5.05c-.39,3.14-2.29,5.88-5.1,7.34l-4.51,2.35Zm28.58,8.51h0,0Z"/>
        </g>
        <g>
          <g>
            <path d="m231.83,187.55l3.28,6.65c.54,1.1,1.59,1.86,2.8,2.03l7.34,1.07c3.05.44,4.26,4.19,2.06,6.33l-5.31,5.17c-.88.85-1.27,2.08-1.07,3.29l1.25,7.31c.52,3.03-2.66,5.35-5.39,3.92l-6.56-3.45c-1.08-.57-2.37-.57-3.46,0l-6.56,3.45c-2.72,1.43-5.91-.88-5.39-3.92l1.25-7.31c.21-1.2-.19-2.43-1.07-3.29l-5.31-5.17c-2.2-2.15-.99-5.89,2.06-6.33l7.34-1.07c1.21-.18,2.26-.94,2.8-2.03l3.28-6.65c1.36-2.76,5.3-2.76,6.66,0Z"/>
            <path d="m218.48,228.75c-1.8,0-3.59-.56-5.11-1.67-2.7-1.96-4.03-5.23-3.47-8.52l1.14-6.64-4.82-4.7c-2.39-2.33-3.24-5.75-2.21-8.93,1.03-3.18,3.73-5.45,7.03-5.93l6.67-.97,2.98-6.04c1.48-3,4.47-4.86,7.81-4.86s6.34,1.86,7.81,4.86l2.98,6.04,6.67.97c3.31.48,6,2.75,7.03,5.93,1.03,3.18.19,6.6-2.21,8.93l-4.82,4.7,1.14,6.64c.56,3.29-.76,6.56-3.47,8.52-2.7,1.96-6.22,2.22-9.18.66l-5.96-3.13-5.96,3.13c-1.29.68-2.68,1.01-4.06,1.01Zm-3.42-26.88l3.44,3.36c2.05,2,2.99,4.89,2.51,7.71l-.81,4.74,4.25-2.24c2.54-1.33,5.57-1.33,8.11,0l4.26,2.24-.81-4.74c-.48-2.83.45-5.71,2.51-7.71l3.44-3.36-4.76-.69c-2.84-.41-5.29-2.2-6.56-4.77l-2.13-4.31-2.13,4.31c-1.27,2.57-3.72,4.35-6.56,4.77l-4.76.69Z"/>
          </g>
          <g>
            <path d="m349.94,187.55l3.28,6.65c.54,1.1,1.59,1.86,2.8,2.03l7.34,1.07c3.05.44,4.26,4.19,2.06,6.33l-5.31,5.17c-.88.85-1.27,2.08-1.07,3.29l1.25,7.31c.52,3.03-2.66,5.35-5.39,3.92l-6.56-3.45c-1.08-.57-2.37-.57-3.46,0l-6.56,3.45c-2.72,1.43-5.91-.88-5.39-3.92l1.25-7.31c.21-1.2-.19-2.43-1.07-3.29l-5.31-5.17c-2.2-2.15-.99-5.89,2.06-6.33l7.34-1.07c1.21-.18,2.26-.94,2.8-2.03l3.28-6.65c1.36-2.76,5.3-2.76,6.66,0Z"/>
            <path d="m336.59,228.75c-1.8,0-3.59-.56-5.11-1.67-2.7-1.96-4.03-5.23-3.47-8.52l1.14-6.64-4.82-4.7c-2.39-2.33-3.24-5.75-2.21-8.93s3.73-5.45,7.03-5.93l6.67-.97,2.98-6.04c1.48-3,4.47-4.86,7.81-4.86s6.34,1.86,7.81,4.86l2.98,6.04,6.67.97c3.31.48,6,2.75,7.03,5.93,1.03,3.18.19,6.6-2.21,8.93l-4.82,4.7,1.14,6.64c.56,3.29-.76,6.56-3.47,8.52-2.7,1.96-6.22,2.22-9.18.66l-5.96-3.13-5.96,3.13c-1.29.68-2.68,1.01-4.06,1.01Zm-3.42-26.88l3.44,3.36c2.05,2,2.99,4.89,2.51,7.71l-.81,4.74,4.25-2.24c2.54-1.33,5.57-1.33,8.11,0l4.26,2.24-.81-4.74c-.48-2.83.45-5.71,2.51-7.71l3.44-3.36-4.76-.69c-2.84-.41-5.29-2.2-6.56-4.77l-2.13-4.31-2.13,4.31c-1.27,2.57-3.72,4.35-6.56,4.77l-4.76.69Z"/>
          </g>
        </g>
      </g>
      <g>
        <g>
          <g>
            <path class="cls-4" d="m104.18,207.96c-1.5,35.96-10.18,59.05-33.6,65.16-17.96,4.68-45.82-54.98-29.53-93.67C54.64,147.16-1.47-11.25,4.39,6.36c4.07,12.22,101.82,152.73,99.78,201.6Z"/>
            <path d="m68.5,277.38c-4.05,0-9.46-1.96-15.67-9.14-14.71-16.99-28.69-58.94-15.47-90.34C48.19,152.19,8.73,30.34,1.28,9.26c-.31-.65-.53-1.19-.68-1.63C.04,5.95-.8,3.43,1.69,1.71l2.47-1.71,2.33,1.89c.39.32.69.56,1.37,2.2,0-.04-.02-.07-.03-.11.01.04.02.08.04.14.22.54.49,1.22.81,2.11,1.97,4.03,8.73,14.93,16.43,27.35,29.58,47.72,84.65,136.54,83.06,174.54-1.16,27.92-6.37,60.99-36.59,68.87-.91.24-1.94.39-3.08.39ZM19.68,40.01c3.52,11.35,7.67,25.23,11.64,39.81,14.61,53.59,19.12,87.63,13.41,101.19-11.53,27.38.47,66.21,14.14,82,4.06,4.68,7.96,6.96,10.69,6.25,19.61-5.12,29.06-24.07,30.61-61.46l4,.17-4-.17c1.46-34.95-52.96-123.36-80.5-167.79Z"/>
          </g>
          <g>
            <g>
              <rect class="cls-4" x="178.94" y="75.59" width="67.2" height="48.87" rx="7.63" ry="7.63"/>
              <path d="m238.51,128.47h-51.94c-6.41,0-11.63-5.22-11.63-11.63v-33.61c0-6.41,5.22-11.63,11.63-11.63h51.94c6.41,0,11.63,5.22,11.63,11.63v33.61c0,6.41-5.22,11.63-11.63,11.63Zm-51.94-48.87c-2,0-3.63,1.63-3.63,3.63v33.61c0,2,1.63,3.63,3.63,3.63h51.94c2,0,3.63-1.63,3.63-3.63v-33.61c0-2-1.63-3.63-3.63-3.63h-51.94Z"/>
            </g>
            <g>
              <rect class="cls-4" x="264.47" y="75.59" width="67.2" height="48.87" rx="7.63" ry="7.63"/>
              <path d="m324.04,128.47h-51.94c-6.41,0-11.63-5.22-11.63-11.63v-33.61c0-6.41,5.22-11.63,11.63-11.63h51.94c6.41,0,11.63,5.22,11.63,11.63v33.61c0,6.41-5.22,11.63-11.63,11.63Zm-51.94-48.87c-2,0-3.63,1.63-3.63,3.63v33.61c0,2,1.63,3.63,3.63,3.63h51.94c2,0,3.63-1.63,3.63-3.63v-33.61c0-2-1.63-3.63-3.63-3.63h-51.94Z"/>
            </g>
          </g>
        </g>
        <g>
          <rect class="cls-7" x="88.32" y="106.14" width="333.96" height="219.93" rx="46.24" ry="46.24"/>
          <path d="m376.05,331.07h-241.48c-28.25,0-51.24-22.99-51.24-51.24v-127.45c0-28.25,22.99-51.24,51.24-51.24h241.48c28.25,0,51.24,22.99,51.24,51.24v127.45c0,28.25-22.99,51.24-51.24,51.24ZM134.56,111.14c-22.74,0-41.24,18.5-41.24,41.24v127.45c0,22.74,18.5,41.24,41.24,41.24h241.48c22.74,0,41.24-18.5,41.24-41.24v-127.45c0-22.74-18.5-41.24-41.24-41.24h-241.48Z"/>
        </g>
        <g>
          <g>
            <path class="cls-5" d="m203.22,134.2l6.87,13.92c1.13,2.3,3.32,3.89,5.86,4.25l15.36,2.23c6.38.93,8.93,8.77,4.31,13.26l-11.11,10.83c-1.83,1.79-2.67,4.36-2.24,6.88l2.62,15.3c1.09,6.35-5.58,11.2-11.28,8.2l-13.74-7.22c-2.27-1.19-4.97-1.19-7.24,0l-13.74,7.22c-5.71,3-12.37-1.85-11.28-8.2l2.62-15.3c.43-2.52-.4-5.1-2.24-6.88l-11.11-10.83c-4.62-4.5-2.07-12.34,4.31-13.26l15.36-2.23c2.53-.37,4.72-1.96,5.86-4.25l6.87-13.92c2.85-5.78,11.09-5.78,13.95,0Z"/>
            <path d="m217.23,211.49c-1.47,0-2.96-.36-4.32-1.08l-13.74-7.22c-1.83-.96-4.01-.96-5.84,0l-13.74,7.22c-3.15,1.66-6.89,1.38-9.77-.71-2.88-2.09-4.29-5.57-3.69-9.07l2.62-15.3c.35-2.04-.33-4.11-1.81-5.56l-11.11-10.83c-2.55-2.48-3.45-6.13-2.35-9.51s3.97-5.8,7.49-6.31l15.36-2.23c2.04-.3,3.81-1.58,4.73-3.43l6.87-13.92c1.57-3.19,4.76-5.17,8.32-5.17s6.74,1.98,8.32,5.17l6.87,13.92c.91,1.85,2.68,3.14,4.73,3.43l15.36,2.23c3.52.51,6.39,2.93,7.49,6.31s.2,7.03-2.35,9.51l-11.11,10.83c-1.48,1.44-2.15,3.52-1.8,5.56l2.62,15.3c.6,3.51-.81,6.98-3.69,9.07-1.63,1.18-3.53,1.78-5.44,1.78Zm-20.98-12.02c1.48,0,2.97.36,4.32,1.07l13.74,7.22c2.16,1.14,4.63.96,6.61-.48s2.91-3.73,2.5-6.14l-2.62-15.3c-.52-3.01.48-6.08,2.67-8.21l11.11-10.83c1.75-1.71,2.34-4.11,1.59-6.43-.75-2.32-2.65-3.92-5.07-4.27l-15.36-2.23c-3.02-.44-5.63-2.34-6.98-5.07l-6.87-13.92c-1.08-2.19-3.19-3.5-5.63-3.5s-4.55,1.31-5.63,3.5l-6.87,13.92c-1.35,2.74-3.96,4.63-6.98,5.07l-15.36,2.23c-2.42.35-4.31,1.95-5.07,4.27-.75,2.32-.16,4.73,1.59,6.43l11.11,10.83c2.19,2.13,3.18,5.2,2.67,8.21l-2.62,15.3c-.41,2.41.52,4.7,2.5,6.14,1.98,1.44,4.45,1.62,6.61.48l13.74-7.22c1.35-.71,2.83-1.07,4.32-1.07Z"/>
          </g>
          <g>
            <path class="cls-5" d="m321.33,134.2l6.87,13.92c1.13,2.3,3.32,3.89,5.86,4.25l15.36,2.23c6.38.93,8.93,8.77,4.31,13.26l-11.11,10.83c-1.83,1.79-2.67,4.36-2.24,6.88l2.62,15.3c1.09,6.35-5.58,11.2-11.28,8.2l-13.74-7.22c-2.27-1.19-4.97-1.19-7.24,0l-13.74,7.22c-5.71,3-12.37-1.85-11.28-8.2l2.62-15.3c.43-2.52-.4-5.1-2.24-6.88l-11.11-10.83c-4.62-4.5-2.07-12.34,4.31-13.26l15.36-2.23c2.53-.37,4.72-1.96,5.86-4.25l6.87-13.92c2.85-5.78,11.09-5.78,13.95,0Z"/>
            <path d="m335.34,211.49c-1.47,0-2.96-.36-4.32-1.08l-13.74-7.22c-1.83-.96-4.01-.96-5.84,0l-13.74,7.22c-3.15,1.66-6.89,1.38-9.77-.71-2.88-2.09-4.29-5.57-3.69-9.07l2.62-15.3c.35-2.04-.33-4.11-1.81-5.56l-11.11-10.83c-2.55-2.48-3.45-6.13-2.35-9.51s3.97-5.8,7.49-6.31l15.36-2.23c2.04-.3,3.81-1.58,4.73-3.43l6.87-13.92c1.57-3.19,4.76-5.17,8.32-5.17s6.74,1.98,8.32,5.17l6.87,13.92c.91,1.85,2.68,3.14,4.73,3.43l15.36,2.23c3.52.51,6.39,2.93,7.49,6.31,1.1,3.38.2,7.03-2.35,9.51l-11.11,10.83c-1.48,1.44-2.15,3.52-1.8,5.56l2.62,15.3c.6,3.51-.81,6.98-3.69,9.07-1.63,1.18-3.53,1.78-5.44,1.78Zm-20.98-12.02c1.48,0,2.97.36,4.32,1.07l13.74,7.22c2.16,1.14,4.63.96,6.61-.48,1.98-1.44,2.91-3.73,2.5-6.14l-2.62-15.3c-.52-3.01.48-6.08,2.67-8.21l11.11-10.83c1.75-1.71,2.34-4.11,1.59-6.43-.75-2.32-2.65-3.92-5.07-4.27l-15.36-2.23c-3.02-.44-5.63-2.34-6.98-5.07l-6.87-13.92c-1.08-2.19-3.19-3.5-5.63-3.5s-4.55,1.31-5.63,3.5l-6.87,13.92c-1.35,2.74-3.96,4.63-6.98,5.07l-15.36,2.23c-2.42.35-4.31,1.95-5.07,4.27-.75,2.32-.16,4.73,1.59,6.43l11.11,10.83c2.19,2.13,3.18,5.2,2.67,8.21l-2.62,15.3c-.41,2.41.52,4.7,2.5,6.14,1.98,1.44,4.45,1.62,6.61.48l13.74-7.22c1.35-.71,2.83-1.07,4.32-1.07Z"/>
          </g>
        </g>
        <g>
          <g>
            <path class="cls-1" d="m236.63,16.2h0c-8.72-8.72-22.73-9.07-31.9-1.1-9.17-7.97-23.19-7.62-31.9,1.1h0c-9.11,9.11-9.11,24.01,0,33.12l14.4,14.4c4.79,4.79,11.19,7.04,17.5,6.79,6.31.25,12.71-1.99,17.5-6.79l14.4-14.4c9.11-9.11,9.11-24.01,0-33.12Z"/>
            <path d="m205.67,73.02c-.31,0-.63,0-.94-.02-7.21.25-14.23-2.48-19.27-7.52l-14.4-14.4c-10.11-10.11-10.11-26.55,0-36.65,9.07-9.07,23.48-10.03,33.67-2.53,10.19-7.5,24.6-6.54,33.67,2.53h0c10.11,10.11,10.11,26.55,0,36.65l-14.4,14.4c-4.82,4.82-11.45,7.54-18.33,7.54Zm-.94-5.02h.1c5.85.24,11.55-1.97,15.64-6.05l14.4-14.4c8.15-8.16,8.15-21.43,0-29.58-7.72-7.72-20.24-8.15-28.5-.98l-1.64,1.43-1.64-1.43c-8.26-7.17-20.77-6.75-28.5.98-8.16,8.16-8.16,21.43,0,29.58l14.4,14.4c4.08,4.08,9.78,6.29,15.64,6.06h.1Z"/>
          </g>
          <g>
            <path class="cls-1" d="m337.78,16.2h0c-8.72-8.72-22.73-9.07-31.9-1.1-9.17-7.97-23.19-7.62-31.9,1.1h0c-9.11,9.11-9.11,24.01,0,33.12l14.4,14.4c4.79,4.79,11.19,7.04,17.5,6.79,6.31.25,12.71-1.99,17.5-6.79l14.4-14.4c9.11-9.11,9.11-24.01,0-33.12Z"/>
            <path d="m306.82,73.02c-.31,0-.63,0-.94-.02-7.21.25-14.23-2.48-19.27-7.52l-14.4-14.4c-10.11-10.11-10.11-26.55,0-36.65,9.07-9.07,23.48-10.03,33.67-2.53,10.19-7.5,24.6-6.54,33.67,2.53h0c10.11,10.11,10.11,26.55,0,36.65l-14.4,14.4c-4.82,4.82-11.45,7.54-18.33,7.54Zm-.94-5.02h.1c5.84.23,11.55-1.97,15.64-6.05l14.4-14.4c8.15-8.16,8.15-21.43,0-29.58h0c-7.72-7.72-20.24-8.15-28.5-.98l-1.64,1.43-1.64-1.43c-8.26-7.17-20.77-6.75-28.5.98-8.16,8.16-8.16,21.43,0,29.58l14.4,14.4c4.08,4.08,9.79,6.29,15.64,6.06h.1Z"/>
          </g>
        </g>
        <g>
          <path class="cls-8" d="m214.31,316.33c-16.91,0-39.1-3.91-59.79-19.71-30.04-22.93-36.56-54.94-37.97-67.64-1.49-13.41,8.18-25.49,21.59-26.98,13.43-1.49,25.49,8.18,26.98,21.59.56,5.03,3.58,22.38,19.05,34.18,18.9,14.43,41.31,8.79,43.81,8.1,13-3.61,26.47,4.01,30.08,17.02,3.61,13-4.01,26.47-17.02,30.08-3.5.97-13.49,3.37-26.72,3.37Z"/>
          <path d="m214.31,318.33c-15.81,0-39.23-3.49-61.01-20.12-30.66-23.4-37.31-56.05-38.75-69.01-1.61-14.49,8.87-27.58,23.36-29.19,7.03-.78,13.93,1.22,19.44,5.63,5.51,4.41,8.97,10.71,9.75,17.73.54,4.83,3.44,21.49,18.27,32.81,18.13,13.84,39.66,8.42,42.06,7.76,6.8-1.89,13.94-1.01,20.08,2.47,6.15,3.48,10.57,9.14,12.46,15.95,1.89,6.8,1.01,13.93-2.47,20.08-3.48,6.15-9.14,10.57-15.95,12.46-3.73,1.03-13.86,3.44-27.26,3.44Zm-73.43-114.48c-.84,0-1.68.05-2.52.14-12.3,1.36-21.19,12.48-19.83,24.77,1.38,12.44,7.77,43.81,37.2,66.27,20.89,15.95,43.39,19.3,58.58,19.3,12.91,0,22.62-2.3,26.19-3.29,5.77-1.6,10.58-5.36,13.53-10.57,2.95-5.22,3.69-11.27,2.09-17.04-1.6-5.78-5.36-10.58-10.57-13.53-5.21-2.95-11.27-3.69-17.04-2.09-2.59.72-25.89,6.58-45.56-8.43-16.1-12.29-19.24-30.31-19.82-35.55-.66-5.96-3.6-11.3-8.28-15.04-4.02-3.21-8.9-4.92-13.97-4.92Z"/>
        </g>
        <g>
          <g>
            <path class="cls-2" d="m166.52,261.25c2.45,2.56,6.51,2.66,9.08.21l5.44-5.2c.4-.39.72-.82,1-1.27-3.66-3.3-6.53-6.89-8.73-10.38-.77.3-1.49.74-2.12,1.35l-5.44,5.2c-2.56,2.45-2.66,6.51-.21,9.08l.98,1.02Z"/>
            <path d="m171.17,264.24c-.06,0-.12,0-.17,0-1.98-.05-3.83-.86-5.19-2.29l-.98-1.02c-1.37-1.43-2.1-3.31-2.05-5.29s.86-3.83,2.29-5.2l5.44-5.2c.71-.68,1.54-1.2,2.45-1.55l.77-.3.44.7c2.37,3.78,5.25,7.2,8.55,10.17l.62.56-.44.71c-.37.6-.74,1.07-1.16,1.47l-5.44,5.2c-1.39,1.33-3.2,2.05-5.12,2.05Zm1.78-18.35c-.38.22-.74.48-1.06.79l-5.44,5.2c-1.05,1-1.64,2.35-1.67,3.79s.5,2.82,1.5,3.87l.98,1.02c1,1.05,2.35,1.64,3.79,1.67,1.45.04,2.82-.5,3.87-1.5l5.44-5.2c.13-.12.25-.26.37-.41-2.95-2.75-5.56-5.86-7.77-9.25Z"/>
          </g>
          <g>
            <path class="cls-2" d="m155.72,241.1c1.02,3.39,4.6,5.32,8,4.3l7.21-2.17c.53-.16,1.01-.4,1.46-.67-2.8-4.62-4.56-9.17-5.64-12.96l-7.14,2.15c-3.39,1.02-5.32,4.6-4.3,8l.41,1.36Z"/>
            <path d="m161.86,246.67c-1.21,0-2.41-.3-3.5-.89-1.75-.94-3.02-2.5-3.59-4.4l-.41-1.36c-.57-1.9-.37-3.9.57-5.65.94-1.75,2.5-3.02,4.4-3.59l8.11-2.44.28.98c1.28,4.5,3.14,8.77,5.53,12.71l.52.86-.86.52c-.6.36-1.13.61-1.69.78l-7.21,2.17c-.71.21-1.43.32-2.15.32Zm4.21-15.83l-6.18,1.86c-2.86.86-4.49,3.89-3.63,6.75l.41,1.36c.42,1.39,1.35,2.53,2.62,3.21,1.27.68,2.74.83,4.13.42l7.21-2.17c.11-.03.23-.07.35-.12-2.05-3.54-3.7-7.34-4.91-11.3Z"/>
          </g>
        </g>
        <g>
          <path class="cls-3" d="m74.89,224.57l-5.82-.87c-1.5-.22-3.01.3-4.05,1.41l-4.02,4.3c-2.61,2.79-7.28,1.38-7.9-2.39l-.97-5.81c-.25-1.49-1.22-2.77-2.59-3.41l-5.33-2.49c-3.46-1.62-3.56-6.49-.17-8.25l5.22-2.72c1.34-.7,2.26-2.01,2.44-3.52l.72-5.84c.47-3.79,5.08-5.39,7.8-2.72l4.2,4.13c1.08,1.06,2.61,1.53,4.1,1.24l5.78-1.12c3.75-.72,6.7,3.16,4.99,6.58l-2.63,5.27c-.68,1.36-.64,2.96.09,4.28l2.85,5.15c1.85,3.34-.94,7.35-4.71,6.78Z"/>
          <path d="m57.65,231.87c-.54,0-1.09-.08-1.64-.24-2.06-.62-3.55-2.32-3.91-4.44l-.97-5.81c-.2-1.17-.95-2.17-2.03-2.67l-5.33-2.5c-1.95-.91-3.18-2.81-3.23-4.96-.05-2.15,1.11-4.1,3.02-5.09l5.23-2.72c1.05-.55,1.77-1.58,1.91-2.75l.72-5.84c.26-2.13,1.69-3.9,3.72-4.6,2.03-.71,4.24-.21,5.77,1.3l4.2,4.13c.85.83,2.05,1.19,3.21.97l5.78-1.12c2.11-.41,4.23.4,5.53,2.11s1.51,3.97.55,5.89l-2.63,5.27c-.53,1.06-.5,2.31.07,3.35l2.85,5.15c1.04,1.88.92,4.14-.3,5.91-1.23,1.76-3.31,2.66-5.43,2.34l-5.82-.87c-1.17-.18-2.36.24-3.17,1.1l-4.02,4.3c-1.08,1.16-2.55,1.78-4.08,1.78Zm-.63-39.94c-.4,0-.81.07-1.21.21-1.32.46-2.22,1.57-2.39,2.96l-.72,5.84c-.23,1.83-1.34,3.43-2.98,4.28l-5.22,2.72c-1.24.65-1.97,1.87-1.94,3.27.03,1.4.81,2.59,2.08,3.19l5.33,2.5c1.67.78,2.85,2.33,3.15,4.15l.97,5.81c.23,1.38,1.17,2.45,2.51,2.86s2.72.04,3.67-.99l4.02-4.3c1.26-1.35,3.1-1.99,4.92-1.72l5.82.87c1.39.21,2.69-.35,3.49-1.51.8-1.15.87-2.57.19-3.8l-2.85-5.15c-.89-1.61-.93-3.56-.11-5.21l2.63-5.27c.63-1.25.49-2.67-.35-3.79-.85-1.12-2.18-1.62-3.55-1.36l-5.78,1.12c-1.81.35-3.68-.21-4.99-1.51l-4.2-4.13c-.7-.68-1.58-1.04-2.5-1.04Z"/>
        </g>
        <g>
          <g>
            <path class="cls-6" d="m207.72,156.94l3.28,6.65c.54,1.1,1.59,1.86,2.8,2.03l7.34,1.07c3.05.44,4.26,4.19,2.06,6.33l-5.31,5.17c-.88.85-1.27,2.08-1.07,3.29l1.25,7.31c.52,3.03-2.66,5.35-5.39,3.92l-6.56-3.45c-1.08-.57-2.37-.57-3.46,0l-6.56,3.45c-2.72,1.43-5.91-.88-5.39-3.92l1.25-7.31c.21-1.2-.19-2.43-1.07-3.29l-5.31-5.17c-2.2-2.15-.99-5.89,2.06-6.33l7.34-1.07c1.21-.18,2.26-.94,2.8-2.03l3.28-6.65c1.36-2.76,5.3-2.76,6.66,0Z"/>
            <path d="m214.41,193.63c-.67,0-1.34-.16-1.96-.49l-6.56-3.45c-.94-.49-2.06-.49-2.99,0l-6.56,3.45c-1.43.75-3.13.63-4.44-.32-1.31-.95-1.95-2.53-1.68-4.12l1.25-7.31c.18-1.04-.17-2.11-.92-2.84l-5.31-5.17c-1.16-1.13-1.57-2.78-1.07-4.32.5-1.54,1.8-2.64,3.4-2.87l7.33-1.07c1.05-.15,1.95-.81,2.42-1.76l3.28-6.65c.71-1.45,2.16-2.35,3.78-2.35s3.06.9,3.78,2.35l3.28,6.65c.47.95,1.37,1.61,2.42,1.76l7.34,1.07c1.6.23,2.9,1.33,3.4,2.87.5,1.54.09,3.19-1.07,4.32l-5.31,5.17c-.76.74-1.1,1.8-.92,2.84l1.25,7.31c.27,1.59-.37,3.17-1.68,4.12-.74.54-1.6.81-2.47.81Zm-10.02-5.31c.67,0,1.35.16,1.96.48l6.56,3.45c1.11.58,2.37.49,3.38-.25,1.01-.74,1.49-1.91,1.28-3.14l-1.25-7.31c-.23-1.37.22-2.76,1.21-3.73l5.31-5.17c.9-.87,1.2-2.1.81-3.29-.39-1.19-1.36-2.01-2.59-2.19l-7.34-1.07c-1.37-.2-2.56-1.06-3.17-2.3l-3.28-6.65c-.55-1.12-1.63-1.79-2.88-1.79s-2.33.67-2.88,1.79l-3.28,6.65c-.61,1.24-1.8,2.1-3.17,2.3l-7.33,1.07c-1.24.18-2.21,1-2.59,2.19-.39,1.19-.08,2.42.81,3.29l5.31,5.17c.99.97,1.45,2.36,1.21,3.73l-1.25,7.31c-.21,1.23.27,2.41,1.28,3.14,1.01.73,2.28.83,3.39.25l6.56-3.45c.61-.32,1.29-.48,1.96-.48Z"/>
          </g>
          <g>
            <path class="cls-6" d="m325.83,156.94l3.28,6.65c.54,1.1,1.59,1.86,2.8,2.03l7.34,1.07c3.05.44,4.26,4.19,2.06,6.33l-5.31,5.17c-.88.85-1.27,2.08-1.07,3.29l1.25,7.31c.52,3.03-2.66,5.35-5.39,3.92l-6.56-3.45c-1.08-.57-2.37-.57-3.46,0l-6.56,3.45c-2.72,1.43-5.91-.88-5.39-3.92l1.25-7.31c.21-1.2-.19-2.43-1.07-3.29l-5.31-5.17c-2.2-2.15-.99-5.89,2.06-6.33l7.34-1.07c1.21-.18,2.26-.94,2.8-2.03l3.28-6.65c1.36-2.76,5.3-2.76,6.66,0Z"/>
            <path d="m332.52,193.63c-.67,0-1.34-.16-1.96-.49l-6.56-3.45c-.94-.49-2.06-.49-2.99,0l-6.56,3.45c-1.43.75-3.13.63-4.44-.32-1.31-.95-1.95-2.53-1.68-4.12l1.25-7.31c.18-1.04-.17-2.11-.92-2.84l-5.31-5.17c-1.16-1.13-1.57-2.78-1.07-4.32.5-1.54,1.8-2.64,3.4-2.87l7.33-1.07c1.05-.15,1.95-.81,2.42-1.76l3.28-6.65c.71-1.45,2.16-2.35,3.78-2.35s3.06.9,3.78,2.35l3.28,6.65c.47.95,1.37,1.61,2.42,1.76l7.34,1.07c1.6.23,2.9,1.33,3.4,2.87.5,1.54.09,3.19-1.07,4.32l-5.31,5.17c-.76.74-1.1,1.8-.92,2.84l1.25,7.31c.27,1.59-.37,3.17-1.68,4.12-.74.54-1.6.81-2.47.81Zm-10.02-5.31c.67,0,1.35.16,1.96.48l6.56,3.45c1.11.58,2.37.49,3.38-.25,1.01-.74,1.49-1.91,1.28-3.14l-1.25-7.31c-.23-1.37.22-2.76,1.21-3.73l5.31-5.17c.9-.87,1.2-2.1.81-3.29-.39-1.19-1.36-2.01-2.59-2.19l-7.34-1.07c-1.37-.2-2.56-1.06-3.17-2.3l-3.28-6.65c-.55-1.12-1.63-1.79-2.88-1.79s-2.33.67-2.88,1.79l-3.28,6.65c-.61,1.24-1.8,2.1-3.17,2.3l-7.33,1.07c-1.24.18-2.21,1-2.59,2.19-.39,1.19-.08,2.42.81,3.29l5.31,5.17c.99.97,1.45,2.36,1.21,3.73l-1.25,7.31c-.21,1.23.27,2.41,1.28,3.14,1.01.73,2.28.83,3.39.25l6.56-3.45c.61-.32,1.29-.48,1.96-.48Z"/>
          </g>
        </g>
      </g>
    </g>
  </g>
</svg>