<?xml version="1.0" encoding="utf-8"?>
<!-- Generator: Adobe Illustrator 25.2.1, SVG Export Plug-In . SVG Version: 6.00 Build 0)  -->
<svg version="1.1" id="Calque_1" xmlns="http://www.w3.org/2000/svg" xmlns:xlink="http://www.w3.org/1999/xlink" x="0px" y="0px"
	 viewBox="0 0 170.08 170.08" style="enable-background:new 0 0 170.08 170.08;" xml:space="preserve">
<style type="text/css">
	.st0{fill:#9C4548;}
	.st1{fill:#FFFFFF;}
	.st2{fill:#628E63;}
</style>
<g>
	<path d="M87.75,161.31c-35.79,0-64.91-29.12-64.91-64.91V81.29c0-35.79,29.12-64.91,64.91-64.91s64.91,29.12,64.91,64.91V96.4
		C152.65,132.19,123.54,161.31,87.75,161.31z"/>
</g>
<g>
	<path d="M34.54-249.01L34.54-249.01c-41.98,0-76.01,34.03-76.01,76.01v0c0,41.98,34.03,76.01,76.01,76.01h0
		c41.98,0,76.01-34.03,76.01-76.01v0C110.54-214.98,76.51-249.01,34.54-249.01L34.54-249.01z"/>
</g>
<g>
	<g>
		<path d="M32.45-243.8c37,0,67.1,30.1,67.1,67.1c0,37-30.1,67.1-67.1,67.1c-37,0-67.1-30.1-67.1-67.1
			C-34.65-213.7-4.55-243.8,32.45-243.8 M32.45-252.71L32.45-252.71c-41.98,0-76.01,34.03-76.01,76.01v0
			c0,41.98,34.03,76.01,76.01,76.01h0c41.98,0,76.01-34.03,76.01-76.01v0C108.45-218.68,74.42-252.71,32.45-252.71L32.45-252.71z"/>
		<path class="st0" d="M32.45-244.25c37,0,67.1,30.1,67.1,67.1c0,37-30.1,67.1-67.1,67.1c-37,0-67.1-30.1-67.1-67.1
			C-34.65-214.15-4.55-244.25,32.45-244.25 M32.45-101.14"/>
	</g>
	<g>
		<path d="M-14.14-177.15L-14.14-177.15c0-10.16,8.23-18.39,18.39-18.39h56.39c10.16,0,18.39,8.23,18.39,18.39v0
			c0,10.16-8.23,18.39-18.39,18.39H4.25C-5.91-158.76-14.14-167-14.14-177.15z"/>
	</g>
</g>
<g>
	<path d="M82.33,153.69c-35.79,0-64.91-29.12-64.91-64.91V73.67c0-35.79,29.12-64.91,64.91-64.91s64.91,29.12,64.91,64.91v15.11
		C147.24,124.58,118.12,153.69,82.33,153.69z M82.33,17.68c-30.88,0-56,25.12-56,56v15.11c0,30.88,25.12,56,56,56s56-25.12,56-56
		V73.67C138.33,42.8,113.21,17.68,82.33,17.68z"/>
	<path class="st1" d="M82.33,17.68c-30.88,0-56,25.12-56,56v15.11c0,30.88,25.12,56,56,56s56-25.12,56-56V73.67
		C138.33,42.8,113.21,17.68,82.33,17.68z"/>
</g>
<g>
	<path d="M404.4,10.74h137c4.15,0,7.51,3.36,7.51,7.51v137c0,4.15-3.36,7.51-7.51,7.51h-137c-4.15,0-7.51-3.36-7.51-7.51v-137
		C396.89,14.11,400.25,10.74,404.4,10.74z"/>
	<path d="M472.9,19.65c37,0,67.1,30.1,67.1,67.1c0,37-30.1,67.1-67.1,67.1c-37,0-67.1-30.1-67.1-67.1
		C405.8,49.75,435.9,19.65,472.9,19.65 M472.9,10.74L472.9,10.74c-41.98,0-76.01,34.03-76.01,76.01v0
		c0,41.98,34.03,76.01,76.01,76.01h0c41.98,0,76.01-34.03,76.01-76.01v0C548.9,44.77,514.87,10.74,472.9,10.74L472.9,10.74z"/>
</g>
<g>
	<path class="st2" d="M531.08,153.4h-137c-4.15,0-7.51-3.36-7.51-7.51v-137c0-4.15,3.36-7.51,7.51-7.51l137,0
		c4.15,0,7.51,3.36,7.51,7.51v137C538.59,150.03,535.23,153.4,531.08,153.4z"/>
	<path d="M462.59,10.29c37,0,67.1,30.1,67.1,67.1c0,37-30.1,67.1-67.1,67.1c-37,0-67.1-30.1-67.1-67.1
		C395.49,40.39,425.59,10.29,462.59,10.29 M462.59,1.38L462.59,1.38c-41.98,0-76.01,34.03-76.01,76.01v0
		c0,41.98,34.03,76.01,76.01,76.01h0c41.98,0,76.01-34.03,76.01-76.01v0C538.59,35.41,504.56,1.38,462.59,1.38L462.59,1.38z"/>
</g>
<g>
	<path d="M480.51,128.22h-33.14c-1,0-1.82-0.81-1.82-1.82V36.87c0-1,0.81-1.82,1.82-1.82h33.14c1,0,1.82,0.81,1.82,1.82v89.54
		C482.32,127.41,481.51,128.22,480.51,128.22z"/>
	<path d="M463.93,43.96c5.23,0,9.48,4.25,9.48,9.48v56.39c0,5.23-4.25,9.48-9.48,9.48c-5.23,0-9.48-4.25-9.48-9.48V53.44
		C454.45,48.21,458.71,43.96,463.93,43.96 M463.93,35.05L463.93,35.05c-10.16,0-18.39,8.23-18.39,18.39v56.39
		c0,10.16,8.23,18.39,18.39,18.39h0c10.16,0,18.39-8.23,18.39-18.39V53.44C482.32,43.28,474.09,35.05,463.93,35.05L463.93,35.05z"/>
</g>
<g>
	<path d="M418.57,99.44V66.29c0-1,0.81-1.82,1.82-1.82h89.54c1,0,1.82,0.81,1.82,1.82v33.14c0,1-0.81,1.82-1.82,1.82h-89.54
		C419.39,101.25,418.57,100.44,418.57,99.44z"/>
	<path d="M493.36,73.38c5.23,0,9.48,4.25,9.48,9.48c0,5.23-4.25,9.48-9.48,9.48h-56.39c-5.23,0-9.48-4.25-9.48-9.48
		c0-5.23,4.25-9.48,9.48-9.48H493.36 M493.36,64.47h-56.39c-10.16,0-18.39,8.23-18.39,18.39v0c0,10.16,8.23,18.39,18.39,18.39h56.39
		c10.16,0,18.39-8.23,18.39-18.39v0C511.75,72.71,503.51,64.47,493.36,64.47L493.36,64.47z"/>
</g>
</svg>
