<?xml version="1.0" encoding="utf-8"?>
<!-- Generator: Adobe Illustrator 25.2.1, SVG Export Plug-In . SVG Version: 6.00 Build 0)  -->
<svg version="1.1" id="Calque_1" xmlns="http://www.w3.org/2000/svg" xmlns:xlink="http://www.w3.org/1999/xlink" x="0px" y="0px"
	 viewBox="0 0 170 70" style="enable-background:new 0 0 170 70;" xml:space="preserve">
<path d="M151.48,49H18.05C10.08,49,3.6,42.52,3.6,34.55v-2.21c0-7.97,6.48-14.45,14.45-14.45h133.43c7.97,0,14.45,6.48,14.45,14.45
	v2.21C165.92,42.52,159.44,49,151.48,49z M18.05,20.94c-6.29,0-11.4,5.11-11.4,11.4v2.21c0,6.29,5.11,11.4,11.4,11.4h133.43
	c6.29,0,11.4-5.11,11.4-11.4v-2.21c0-6.29-5.11-11.4-11.4-11.4H18.05z"/>
<g>
	<path d="M163.42,25.1c0.62,1.26,0.98,2.67,0.98,4.16v9.26c0,5.19-4.21,9.4-9.4,9.4H14.52c-3.88,0-7.21-2.35-8.64-5.7v0.05
		c0,4.82,3.9,8.72,8.72,8.72h143.08c4.82,0,8.72-3.9,8.72-8.72V31.66C166.4,29.04,165.24,26.7,163.42,25.1z"/>
</g>
</svg>
