<?xml version="1.0" encoding="utf-8"?>
<!-- Generator: Adobe Illustrator 25.2.1, SVG Export Plug-In . SVG Version: 6.00 Build 0)  -->
<svg version="1.1" id="Calque_1" xmlns="http://www.w3.org/2000/svg" xmlns:xlink="http://www.w3.org/1999/xlink" x="0px" y="0px"
	 viewBox="0 0 283.46 311.81" style="enable-background:new 0 0 283.46 311.81;" xml:space="preserve">
<style type="text/css">
	.st0{fill:#1D1D1B;}
	.st1{fill:#FFFFFF;}
</style>
<g>
	<g>
		<g>
			<path class="st0" d="M34.81,34.69c0,0-3.07,114.39,17.59,148.99c20.57,34.44,78.31,104.51,99.21,104.51s60.37-67.08,86.12-109.45
				s24.34-144.05,24.34-144.05s-66.37,15.53-113.62,15.53S34.81,34.69,34.81,34.69z"/>
			<path class="st0" d="M151.6,295.11c-28.03,0-90.14-82.75-105.14-107.88C25.02,151.32,27.77,39.26,27.9,34.5l0.23-8.48l8.26,1.93
				c0.66,0.15,66.17,15.35,112.06,15.35c45.88,0,111.39-15.2,112.05-15.35l8.37-1.96l0.12,8.59c0.06,4.23,1.13,104.18-25.34,147.74
				l-4.31,7.09C203.03,249.3,173.52,295.11,151.6,295.11z M41.6,43.28c-0.22,26.74,0.47,109.63,16.73,136.86
				c23.3,39.02,78.34,101.14,93.27,101.14c15.87,0,56.42-66.88,75.9-99.02l4.31-7.11c20.19-33.22,22.96-106.8,23.3-131.84
				c-19.59,4.19-68.7,13.83-106.67,13.83C110.37,57.14,61.08,47.45,41.6,43.28z"/>
		</g>
	</g>
	<g>
		<g>
			<path class="st1" d="M24.39,28.23c0,0-3.07,114.39,17.59,148.99c20.57,34.44,78.31,104.51,99.21,104.51s60.37-67.08,86.12-109.45
				s24.34-144.05,24.34-144.05s-66.37,15.53-113.62,15.53S24.39,28.23,24.39,28.23z"/>
			<path class="st0" d="M141.18,288.64c-28.03,0-90.14-82.75-105.14-107.88C14.6,144.85,17.35,32.79,17.48,28.04l0.23-8.48
				l8.26,1.93c0.66,0.15,66.17,15.35,112.06,15.35s111.39-15.2,112.05-15.35l8.37-1.96l0.12,8.59
				c0.06,4.23,1.13,104.17-25.34,147.74l-4.28,7.05C192.63,242.82,163.11,288.64,141.18,288.64z M31.18,36.82
				c-0.22,26.74,0.47,109.63,16.73,136.86c23.3,39.02,78.34,101.14,93.27,101.14c15.88,0,56.44-66.91,75.93-99.06l4.28-7.07
				c20.21-33.24,22.96-106.8,23.3-131.83c-19.59,4.19-68.71,13.82-106.67,13.82C99.95,50.67,50.66,40.99,31.18,36.82z"/>
		</g>
	</g>
</g>
</svg>
