<?xml version="1.0" encoding="utf-8"?>
<!-- Generator: Adobe Illustrator 25.2.1, SVG Export Plug-In . SVG Version: 6.00 Build 0)  -->
<svg version="1.1" id="Calque_1" xmlns="http://www.w3.org/2000/svg" xmlns:xlink="http://www.w3.org/1999/xlink" x="0px" y="0px"
	 viewBox="0 0 283.46 311.81" style="enable-background:new 0 0 283.46 311.81;" xml:space="preserve">
<style type="text/css">
	.st0{fill:#1D1D1B;}
	.st1{fill:#FFFFFF;}
</style>
<g>
	<g>
		<g>
			<g>
				<g>
					<path class="st0" d="M34.81,34.69c0,0-3.07,114.39,17.59,148.99c20.57,34.44,78.31,104.51,99.21,104.51
						s60.37-67.08,86.12-109.45s24.34-144.05,24.34-144.05s-66.37,15.53-113.62,15.53S34.81,34.69,34.81,34.69z"/>
					<path class="st0" d="M151.6,295.11c-28.03,0-90.14-82.75-105.14-107.88C25.02,151.32,27.77,39.26,27.9,34.5l0.23-8.48
						l8.26,1.93c0.66,0.15,66.17,15.35,112.06,15.35c45.88,0,111.39-15.2,112.05-15.35l8.37-1.96l0.12,8.59
						c0.06,4.23,1.13,104.18-25.34,147.74l-4.31,7.09C203.03,249.3,173.52,295.11,151.6,295.11z M41.6,43.28
						c-0.22,26.74,0.47,109.63,16.73,136.86c23.3,39.02,78.34,101.14,93.27,101.14c15.87,0,56.42-66.88,75.9-99.02l4.31-7.11
						c20.19-33.22,22.96-106.8,23.3-131.84c-19.59,4.19-68.7,13.83-106.67,13.83C110.37,57.14,61.08,47.45,41.6,43.28z"/>
				</g>
			</g>
		</g>
	</g>
</g>
<g>
	<g>
		<g>
			<g>
				<path class="st1" d="M327.11-42.69c0,0-3.07,114.39,17.59,148.99c20.57,34.44,78.31,104.51,99.21,104.51
					s60.37-67.08,86.12-109.45C555.77,59,554.36-42.69,554.36-42.69s-66.37,15.53-113.62,15.53S327.11-42.69,327.11-42.69z"/>
				<path class="st0" d="M443.9,217.73c-28.03,0-90.14-82.75-105.14-107.88C317.31,73.94,320.07-38.12,320.2-42.87l0.23-8.48
					l8.26,1.93c0.66,0.15,66.17,15.35,112.06,15.35s111.39-15.2,112.05-15.35l8.37-1.96l0.12,8.59
					c0.06,4.23,1.13,104.17-25.34,147.74l-4.28,7.05C495.34,171.91,465.82,217.73,443.9,217.73z M333.9-34.1
					c-0.22,26.74,0.47,109.63,16.73,136.86c23.3,39.02,78.34,101.14,93.27,101.14c15.88,0,56.44-66.91,75.93-99.06l4.28-7.07
					c20.21-33.24,22.96-106.8,23.3-131.83c-19.59,4.19-68.71,13.82-106.67,13.82C402.67-20.24,353.38-29.92,333.9-34.1z"/>
			</g>
		</g>
		<g>
			<path class="st0" d="M366.46,45.07c-1.38,0-2.76-0.42-3.95-1.27c-2.74-1.97-3.64-5.63-2.09-8.63c0.35-0.68,8.76-16.71,23.04-22.2
				c14.87-5.73,32.9,5.83,34.91,7.17c2.83,1.89,3.83,5.58,2.34,8.64c-1.5,3.06-5.03,4.54-8.26,3.46c-0.06-0.02-9.55-2.98-21.61,0.13
				c-12.12,3.13-19.4,10.54-19.47,10.61C370.04,44.36,368.25,45.07,366.46,45.07z"/>
			<path class="st0" d="M511.6,45.23c-1.9,0-3.78-0.79-5.11-2.31c-0.04-0.05-6.75-7.39-18.73-10.78
				c-12.04-3.41-22.07-0.68-22.16-0.65c-3.24,0.92-6.69-0.69-8.06-3.77c-1.38-3.08-0.3-6.7,2.55-8.5
				c0.64-0.41,15.98-10.02,31.09-7.56c15.74,2.57,25.47,21.63,26.53,23.8c1.5,3.06,0.49,6.75-2.34,8.64
				C514.22,44.86,512.91,45.23,511.6,45.23z"/>
			<path class="st0" d="M440.07,153.07c-0.2,0-0.39,0-0.59-0.01c-16.91-0.59-35.31-26.91-38.83-32.18l-13.09-19.62l21.52,9.64
				c0.14,0.06,15.27,6.67,28.02,3.74c14.21-3.26,31.62-12.27,31.79-12.36l16.45-8.56l-7.01,17.16
				C475.43,117.98,460.07,153.07,440.07,153.07z M424.31,128.67c5.69,5.94,11.62,10.66,15.64,10.8c0.05,0,0.11,0,0.16,0
				c4.86,0,11.47-7.77,17.15-17.07c-5.41,2.12-11.42,4.18-17.12,5.49C434.8,129.12,429.34,129.18,424.31,128.67z"/>
		</g>
	</g>
</g>
<g>
	<g>
		<g>
			<path class="st1" d="M381.33,251.02c0,0-3.07,114.39,17.59,148.99c20.57,34.44,78.31,104.51,99.21,104.51
				c20.9,0,60.37-67.08,86.12-109.45s24.34-144.05,24.34-144.05s-66.37,15.53-113.62,15.53S381.33,251.02,381.33,251.02z"/>
			<path class="st0" d="M498.12,511.43c-28.03,0-90.14-82.75-105.14-107.88c-21.44-35.91-18.69-147.97-18.56-152.72l0.23-8.48
				l8.26,1.93c0.66,0.15,66.17,15.35,112.06,15.35s111.39-15.2,112.05-15.35l8.37-1.96l0.12,8.59
				c0.06,4.23,1.13,104.17-25.34,147.74l-4.28,7.05C549.57,465.61,520.05,511.43,498.12,511.43z M388.12,259.61
				c-0.22,26.74,0.47,109.63,16.73,136.86c23.3,39.02,78.34,101.14,93.27,101.14c15.88,0,56.44-66.91,75.93-99.06l4.28-7.07
				c20.21-33.24,22.96-106.8,23.3-131.83c-19.59,4.19-68.71,13.82-106.67,13.82C456.9,273.46,407.6,263.78,388.12,259.61z"/>
		</g>
		<g>
			<g>
				<path class="st1" d="M570.25,315.33c0,0-10.21,6.66-25.13,6.94c-14.92,0.27-24.93-5.95-24.93-5.95s13.72,14.77,26.59,13.05
					C559.64,327.65,570.25,315.33,570.25,315.33z"/>
				<path class="st0" d="M544.64,336.35c-14.74,0-27.93-13.72-29.47-15.38c-2.33-2.51-2.45-6.36-0.27-9.01
					c2.19-2.64,5.99-3.27,8.9-1.46c0.05,0.03,8.71,5.17,21.19,4.92c12.6-0.23,21.43-5.77,21.52-5.82c2.86-1.86,6.65-1.34,8.89,1.22
					c2.25,2.56,2.26,6.39,0.04,8.97c-0.5,0.59-12.48,14.32-27.75,16.36C546.66,336.29,545.65,336.35,544.64,336.35z"/>
			</g>
			<g>
				<path class="st1" d="M469.59,316.78c0,0-10.21,6.66-25.13,6.94s-24.93-5.95-24.93-5.95s13.72,14.77,26.59,13.05
					C458.98,329.1,469.59,316.78,469.59,316.78z"/>
				<path class="st0" d="M443.98,337.8c-14.74,0-27.93-13.71-29.47-15.38c-2.33-2.51-2.45-6.36-0.27-9.01
					c2.18-2.65,5.99-3.26,8.9-1.46c0.05,0.03,8.7,5.21,21.19,4.92c12.6-0.23,21.43-5.77,21.51-5.83c2.85-1.86,6.64-1.35,8.89,1.22
					c2.25,2.56,2.26,6.39,0.04,8.97c-0.5,0.59-12.48,14.32-27.75,16.36C446,337.73,444.99,337.8,443.98,337.8z"/>
			</g>
			<g>
				<path class="st1" d="M471.5,412.45c0,0,10.68-3.69,25.32-3.45c14.92,0.24,24.74,3.94,24.74,3.94s-10.03-11.09-26.19-11.09
					C482.39,401.84,471.5,412.45,471.5,412.45z"/>
				<path class="st0" d="M540.79,426.02l-21.15-7.96c-0.08-0.03-9.24-3.37-22.9-3.59c-13.36-0.25-23.36,3.12-23.46,3.15l-22.99,7.83
					l17.4-16.93c0.51-0.49,12.66-12.15,27.7-12.15c18.38,0,29.78,12.36,30.25,12.89L540.79,426.02z"/>
			</g>
		</g>
	</g>
</g>
<g>
	<g>
		<g>
			<path class="st1" d="M24.38,28.07c0,0-3.07,114.39,17.59,148.99c20.57,34.44,78.31,104.51,99.21,104.51s60.37-67.08,86.12-109.45
				s24.34-144.05,24.34-144.05s-66.37,15.53-113.62,15.53S24.38,28.07,24.38,28.07z"/>
			<path class="st0" d="M141.17,288.49c-28.03,0-90.14-82.75-105.14-107.88C14.59,144.7,17.34,32.64,17.47,27.89l0.23-8.48
				l8.26,1.93c0.66,0.15,66.17,15.35,112.06,15.35s111.39-15.2,112.05-15.35l8.37-1.96l0.12,8.59
				c0.06,4.23,1.13,104.17-25.34,147.74l-4.28,7.05C192.61,242.67,163.1,288.49,141.17,288.49z M31.17,36.66
				C30.95,63.4,31.64,146.29,47.9,173.52c23.3,39.02,78.34,101.14,93.27,101.14c15.88,0,56.44-66.91,75.93-99.06l4.28-7.07
				c20.21-33.24,22.96-106.8,23.3-131.83c-19.59,4.19-68.71,13.82-106.67,13.82C99.94,50.52,50.65,40.84,31.17,36.66z"/>
		</g>
		<g>
			<g>
				<path class="st1" d="M213.29,92.39c0,0-10.21,6.66-25.13,6.94c-14.92,0.27-24.93-5.95-24.93-5.95s13.72,14.77,26.59,13.05
					S213.29,92.39,213.29,92.39z"/>
				<path class="st0" d="M187.69,113.41c-14.74,0-27.93-13.72-29.47-15.38c-2.33-2.51-2.45-6.36-0.27-9.01
					c2.19-2.64,5.99-3.27,8.9-1.46c0.05,0.03,8.71,5.17,21.19,4.92c12.6-0.23,21.43-5.77,21.52-5.82c2.86-1.86,6.65-1.34,8.89,1.22
					c2.25,2.56,2.26,6.39,0.04,8.97c-0.5,0.59-12.48,14.32-27.75,16.36C189.71,113.35,188.7,113.41,187.69,113.41z"/>
			</g>
			<g>
				<path class="st1" d="M112.63,93.83c0,0-10.21,6.66-25.13,6.94s-24.93-5.95-24.93-5.95s13.72,14.77,26.59,13.05
					S112.63,93.83,112.63,93.83z"/>
				<path class="st0" d="M87.03,114.85c-14.74,0-27.93-13.71-29.47-15.38c-2.33-2.51-2.45-6.36-0.27-9.01
					c2.18-2.65,5.99-3.26,8.9-1.46c0.05,0.03,8.7,5.21,21.19,4.92c12.6-0.23,21.43-5.77,21.51-5.83c2.85-1.86,6.64-1.35,8.89,1.22
					c2.25,2.56,2.26,6.39,0.04,8.97c-0.5,0.59-12.48,14.32-27.75,16.36C89.05,114.79,88.04,114.85,87.03,114.85z"/>
			</g>
			<g>
				<path class="st1" d="M114.54,189.5c0,0,10.68-3.69,25.32-3.45c14.92,0.24,24.74,3.94,24.74,3.94s-10.03-11.09-26.19-11.09
					C125.44,178.9,114.54,189.5,114.54,189.5z"/>
				<path class="st0" d="M183.84,203.08l-21.15-7.96c-0.08-0.03-9.24-3.37-22.9-3.59c-13.36-0.25-23.36,3.12-23.46,3.15l-22.99,7.83
					l17.4-16.93c0.51-0.49,12.66-12.15,27.7-12.15c18.38,0,29.78,12.36,30.25,12.89L183.84,203.08z"/>
			</g>
		</g>
	</g>
</g>
</svg>
