<?xml version="1.0" encoding="utf-8"?>
<!-- Generator: Adobe Illustrator 25.2.1, SVG Export Plug-In . SVG Version: 6.00 Build 0)  -->
<svg version="1.1" id="Calque_1" xmlns="http://www.w3.org/2000/svg" xmlns:xlink="http://www.w3.org/1999/xlink" x="0px" y="0px"
	 viewBox="0 0 283.46 311.81" style="enable-background:new 0 0 283.46 311.81;" xml:space="preserve">
<style type="text/css">
	.st0{fill:#1D1D1B;}
	.st1{fill:#FFFFFF;}
</style>
<g>
	<g>
		<g>
			<g>
				<g>
					<path class="st0" d="M34.81,34.69c0,0-3.07,114.39,17.59,148.99c20.57,34.44,78.31,104.51,99.21,104.51
						s60.37-67.08,86.12-109.45s24.34-144.05,24.34-144.05s-66.37,15.53-113.62,15.53S34.81,34.69,34.81,34.69z"/>
					<path class="st0" d="M151.6,295.11c-28.03,0-90.14-82.75-105.14-107.88C25.02,151.32,27.77,39.26,27.9,34.5l0.23-8.48
						l8.26,1.93c0.66,0.15,66.17,15.35,112.06,15.35c45.88,0,111.39-15.2,112.05-15.35l8.37-1.96l0.12,8.59
						c0.06,4.23,1.13,104.18-25.34,147.74l-4.31,7.09C203.03,249.3,173.52,295.11,151.6,295.11z M41.6,43.28
						c-0.22,26.74,0.47,109.63,16.73,136.86c23.3,39.02,78.34,101.14,93.27,101.14c15.87,0,56.42-66.88,75.9-99.02l4.31-7.11
						c20.19-33.22,22.96-106.8,23.3-131.84c-19.59,4.19-68.7,13.83-106.67,13.83C110.37,57.14,61.08,47.45,41.6,43.28z"/>
				</g>
			</g>
			<g>
				<g>
					<path class="st1" d="M27.23,31.06c0,0-3.07,114.39,17.59,148.99c20.57,34.44,78.31,104.51,99.21,104.51
						s60.37-67.08,86.12-109.45s24.34-144.05,24.34-144.05S188.11,46.6,140.86,46.6S27.23,31.06,27.23,31.06z"/>
					<path class="st0" d="M144.02,291.48c-28.03,0-90.14-82.75-105.14-107.88C17.43,147.69,20.19,35.63,20.31,30.88l0.23-8.48
						l8.26,1.93c0.66,0.15,66.17,15.35,112.06,15.35s111.39-15.2,112.05-15.35l8.37-1.96l0.12,8.59
						c0.06,4.23,1.13,104.17-25.34,147.74l-4.28,7.05C195.46,245.66,165.94,291.48,144.02,291.48z M34.01,39.65
						c-0.22,26.74,0.47,109.63,16.73,136.86c23.3,39.02,78.34,101.14,93.27,101.14c15.88,0,56.44-66.91,75.93-99.06l4.28-7.07
						c20.21-33.24,22.96-106.8,23.3-131.83c-19.59,4.19-68.71,13.82-106.67,13.82C102.79,53.51,53.49,43.83,34.01,39.65z"/>
				</g>
			</g>
		</g>
	</g>
	<g>
		<g>
			<path class="st1" d="M216.14,95.38c0,0-10.21,6.66-25.13,6.94c-14.92,0.27-24.93-5.95-24.93-5.95s13.72,14.77,26.59,13.05
				C205.53,107.7,216.14,95.38,216.14,95.38z"/>
			<path class="st0" d="M190.54,116.4c-14.74,0-27.93-13.72-29.47-15.38c-2.33-2.51-2.45-6.36-0.27-9.01
				c2.19-2.64,5.99-3.27,8.9-1.46c0.05,0.03,8.71,5.17,21.19,4.92c12.6-0.23,21.43-5.77,21.52-5.82c2.86-1.86,6.65-1.34,8.89,1.22
				c2.25,2.56,2.26,6.39,0.04,8.97c-0.5,0.59-12.48,14.32-27.75,16.36C192.55,116.33,191.54,116.4,190.54,116.4z"/>
		</g>
		<g>
			<path class="st1" d="M115.48,96.82c0,0-10.21,6.66-25.13,6.94s-24.93-5.95-24.93-5.95s13.72,14.77,26.59,13.05
				S115.48,96.82,115.48,96.82z"/>
			<path class="st0" d="M89.88,117.84c-14.74,0-27.93-13.71-29.47-15.38c-2.33-2.51-2.45-6.36-0.27-9.01
				c2.18-2.65,5.99-3.26,8.9-1.46c0.05,0.03,8.7,5.21,21.19,4.92c12.6-0.23,21.43-5.77,21.51-5.83c2.85-1.86,6.64-1.35,8.89,1.22
				c2.25,2.56,2.26,6.39,0.04,8.97c-0.5,0.59-12.48,14.32-27.75,16.36C91.9,117.78,90.88,117.84,89.88,117.84z"/>
		</g>
		<g>
			<path class="st1" d="M117.39,192.49c0,0,10.68-3.69,25.32-3.45c14.92,0.24,24.74,3.94,24.74,3.94s-10.03-11.09-26.19-11.09
				C128.28,181.89,117.39,192.49,117.39,192.49z"/>
			<path class="st0" d="M186.68,206.06l-21.15-7.96c-0.08-0.03-9.24-3.37-22.9-3.59c-13.36-0.25-23.36,3.12-23.46,3.15l-22.99,7.83
				l17.4-16.93c0.51-0.49,12.66-12.15,27.7-12.15c18.38,0,29.78,12.36,30.25,12.89L186.68,206.06z"/>
		</g>
	</g>
</g>
<g>
	<g>
		<g>
			<g>
				<path class="st0" d="M334.69-39.06c0,0-3.07,114.39,17.59,148.99c20.57,34.44,78.31,104.51,99.21,104.51
					c20.9,0,60.37-67.08,86.12-109.45s24.34-144.05,24.34-144.05s-66.37,15.53-113.62,15.53S334.69-39.06,334.69-39.06z"/>
				<path class="st0" d="M451.48,221.36c-28.03,0-90.14-82.75-105.14-107.88C324.9,77.57,327.65-34.49,327.78-39.24l0.23-8.48
					l8.26,1.93c0.66,0.15,66.17,15.35,112.06,15.35c45.88,0,111.39-15.2,112.05-15.35l8.37-1.96l0.12,8.59
					c0.06,4.23,1.13,104.18-25.34,147.74l-4.31,7.09C502.91,175.56,473.4,221.36,451.48,221.36z M341.48-30.47
					c-0.22,26.74,0.47,109.63,16.73,136.86c23.3,39.02,78.34,101.14,93.27,101.14c15.87,0,56.42-66.88,75.9-99.02l4.31-7.11
					C551.89,68.19,554.65-5.39,555-30.43c-19.59,4.19-68.7,13.83-106.67,13.83C410.26-16.61,360.96-26.29,341.48-30.47z"/>
			</g>
		</g>
		<g>
			<g>
				<path class="st1" d="M327.11-42.69c0,0-3.07,114.39,17.59,148.99c20.57,34.44,78.31,104.51,99.21,104.51
					s60.37-67.08,86.12-109.45C555.77,59,554.36-42.69,554.36-42.69s-66.37,15.53-113.62,15.53S327.11-42.69,327.11-42.69z"/>
				<path class="st0" d="M443.9,217.73c-28.03,0-90.14-82.75-105.14-107.88C317.31,73.94,320.07-38.12,320.2-42.87l0.23-8.48
					l8.26,1.93c0.66,0.15,66.17,15.35,112.06,15.35s111.39-15.2,112.05-15.35l8.37-1.96l0.12,8.59
					c0.06,4.23,1.13,104.17-25.34,147.74l-4.28,7.05C495.34,171.91,465.82,217.73,443.9,217.73z M333.9-34.1
					c-0.22,26.74,0.47,109.63,16.73,136.86c23.3,39.02,78.34,101.14,93.27,101.14c15.88,0,56.44-66.91,75.93-99.06l4.28-7.07
					c20.21-33.24,22.96-106.8,23.3-131.83c-19.59,4.19-68.71,13.82-106.67,13.82C402.67-20.24,353.38-29.92,333.9-34.1z"/>
			</g>
		</g>
	</g>
	<g>
		<path class="st0" d="M366.46,45.07c-1.38,0-2.76-0.42-3.95-1.27c-2.74-1.97-3.64-5.63-2.09-8.63c0.35-0.68,8.76-16.71,23.04-22.2
			c14.87-5.73,32.9,5.83,34.91,7.17c2.83,1.89,3.83,5.58,2.34,8.64c-1.5,3.06-5.03,4.54-8.26,3.46c-0.06-0.02-9.55-2.98-21.61,0.13
			c-12.12,3.13-19.4,10.54-19.47,10.61C370.04,44.36,368.25,45.07,366.46,45.07z"/>
		<path class="st0" d="M511.6,45.23c-1.9,0-3.78-0.79-5.11-2.31c-0.04-0.05-6.75-7.39-18.73-10.78
			c-12.04-3.41-22.07-0.68-22.16-0.65c-3.24,0.92-6.69-0.69-8.06-3.77c-1.38-3.08-0.3-6.7,2.55-8.5
			c0.64-0.41,15.98-10.02,31.09-7.56c15.74,2.57,25.47,21.63,26.53,23.8c1.5,3.06,0.49,6.75-2.34,8.64
			C514.22,44.86,512.91,45.23,511.6,45.23z"/>
		<path class="st0" d="M440.07,153.07c-0.2,0-0.39,0-0.59-0.01c-16.91-0.59-35.31-26.91-38.83-32.18l-13.09-19.62l21.52,9.64
			c0.14,0.06,15.27,6.67,28.02,3.74c14.21-3.26,31.62-12.27,31.79-12.36l16.45-8.56l-7.01,17.16
			C475.43,117.98,460.07,153.07,440.07,153.07z M424.31,128.67c5.69,5.94,11.62,10.66,15.64,10.8c0.05,0,0.11,0,0.16,0
			c4.86,0,11.47-7.77,17.15-17.07c-5.41,2.12-11.42,4.18-17.12,5.49C434.8,129.12,429.34,129.18,424.31,128.67z"/>
	</g>
</g>
<g>
	<g>
		<g>
			<g>
				<g>
					<path class="st0" d="M372.02,43.38c0,0-3.07,114.39,17.59,148.99c20.57,34.44,78.31,104.51,99.21,104.51
						c20.9,0,60.37-67.08,86.12-109.45c25.75-42.37,24.34-144.05,24.34-144.05S532.9,58.91,485.65,58.91S372.02,43.38,372.02,43.38z
						"/>
					<path class="st0" d="M488.81,303.79c-28.03,0-90.14-82.75-105.14-107.88c-21.44-35.91-18.69-147.97-18.56-152.73l0.23-8.48
						l8.26,1.93C374.25,36.8,439.76,52,485.65,52c45.89,0,111.39-15.2,112.05-15.35l8.37-1.96l0.12,8.59
						c0.06,4.23,1.13,104.18-25.34,147.74l-4.31,7.09C540.24,257.99,510.73,303.79,488.81,303.79z M378.8,51.97
						c-0.22,26.74,0.47,109.63,16.73,136.86c23.3,39.02,78.34,101.14,93.27,101.14c15.87,0,56.42-66.88,75.9-99.02l4.31-7.11
						c20.19-33.22,22.96-106.8,23.3-131.84c-19.59,4.19-68.7,13.83-106.67,13.83C447.58,65.83,398.28,56.14,378.8,51.97z"/>
				</g>
			</g>
			<g>
				<g>
					<path class="st1" d="M364.43,39.75c0,0-3.07,114.39,17.59,148.99c20.57,34.44,78.31,104.51,99.21,104.51
						s60.37-67.08,86.12-109.45s24.34-144.05,24.34-144.05s-66.37,15.53-113.62,15.53S364.43,39.75,364.43,39.75z"/>
					<path class="st0" d="M481.22,300.16c-28.03,0-90.14-82.75-105.14-107.88c-21.44-35.91-18.69-147.97-18.56-152.72l0.23-8.48
						l8.26,1.93c0.66,0.15,66.17,15.35,112.06,15.35s111.39-15.2,112.05-15.35l8.37-1.96l0.12,8.59
						c0.06,4.23,1.13,104.17-25.34,147.74l-4.28,7.05C532.67,254.34,503.15,300.16,481.22,300.16z M371.22,48.34
						c-0.22,26.74,0.47,109.63,16.73,136.86c23.3,39.02,78.34,101.14,93.27,101.14c15.88,0,56.44-66.91,75.93-99.06l4.28-7.07
						c20.21-33.24,22.96-106.8,23.3-131.83c-19.59,4.19-68.71,13.82-106.67,13.82C439.99,62.2,390.7,52.51,371.22,48.34z"/>
				</g>
			</g>
		</g>
	</g>
	<g>
		<g>
			<path class="st1" d="M553.34,104.06c0,0-10.21,6.66-25.13,6.94c-14.92,0.27-24.93-5.95-24.93-5.95s13.72,14.77,26.59,13.05
				S553.34,104.06,553.34,104.06z"/>
			<path class="st0" d="M527.74,125.09c-14.74,0-27.93-13.72-29.47-15.38c-2.33-2.51-2.45-6.36-0.27-9.01
				c2.19-2.64,5.99-3.27,8.9-1.46c0.05,0.03,8.71,5.17,21.19,4.92c12.6-0.23,21.43-5.77,21.52-5.82c2.86-1.86,6.65-1.34,8.89,1.22
				c2.25,2.56,2.26,6.39,0.04,8.97c-0.5,0.59-12.48,14.32-27.75,16.36C529.76,125.02,528.75,125.09,527.74,125.09z"/>
		</g>
		<g>
			<path class="st1" d="M452.69,105.51c0,0-10.21,6.66-25.13,6.94c-14.92,0.27-24.93-5.95-24.93-5.95s13.72,14.77,26.59,13.05
				S452.69,105.51,452.69,105.51z"/>
			<path class="st0" d="M427.08,126.53c-14.74,0-27.93-13.71-29.47-15.38c-2.33-2.51-2.45-6.36-0.27-9.01
				c2.18-2.65,5.99-3.26,8.9-1.46c0.05,0.03,8.7,5.21,21.19,4.92c12.6-0.23,21.43-5.77,21.51-5.83c2.85-1.86,6.64-1.35,8.89,1.22
				c2.25,2.56,2.26,6.39,0.04,8.97c-0.5,0.59-12.48,14.32-27.75,16.36C429.1,126.47,428.09,126.53,427.08,126.53z"/>
		</g>
		<g>
			<path class="st1" d="M454.6,201.18c0,0,10.68-3.69,25.32-3.45c14.92,0.24,24.74,3.94,24.74,3.94s-10.03-11.09-26.19-11.09
				C465.49,190.58,454.6,201.18,454.6,201.18z"/>
			<path class="st0" d="M523.89,214.75l-21.15-7.96c-0.08-0.03-9.24-3.37-22.9-3.59c-13.36-0.25-23.36,3.12-23.46,3.15l-22.99,7.83
				l17.4-16.93c0.51-0.49,12.66-12.15,27.7-12.15c18.38,0,29.78,12.36,30.25,12.89L523.89,214.75z"/>
		</g>
	</g>
</g>
</svg>
