<?xml version="1.0" encoding="utf-8"?>
<!-- Generator: Adobe Illustrator 25.2.1, SVG Export Plug-In . SVG Version: 6.00 Build 0)  -->
<svg version="1.1" id="Calque_1" xmlns="http://www.w3.org/2000/svg" xmlns:xlink="http://www.w3.org/1999/xlink" x="0px" y="0px"
	 viewBox="0 0 170.08 170.08" style="enable-background:new 0 0 170.08 170.08;" xml:space="preserve">
<style type="text/css">
	.st0{fill:#9C4548;}
	.st1{fill:#FFFFFF;}
	.st2{fill:#628E63;}
</style>
<g>
	<path d="M88.92,13.71L88.92,13.71c-41.98,0-76.01,34.03-76.01,76.01v0c0,41.98,34.03,76.01,76.01,76.01h0
		c41.98,0,76.01-34.03,76.01-76.01v0C164.93,47.74,130.9,13.71,88.92,13.71L88.92,13.71z"/>
</g>
<g>
	<g>
		<path d="M86.83,18.93c37,0,67.1,30.1,67.1,67.1c0,37-30.1,67.1-67.1,67.1c-37,0-67.1-30.1-67.1-67.1
			C19.73,49.03,49.83,18.93,86.83,18.93 M86.83,10.02L86.83,10.02c-41.98,0-76.01,34.03-76.01,76.01v0
			c0,41.98,34.03,76.01,76.01,76.01h0c41.98,0,76.01-34.03,76.01-76.01v0C162.84,44.05,128.81,10.02,86.83,10.02L86.83,10.02z"/>
		<path class="st0" d="M86.83,18.47c37,0,67.1,30.1,67.1,67.1c0,37-30.1,67.1-67.1,67.1c-37,0-67.1-30.1-67.1-67.1
			C19.73,48.57,49.83,18.47,86.83,18.47 M86.83,161.58"/>
	</g>
	<g>
		<path d="M40.24,85.57L40.24,85.57c0-10.16,8.23-18.39,18.39-18.39h56.39c10.16,0,18.39,8.23,18.39,18.39v0
			c0,10.16-8.23,18.39-18.39,18.39H58.63C48.48,103.96,40.24,95.73,40.24,85.57z"/>
	</g>
</g>
<path d="M360.1,162.65H251.15c-3.3,0-5.97-2.67-5.97-5.97V32.61c0-3.3,2.67-5.97,5.97-5.97H360.1c3.3,0,5.97,2.67,5.97,5.97v124.07
	C366.08,159.98,363.4,162.65,360.1,162.65z"/>
<g>
	<path class="st1" d="M351.05,149.4H242.09c-3.3,0-5.97-2.67-5.97-5.97V19.35c0-3.3,2.67-5.97,5.97-5.97h108.96
		c3.3,0,5.97,2.67,5.97,5.97v124.07C357.02,146.72,354.35,149.4,351.05,149.4z"/>
	<path d="M296.57,153.85c-35.79,0-64.91-29.12-64.91-64.91V73.83c0-35.79,29.12-64.91,64.91-64.91s64.91,29.12,64.91,64.91v15.11
		C361.47,124.73,332.36,153.85,296.57,153.85z M296.57,17.84c-30.88,0-56,25.12-56,56v15.11c0,30.88,25.12,56,56,56s56-25.12,56-56
		V73.83C352.56,42.96,327.44,17.84,296.57,17.84z"/>
</g>
<text transform="matrix(1 0 0 1 276.9062 115.1172)" style="fill:#010000; font-family:'PPPangramSansRounded-Bold'; font-size:90.6763px;">0</text>
<g>
	<path d="M404.4,10.74h137c4.15,0,7.51,3.36,7.51,7.51v137c0,4.15-3.36,7.51-7.51,7.51h-137c-4.15,0-7.51-3.36-7.51-7.51v-137
		C396.89,14.11,400.25,10.74,404.4,10.74z"/>
	<path d="M472.9,19.65c37,0,67.1,30.1,67.1,67.1c0,37-30.1,67.1-67.1,67.1c-37,0-67.1-30.1-67.1-67.1
		C405.8,49.75,435.9,19.65,472.9,19.65 M472.9,10.74L472.9,10.74c-41.98,0-76.01,34.03-76.01,76.01v0
		c0,41.98,34.03,76.01,76.01,76.01h0c41.98,0,76.01-34.03,76.01-76.01v0C548.9,44.77,514.87,10.74,472.9,10.74L472.9,10.74z"/>
</g>
<g>
	<path class="st2" d="M531.08,153.4h-137c-4.15,0-7.51-3.36-7.51-7.51v-137c0-4.15,3.36-7.51,7.51-7.51l137,0
		c4.15,0,7.51,3.36,7.51,7.51v137C538.59,150.03,535.23,153.4,531.08,153.4z"/>
	<path d="M462.59,10.29c37,0,67.1,30.1,67.1,67.1c0,37-30.1,67.1-67.1,67.1c-37,0-67.1-30.1-67.1-67.1
		C395.49,40.39,425.59,10.29,462.59,10.29 M462.59,1.38L462.59,1.38c-41.98,0-76.01,34.03-76.01,76.01v0
		c0,41.98,34.03,76.01,76.01,76.01h0c41.98,0,76.01-34.03,76.01-76.01v0C538.59,35.41,504.56,1.38,462.59,1.38L462.59,1.38z"/>
</g>
<g>
	<path d="M480.51,128.22h-33.14c-1,0-1.82-0.81-1.82-1.82V36.87c0-1,0.81-1.82,1.82-1.82h33.14c1,0,1.82,0.81,1.82,1.82v89.54
		C482.32,127.41,481.51,128.22,480.51,128.22z"/>
	<path d="M463.93,43.96c5.23,0,9.48,4.25,9.48,9.48v56.39c0,5.23-4.25,9.48-9.48,9.48c-5.23,0-9.48-4.25-9.48-9.48V53.44
		C454.45,48.21,458.71,43.96,463.93,43.96 M463.93,35.05L463.93,35.05c-10.16,0-18.39,8.23-18.39,18.39v56.39
		c0,10.16,8.23,18.39,18.39,18.39h0c10.16,0,18.39-8.23,18.39-18.39V53.44C482.32,43.28,474.09,35.05,463.93,35.05L463.93,35.05z"/>
</g>
<g>
	<path d="M418.57,99.44V66.29c0-1,0.81-1.82,1.82-1.82h89.54c1,0,1.82,0.81,1.82,1.82v33.14c0,1-0.81,1.82-1.82,1.82h-89.54
		C419.39,101.25,418.57,100.44,418.57,99.44z"/>
	<path d="M493.36,73.38c5.23,0,9.48,4.25,9.48,9.48c0,5.23-4.25,9.48-9.48,9.48h-56.39c-5.23,0-9.48-4.25-9.48-9.48
		c0-5.23,4.25-9.48,9.48-9.48H493.36 M493.36,64.47h-56.39c-10.16,0-18.39,8.23-18.39,18.39v0c0,10.16,8.23,18.39,18.39,18.39h56.39
		c10.16,0,18.39-8.23,18.39-18.39v0C511.75,72.71,503.51,64.47,493.36,64.47L493.36,64.47z"/>
</g>
</svg>
