<?xml version="1.0" encoding="utf-8"?>
<!-- Generator: Adobe Illustrator 25.2.1, SVG Export Plug-In . SVG Version: 6.00 Build 0)  -->
<svg version="1.1" id="Calque_1" xmlns="http://www.w3.org/2000/svg" xmlns:xlink="http://www.w3.org/1999/xlink" x="0px" y="0px"
	 viewBox="0 0 170.08 170.08" style="enable-background:new 0 0 170.08 170.08;" xml:space="preserve">
<style type="text/css">
	.st0{fill:#9C4548;}
	.st1{fill:#FFFFFF;}
	.st2{fill:#628E63;}
</style>
<g>
	<path d="M89.29,13.28L89.29,13.28c-41.98,0-76.01,34.03-76.01,76.01v0c0,41.98,34.03,76.01,76.01,76.01h0
		c41.98,0,76.01-34.03,76.01-76.01v0C165.3,47.31,131.27,13.28,89.29,13.28L89.29,13.28z"/>
</g>
<g>
	<path d="M-175.74-33.78c-35.79,0-64.91-29.12-64.91-64.91v-15.11c0-35.79,29.12-64.91,64.91-64.91s64.91,29.12,64.91,64.91v15.11
		C-110.84-62.9-139.95-33.78-175.74-33.78z"/>
</g>
<g>
	<path d="M34.54-249.01L34.54-249.01c-41.98,0-76.01,34.03-76.01,76.01v0c0,41.98,34.03,76.01,76.01,76.01h0
		c41.98,0,76.01-34.03,76.01-76.01v0C110.54-214.98,76.51-249.01,34.54-249.01L34.54-249.01z"/>
</g>
<g>
	<g>
		<path d="M32.45-243.8c37,0,67.1,30.1,67.1,67.1c0,37-30.1,67.1-67.1,67.1c-37,0-67.1-30.1-67.1-67.1
			C-34.65-213.7-4.55-243.8,32.45-243.8 M32.45-252.71L32.45-252.71c-41.98,0-76.01,34.03-76.01,76.01v0
			c0,41.98,34.03,76.01,76.01,76.01h0c41.98,0,76.01-34.03,76.01-76.01v0C108.45-218.68,74.42-252.71,32.45-252.71L32.45-252.71z"/>
		<path class="st0" d="M32.45-244.25c37,0,67.1,30.1,67.1,67.1c0,37-30.1,67.1-67.1,67.1c-37,0-67.1-30.1-67.1-67.1
			C-34.65-214.15-4.55-244.25,32.45-244.25 M32.45-101.14"/>
	</g>
	<g>
		<path d="M-14.14-177.15L-14.14-177.15c0-10.16,8.23-18.39,18.39-18.39h56.39c10.16,0,18.39,8.23,18.39,18.39v0
			c0,10.16-8.23,18.39-18.39,18.39H4.25C-5.91-158.76-14.14-167-14.14-177.15z"/>
	</g>
</g>
<g>
	<path d="M-181.16-41.4c-35.79,0-64.91-29.12-64.91-64.91v-15.11c0-35.79,29.12-64.91,64.91-64.91s64.91,29.12,64.91,64.91v15.11
		C-116.25-70.52-145.37-41.4-181.16-41.4z M-181.16-177.41c-30.88,0-56,25.12-56,56v15.11c0,30.88,25.12,56,56,56s56-25.12,56-56
		v-15.11C-125.16-152.29-150.28-177.41-181.16-177.41z"/>
	<path class="st1" d="M-181.16-177.41c-30.88,0-56,25.12-56,56v15.11c0,30.88,25.12,56,56,56s56-25.12,56-56v-15.11
		C-125.16-152.29-150.28-177.41-181.16-177.41z"/>
</g>
<g>
	<path d="M86.46,19.36c37,0,67.1,30.1,67.1,67.1c0,37-30.1,67.1-67.1,67.1c-37,0-67.1-30.1-67.1-67.1
		C19.36,49.46,49.46,19.36,86.46,19.36 M86.46,10.45L86.46,10.45c-41.98,0-76.01,34.03-76.01,76.01v0
		c0,41.98,34.03,76.01,76.01,76.01h0c41.98,0,76.01-34.03,76.01-76.01v0C162.46,44.48,128.43,10.45,86.46,10.45L86.46,10.45z"/>
	<path class="st2" d="M86.46,19.36c37,0,67.1,30.1,67.1,67.1c0,37-30.1,67.1-67.1,67.1c-37,0-67.1-30.1-67.1-67.1
		C19.36,49.46,49.46,19.36,86.46,19.36"/>
	<g>
		<g>
			<path d="M86.46,39.87L86.46,39.87c-10.16,0-18.39,8.23-18.39,18.39v56.39c0,10.16,8.23,18.39,18.39,18.39h0
				c10.16,0,18.39-8.23,18.39-18.39V58.26C104.85,48.1,96.61,39.87,86.46,39.87L86.46,39.87z"/>
		</g>
		<g>
			<path d="M114.65,68.07H58.26c-10.16,0-18.39,8.23-18.39,18.39v0c0,10.16,8.23,18.39,18.39,18.39h56.39
				c10.16,0,18.39-8.23,18.39-18.39v0C133.04,76.3,124.81,68.07,114.65,68.07L114.65,68.07z"/>
		</g>
	</g>
</g>
</svg>
