<?xml version="1.0" encoding="utf-8"?>
<!-- Generator: Adobe Illustrator 25.2.1, SVG Export Plug-In . SVG Version: 6.00 Build 0)  -->
<svg version="1.1" id="Calque_1" xmlns="http://www.w3.org/2000/svg" xmlns:xlink="http://www.w3.org/1999/xlink" x="0px" y="0px"
	 viewBox="0 0 340.16 283.46" style="enable-background:new 0 0 340.16 283.46;" xml:space="preserve">
<style type="text/css">
	.st0{fill:#9C4548;stroke:#1D1D1B;stroke-miterlimit:10;}
	.st1{fill:#1D1D1B;}
	.st2{fill:#FFFFFF;}
	.st3{fill:#4A7297;}
	.st4{fill:#709B60;}
</style>
<g>
	<path d="M332.66,169.47L332.66,169.47c-9.97-5.98-9.97-21.47,0-27.45l0,0c13.22-7.94,7.82-29.69-7.3-29.42h0
		c-11.4,0.2-18.56-13.21-12.7-23.77v0c7.78-14.01-6.96-29.94-19.93-21.54l0,0c-9.78,6.34-22.19-1.41-22-13.73v0
		c0.25-16.34-19.89-22.17-27.23-7.88l0,0c-5,9.73-17.16,10.64-23.55,2.78c-1.96-6.93-8.07-10.95-14.21-10.88
		c-6.14-0.07-12.25,3.95-14.21,10.88c-5.71,7.01-15.99,7.01-21.7,0c-1.96-6.93-8.07-10.95-14.21-10.88
		c-6.14-0.07-12.25,3.95-14.21,10.88c-6.39,7.85-18.55,6.95-23.55-2.78l0,0c-7.34-14.28-27.48-8.45-27.23,7.88v0
		c0.19,12.32-12.22,20.06-22,13.73l0,0c-12.97-8.4-27.71,7.53-19.93,21.54v0c5.86,10.56-1.3,23.98-12.7,23.77h0
		c-15.12-0.27-20.52,21.49-7.3,29.42l0,0c9.97,5.98,9.97,21.47,0,27.45h0c-13.22,7.94-7.82,29.69,7.3,29.42h0
		c11.4-0.2,18.56,13.21,12.7,23.77v0c-7.78,14.01,6.96,29.94,19.93,21.54h0c9.78-6.34,22.19,1.41,22,13.73v0
		c-0.25,16.34,19.89,22.17,27.23,7.88l0,0c5-9.73,17.16-10.64,23.55-2.78c1.96,6.93,8.07,10.95,14.21,10.88
		c6.14,0.07,12.25-3.95,14.21-10.88c5.71-7.01,15.99-7.01,21.7,0c1.96,6.93,8.07,10.95,14.21,10.88
		c6.14,0.07,12.25-3.95,14.21-10.88c6.39-7.85,18.55-6.95,23.55,2.78l0,0c7.34,14.28,27.48,8.45,27.23-7.88v0
		c-0.19-12.32,12.22-20.06,22-13.73h0c12.97,8.4,27.71-7.53,19.93-21.54v0c-5.86-10.56,1.3-23.98,12.7-23.77h0
		C340.48,199.17,345.88,177.41,332.66,169.47z"/>
	<g>
		<path class="st0" d="M313.52,143.51L313.52,143.51c-9.97-5.98-9.97-21.47,0-27.45l0,0c13.22-7.94,7.82-29.69-7.3-29.42h0
			c-11.4,0.2-18.56-13.21-12.7-23.77v0c7.78-14.01-6.96-29.94-19.93-21.54l0,0c-9.78,6.34-22.19-1.41-22-13.73v0
			c0.25-16.34-19.89-22.17-27.23-7.88l0,0c-5,9.73-17.16,10.64-23.55,2.78c-1.96-6.93-8.07-10.95-14.21-10.88
			c-6.14-0.07-12.25,3.95-14.21,10.88c-5.71,7.01-15.99,7.01-21.7,0c-1.96-6.93-8.07-10.95-14.21-10.88
			c-6.14-0.07-12.25,3.95-14.21,10.88c-6.39,7.85-18.55,6.95-23.55-2.78l0,0c-7.34-14.28-27.48-8.45-27.23,7.88v0
			c0.19,12.32-12.22,20.06-22,13.73l0,0c-12.97-8.4-27.71,7.53-19.93,21.54v0c5.86,10.56-1.3,23.98-12.7,23.77h0
			c-15.12-0.27-20.52,21.49-7.3,29.42l0,0c9.97,5.98,9.97,21.47,0,27.45h0c-13.22,7.94-7.82,29.69,7.3,29.42h0
			c11.4-0.2,18.56,13.21,12.7,23.77v0c-7.78,14.01,6.96,29.94,19.93,21.54h0c9.78-6.34,22.19,1.41,22,13.73v0
			c-0.25,16.34,19.89,22.17,27.23,7.88l0,0c5-9.73,17.16-10.64,23.55-2.78c1.96,6.93,8.07,10.95,14.21,10.88
			c6.14,0.07,12.25-3.95,14.21-10.88c5.71-7.01,15.99-7.01,21.7,0c1.96,6.93,8.07,10.95,14.21,10.88
			c6.14,0.07,12.25-3.95,14.21-10.88c6.39-7.85,18.55-6.95,23.55,2.78l0,0c7.34,14.28,27.48,8.45,27.23-7.88v0
			c-0.19-12.32,12.22-20.06,22-13.73h0c12.97,8.4,27.71-7.53,19.93-21.54v0c-5.86-10.56,1.3-23.98,12.7-23.77h0
			C321.35,173.2,326.74,151.44,313.52,143.51z"/>
		<path class="st1" d="M86.23,250.02c-1.3,0-2.63-0.16-3.97-0.5c-6.5-1.62-12.98-7.69-12.83-17.58c0.08-5.27-2.55-10.03-6.86-12.42
			c-3.87-2.14-8.23-1.98-11.98,0.44c-6.29,4.08-13.93,3.39-19.44-1.76c-5.21-4.86-8.27-13.7-3.4-22.49
			c2.52-4.55,2.43-10.14-0.25-14.59c-2.39-3.98-6.25-6.21-10.62-6.14c-0.1,0-0.2,0-0.31,0c-7.44,0-13.63-4.88-15.81-12.51
			c-1.96-6.83-0.33-15.89,7.73-20.73c4.06-2.44,6.48-6.91,6.48-11.97c0-5.06-2.42-9.53-6.48-11.97c-8.06-4.84-9.69-13.9-7.73-20.73
			c2.19-7.63,8.37-12.51,15.81-12.51c0.18,0,0.35,0,0.53,0c4.27,0,8.05-2.23,10.4-6.14c2.68-4.45,2.77-10.04,0.25-14.59
			c-4.88-8.79-1.81-17.63,3.4-22.49c5.52-5.15,13.15-5.84,19.44-1.76c3.74,2.42,8.11,2.59,11.98,0.44
			c4.31-2.39,6.94-7.15,6.86-12.42c-0.15-9.89,6.34-15.96,12.83-17.58c7.42-1.85,14.59,1.57,18.27,8.73
			c2.03,3.95,5.54,6.46,9.63,6.88c3.84,0.41,7.65-1.15,10.25-4.15c2.22-7.14,8.74-12.02,16.08-11.93
			c7.32-0.09,13.81,4.8,16.03,11.93c2.32,2.68,5.58,4.2,9.01,4.2c3.43,0,6.69-1.53,9-4.2c2.2-7.07,8.66-11.94,15.89-11.94
			c0.13,0,0.25,0,0.38,0c7.19,0,13.64,4.86,15.84,11.94c2.6,3.01,6.42,4.55,10.25,4.15c4.09-0.43,7.6-2.94,9.63-6.88
			c3.68-7.16,10.85-10.59,18.27-8.73c6.5,1.62,12.98,7.69,12.83,17.58c-0.08,5.27,2.55,10.03,6.86,12.42
			c3.87,2.14,8.23,1.98,11.98-0.44c6.3-4.08,13.93-3.39,19.44,1.76c5.21,4.86,8.27,13.7,3.4,22.49c-2.52,4.55-2.43,10.14,0.25,14.59
			c2.39,3.98,6.24,6.23,10.62,6.14c7.56-0.09,13.9,4.77,16.12,12.5c1.96,6.83,0.33,15.89-7.73,20.73
			c-4.06,2.44-6.48,6.91-6.48,11.97c0,5.06,2.42,9.53,6.48,11.97l0,0c8.06,4.84,9.69,13.9,7.73,20.73
			c-2.22,7.73-8.56,12.64-16.12,12.5c-4.34-0.06-8.23,2.16-10.62,6.14c-2.68,4.45-2.77,10.04-0.25,14.59
			c4.88,8.79,1.81,17.63-3.4,22.49c-5.52,5.15-13.15,5.84-19.44,1.76c-3.74-2.42-8.11-2.59-11.98-0.44
			c-4.31,2.39-6.94,7.14-6.86,12.42c0.15,9.89-6.34,15.96-12.83,17.58c-7.43,1.86-14.59-1.57-18.27-8.73
			c-2.03-3.95-5.54-6.45-9.63-6.88c-3.85-0.4-7.65,1.15-10.25,4.15c-2.22,7.14-8.74,11.98-16.08,11.94
			c-7.26,0.05-13.81-4.8-16.03-11.94c-2.32-2.68-5.58-4.2-9.01-4.2c-3.43,0-6.69,1.53-9.01,4.2c-2.2,7.07-8.66,11.94-15.89,11.94
			c-0.13,0-0.25,0-0.38,0c-7.19,0-13.64-4.86-15.84-11.94c-2.6-3.01-6.41-4.55-10.25-4.15c-4.09,0.43-7.6,2.94-9.63,6.88
			C97.51,246.66,92.15,250.02,86.23,250.02z M56.94,213.94c2.6,0,5.2,0.66,7.61,2c5.64,3.12,9.08,9.28,8.97,16.07
			c-0.12,7.65,4.8,12.31,9.73,13.54c4.38,1.1,10.26-0.07,13.63-6.63c2.67-5.2,7.36-8.51,12.85-9.09c5.36-0.56,10.63,1.66,14.11,5.94
			l0.27,0.33l0.11,0.41c1.58,5.59,6.57,9.48,12.22,9.39c5.64,0.11,10.68-3.79,12.27-9.39l0.11-0.41l0.27-0.33
			c3.11-3.82,7.64-6.02,12.44-6.02c4.8,0,9.33,2.19,12.44,6.02l0.27,0.33l0.11,0.41c1.58,5.59,6.58,9.44,12.22,9.39
			c5.71,0.11,10.68-3.79,12.27-9.39l0.11-0.41l0.27-0.33c3.48-4.28,8.76-6.51,14.11-5.94c5.49,0.57,10.18,3.89,12.85,9.09
			c3.37,6.56,9.25,7.73,13.63,6.63c4.93-1.23,9.85-5.9,9.73-13.54c-0.1-6.79,3.34-12.94,8.97-16.07c5.16-2.86,11.21-2.64,16.19,0.59
			c5.66,3.66,11.16,1.72,14.42-1.32c4.04-3.77,6.41-10.65,2.61-17.5c-3.23-5.82-3.11-12.98,0.32-18.69
			c3.12-5.19,8.48-8.23,14.21-8.13c6.85,0.15,10.76-4.84,12.11-9.53c1.53-5.33,0.3-12.36-5.9-16.08c-5.3-3.18-8.47-8.97-8.47-15.48
			c0-6.51,3.17-12.3,8.47-15.48c6.19-3.72,7.43-10.76,5.9-16.08c-1.33-4.63-5.14-9.54-11.85-9.54c-0.08,0-0.17,0-0.25,0
			c-5.76,0.08-11.09-2.94-14.21-8.13c-3.43-5.71-3.55-12.87-0.32-18.69c3.8-6.85,1.43-13.73-2.61-17.5
			c-3.26-3.04-8.76-4.99-14.42-1.32c-4.98,3.23-11.03,3.45-16.19,0.59c-5.64-3.12-9.08-9.28-8.98-16.07
			c0.12-7.65-4.8-12.31-9.73-13.54c-4.38-1.1-10.26,0.07-13.63,6.63c-2.67,5.2-7.36,8.51-12.85,9.09
			c-5.35,0.56-10.63-1.66-14.11-5.95l-0.27-0.33l-0.12-0.41c-1.59-5.59-6.61-9.49-12.22-9.39c-5.64-0.12-10.68,3.79-12.27,9.39
			l-0.11,0.41l-0.27,0.33c-3.11,3.82-7.64,6.02-12.44,6.02c-4.8,0-9.33-2.19-12.44-6.02l-0.27-0.33l-0.11-0.41
			c-1.58-5.59-6.67-9.43-12.22-9.39c-5.7-0.12-10.68,3.79-12.27,9.39l-0.11,0.41l-0.27,0.33c-3.48,4.28-8.77,6.51-14.11,5.95
			c-5.49-0.57-10.18-3.89-12.85-9.09c-3.37-6.56-9.25-7.73-13.63-6.63c-4.93,1.23-9.85,5.9-9.73,13.54
			c0.1,6.79-3.34,12.95-8.98,16.07c-5.16,2.86-11.21,2.64-16.19-0.59c-5.66-3.67-11.16-1.72-14.42,1.32
			c-4.04,3.77-6.41,10.65-2.61,17.5c3.23,5.82,3.11,12.99-0.32,18.69c-3.12,5.19-8.47,8.22-14.21,8.13c-0.08,0-0.17,0-0.25,0
			c-6.72,0-10.53,4.9-11.86,9.54c-1.53,5.33-0.3,12.36,5.9,16.08c5.3,3.18,8.47,8.97,8.47,15.48c0,6.51-3.17,12.3-8.47,15.48
			c-6.19,3.72-7.43,10.76-5.9,16.08c1.33,4.63,5.14,9.54,11.85,9.54c0.08,0,0.17,0,0.25,0c5.81-0.12,11.09,2.94,14.22,8.13
			c3.43,5.7,3.55,12.87,0.32,18.69c-3.8,6.85-1.43,13.73,2.61,17.5c3.26,3.04,8.76,4.99,14.42,1.32
			C51.01,214.8,53.97,213.94,56.94,213.94z"/>
	</g>
	<g>
		<path class="st2" d="M246.53,141.57l4.47,0.75c0.46-3.55,0.69-7.17,0.69-10.76c0-3.66-0.24-7.34-0.72-10.95l-3.86,0.65
			c-0.42-4.25-1.19-8.49-2.31-12.65c-0.7-2.64-1.55-5.25-2.52-7.81l3.04-1.22c-2.79-6.71-6.46-13.04-10.91-18.82l-1.86,1.85
			c-4.14-5.81-9.06-11.09-14.61-15.66l1.09-1.54c-5.78-4.44-12.13-8.09-18.85-10.87l-0.38,1.13c-6.57-2.98-13.56-5.12-20.73-6.33
			l0.05-0.41c-3.54-0.46-7.16-0.69-10.75-0.69v34.09c0,0,0,0,0,0l0,0c5.28-0.28,10.62,0.18,15.78,1.58
			c5.17,1.36,10.11,3.69,14.68,6.67c9.06,6.06,16.38,15.16,20.06,25.79c3.7,10.59,3.94,22.66,0.47,33.66
			c-3.47,11.01-10.65,21.06-20.31,28c-9.63,6.99-21.67,10.69-33.87,10.39c-12.16-0.25-24.29-4.52-34.08-12.2
			c-9.78-7.65-17.2-18.55-20.49-30.79c-0.86-3.05-1.43-6.18-1.76-9.35c-0.21-1.57-0.25-3.2-0.33-4.76c-0.02-1.46,0.08-2.98,0.26-4.5
			c0.21-1.82,0.56-3.65,1-5.49l9.6,15.55l13.97-63.44l-55.19,34.26l21.2,4.61c-0.16,0.5-0.33,0.99-0.49,1.49
			c-1.15,3.65-2.08,7.43-2.64,11.37c-0.28,1.97-0.47,3.99-0.5,6.06c0,0.11,0,0.21,0,0.31H85.08c0,3.59,0.23,7.2,0.69,10.75
			l10.26-2.05c0.25,2.81,0.67,5.61,1.27,8.37c0.84,4.05,2.05,8.01,3.59,11.86l-9.45,3.05c2.79,6.71,6.46,13.04,10.91,18.82
			l7.13-6.22c3.27,4.55,7.05,8.76,11.28,12.48c0.74,0.66,1.5,1.3,2.27,1.92l-5.29,7.16c5.79,4.43,12.13,8.09,18.84,10.87l2.17-8.26
			c6.42,2.96,13.29,5.03,20.33,6.08l-1.45,7.78c3.55,0.46,7.16,0.69,10.75,0.69c3.66,0,7.34-0.24,10.95-0.72l-1.42-7.3
			c3.47-0.36,6.92-0.94,10.33-1.75c3.2-0.78,6.34-1.77,9.42-2.96l2.71,6.36c6.71-2.79,13.04-6.46,18.82-10.91l-4.49-4.57
			c5.76-4.08,10.96-8.97,15.44-14.5l4.39,3.69c4.44-5.79,8.1-12.13,10.87-18.85l-4.78-1.83c0.49-1.09,0.96-2.18,1.4-3.29
			C244.14,152.89,245.64,147.29,246.53,141.57z"/>
		<path class="st1" d="M168.38,218.21c-3.73,0-7.49-0.24-11.18-0.72l-3.5-0.45l1.48-7.92c-4.84-0.95-9.59-2.35-14.19-4.2l-2.16,8.21
			l-3.53-1.46c-6.99-2.89-13.58-6.69-19.6-11.3l-2.6-1.99l5.38-7.29c-3.44-3.03-6.63-6.41-9.52-10.07l-7.1,6.2l-2.16-2.81
			c-4.62-6.01-8.44-12.59-11.35-19.57l-1.39-3.34l9.57-3.09c-1.04-3.01-1.88-6.05-2.51-9.08c-0.36-1.63-0.66-3.33-0.9-5.07
			l-10.22,2.04l-0.46-3.54c-0.48-3.68-0.72-7.44-0.72-11.17v-3.33h10.8c0.09-1.13,0.22-2.29,0.39-3.5c0.46-3.25,1.17-6.5,2.16-9.91
			l-25.68-5.59l68.89-42.77l-17.44,79.19l-9.02-14.6c0,0.08,0,0.17,0,0.25l0.04,0.73c0.06,1.22,0.12,2.48,0.27,3.64
			c0.33,3.16,0.89,6.12,1.67,8.88c3.06,11.4,9.92,21.71,19.33,29.07c9.15,7.18,20.55,11.26,32.1,11.49
			c11.46,0.28,22.79-3.19,31.84-9.76c9.01-6.48,15.79-15.82,19.09-26.3c3.24-10.27,3.08-21.47-0.44-31.56
			c-3.36-9.7-10.02-18.27-18.76-24.12c-4.45-2.91-9.06-5.01-13.67-6.22c-4.63-1.26-9.58-1.75-14.75-1.48l-3.51,0.19V44.93h3.33
			c3.73,0,7.49,0.24,11.17,0.72l3.31,0.43l-0.08,0.59c5.13,1.06,10.15,2.58,15.01,4.54l0.37-1.09l3.3,1.36
			c6.99,2.89,13.59,6.7,19.6,11.31l2.54,1.95l-1.18,1.67c3.83,3.39,7.35,7.13,10.5,11.15l1.82-1.81l2.31,3
			c4.63,6.01,8.44,12.59,11.35,19.57l1.3,3.11l-3.2,1.29c0.58,1.71,1.09,3.41,1.52,5.06c0.84,3.14,1.5,6.37,1.97,9.63l3.83-0.65
			l0.45,3.43c0.49,3.75,0.74,7.58,0.74,11.38c0,3.73-0.24,7.5-0.72,11.18l-0.44,3.44l-4.62-0.78c-0.96,4.85-2.34,9.58-4.12,14.07
			c-0.02,0.06-0.05,0.13-0.07,0.19l4.74,1.81l-1.31,3.16c-2.89,6.99-6.7,13.58-11.31,19.6l-2.12,2.77l-4.51-3.79
			c-3.29,3.74-6.9,7.15-10.79,10.2l4.44,4.53l-2.98,2.29c-6.01,4.62-12.59,8.44-19.57,11.34l-3.05,1.27l-2.77-6.5
			c-2.27,0.78-4.55,1.44-6.8,1.99c-2.34,0.56-4.73,1.02-7.16,1.38l1.42,7.28l-3.52,0.46C176.02,217.96,172.19,218.21,168.38,218.21z
			 M161.57,211.25c4.59,0.39,9.22,0.38,13.8-0.01l-1.43-7.32l3.63-0.37c3.37-0.35,6.7-0.91,9.89-1.68c2.96-0.72,5.99-1.67,8.99-2.83
			l3-1.16l2.65,6.22c4.19-1.95,8.2-4.26,12-6.91l-4.53-4.62l3.19-2.26c5.5-3.9,10.47-8.56,14.77-13.87l2.14-2.64l4.26,3.58
			c2.68-3.84,5.03-7.9,7-12.14l-4.82-1.84l1.45-3.22c0.47-1.04,0.92-2.08,1.34-3.15c2-5.06,3.46-10.44,4.32-15.97l0.52-3.33
			l4.3,0.73c0.2-2.29,0.29-4.59,0.29-6.88c0-2.36-0.1-4.73-0.31-7.08l-3.9,0.66l-0.35-3.55c-0.41-4.1-1.15-8.18-2.21-12.12
			c-0.64-2.43-1.45-4.94-2.42-7.49l-1.16-3.06l2.88-1.16c-1.94-4.16-4.24-8.15-6.87-11.92l-1.9,1.89l-2.28-3.2
			c-3.98-5.59-8.7-10.64-14.01-15.02l-2.39-1.97l0.99-1.4c-3.86-2.72-7.96-5.1-12.24-7.1l-0.39,1.17l-3.36-1.52
			c-6.35-2.88-13.04-4.92-19.9-6.08l-3.16-0.53l0.03-0.21c-1.22-0.11-2.45-0.18-3.67-0.24v27.28c4.63,0.03,9.09,0.63,13.32,1.78
			c5.28,1.39,10.54,3.78,15.62,7.1c9.97,6.67,17.55,16.43,21.38,27.49c3.99,11.42,4.17,24.12,0.5,35.75
			c-3.73,11.85-11.38,22.4-21.54,29.7c-10.22,7.42-22.95,11.34-35.9,11.02c-12.97-0.26-25.78-4.85-36.06-12.91
			c-10.54-8.24-18.23-19.8-21.65-32.55c-0.87-3.08-1.5-6.41-1.86-9.87c-0.18-1.34-0.24-2.74-0.31-4.1l-0.04-0.83
			c-0.02-1.63,0.07-3.24,0.28-5.06c0.21-1.85,0.57-3.77,1.07-5.88l1.87-7.78l9.48,15.35l10.5-47.68l-41.48,25.75l16.78,3.65
			l-1.32,3.98c-0.11,0.32-0.22,0.64-0.32,0.97c-1.2,3.8-2.02,7.35-2.53,10.86c-0.29,2.04-0.44,3.89-0.47,5.63l-0.03,3.5l-3.31,0.1
			h-7.25c0.05,1.15,0.12,2.29,0.21,3.43l10.32-2.06l0.33,3.7c0.25,2.75,0.65,5.43,1.21,7.96c0.79,3.81,1.94,7.61,3.43,11.33
			l1.32,3.31l-9.32,3.01c1.95,4.15,4.26,8.13,6.9,11.89l7.16-6.25l2.14,2.98c3.16,4.4,6.78,8.42,10.77,11.93
			c0.71,0.63,1.44,1.24,2.17,1.84l2.46,2.01L122.4,197c3.78,2.66,7.78,4.99,11.95,6.95l2.19-8.32l3.61,1.66
			c6.19,2.86,12.73,4.81,19.43,5.81l3.42,0.51L161.57,211.25z"/>
	</g>
</g>
<g>
	<path d="M761.64,386.08L761.64,386.08c-9.97-5.98-9.97-21.47,0-27.45l0,0c13.22-7.94,7.82-29.69-7.3-29.42h0
		c-11.4,0.2-18.56-13.21-12.7-23.77v0c7.78-14.01-6.96-29.94-19.93-21.54l0,0c-9.78,6.33-22.19-1.41-22-13.73v0
		c0.25-16.34-19.89-22.17-27.23-7.88l0,0c-5,9.73-17.16,10.64-23.55,2.78c-1.96-6.93-8.07-10.95-14.21-10.88
		c-6.14-0.07-12.25,3.95-14.21,10.88c-5.71,7.01-15.99,7.01-21.7,0c-1.96-6.93-8.07-10.95-14.21-10.88
		c-6.14-0.07-12.25,3.95-14.21,10.88c-6.39,7.85-18.55,6.95-23.55-2.78l0,0c-7.34-14.28-27.48-8.45-27.23,7.88v0
		c0.19,12.32-12.22,20.06-22,13.73l0,0c-12.97-8.4-27.71,7.53-19.93,21.54v0c5.86,10.56-1.3,23.98-12.7,23.77h0
		c-15.12-0.27-20.52,21.49-7.3,29.42l0,0c9.97,5.98,9.97,21.47,0,27.45h0c-13.22,7.94-7.82,29.69,7.3,29.42h0
		c11.4-0.2,18.56,13.21,12.7,23.77v0c-7.78,14.01,6.96,29.94,19.93,21.54h0c9.78-6.34,22.19,1.41,22,13.73v0
		c-0.25,16.34,19.89,22.17,27.23,7.88l0,0c5-9.73,17.16-10.64,23.55-2.78c1.96,6.93,8.07,10.95,14.21,10.88
		c6.14,0.07,12.25-3.95,14.21-10.88c5.71-7.01,15.99-7.01,21.7,0c1.96,6.93,8.07,10.95,14.21,10.88
		c6.14,0.07,12.25-3.95,14.21-10.88c6.39-7.85,18.55-6.95,23.55,2.78l0,0c7.34,14.28,27.48,8.45,27.23-7.88v0
		c-0.19-12.32,12.22-20.06,22-13.73h0c12.97,8.4,27.71-7.53,19.93-21.54v0c-5.86-10.56,1.3-23.98,12.7-23.77h0
		C769.47,415.78,774.86,394.02,761.64,386.08z"/>
	<g>
		<path class="st3" d="M742.51,360.12L742.51,360.12c-9.97-5.98-9.97-21.47,0-27.45l0,0c13.22-7.93,7.82-29.69-7.3-29.42h0
			c-11.4,0.2-18.56-13.21-12.7-23.77v0c7.78-14.01-6.96-29.94-19.93-21.54l0,0c-9.78,6.34-22.19-1.41-22-13.73v0
			c0.25-16.34-19.89-22.17-27.23-7.88l0,0c-5,9.73-17.16,10.64-23.55,2.78c-1.96-6.93-8.07-10.95-14.21-10.88
			c-6.14-0.07-12.25,3.95-14.21,10.88c-5.71,7.01-15.99,7.01-21.7,0c-1.96-6.93-8.07-10.95-14.21-10.88
			c-6.14-0.07-12.25,3.95-14.21,10.88c-6.39,7.85-18.55,6.95-23.55-2.78l0,0c-7.34-14.28-27.48-8.45-27.23,7.88v0
			c0.19,12.32-12.22,20.06-22,13.73l0,0c-12.97-8.4-27.71,7.53-19.93,21.54v0c5.86,10.56-1.3,23.98-12.7,23.77h0
			c-15.12-0.27-20.52,21.49-7.3,29.42l0,0c9.97,5.98,9.97,21.47,0,27.45h0c-13.22,7.94-7.82,29.69,7.3,29.42h0
			c11.4-0.2,18.56,13.21,12.7,23.77v0c-7.78,14.01,6.96,29.94,19.93,21.54h0c9.78-6.34,22.19,1.41,22,13.73v0
			c-0.25,16.34,19.89,22.17,27.23,7.88l0,0c5-9.73,17.16-10.64,23.55-2.78c1.96,6.93,8.07,10.95,14.21,10.88
			c6.14,0.07,12.25-3.95,14.21-10.88c5.71-7.01,15.99-7.01,21.7,0c1.96,6.93,8.07,10.95,14.21,10.88
			c6.14,0.07,12.25-3.95,14.21-10.88c6.39-7.85,18.55-6.95,23.55,2.78l0,0c7.34,14.28,27.48,8.45,27.23-7.88v0
			c-0.19-12.32,12.22-20.06,22-13.73h0c12.97,8.4,27.71-7.53,19.93-21.54v0c-5.86-10.56,1.3-23.98,12.7-23.77h0
			C750.34,389.81,755.73,368.05,742.51,360.12z"/>
		<path d="M515.21,466.63c-1.3,0-2.63-0.16-3.97-0.5c-6.5-1.62-12.98-7.69-12.83-17.58c0.08-5.27-2.55-10.03-6.86-12.42
			c-3.87-2.14-8.23-1.98-11.98,0.44c-6.29,4.08-13.93,3.39-19.44-1.76c-5.21-4.86-8.27-13.7-3.4-22.49
			c2.52-4.55,2.43-10.14-0.25-14.59c-2.39-3.98-6.25-6.21-10.62-6.14c-0.1,0-0.2,0-0.31,0c-7.44,0-13.63-4.88-15.81-12.51
			c-1.96-6.83-0.33-15.89,7.73-20.73c4.06-2.44,6.48-6.91,6.48-11.97c0-5.06-2.42-9.53-6.48-11.97c-8.06-4.84-9.69-13.9-7.73-20.73
			c2.19-7.63,8.37-12.51,15.81-12.51c0.18,0,0.35,0,0.53,0c4.27,0,8.05-2.23,10.4-6.14c2.68-4.45,2.77-10.04,0.25-14.59
			c-4.88-8.79-1.81-17.63,3.4-22.49c5.52-5.15,13.15-5.84,19.44-1.76c3.74,2.42,8.11,2.59,11.98,0.44
			c4.31-2.39,6.94-7.15,6.86-12.42c-0.15-9.89,6.34-15.96,12.83-17.58c7.42-1.85,14.59,1.57,18.27,8.73
			c2.03,3.95,5.54,6.46,9.63,6.88c3.84,0.41,7.65-1.15,10.25-4.15c2.22-7.14,8.74-12.02,16.08-11.93
			c7.32-0.09,13.81,4.8,16.03,11.93c2.32,2.68,5.58,4.2,9.01,4.2c3.43,0,6.69-1.53,9-4.2c2.2-7.07,8.66-11.94,15.89-11.94
			c0.13,0,0.25,0,0.38,0c7.19,0,13.64,4.86,15.84,11.94c2.6,3.01,6.42,4.55,10.25,4.15c4.09-0.43,7.6-2.94,9.63-6.88
			c3.68-7.16,10.85-10.59,18.27-8.73c6.5,1.62,12.98,7.69,12.83,17.58c-0.08,5.27,2.55,10.03,6.86,12.42
			c3.87,2.14,8.23,1.98,11.98-0.44c6.3-4.08,13.93-3.39,19.44,1.76c5.21,4.86,8.27,13.7,3.4,22.49c-2.52,4.55-2.43,10.14,0.25,14.59
			c2.39,3.98,6.24,6.23,10.62,6.14c7.56-0.09,13.9,4.77,16.12,12.5c1.96,6.83,0.33,15.89-7.73,20.73
			c-4.06,2.43-6.48,6.91-6.48,11.97c0,5.06,2.42,9.53,6.48,11.97l0,0c8.06,4.84,9.69,13.9,7.73,20.73
			c-2.22,7.73-8.56,12.64-16.12,12.5c-4.34-0.06-8.23,2.16-10.62,6.14c-2.68,4.45-2.77,10.04-0.25,14.59
			c4.88,8.79,1.81,17.63-3.4,22.49c-5.52,5.15-13.15,5.84-19.44,1.76c-3.74-2.42-8.11-2.59-11.98-0.44
			c-4.31,2.39-6.94,7.14-6.86,12.42c0.15,9.89-6.34,15.96-12.83,17.58c-7.43,1.86-14.59-1.57-18.27-8.73
			c-2.03-3.95-5.54-6.45-9.63-6.88c-3.85-0.4-7.65,1.15-10.25,4.15c-2.22,7.14-8.74,11.98-16.08,11.94
			c-7.26,0.05-13.81-4.8-16.03-11.94c-2.32-2.68-5.58-4.2-9.01-4.2c-3.43,0-6.69,1.53-9.01,4.2c-2.2,7.07-8.66,11.94-15.89,11.94
			c-0.13,0-0.25,0-0.38,0c-7.19,0-13.64-4.86-15.84-11.94c-2.6-3.01-6.41-4.55-10.25-4.15c-4.09,0.43-7.6,2.94-9.63,6.88
			C526.5,463.27,521.13,466.63,515.21,466.63z M485.93,430.55c2.6,0,5.2,0.66,7.61,2c5.64,3.12,9.08,9.28,8.97,16.07
			c-0.12,7.65,4.8,12.31,9.73,13.54c4.38,1.1,10.26-0.07,13.63-6.63c2.67-5.2,7.36-8.51,12.85-9.09c5.36-0.56,10.63,1.66,14.11,5.94
			l0.27,0.33l0.11,0.41c1.58,5.59,6.57,9.48,12.22,9.39c5.64,0.11,10.68-3.79,12.27-9.39l0.11-0.41l0.27-0.33
			c3.11-3.82,7.64-6.02,12.44-6.02c4.8,0,9.33,2.19,12.44,6.02l0.27,0.33l0.11,0.41c1.58,5.59,6.58,9.44,12.22,9.39
			c5.71,0.11,10.68-3.79,12.27-9.39l0.11-0.41l0.27-0.33c3.48-4.28,8.76-6.51,14.11-5.94c5.49,0.57,10.18,3.89,12.85,9.09
			c3.37,6.56,9.25,7.73,13.63,6.63c4.93-1.23,9.85-5.9,9.73-13.54c-0.1-6.79,3.34-12.94,8.97-16.07c5.16-2.86,11.21-2.64,16.19,0.59
			c5.66,3.66,11.16,1.72,14.42-1.32c4.04-3.77,6.41-10.65,2.61-17.5c-3.23-5.82-3.11-12.98,0.32-18.69
			c3.12-5.19,8.48-8.23,14.21-8.13c6.85,0.15,10.76-4.84,12.11-9.53c1.53-5.33,0.3-12.36-5.9-16.08c-5.3-3.18-8.47-8.97-8.47-15.48
			c0-6.51,3.17-12.3,8.47-15.48c6.19-3.72,7.43-10.76,5.9-16.08c-1.33-4.63-5.14-9.54-11.85-9.54c-0.08,0-0.17,0-0.25,0
			c-5.76,0.08-11.09-2.94-14.21-8.13c-3.43-5.71-3.55-12.87-0.32-18.69c3.8-6.85,1.43-13.73-2.61-17.5
			c-3.26-3.04-8.76-4.99-14.42-1.32c-4.98,3.23-11.03,3.45-16.19,0.59c-5.64-3.12-9.08-9.28-8.98-16.07
			c0.12-7.65-4.8-12.31-9.73-13.54c-4.38-1.1-10.26,0.07-13.63,6.63c-2.67,5.2-7.36,8.51-12.85,9.09
			c-5.35,0.56-10.63-1.66-14.11-5.95l-0.27-0.33l-0.12-0.41c-1.59-5.59-6.61-9.49-12.22-9.39c-5.64-0.12-10.68,3.79-12.27,9.39
			l-0.11,0.41l-0.27,0.33c-3.11,3.82-7.64,6.02-12.44,6.02c-4.8,0-9.33-2.19-12.44-6.02l-0.27-0.33l-0.11-0.41
			c-1.58-5.59-6.67-9.43-12.22-9.39c-5.7-0.12-10.68,3.79-12.27,9.39l-0.11,0.41l-0.27,0.33c-3.48,4.28-8.77,6.51-14.11,5.95
			c-5.49-0.57-10.18-3.89-12.85-9.09c-3.37-6.56-9.25-7.73-13.63-6.63c-4.93,1.23-9.85,5.9-9.73,13.54
			c0.1,6.79-3.34,12.95-8.98,16.07c-5.16,2.86-11.21,2.64-16.19-0.59c-5.66-3.67-11.16-1.72-14.42,1.32
			c-4.04,3.77-6.41,10.65-2.61,17.5c3.23,5.82,3.11,12.99-0.32,18.69c-3.12,5.19-8.47,8.22-14.21,8.13c-0.08,0-0.17,0-0.25,0
			c-6.72,0-10.53,4.9-11.86,9.54c-1.53,5.33-0.3,12.36,5.9,16.08c5.3,3.18,8.47,8.97,8.47,15.48c0,6.51-3.17,12.3-8.47,15.48
			c-6.19,3.72-7.43,10.76-5.9,16.08c1.33,4.63,5.14,9.54,11.85,9.54c0.08,0,0.17,0,0.25,0c5.81-0.12,11.09,2.94,14.22,8.13
			c3.43,5.7,3.55,12.87,0.32,18.69c-3.8,6.85-1.43,13.73,2.61,17.5c3.26,3.04,8.76,4.99,14.42,1.32
			C480,431.41,482.96,430.55,485.93,430.55z"/>
	</g>
	<g>
		<g>
			<g>
				<polygon class="st2" points="577.83,419.16 522.8,364.13 544.95,341.98 579.61,344.23 592.53,331.3 592.53,294.39 
					613.25,273.68 668.28,328.71 647.57,349.43 610.79,349.16 597.87,362.08 599.78,397.21 				"/>
				<path class="st1" d="M668.28,328.71l-20.72,20.72l-36.78-0.27l-12.92,12.92l1.91,35.14l-21.95,21.95l-55.03-55.03l22.15-22.15
					l34.65,2.25l12.92-12.92l0.01-36.91l20.72-20.72L668.28,328.71 M673.1,323.89l-55.03-55.03c-2.66-2.66-6.98-2.66-9.64,0
					l-20.72,20.72c-1.28,1.28-2,3.01-2,4.82l-0.01,34.09l-8.74,8.74l-31.58-2.05c-1.96-0.13-3.87,0.6-5.26,1.98l-22.15,22.15
					c-2.66,2.66-2.66,6.98,0,9.64l55.03,55.03c2.66,2.66,6.98,2.66,9.64,0l21.95-21.95c1.37-1.37,2.09-3.26,1.99-5.19l-1.75-32.1
					l8.75-8.75l33.93,0.25c1.83,0.01,3.58-0.71,4.87-2l20.72-20.72C675.76,330.87,675.76,326.55,673.1,323.89L673.1,323.89z"/>
			</g>
			<g>
				<polygon class="st1" points="604.64,355.31 597.87,362.08 599.78,397.21 577.83,419.16 522.8,364.13 544.95,341.98 
					579.61,344.23 586.37,337.46 				"/>
				<path class="st2" d="M601.41,355.33l-5.14,5.14c-0.46,0.46-0.7,1.09-0.66,1.73l1.86,34.12l-19.62,19.62l-51.82-51.82
					l19.82-19.82l33.63,2.18c0.65,0.04,1.29-0.2,1.75-0.66l5.18-5.18L601.41,355.33 M604.64,355.31l-18.26-17.85l-6.77,6.77
					l-34.65-2.25l-22.15,22.15l55.03,55.03l21.95-21.95l-1.91-35.14L604.64,355.31L604.64,355.31z"/>
			</g>
		</g>
		<path class="st1" d="M588.36,260.29l0.05-3.72c-6.39,0.5-12.73,1.68-18.85,3.52l1.01,3.56c-6,1.81-11.72,4.27-17.1,7.27
			l-1.58-3.39c-5.58,3.1-10.86,6.8-15.68,11.02l2.48,2.8c-4.67,4.09-8.91,8.65-12.61,13.64l-2.88-2.37
			c-3.83,5.14-7.11,10.69-9.75,16.51l3.44,1.43c-2.49,5.45-4.44,11.2-5.76,17.18l-3.71-0.4c3.01,8.6,3.76,9.73,9.01,19.05l0,0
			c0-43.61,35.48-79.1,79.1-79.1v-7.35C593.12,259.97,590.73,260.1,588.36,260.29z"/>
		<path class="st1" d="M602.72,432.55l-0.05,3.72c6.39-0.5,12.73-1.68,18.85-3.52l-1.01-3.56c6-1.81,11.72-4.27,17.1-7.27l1.58,3.39
			c5.58-3.1,10.86-6.8,15.68-11.02l-2.48-2.8c4.67-4.09,8.91-8.65,12.61-13.64l2.88,2.37c3.83-5.14,7.11-10.69,9.75-16.51
			l-3.44-1.43c2.49-5.45,4.44-11.2,5.76-17.18l3.71,0.4c-3.01-8.6-3.76-9.73-9.01-19.05l0,0c0,43.61-35.48,79.1-79.1,79.1l0,7.35
			C597.96,432.87,600.35,432.74,602.72,432.55z"/>
	</g>
</g>
<g>
	<path d="M761.64,669.55L761.64,669.55c-9.97-5.98-9.97-21.47,0-27.45l0,0c13.22-7.94,7.82-29.69-7.3-29.42h0
		c-11.4,0.2-18.56-13.21-12.7-23.77v0c7.78-14.01-6.96-29.94-19.93-21.54l0,0c-9.78,6.34-22.19-1.41-22-13.73v0
		c0.25-16.34-19.89-22.17-27.23-7.88l0,0c-5,9.73-17.16,10.64-23.55,2.78c-1.96-6.93-8.07-10.95-14.21-10.88
		c-6.14-0.07-12.25,3.95-14.21,10.88c-5.71,7.01-15.99,7.01-21.7,0c-1.96-6.93-8.07-10.95-14.21-10.88
		c-6.14-0.07-12.25,3.95-14.21,10.88c-6.39,7.85-18.55,6.95-23.55-2.78l0,0c-7.34-14.28-27.48-8.45-27.23,7.88v0
		c0.19,12.32-12.22,20.06-22,13.73l0,0c-12.97-8.4-27.71,7.53-19.93,21.54v0c5.86,10.56-1.3,23.98-12.7,23.77h0
		c-15.12-0.27-20.52,21.49-7.3,29.42l0,0c9.97,5.98,9.97,21.47,0,27.45h0c-13.22,7.94-7.82,29.69,7.3,29.42h0
		c11.4-0.2,18.56,13.21,12.7,23.77v0c-7.78,14.01,6.96,29.94,19.93,21.54h0c9.78-6.34,22.19,1.41,22,13.73v0
		c-0.25,16.34,19.89,22.17,27.23,7.88l0,0c5-9.73,17.16-10.64,23.55-2.78c1.96,6.93,8.07,10.95,14.21,10.88
		c6.14,0.07,12.25-3.95,14.21-10.88c5.71-7.01,15.99-7.01,21.7,0c1.96,6.93,8.07,10.95,14.21,10.88
		c6.14,0.07,12.25-3.95,14.21-10.88c6.39-7.85,18.55-6.95,23.55,2.78l0,0c7.34,14.28,27.48,8.45,27.23-7.88v0
		c-0.19-12.32,12.22-20.06,22-13.73h0c12.97,8.4,27.71-7.53,19.93-21.54v0c-5.86-10.56,1.3-23.98,12.7-23.77h0
		C769.47,699.24,774.86,677.48,761.64,669.55z"/>
	<g>
		<path class="st4" d="M742.51,643.58L742.51,643.58c-9.97-5.98-9.97-21.47,0-27.45l0,0c13.22-7.93,7.82-29.69-7.3-29.42h0
			c-11.4,0.2-18.56-13.21-12.7-23.77v0c7.78-14.01-6.96-29.94-19.93-21.54l0,0c-9.78,6.34-22.19-1.41-22-13.73v0
			c0.25-16.34-19.89-22.17-27.23-7.88l0,0c-5,9.73-17.16,10.64-23.55,2.78c-1.96-6.93-8.07-10.95-14.21-10.88
			c-6.14-0.07-12.25,3.95-14.21,10.88c-5.71,7.01-15.99,7.01-21.7,0c-1.96-6.93-8.07-10.95-14.21-10.88
			c-6.14-0.07-12.25,3.95-14.21,10.88c-6.39,7.85-18.55,6.95-23.55-2.78l0,0c-7.34-14.28-27.48-8.45-27.23,7.88v0
			c0.19,12.32-12.22,20.06-22,13.73l0,0c-12.97-8.4-27.71,7.53-19.93,21.54v0c5.86,10.56-1.3,23.98-12.7,23.77h0
			c-15.12-0.27-20.52,21.49-7.3,29.42l0,0c9.97,5.98,9.97,21.47,0,27.45h0c-13.22,7.94-7.82,29.69,7.3,29.42h0
			c11.4-0.2,18.56,13.21,12.7,23.77v0c-7.78,14.01,6.96,29.94,19.93,21.54h0c9.78-6.34,22.19,1.41,22,13.73v0
			c-0.25,16.34,19.89,22.17,27.23,7.88l0,0c5-9.73,17.16-10.64,23.55-2.78c1.96,6.93,8.07,10.95,14.21,10.88
			c6.14,0.07,12.25-3.95,14.21-10.88c5.71-7.01,15.99-7.01,21.7,0c1.96,6.93,8.07,10.95,14.21,10.88
			c6.14,0.07,12.25-3.95,14.21-10.88c6.39-7.85,18.55-6.95,23.55,2.78l0,0c7.34,14.28,27.48,8.45,27.23-7.88v0
			c-0.19-12.32,12.22-20.06,22-13.73h0c12.97,8.4,27.71-7.53,19.93-21.54v0c-5.86-10.56,1.3-23.98,12.7-23.77h0
			C750.34,673.27,755.73,651.52,742.51,643.58z"/>
		<path d="M515.21,750.09c-1.3,0-2.63-0.16-3.97-0.5c-6.5-1.62-12.98-7.69-12.83-17.58c0.08-5.27-2.55-10.03-6.86-12.42
			c-3.87-2.14-8.23-1.98-11.98,0.44c-6.29,4.08-13.93,3.39-19.44-1.76c-5.21-4.86-8.27-13.7-3.4-22.49
			c2.52-4.55,2.43-10.14-0.25-14.59c-2.39-3.98-6.25-6.21-10.62-6.14c-0.1,0-0.2,0-0.31,0c-7.44,0-13.63-4.88-15.81-12.51
			c-1.96-6.83-0.33-15.89,7.73-20.73c4.06-2.44,6.48-6.91,6.48-11.97c0-5.06-2.42-9.53-6.48-11.97c-8.06-4.84-9.69-13.9-7.73-20.73
			c2.19-7.63,8.37-12.51,15.81-12.51c0.18,0,0.35,0,0.53,0c4.27,0,8.05-2.23,10.4-6.14c2.68-4.45,2.77-10.04,0.25-14.59
			c-4.88-8.79-1.81-17.63,3.4-22.49c5.52-5.15,13.15-5.84,19.44-1.76c3.74,2.42,8.11,2.59,11.98,0.44
			c4.31-2.39,6.94-7.15,6.86-12.42c-0.15-9.89,6.34-15.96,12.83-17.58c7.42-1.85,14.59,1.57,18.27,8.73
			c2.03,3.95,5.54,6.46,9.63,6.88c3.84,0.41,7.65-1.15,10.25-4.15c2.22-7.14,8.74-12.02,16.08-11.93
			c7.32-0.09,13.81,4.8,16.03,11.93c2.32,2.68,5.58,4.2,9.01,4.2c3.43,0,6.69-1.53,9-4.2c2.2-7.07,8.66-11.94,15.89-11.94
			c0.13,0,0.25,0,0.38,0c7.19,0,13.64,4.86,15.84,11.94c2.6,3.01,6.42,4.55,10.25,4.15c4.09-0.43,7.6-2.94,9.63-6.88
			c3.68-7.16,10.85-10.59,18.27-8.73c6.5,1.62,12.98,7.69,12.83,17.58c-0.08,5.27,2.55,10.03,6.86,12.42
			c3.87,2.14,8.23,1.98,11.98-0.44c6.3-4.08,13.93-3.39,19.44,1.76c5.21,4.86,8.27,13.7,3.4,22.49c-2.52,4.55-2.43,10.14,0.25,14.59
			c2.39,3.98,6.24,6.23,10.62,6.14c7.56-0.09,13.9,4.77,16.12,12.5c1.96,6.83,0.33,15.89-7.73,20.73
			c-4.06,2.44-6.48,6.91-6.48,11.97c0,5.06,2.42,9.53,6.48,11.97l0,0c8.06,4.84,9.69,13.9,7.73,20.73
			c-2.22,7.73-8.56,12.64-16.12,12.5c-4.34-0.06-8.23,2.16-10.62,6.14c-2.68,4.45-2.77,10.04-0.25,14.59
			c4.88,8.79,1.81,17.63-3.4,22.49c-5.52,5.15-13.15,5.84-19.44,1.76c-3.74-2.42-8.11-2.59-11.98-0.44
			c-4.31,2.39-6.94,7.14-6.86,12.42c0.15,9.89-6.34,15.96-12.83,17.58c-7.43,1.86-14.59-1.57-18.27-8.73
			c-2.03-3.95-5.54-6.45-9.63-6.88c-3.85-0.4-7.65,1.15-10.25,4.15c-2.22,7.14-8.74,11.98-16.08,11.94
			c-7.26,0.05-13.81-4.8-16.03-11.94c-2.32-2.68-5.58-4.2-9.01-4.2c-3.43,0-6.69,1.53-9.01,4.2c-2.2,7.07-8.66,11.94-15.89,11.94
			c-0.13,0-0.25,0-0.38,0c-7.19,0-13.64-4.86-15.84-11.94c-2.6-3.01-6.41-4.55-10.25-4.15c-4.09,0.43-7.6,2.94-9.63,6.88
			C526.5,746.73,521.13,750.09,515.21,750.09z M485.93,714.01c2.6,0,5.2,0.66,7.61,2c5.64,3.12,9.08,9.28,8.97,16.07
			c-0.12,7.65,4.8,12.31,9.73,13.54c4.38,1.1,10.26-0.07,13.63-6.63c2.67-5.2,7.36-8.51,12.85-9.09c5.36-0.56,10.63,1.66,14.11,5.94
			l0.27,0.33l0.11,0.41c1.58,5.59,6.57,9.48,12.22,9.39c5.64,0.11,10.68-3.79,12.27-9.39l0.11-0.41l0.27-0.33
			c3.11-3.82,7.64-6.02,12.44-6.02c4.8,0,9.33,2.19,12.44,6.02l0.27,0.33l0.11,0.41c1.58,5.59,6.58,9.44,12.22,9.39
			c5.71,0.11,10.68-3.79,12.27-9.39l0.11-0.41l0.27-0.33c3.48-4.28,8.76-6.51,14.11-5.94c5.49,0.57,10.18,3.89,12.85,9.09
			c3.37,6.56,9.25,7.73,13.63,6.63c4.93-1.23,9.85-5.9,9.73-13.54c-0.1-6.79,3.34-12.94,8.97-16.07c5.16-2.86,11.21-2.64,16.19,0.59
			c5.66,3.66,11.16,1.72,14.42-1.32c4.04-3.77,6.41-10.65,2.61-17.5c-3.23-5.82-3.11-12.98,0.32-18.69
			c3.12-5.19,8.48-8.23,14.21-8.13c6.85,0.15,10.76-4.84,12.11-9.53c1.53-5.33,0.3-12.36-5.9-16.08c-5.3-3.18-8.47-8.97-8.47-15.48
			c0-6.51,3.17-12.3,8.47-15.48c6.19-3.72,7.43-10.76,5.9-16.08c-1.33-4.63-5.14-9.54-11.85-9.54c-0.08,0-0.17,0-0.25,0
			c-5.76,0.08-11.09-2.94-14.21-8.13c-3.43-5.71-3.55-12.87-0.32-18.69c3.8-6.85,1.43-13.73-2.61-17.5
			c-3.26-3.04-8.76-4.99-14.42-1.32c-4.98,3.23-11.03,3.45-16.19,0.59c-5.64-3.12-9.08-9.28-8.98-16.07
			c0.12-7.65-4.8-12.31-9.73-13.54c-4.38-1.1-10.26,0.07-13.63,6.63c-2.67,5.2-7.36,8.51-12.85,9.09
			c-5.35,0.56-10.63-1.66-14.11-5.95l-0.27-0.33l-0.12-0.41c-1.59-5.59-6.61-9.49-12.22-9.39c-5.64-0.12-10.68,3.79-12.27,9.39
			l-0.11,0.41l-0.27,0.33c-3.11,3.82-7.64,6.02-12.44,6.02c-4.8,0-9.33-2.19-12.44-6.02l-0.27-0.33l-0.11-0.41
			c-1.58-5.59-6.67-9.43-12.22-9.39c-5.7-0.12-10.68,3.79-12.27,9.39l-0.11,0.41l-0.27,0.33c-3.48,4.28-8.77,6.51-14.11,5.95
			c-5.49-0.57-10.18-3.89-12.85-9.09c-3.37-6.56-9.25-7.73-13.63-6.63c-4.93,1.23-9.85,5.9-9.73,13.54
			c0.1,6.79-3.34,12.95-8.98,16.07c-5.16,2.86-11.21,2.64-16.19-0.59c-5.66-3.67-11.16-1.72-14.42,1.32
			c-4.04,3.77-6.41,10.65-2.61,17.5c3.23,5.82,3.11,12.99-0.32,18.69c-3.12,5.19-8.47,8.22-14.21,8.13c-0.08,0-0.17,0-0.25,0
			c-6.72,0-10.53,4.9-11.86,9.54c-1.53,5.33-0.3,12.36,5.9,16.08c5.3,3.18,8.47,8.97,8.47,15.48c0,6.51-3.17,12.3-8.47,15.48
			c-6.19,3.72-7.43,10.76-5.9,16.08c1.33,4.63,5.14,9.54,11.85,9.54c0.08,0,0.17,0,0.25,0c5.81-0.12,11.09,2.94,14.22,8.13
			c3.43,5.7,3.55,12.87,0.32,18.69c-3.8,6.85-1.43,13.73,2.61,17.5c3.26,3.04,8.76,4.99,14.42,1.32
			C480,714.88,482.96,714.01,485.93,714.01z"/>
	</g>
	<g>
		<g>
			<g>
				<path class="st2" d="M535.24,567.16l-4.56,4.56c-18.89,18.89-15.42,52.98,7.75,76.14l22.56,22.56l19.39,19.39l7.83,7.83
					c8.24,8.24,20.36,9.47,27.07,2.76l0,0c6.71-6.71,5.48-18.84-2.76-27.07c8.24,8.24,20.36,9.47,27.07,2.76l0,0
					c6.72-6.71,5.48-18.84-2.76-27.07c8.24,8.24,20.36,9.47,27.07,2.76l0,0c6.71-6.71,5.48-18.84-2.76-27.07l-7.83-7.83
					l-19.39-19.39l-22.56-22.56C588.21,551.75,554.12,548.28,535.24,567.16z"/>
				<path d="M604.26,707.43c-6.19,0-12.8-2.68-17.99-7.86l-49.77-49.77c-11.65-11.65-18.9-26.33-20.43-41.33
					c-1.55-15.21,2.95-28.95,12.68-38.67l4.56-4.56c19.92-19.92,55.81-16.44,80.01,7.75l49.77,49.77
					c9.29,9.29,10.52,23.17,2.75,30.94c-3.84,3.84-9.23,5.62-15.17,5.02c-1.8-0.18-3.58-0.58-5.31-1.17
					c2.52,7.43,1.34,15.3-3.83,20.47c-5.18,5.17-13.06,6.35-20.5,3.82c2.54,7.43,1.36,15.32-3.82,20.5
					C613.78,705.76,609.15,707.43,604.26,707.43z M537.17,569.1l-4.56,4.56c-8.54,8.54-12.49,20.71-11.11,34.26
					c1.4,13.76,8.1,27.26,18.86,38.02l49.77,49.77c7.16,7.16,17.57,8.39,23.21,2.76c5.64-5.64,4.4-16.05-2.76-23.21l3.87-3.87
					c7.16,7.16,17.57,8.39,23.21,2.75c5.64-5.64,4.4-16.05-2.76-23.21l3.87-3.87c3.54,3.54,7.96,5.74,12.45,6.2
					c4.28,0.44,8.1-0.79,10.76-3.44c5.64-5.64,4.4-16.05-2.75-23.21l-49.77-49.77C587.38,554.78,554.96,551.31,537.17,569.1
					L537.17,569.1z"/>
			</g>
			<g>
				<path class="st2" d="M647.39,628.48c16.28-16.28,16.28-42.68,0-58.96l0,0c-16.28-16.28-42.68-16.28-58.96,0l-20.05,20.05
					l-9.43,9.43l-5.5,5.5c-5.79,5.79-5.79,15.17,0,20.96l0,0c5.79,5.79,15.17,5.79,20.96,0l5.5-5.5l38,38L647.39,628.48z"/>
				<path d="M617.91,661.82l-38-38l-3.57,3.57c-3.32,3.32-7.72,5.14-12.41,5.14c-4.69,0-9.1-1.83-12.41-5.14
					c-3.32-3.32-5.14-7.72-5.14-12.41c0-4.69,1.83-9.1,5.14-12.41l34.98-34.98c8.39-8.39,19.55-13.01,31.41-13.01
					c11.87,0,23.02,4.62,31.41,13.01c17.32,17.32,17.32,45.5,0,62.82L617.91,661.82z M579.91,616.09l38,38l27.55-27.55
					c7.36-7.36,11.41-17.14,11.41-27.55c0-10.41-4.05-20.19-11.41-27.55c-7.36-7.36-17.14-11.41-27.55-11.41
					c-10.41,0-20.19,4.05-27.55,11.41l-34.98,34.98c-2.28,2.28-3.54,5.32-3.54,8.55c0,3.23,1.26,6.27,3.54,8.55
					c2.28,2.28,5.32,3.54,8.55,3.54c3.23,0,6.26-1.26,8.55-3.54L579.91,616.09z"/>
			</g>
			<g>
				<path class="st2" d="M550.28,633.66l-13.4-13.4c-0.41-0.41-1.08-0.41-1.49,0l-25.12,25.12c-0.41,0.41-0.41,1.08,0,1.49
					l13.4,13.4c0.41,0.41,1.08,0.41,1.49,0l25.12-25.12C550.7,634.74,550.7,634.07,550.28,633.66z"/>
				<path d="M524.42,661.31c-2.3,0-4.46-0.9-6.09-2.52l-6.58-6.58c-1.63-1.63-2.52-3.79-2.52-6.09c0-2.3,0.9-4.46,2.52-6.09
					l18.3-18.3c3.36-3.36,8.82-3.36,12.18,0l6.58,6.58c1.63,1.63,2.52,3.79,2.52,6.09c0,2.3-0.9,4.46-2.52,6.09l-18.3,18.3
					C528.88,660.42,526.72,661.31,524.42,661.31z M536.14,624.68c-0.8,0-1.61,0.31-2.22,0.92l-18.3,18.3
					c-0.59,0.59-0.92,1.38-0.92,2.22c0,0.84,0.33,1.63,0.92,2.22l6.58,6.58c1.19,1.19,3.26,1.19,4.44,0l18.3-18.3
					c0.59-0.59,0.92-1.38,0.92-2.22c0-0.84-0.33-1.63-0.92-2.22v0l-6.58-6.58C537.75,624.99,536.95,624.68,536.14,624.68z"/>
			</g>
			<g>
				<path class="st2" d="M565.17,648.55l-13.4-13.4c-0.41-0.41-1.08-0.41-1.49,0l-25.12,25.12c-0.41,0.41-0.41,1.08,0,1.49
					l13.4,13.4c0.41,0.41,1.08,0.41,1.49,0l25.12-25.12C565.58,649.62,565.58,648.96,565.17,648.55z"/>
				<path d="M539.3,676.2c-2.3,0-4.46-0.9-6.09-2.52l-6.58-6.58c-3.36-3.36-3.36-8.82,0-12.18l18.3-18.3
					c3.36-3.36,8.82-3.36,12.18,0l6.58,6.58c3.35,3.36,3.35,8.82,0,12.18l-18.3,18.3C543.77,675.3,541.6,676.2,539.3,676.2z
					 M551.03,639.57c-0.8,0-1.61,0.31-2.22,0.92l-18.3,18.3c-1.23,1.23-1.23,3.22,0,4.45l6.58,6.57c1.19,1.19,3.26,1.19,4.45,0
					l18.3-18.3c1.23-1.23,1.23-3.22,0-4.45l-6.57-6.58C552.64,639.88,551.83,639.57,551.03,639.57z"/>
			</g>
			<g>
				<path class="st2" d="M580.06,663.43l-13.4-13.4c-0.41-0.41-1.08-0.41-1.49,0l-25.12,25.12c-0.41,0.41-0.41,1.08,0,1.49
					l13.4,13.4c0.41,0.41,1.08,0.41,1.49,0l25.12-25.12C580.47,664.51,580.47,663.84,580.06,663.43z"/>
				<path d="M554.19,691.08c-2.2,0-4.41-0.84-6.09-2.52l-6.58-6.58c-1.63-1.63-2.52-3.79-2.52-6.09c0-2.3,0.9-4.46,2.52-6.09
					l18.3-18.3c1.63-1.63,3.79-2.52,6.09-2.52c2.3,0,4.46,0.9,6.09,2.52l6.57,6.58c1.63,1.63,2.52,3.79,2.52,6.09
					c0,2.3-0.9,4.46-2.52,6.09l-18.3,18.3C558.6,690.24,556.4,691.08,554.19,691.08z M565.92,654.46c-0.84,0-1.63,0.33-2.22,0.92
					l-18.3,18.3c-0.59,0.59-0.92,1.38-0.92,2.22c0,0.84,0.33,1.63,0.92,2.22l6.58,6.58c1.23,1.23,3.22,1.23,4.45,0l18.3-18.3
					c0.59-0.59,0.92-1.38,0.92-2.22c0-0.84-0.33-1.63-0.92-2.22v0l-6.58-6.58C567.54,654.79,566.76,654.46,565.92,654.46z"/>
			</g>
		</g>
		<g>
			<path class="st2" d="M594.95,678.32l-13.4-13.4c-0.41-0.41-1.08-0.41-1.49,0l-25.12,25.12c-0.41,0.41-0.41,1.08,0,1.49l13.4,13.4
				c0.41,0.41,1.08,0.41,1.49,0l25.12-25.12C595.36,679.4,595.36,678.73,594.95,678.32z"/>
			<path d="M569.08,705.97c-2.2,0-4.41-0.84-6.09-2.52l-6.58-6.58c-1.63-1.63-2.52-3.79-2.52-6.09s0.9-4.46,2.52-6.09l18.3-18.3
				c3.36-3.36,8.82-3.36,12.18,0l6.58,6.58c3.36,3.36,3.36,8.82,0,12.18l-18.3,18.3C573.49,705.13,571.28,705.97,569.08,705.97z
				 M580.8,669.35c-0.8,0-1.61,0.31-2.22,0.92l-18.3,18.3c-0.59,0.59-0.92,1.38-0.92,2.22s0.33,1.63,0.92,2.22l6.58,6.58
				c1.23,1.23,3.22,1.23,4.45,0l18.3-18.3c1.23-1.23,1.23-3.22,0-4.45l-6.58-6.58C582.41,669.65,581.61,669.35,580.8,669.35z"/>
		</g>
	</g>
</g>
</svg>
