<?xml version="1.0" encoding="utf-8"?>
<!-- Generator: Adobe Illustrator 25.2.1, SVG Export Plug-In . SVG Version: 6.00 Build 0)  -->
<svg version="1.1" id="Calque_1" xmlns="http://www.w3.org/2000/svg" xmlns:xlink="http://www.w3.org/1999/xlink" x="0px" y="0px"
	 viewBox="0 0 70 70" style="enable-background:new 0 0 70 70;" xml:space="preserve">
<style type="text/css">
	.st0{fill:#FFFFFF;}
</style>
<g>
	<g>
		<path d="M44.26,2.99L41.7,5.82c-1.67-0.3-3.39-0.47-5.14-0.47s-3.47,0.17-5.14,0.47l-2.56-2.83C25.65-0.57,19.76,1.88,20,6.66
			l0.19,3.81c-2.84,1.97-5.3,4.43-7.27,7.27l-3.81-0.19c-4.78-0.24-7.23,5.65-3.67,8.86l2.83,2.56c-0.3,1.67-0.47,3.39-0.47,5.14
			c0,1.76,0.17,3.47,0.47,5.14l-2.83,2.56c-3.56,3.21-1.11,9.11,3.67,8.86l3.81-0.19c1.97,2.84,4.43,5.3,7.27,7.27L20,61.55
			c-0.24,4.78,5.65,7.23,8.86,3.67l2.56-2.83c1.67,0.3,3.39,0.47,5.14,0.47s3.47-0.17,5.14-0.47l2.56,2.83
			c3.21,3.56,9.11,1.11,8.86-3.67l-0.19-3.81c2.84-1.97,5.3-4.43,7.27-7.27l3.81,0.19c4.78,0.24,7.23-5.65,3.67-8.86l-2.83-2.56
			c0.3-1.67,0.47-3.39,0.47-5.14c0-1.76-0.17-3.47-0.47-5.14l2.83-2.56c3.56-3.21,1.11-9.11-3.67-8.86l-3.81,0.19
			c-1.97-2.84-4.43-5.3-7.27-7.27l0.19-3.81C53.37,1.88,47.47-0.57,44.26,2.99z"/>
		<path d="M6.82,22.68c0-0.58,0.25-1.16,0.67-1.55c0.39-0.37,0.89-0.54,1.47-0.51l3.81,0.19l1.7,0.09l0.97-1.4
			c1.77-2.55,3.95-4.73,6.5-6.5l1.4-0.97l-0.09-1.7L23.07,6.5c0-0.04,0-0.09,0-0.13c0-1.26,1-1.75,1.3-1.86
			c0.39-0.15,1.38-0.4,2.22,0.53l2.56,2.83l1.14,1.27l1.68-0.3c1.54-0.28,3.08-0.42,4.6-0.42s3.06,0.14,4.6,0.42l1.68,0.3l1.14-1.27
			l2.56-2.83c0.84-0.93,1.83-0.68,2.22-0.53c0.31,0.12,1.3,0.6,1.3,1.86c0,0.04,0,0.09,0,0.13l-0.19,3.81l-0.09,1.7l1.4,0.97
			c2.55,1.77,4.73,3.95,6.5,6.5l0.97,1.4l1.7-0.09l3.81-0.19c0.59-0.03,1.08,0.14,1.47,0.51c0.42,0.4,0.67,0.98,0.67,1.55
			c0,0.56-0.23,1.05-0.68,1.46l-2.83,2.56l-1.27,1.14l0.3,1.68c0.28,1.54,0.42,3.08,0.42,4.6c0,1.51-0.14,3.06-0.42,4.6l-0.3,1.68
			l1.27,1.14l2.83,2.56c0.45,0.41,0.68,0.9,0.68,1.46c0,0.58-0.25,1.16-0.67,1.55c-0.39,0.37-0.89,0.54-1.47,0.51l-3.81-0.19
			l-1.7-0.09l-0.97,1.4c-1.77,2.55-3.95,4.73-6.5,6.5l-1.4,0.97l0.09,1.7l0.19,3.81c0,0.04,0,0.09,0,0.13c0,1.26-1,1.75-1.3,1.86
			c-0.39,0.15-1.38,0.4-2.22-0.53l-2.56-2.83l-1.14-1.27l-1.68,0.3c-1.54,0.28-3.08,0.42-4.6,0.42s-3.06-0.14-4.6-0.42l-1.68-0.3
			l-1.14,1.27l-2.56,2.83c-0.84,0.93-1.83,0.68-2.22,0.53c-0.31-0.12-1.3-0.6-1.3-1.86c0-0.04,0-0.09,0-0.13l0.19-3.81l0.09-1.7
			l-1.4-0.97c-2.55-1.77-4.73-3.95-6.5-6.5l-0.97-1.4l-1.7,0.09L8.96,47.6c-0.59,0.03-1.08-0.14-1.47-0.51
			c-0.42-0.4-0.67-0.98-0.67-1.55c0-0.56,0.23-1.05,0.68-1.46l2.83-2.56l1.27-1.14l-0.3-1.68c-0.28-1.54-0.42-3.08-0.42-4.6
			c0-1.51,0.14-3.06,0.42-4.6l0.3-1.68l-1.27-1.14L7.5,24.13C7.05,23.73,6.82,23.24,6.82,22.68 M3.75,22.68
			c0,1.33,0.52,2.67,1.69,3.73l2.83,2.56c-0.3,1.67-0.47,3.39-0.47,5.14c0,1.76,0.17,3.47,0.47,5.14l-2.83,2.56
			c-1.17,1.06-1.69,2.41-1.69,3.73c0,2.7,2.15,5.29,5.36,5.13l3.81-0.19c1.97,2.84,4.43,5.3,7.27,7.27L20,61.55
			c0,0.1-0.01,0.19-0.01,0.29c0,4.59,5.72,6.87,8.87,3.38l2.56-2.83c1.67,0.3,3.39,0.47,5.14,0.47c1.76,0,3.47-0.17,5.14-0.47
			l2.56,2.83c3.14,3.48,8.87,1.21,8.87-3.38c0-0.09,0-0.19-0.01-0.29l-0.19-3.81c2.84-1.97,5.3-4.43,7.27-7.27l3.81,0.19
			c3.21,0.16,5.36-2.43,5.36-5.13c0-1.33-0.52-2.67-1.69-3.73l-2.83-2.56c0.3-1.67,0.47-3.39,0.47-5.14c0-1.76-0.17-3.47-0.47-5.14
			l2.83-2.56c1.17-1.06,1.69-2.41,1.69-3.73c0-2.7-2.15-5.29-5.36-5.13l-3.81,0.19c-1.97-2.84-4.43-5.3-7.27-7.27l0.19-3.81
			c0-0.1,0.01-0.19,0.01-0.29c0-4.59-5.72-6.87-8.87-3.38L41.7,5.82c-1.67-0.3-3.39-0.47-5.14-0.47c-1.76,0-3.47,0.17-5.14,0.47
			l-2.56-2.83c-3.14-3.48-8.87-1.21-8.87,3.38c0,0.09,0,0.19,0.01,0.29l0.19,3.81c-2.84,1.97-5.3,4.43-7.27,7.27l-3.81-0.19
			C5.91,17.38,3.75,19.98,3.75,22.68L3.75,22.68z"/>
	</g>
	<g>
		<path class="st0" d="M41.14,4.77l-2.56,2.83c-1.67-0.3-3.39-0.47-5.14-0.47c-1.76,0-3.47,0.17-5.14,0.47l-2.56-2.83
			c-3.21-3.56-9.11-1.11-8.86,3.67l0.19,3.81c-2.84,1.97-5.3,4.43-7.27,7.27l-3.81-0.19c-4.78-0.24-7.23,5.65-3.67,8.86l2.83,2.56
			c-0.3,1.67-0.47,3.39-0.47,5.14s0.17,3.47,0.47,5.14l-2.83,2.56c-3.56,3.21-1.11,9.11,3.67,8.86l3.81-0.19
			c1.97,2.84,4.43,5.3,7.27,7.27l-0.19,3.81c-0.24,4.78,5.65,7.23,8.86,3.67l2.56-2.83c1.67,0.3,3.39,0.47,5.14,0.47
			c1.76,0,3.47-0.17,5.14-0.47l2.56,2.83c3.21,3.56,9.11,1.11,8.86-3.67l-0.19-3.81c2.84-1.97,5.3-4.43,7.27-7.27l3.81,0.19
			c4.78,0.24,7.23-5.65,3.67-8.86l-2.83-2.56c0.3-1.67,0.47-3.39,0.47-5.14s-0.17-3.47-0.47-5.14l2.83-2.56
			c3.56-3.21,1.11-9.11-3.67-8.86l-3.81,0.19c-1.97-2.84-4.43-5.3-7.27-7.27L50,8.45C50.24,3.66,44.35,1.22,41.14,4.77z"/>
		<path d="M3.7,24.46c0-0.58,0.25-1.16,0.67-1.55c0.39-0.37,0.89-0.54,1.47-0.51l3.81,0.19l1.7,0.09l0.97-1.4
			c1.77-2.55,3.95-4.73,6.5-6.5l1.4-0.97l-0.09-1.7l-0.19-3.81c0-0.04,0-0.09,0-0.13c0-1.26,1-1.75,1.3-1.86
			c0.39-0.15,1.38-0.4,2.22,0.53l2.56,2.83l1.14,1.27l1.68-0.3c1.54-0.28,3.09-0.42,4.6-0.42c1.51,0,3.06,0.14,4.6,0.42l1.68,0.3
			l1.14-1.27l2.56-2.83c0.84-0.93,1.83-0.68,2.22-0.53c0.31,0.12,1.3,0.6,1.3,1.86c0,0.04,0,0.09,0,0.13l-0.19,3.81l-0.09,1.7
			l1.4,0.97c2.55,1.77,4.73,3.95,6.5,6.5l0.97,1.4l1.7-0.09l3.81-0.19c0.59-0.03,1.08,0.14,1.47,0.51c0.42,0.4,0.67,0.98,0.67,1.55
			c0,0.56-0.23,1.05-0.68,1.46l-2.83,2.56l-1.27,1.14l0.3,1.68c0.28,1.54,0.42,3.08,0.42,4.6c0,1.51-0.14,3.06-0.42,4.6l-0.3,1.68
			l1.27,1.14l2.83,2.56c0.45,0.41,0.68,0.9,0.68,1.46c0,0.58-0.25,1.16-0.67,1.55c-0.39,0.37-0.89,0.54-1.47,0.51l-3.81-0.19
			l-1.7-0.09l-0.97,1.4c-1.77,2.55-3.95,4.73-6.5,6.5l-1.4,0.97l0.09,1.7l0.19,3.81c0,0.04,0,0.09,0,0.13c0,1.26-1,1.75-1.3,1.86
			c-0.39,0.15-1.38,0.4-2.22-0.53l-2.56-2.83l-1.14-1.27l-1.68,0.3c-1.54,0.28-3.08,0.42-4.6,0.42c-1.51,0-3.06-0.14-4.6-0.42
			l-1.68-0.3l-1.14,1.27l-2.56,2.83c-0.84,0.93-1.83,0.68-2.22,0.53c-0.31-0.12-1.3-0.6-1.3-1.86c0-0.04,0-0.09,0-0.13l0.19-3.81
			l0.09-1.7l-1.4-0.97c-2.55-1.77-4.73-3.95-6.5-6.5l-0.97-1.4l-1.7,0.09l-3.81,0.19c-0.59,0.03-1.08-0.14-1.47-0.51
			c-0.42-0.4-0.67-0.98-0.67-1.55c0-0.56,0.23-1.05,0.68-1.46l2.83-2.56l1.27-1.14l-0.3-1.68c-0.28-1.54-0.42-3.08-0.42-4.6
			c0-1.51,0.14-3.06,0.42-4.6l0.3-1.68l-1.27-1.14l-2.83-2.56C3.92,25.51,3.7,25.02,3.7,24.46 M0.63,24.46
			c0,1.33,0.52,2.67,1.69,3.73l2.83,2.56c-0.3,1.67-0.47,3.39-0.47,5.14c0,1.76,0.17,3.47,0.47,5.14l-2.83,2.56
			C1.15,44.65,0.63,46,0.63,47.32c0,2.7,2.15,5.29,5.36,5.13l3.81-0.19c1.97,2.84,4.43,5.3,7.27,7.27l-0.19,3.81
			c0,0.1-0.01,0.19-0.01,0.29c0,4.59,5.72,6.87,8.87,3.38l2.56-2.83c1.67,0.3,3.39,0.47,5.14,0.47c1.76,0,3.47-0.17,5.14-0.47
			l2.56,2.83c3.14,3.48,8.87,1.21,8.87-3.38c0-0.09,0-0.19-0.01-0.29l-0.19-3.81c2.84-1.97,5.3-4.43,7.27-7.27l3.81,0.19
			c3.21,0.16,5.36-2.43,5.36-5.13c0-1.33-0.52-2.67-1.69-3.73l-2.83-2.56c0.3-1.67,0.47-3.39,0.47-5.14c0-1.76-0.17-3.47-0.47-5.14
			l2.83-2.56c1.17-1.06,1.69-2.41,1.69-3.73c0-2.7-2.15-5.29-5.36-5.13l-3.81,0.19c-1.97-2.84-4.43-5.3-7.27-7.27L50,8.45
			c0-0.1,0.01-0.19,0.01-0.29c0-4.59-5.72-6.87-8.87-3.38l-2.56,2.83c-1.67-0.3-3.39-0.47-5.14-0.47c-1.76,0-3.47,0.17-5.14,0.47
			l-2.56-2.83c-3.14-3.48-8.87-1.21-8.87,3.38c0,0.09,0,0.19,0.01,0.29l0.19,3.81c-2.84,1.97-5.3,4.43-7.27,7.27l-3.81-0.19
			C2.78,19.17,0.63,21.77,0.63,24.46L0.63,24.46z"/>
	</g>
</g>
</svg>
