<?xml version="1.0" encoding="utf-8"?>
<!-- Generator: Adobe Illustrator 25.2.1, SVG Export Plug-In . SVG Version: 6.00 Build 0)  -->
<svg version="1.1" id="Calque_1" xmlns="http://www.w3.org/2000/svg" xmlns:xlink="http://www.w3.org/1999/xlink" x="0px" y="0px"
	 viewBox="0 0 70 170" style="enable-background:new 0 0 70 170;" xml:space="preserve">
<path d="M49.23,18.09v134.3c0,8.02-6.52,14.54-14.54,14.54h-2.23c-8.02,0-14.54-6.52-14.54-14.54V18.09
	c0-8.02,6.52-14.54,14.54-14.54h2.23C42.71,3.55,49.23,10.07,49.23,18.09z M20.99,152.39c0,6.33,5.15,11.47,11.47,11.47h2.23
	c6.33,0,11.47-5.15,11.47-11.47V18.09c0-6.33-5.15-11.47-11.47-11.47h-2.23c-6.33,0-11.47,5.15-11.47,11.47V152.39z"/>
<g>
	<path d="M25.17,6.07c1.26-0.63,2.68-0.99,4.19-0.99h9.32c5.23,0,9.46,4.24,9.46,9.46v141.38c0,3.9-2.36,7.25-5.74,8.7h0.05
		c4.85,0,8.78-3.93,8.78-8.78V11.85c0-4.85-3.93-8.78-8.78-8.78H31.77C29.14,3.07,26.78,4.24,25.17,6.07z"/>
</g>
</svg>
